%TF.GenerationSoftware,KiCad,Pcbnew,9.0.5*%
%TF.CreationDate,2025-10-28T13:43:02-04:00*%
%TF.ProjectId,USBC_I2C,55534243-5f49-4324-932e-6b696361645f,rev?*%
%TF.SameCoordinates,Original*%
%TF.FileFunction,Profile,NP*%
%FSLAX46Y46*%
G04 Gerber Fmt 4.6, Leading zero omitted, Abs format (unit mm)*
G04 Created by KiCad (PCBNEW 9.0.5) date 2025-10-28 13:43:02*
%MOMM*%
%LPD*%
G01*
G04 APERTURE LIST*
%TA.AperFunction,Profile*%
%ADD10C,0.050000*%
%TD*%
G04 APERTURE END LIST*
D10*
X99777900Y-58210000D02*
X93840000Y-58210000D01*
X92420000Y-59160000D02*
X93240000Y-59160000D01*
X101220000Y-59160000D02*
X100377868Y-59160000D01*
X93540000Y-58510000D02*
X93540000Y-58860000D01*
X93540000Y-58510000D02*
G75*
G02*
X93840000Y-58210000I300000J0D01*
G01*
X93540000Y-58860000D02*
G75*
G02*
X93240000Y-59160000I-300000J0D01*
G01*
X84820000Y-57460000D02*
G75*
G02*
X85120000Y-57160000I300000J0D01*
G01*
X99777868Y-58210000D02*
G75*
G02*
X100077900Y-58510000I32J-300000D01*
G01*
X109120000Y-60660000D02*
G75*
G02*
X108820000Y-60360000I0J300000D01*
G01*
X109120000Y-60660000D02*
X109520000Y-60660000D01*
X109520000Y-60660000D02*
G75*
G02*
X109820000Y-60960000I0J-300000D01*
G01*
X91820000Y-57160000D02*
G75*
G02*
X92120000Y-57460000I0J-300000D01*
G01*
X108820000Y-60360000D02*
X108820000Y-57460000D01*
X100077868Y-58510000D02*
X100077868Y-58860000D01*
X84820000Y-60360000D02*
G75*
G02*
X84520000Y-60660000I-300000J0D01*
G01*
X84120000Y-87160000D02*
X109520000Y-87160000D01*
X109820000Y-86860000D02*
X109820000Y-60960000D01*
X108520000Y-57160000D02*
X101820000Y-57160000D01*
X83824800Y-60955200D02*
X83820000Y-86868000D01*
X83824800Y-60955200D02*
G75*
G02*
X84124800Y-60655200I300000J0D01*
G01*
X92120000Y-58860000D02*
X92120000Y-57460000D01*
X84820000Y-57460000D02*
X84820000Y-60360000D01*
X109820000Y-86860000D02*
G75*
G02*
X109520000Y-87160000I-300000J0D01*
G01*
X85120000Y-57160000D02*
X91820000Y-57160000D01*
X100377868Y-59160000D02*
G75*
G02*
X100077900Y-58860000I32J300000D01*
G01*
X101520000Y-58860000D02*
G75*
G02*
X101220000Y-59160000I-300000J0D01*
G01*
X101520000Y-57460000D02*
G75*
G02*
X101820000Y-57160000I300000J0D01*
G01*
X92420000Y-59160000D02*
G75*
G02*
X92120000Y-58860000I0J300000D01*
G01*
X108520000Y-57160000D02*
G75*
G02*
X108820000Y-57460000I0J-300000D01*
G01*
X101520000Y-58860000D02*
X101520000Y-57460000D01*
X84120000Y-87160000D02*
G75*
G02*
X83820000Y-86860000I0J300000D01*
G01*
X84520000Y-60660000D02*
X84124800Y-60655200D01*
M02*
