M48
; DRILL file {KiCad 9.0.7} date 2026-01-26T10:20:18-0500
; FORMAT={-:-/ absolute / metric / decimal}
; #@! TF.CreationDate,2026-01-26T10:20:18-05:00
; #@! TF.GenerationSoftware,Kicad,Pcbnew,9.0.7
; #@! TF.FileFunction,Plated,1,2,PTH
FMAT,2
METRIC
; #@! TA.AperFunction,Plated,PTH,ViaDrill
T1C0.300
; #@! TA.AperFunction,Plated,PTH,ComponentDrill
T2C1.000
%
G90
G05
T1
X86.833Y-65.615
X86.833Y-66.885
X87.63Y-71.965
X88.509Y-68.155
X88.509Y-69.425
X88.6Y-61.9
X90.173Y-57.893
X90.173Y-58.782
X91.126Y-57.893
X91.126Y-58.782
X91.786Y-71.965
X94.453Y-61.881
X94.55Y-60.85
X95.088Y-69.425
X96.866Y-70.695
X97.771Y-60.678
X100.228Y-63.703
X100.228Y-66.853
X101.997Y-57.893
X101.997Y-58.782
X102.949Y-57.893
X102.949Y-58.782
X104.1Y-74.737
X105.4Y-70.8
X106.16Y-70.04
X108.839Y-61.595
X108.839Y-65.2
T2
X86.325Y-81.034
X88.865Y-81.034
X91.405Y-81.034
X92.548Y-76.918
X93.945Y-81.034
X95.088Y-76.918
X97.628Y-76.918
X98.755Y-81.051
X100.168Y-76.918
X101.295Y-81.051
X103.835Y-81.051
X106.375Y-81.051
M30
