M48
; DRILL file {KiCad 9.0.5} date 2025-10-28T13:43:04-0400
; FORMAT={-:-/ absolute / metric / decimal}
; #@! TF.CreationDate,2025-10-28T13:43:04-04:00
; #@! TF.GenerationSoftware,Kicad,Pcbnew,9.0.5
; #@! TF.FileFunction,Plated,1,2,PTH
FMAT,2
METRIC
; #@! TA.AperFunction,Plated,PTH,ViaDrill
T1C0.300
; #@! TA.AperFunction,Plated,PTH,ComponentDrill
T2C1.000
%
G90
G05
T1
X87.122Y-65.659
X87.122Y-66.929
X87.122Y-72.009
X87.376Y-59.69
X88.798Y-68.199
X88.798Y-69.469
X90.462Y-57.937
X90.462Y-58.826
X91.415Y-57.937
X91.415Y-58.826
X92.075Y-72.009
X94.742Y-61.214
X94.742Y-61.925
X95.377Y-69.469
X97.155Y-70.739
X98.425Y-61.087
X102.286Y-57.937
X102.286Y-58.826
X103.238Y-57.937
X103.238Y-58.826
X104.267Y-61.976
X104.267Y-62.992
X104.902Y-62.476
X104.902Y-63.492
X106.68Y-60.706
X108.458Y-73.762
T2
X86.004Y-62.103
X86.614Y-82.728
X89.154Y-82.728
X89.535Y-74.32
X89.535Y-79.32
X91.004Y-62.103
X91.694Y-82.728
X92.837Y-76.962
X94.234Y-82.728
X95.377Y-76.962
X97.917Y-76.962
X99.06Y-82.737
X100.457Y-76.962
X101.6Y-82.737
X104.14Y-82.737
X106.68Y-82.737
M30
