%TF.GenerationSoftware,KiCad,Pcbnew,9.0.5*%
%TF.CreationDate,2025-10-28T13:43:02-04:00*%
%TF.ProjectId,USBC_I2C,55534243-5f49-4324-932e-6b696361645f,rev?*%
%TF.SameCoordinates,Original*%
%TF.FileFunction,Soldermask,Top*%
%TF.FilePolarity,Negative*%
%FSLAX46Y46*%
G04 Gerber Fmt 4.6, Leading zero omitted, Abs format (unit mm)*
G04 Created by KiCad (PCBNEW 9.0.5) date 2025-10-28 13:43:02*
%MOMM*%
%LPD*%
G01*
G04 APERTURE LIST*
G04 Aperture macros list*
%AMRoundRect*
0 Rectangle with rounded corners*
0 $1 Rounding radius*
0 $2 $3 $4 $5 $6 $7 $8 $9 X,Y pos of 4 corners*
0 Add a 4 corners polygon primitive as box body*
4,1,4,$2,$3,$4,$5,$6,$7,$8,$9,$2,$3,0*
0 Add four circle primitives for the rounded corners*
1,1,$1+$1,$2,$3*
1,1,$1+$1,$4,$5*
1,1,$1+$1,$6,$7*
1,1,$1+$1,$8,$9*
0 Add four rect primitives between the rounded corners*
20,1,$1+$1,$2,$3,$4,$5,0*
20,1,$1+$1,$4,$5,$6,$7,0*
20,1,$1+$1,$6,$7,$8,$9,0*
20,1,$1+$1,$8,$9,$2,$3,0*%
G04 Aperture macros list end*
%ADD10C,0.000000*%
%ADD11R,1.700000X1.700000*%
%ADD12C,1.700000*%
%ADD13R,1.500000X1.500000*%
%ADD14R,1.000000X1.000000*%
%ADD15C,2.200000*%
%ADD16R,0.380000X1.000000*%
%ADD17R,0.700000X1.150000*%
%ADD18RoundRect,0.250000X-0.625000X0.375000X-0.625000X-0.375000X0.625000X-0.375000X0.625000X0.375000X0*%
%ADD19C,2.000000*%
%ADD20RoundRect,0.250000X0.650000X-0.412500X0.650000X0.412500X-0.650000X0.412500X-0.650000X-0.412500X0*%
%ADD21RoundRect,0.190000X-0.190000X0.435000X-0.190000X-0.435000X0.190000X-0.435000X0.190000X0.435000X0*%
%ADD22RoundRect,0.250000X-0.312500X-0.625000X0.312500X-0.625000X0.312500X0.625000X-0.312500X0.625000X0*%
%ADD23RoundRect,0.250000X0.412500X0.650000X-0.412500X0.650000X-0.412500X-0.650000X0.412500X-0.650000X0*%
%ADD24RoundRect,0.150000X-0.825000X-0.150000X0.825000X-0.150000X0.825000X0.150000X-0.825000X0.150000X0*%
%ADD25RoundRect,0.250000X0.312500X0.625000X-0.312500X0.625000X-0.312500X-0.625000X0.312500X-0.625000X0*%
G04 APERTURE END LIST*
D10*
%TO.C,G\u002A\u002A\u002A*%
G36*
X104228350Y-71531271D02*
G01*
X104228350Y-71602483D01*
X104300756Y-71602483D01*
X104373161Y-71602483D01*
X104373161Y-71531271D01*
X104373161Y-71460059D01*
X104419310Y-71460059D01*
X104465458Y-71460059D01*
X104465458Y-71648233D01*
X104465458Y-71836408D01*
X104419310Y-71836408D01*
X104373161Y-71836408D01*
X104373161Y-71758035D01*
X104373161Y-71679662D01*
X104300756Y-71679662D01*
X104228350Y-71679662D01*
X104228350Y-71758035D01*
X104228350Y-71836408D01*
X104182202Y-71836408D01*
X104136053Y-71836408D01*
X104136053Y-71648233D01*
X104136053Y-71460059D01*
X104182202Y-71460059D01*
X104228350Y-71460059D01*
X104228350Y-71531271D01*
G37*
G36*
X101882731Y-71000911D02*
G01*
X101882731Y-71162383D01*
X101886113Y-71162811D01*
X101887841Y-71162979D01*
X101890895Y-71163220D01*
X101895011Y-71163518D01*
X101899925Y-71163852D01*
X101905374Y-71164205D01*
X101909386Y-71164454D01*
X101915111Y-71164811D01*
X101920539Y-71165164D01*
X101925395Y-71165495D01*
X101929402Y-71165783D01*
X101932283Y-71166011D01*
X101933455Y-71166120D01*
X101937632Y-71166573D01*
X101937632Y-71199934D01*
X101937632Y-71233294D01*
X101834196Y-71233294D01*
X101730759Y-71233294D01*
X101730759Y-71199954D01*
X101730759Y-71166615D01*
X101735334Y-71166144D01*
X101737389Y-71165968D01*
X101740757Y-71165720D01*
X101745166Y-71165418D01*
X101750339Y-71165082D01*
X101756004Y-71164728D01*
X101760597Y-71164452D01*
X101766370Y-71164103D01*
X101771790Y-71163759D01*
X101776600Y-71163438D01*
X101780545Y-71163157D01*
X101783368Y-71162934D01*
X101784666Y-71162807D01*
X101788047Y-71162383D01*
X101788047Y-71036074D01*
X101788047Y-70909765D01*
X101761193Y-70908399D01*
X101754743Y-70908074D01*
X101748743Y-70907778D01*
X101743394Y-70907520D01*
X101738894Y-70907310D01*
X101735444Y-70907156D01*
X101733242Y-70907069D01*
X101732550Y-70907053D01*
X101730759Y-70907072D01*
X101730759Y-70873256D01*
X101730759Y-70839440D01*
X101806745Y-70839440D01*
X101882731Y-70839440D01*
X101882731Y-71000911D01*
G37*
G36*
X103034853Y-71000911D02*
G01*
X103034853Y-71162383D01*
X103038235Y-71162811D01*
X103039964Y-71162979D01*
X103043018Y-71163220D01*
X103047133Y-71163518D01*
X103052047Y-71163852D01*
X103057496Y-71164205D01*
X103061508Y-71164454D01*
X103067233Y-71164811D01*
X103072662Y-71165164D01*
X103077517Y-71165495D01*
X103081524Y-71165783D01*
X103084405Y-71166011D01*
X103085577Y-71166120D01*
X103089754Y-71166573D01*
X103089754Y-71199934D01*
X103089754Y-71233294D01*
X102986716Y-71233294D01*
X102883677Y-71233294D01*
X102883677Y-71199934D01*
X102883677Y-71166573D01*
X102887854Y-71166129D01*
X102889794Y-71165960D01*
X102893053Y-71165718D01*
X102897364Y-71165421D01*
X102902460Y-71165088D01*
X102908070Y-71164735D01*
X102912719Y-71164454D01*
X102918492Y-71164102D01*
X102923912Y-71163757D01*
X102928723Y-71163434D01*
X102932667Y-71163153D01*
X102935490Y-71162930D01*
X102936788Y-71162803D01*
X102940169Y-71162383D01*
X102940169Y-71035921D01*
X102940169Y-70909459D01*
X102935992Y-70909441D01*
X102934053Y-70909392D01*
X102930794Y-70909263D01*
X102926483Y-70909067D01*
X102921388Y-70908816D01*
X102915777Y-70908523D01*
X102911128Y-70908269D01*
X102905355Y-70907953D01*
X102899935Y-70907669D01*
X102895124Y-70907428D01*
X102891180Y-70907244D01*
X102888357Y-70907128D01*
X102887059Y-70907093D01*
X102883677Y-70907072D01*
X102883677Y-70873256D01*
X102883677Y-70839440D01*
X102959265Y-70839440D01*
X103034853Y-70839440D01*
X103034853Y-71000911D01*
G37*
G36*
X102993529Y-70678361D02*
G01*
X102999654Y-70678480D01*
X103005056Y-70678683D01*
X103009447Y-70678971D01*
X103012448Y-70679331D01*
X103019902Y-70681040D01*
X103025995Y-70683402D01*
X103030862Y-70686524D01*
X103034638Y-70690513D01*
X103037458Y-70695477D01*
X103039246Y-70700708D01*
X103039786Y-70703622D01*
X103040250Y-70707817D01*
X103040630Y-70712986D01*
X103040919Y-70718820D01*
X103041109Y-70725010D01*
X103041192Y-70731249D01*
X103041162Y-70737229D01*
X103041010Y-70742640D01*
X103040729Y-70747174D01*
X103040443Y-70749720D01*
X103038957Y-70756964D01*
X103036729Y-70762910D01*
X103033628Y-70767690D01*
X103029521Y-70771434D01*
X103024276Y-70774274D01*
X103017761Y-70776341D01*
X103012575Y-70777366D01*
X103009604Y-70777705D01*
X103005357Y-70777997D01*
X103000147Y-70778238D01*
X102994289Y-70778421D01*
X102988096Y-70778542D01*
X102981883Y-70778594D01*
X102975964Y-70778573D01*
X102970653Y-70778473D01*
X102966263Y-70778289D01*
X102964835Y-70778190D01*
X102956882Y-70777327D01*
X102950290Y-70776084D01*
X102944860Y-70774392D01*
X102940393Y-70772179D01*
X102936688Y-70769375D01*
X102934997Y-70767662D01*
X102932615Y-70764534D01*
X102930749Y-70760911D01*
X102929315Y-70756527D01*
X102928229Y-70751117D01*
X102927404Y-70744416D01*
X102927333Y-70743669D01*
X102926991Y-70738404D01*
X102926835Y-70732361D01*
X102926856Y-70725924D01*
X102927040Y-70719474D01*
X102927376Y-70713394D01*
X102927852Y-70708068D01*
X102928457Y-70703877D01*
X102928578Y-70703277D01*
X102930490Y-70696803D01*
X102933284Y-70691479D01*
X102937079Y-70687197D01*
X102941994Y-70683852D01*
X102948148Y-70681334D01*
X102954712Y-70679713D01*
X102957800Y-70679300D01*
X102962189Y-70678956D01*
X102967589Y-70678685D01*
X102973712Y-70678488D01*
X102980270Y-70678367D01*
X102986971Y-70678324D01*
X102993529Y-70678361D01*
G37*
G36*
X101836951Y-70678136D02*
G01*
X101843606Y-70678314D01*
X101849883Y-70678597D01*
X101855462Y-70678975D01*
X101860020Y-70679442D01*
X101862630Y-70679857D01*
X101869641Y-70681720D01*
X101875313Y-70684281D01*
X101879800Y-70687680D01*
X101883254Y-70692058D01*
X101885828Y-70697556D01*
X101887293Y-70702586D01*
X101887827Y-70705827D01*
X101888245Y-70710314D01*
X101888546Y-70715739D01*
X101888731Y-70721794D01*
X101888799Y-70728169D01*
X101888751Y-70734556D01*
X101888586Y-70740647D01*
X101888306Y-70746133D01*
X101887908Y-70750705D01*
X101887395Y-70754055D01*
X101887289Y-70754510D01*
X101885461Y-70760263D01*
X101883144Y-70765163D01*
X101880501Y-70768882D01*
X101879822Y-70769576D01*
X101876562Y-70771942D01*
X101872146Y-70774114D01*
X101867007Y-70775907D01*
X101862215Y-70777029D01*
X101859572Y-70777363D01*
X101855648Y-70777680D01*
X101850751Y-70777969D01*
X101845191Y-70778221D01*
X101839278Y-70778426D01*
X101833320Y-70778573D01*
X101827628Y-70778655D01*
X101822511Y-70778659D01*
X101818278Y-70778577D01*
X101816293Y-70778483D01*
X101807343Y-70777684D01*
X101799814Y-70776479D01*
X101793568Y-70774787D01*
X101788466Y-70772524D01*
X101784371Y-70769610D01*
X101781146Y-70765961D01*
X101778652Y-70761495D01*
X101776752Y-70756130D01*
X101776350Y-70754625D01*
X101775824Y-70751578D01*
X101775409Y-70747252D01*
X101775105Y-70741953D01*
X101774914Y-70735987D01*
X101774834Y-70729659D01*
X101774867Y-70723277D01*
X101775011Y-70717146D01*
X101775268Y-70711571D01*
X101775638Y-70706860D01*
X101776120Y-70703317D01*
X101776326Y-70702370D01*
X101778097Y-70696706D01*
X101780387Y-70692006D01*
X101783347Y-70688172D01*
X101787125Y-70685108D01*
X101791874Y-70682714D01*
X101797744Y-70680895D01*
X101804886Y-70679552D01*
X101812993Y-70678627D01*
X101817940Y-70678308D01*
X101823797Y-70678125D01*
X101830241Y-70678071D01*
X101836951Y-70678136D01*
G37*
G36*
X103378482Y-71564434D02*
G01*
X103382977Y-71564722D01*
X103386698Y-71565184D01*
X103389363Y-71565814D01*
X103390597Y-71566491D01*
X103390659Y-71567368D01*
X103390643Y-71569646D01*
X103390557Y-71573136D01*
X103390410Y-71577649D01*
X103390210Y-71582997D01*
X103389967Y-71588992D01*
X103389690Y-71595444D01*
X103389387Y-71602166D01*
X103389067Y-71608969D01*
X103388739Y-71615664D01*
X103388412Y-71622063D01*
X103388095Y-71627977D01*
X103387796Y-71633218D01*
X103387524Y-71637598D01*
X103387289Y-71640927D01*
X103387099Y-71643018D01*
X103386978Y-71643682D01*
X103386045Y-71643748D01*
X103384040Y-71643508D01*
X103381981Y-71643130D01*
X103375867Y-71642206D01*
X103368967Y-71641726D01*
X103361939Y-71641705D01*
X103355439Y-71642154D01*
X103352578Y-71642561D01*
X103346119Y-71643921D01*
X103340657Y-71645650D01*
X103335606Y-71647972D01*
X103330632Y-71650945D01*
X103322813Y-71656879D01*
X103316344Y-71663617D01*
X103311176Y-71671233D01*
X103307259Y-71679800D01*
X103304544Y-71689390D01*
X103304499Y-71689608D01*
X103304239Y-71690940D01*
X103304011Y-71692344D01*
X103303813Y-71693926D01*
X103303643Y-71695797D01*
X103303499Y-71698064D01*
X103303378Y-71700836D01*
X103303278Y-71704221D01*
X103303198Y-71708329D01*
X103303136Y-71713266D01*
X103303088Y-71719143D01*
X103303053Y-71726067D01*
X103303030Y-71734146D01*
X103303015Y-71743490D01*
X103303007Y-71754207D01*
X103303003Y-71766405D01*
X103303003Y-71766588D01*
X103302992Y-71836408D01*
X103258833Y-71836408D01*
X103214674Y-71836408D01*
X103214674Y-71704328D01*
X103214674Y-71572247D01*
X103257242Y-71572247D01*
X103299810Y-71572247D01*
X103299810Y-71590713D01*
X103299810Y-71609179D01*
X103303720Y-71602847D01*
X103310358Y-71593448D01*
X103317901Y-71585232D01*
X103326249Y-71578270D01*
X103335306Y-71572633D01*
X103344974Y-71568393D01*
X103354299Y-71565793D01*
X103358421Y-71565130D01*
X103363183Y-71564668D01*
X103368303Y-71564401D01*
X103373497Y-71564325D01*
X103378482Y-71564434D01*
G37*
G36*
X105000047Y-71564434D02*
G01*
X105004542Y-71564722D01*
X105008262Y-71565184D01*
X105010927Y-71565814D01*
X105012161Y-71566491D01*
X105012224Y-71567368D01*
X105012208Y-71569646D01*
X105012121Y-71573136D01*
X105011974Y-71577649D01*
X105011775Y-71582997D01*
X105011532Y-71588992D01*
X105011255Y-71595444D01*
X105010952Y-71602166D01*
X105010632Y-71608969D01*
X105010304Y-71615664D01*
X105009977Y-71622063D01*
X105009659Y-71627977D01*
X105009360Y-71633218D01*
X105009089Y-71637598D01*
X105008853Y-71640927D01*
X105008663Y-71643018D01*
X105008542Y-71643682D01*
X105007609Y-71643748D01*
X105005604Y-71643508D01*
X105003546Y-71643130D01*
X104997431Y-71642206D01*
X104990532Y-71641726D01*
X104983504Y-71641705D01*
X104977004Y-71642154D01*
X104974143Y-71642561D01*
X104967683Y-71643921D01*
X104962221Y-71645650D01*
X104957171Y-71647972D01*
X104952197Y-71650945D01*
X104944378Y-71656879D01*
X104937908Y-71663617D01*
X104932740Y-71671233D01*
X104928823Y-71679800D01*
X104926109Y-71689390D01*
X104926063Y-71689608D01*
X104925803Y-71690940D01*
X104925576Y-71692344D01*
X104925378Y-71693926D01*
X104925207Y-71695797D01*
X104925063Y-71698064D01*
X104924942Y-71700836D01*
X104924843Y-71704221D01*
X104924763Y-71708329D01*
X104924700Y-71713266D01*
X104924652Y-71719143D01*
X104924618Y-71726067D01*
X104924594Y-71734146D01*
X104924579Y-71743490D01*
X104924571Y-71754207D01*
X104924567Y-71766405D01*
X104924567Y-71766588D01*
X104924557Y-71836408D01*
X104880397Y-71836408D01*
X104836238Y-71836408D01*
X104836238Y-71704328D01*
X104836238Y-71572247D01*
X104878806Y-71572247D01*
X104921374Y-71572247D01*
X104921374Y-71590713D01*
X104921374Y-71609179D01*
X104925284Y-71602847D01*
X104931923Y-71593448D01*
X104939465Y-71585232D01*
X104947813Y-71578270D01*
X104956870Y-71572633D01*
X104966538Y-71568393D01*
X104975863Y-71565793D01*
X104979986Y-71565130D01*
X104984748Y-71564668D01*
X104989867Y-71564401D01*
X104995061Y-71564325D01*
X105000047Y-71564434D01*
G37*
G36*
X106312098Y-71564434D02*
G01*
X106316592Y-71564722D01*
X106320313Y-71565184D01*
X106322978Y-71565814D01*
X106324212Y-71566491D01*
X106324275Y-71567368D01*
X106324258Y-71569646D01*
X106324172Y-71573136D01*
X106324025Y-71577649D01*
X106323826Y-71582997D01*
X106323583Y-71588992D01*
X106323305Y-71595444D01*
X106323002Y-71602166D01*
X106322683Y-71608969D01*
X106322355Y-71615664D01*
X106322028Y-71622063D01*
X106321710Y-71627977D01*
X106321411Y-71633218D01*
X106321140Y-71637598D01*
X106320904Y-71640927D01*
X106320714Y-71643018D01*
X106320593Y-71643682D01*
X106319660Y-71643748D01*
X106317655Y-71643508D01*
X106315596Y-71643130D01*
X106309482Y-71642206D01*
X106302582Y-71641726D01*
X106295555Y-71641705D01*
X106289055Y-71642154D01*
X106286194Y-71642561D01*
X106279734Y-71643921D01*
X106274272Y-71645650D01*
X106269222Y-71647972D01*
X106264248Y-71650945D01*
X106256428Y-71656879D01*
X106249959Y-71663617D01*
X106244791Y-71671233D01*
X106240874Y-71679800D01*
X106238159Y-71689390D01*
X106238114Y-71689608D01*
X106237854Y-71690940D01*
X106237626Y-71692344D01*
X106237428Y-71693926D01*
X106237258Y-71695797D01*
X106237114Y-71698064D01*
X106236993Y-71700836D01*
X106236894Y-71704221D01*
X106236814Y-71708329D01*
X106236751Y-71713266D01*
X106236703Y-71719143D01*
X106236669Y-71726067D01*
X106236645Y-71734146D01*
X106236630Y-71743490D01*
X106236622Y-71754207D01*
X106236618Y-71766405D01*
X106236618Y-71766588D01*
X106236608Y-71836408D01*
X106192448Y-71836408D01*
X106148289Y-71836408D01*
X106148289Y-71704328D01*
X106148289Y-71572247D01*
X106190857Y-71572247D01*
X106233425Y-71572247D01*
X106233425Y-71590713D01*
X106233425Y-71609179D01*
X106237335Y-71602847D01*
X106243974Y-71593448D01*
X106251516Y-71585232D01*
X106259864Y-71578270D01*
X106268921Y-71572633D01*
X106278589Y-71568393D01*
X106287914Y-71565793D01*
X106292036Y-71565130D01*
X106296799Y-71564668D01*
X106301918Y-71564401D01*
X106307112Y-71564325D01*
X106312098Y-71564434D01*
G37*
G36*
X102975407Y-71650813D02*
G01*
X102975463Y-71664460D01*
X102975518Y-71676615D01*
X102975576Y-71687378D01*
X102975644Y-71696848D01*
X102975727Y-71705123D01*
X102975833Y-71712304D01*
X102975966Y-71718489D01*
X102976134Y-71723779D01*
X102976342Y-71728272D01*
X102976596Y-71732067D01*
X102976903Y-71735264D01*
X102977268Y-71737963D01*
X102977699Y-71740262D01*
X102978199Y-71742262D01*
X102978777Y-71744060D01*
X102979438Y-71745758D01*
X102980188Y-71747453D01*
X102981033Y-71749245D01*
X102981521Y-71750267D01*
X102985395Y-71756989D01*
X102989982Y-71762312D01*
X102995363Y-71766298D01*
X103001620Y-71769011D01*
X103008000Y-71770404D01*
X103016131Y-71770798D01*
X103024009Y-71769789D01*
X103031423Y-71767449D01*
X103038164Y-71763851D01*
X103044020Y-71759068D01*
X103045638Y-71757339D01*
X103049151Y-71752581D01*
X103052435Y-71746740D01*
X103055250Y-71740324D01*
X103057356Y-71733842D01*
X103057956Y-71731297D01*
X103058214Y-71729983D01*
X103058442Y-71728631D01*
X103058641Y-71727137D01*
X103058814Y-71725397D01*
X103058962Y-71723308D01*
X103059087Y-71720767D01*
X103059191Y-71717670D01*
X103059277Y-71713914D01*
X103059345Y-71709395D01*
X103059399Y-71704009D01*
X103059439Y-71697653D01*
X103059467Y-71690224D01*
X103059487Y-71681618D01*
X103059499Y-71671732D01*
X103059506Y-71660462D01*
X103059509Y-71647705D01*
X103059509Y-71647637D01*
X103059519Y-71571452D01*
X103104076Y-71571452D01*
X103148634Y-71571452D01*
X103148634Y-71703930D01*
X103148634Y-71836408D01*
X103105683Y-71836408D01*
X103062733Y-71836408D01*
X103062518Y-71819214D01*
X103062304Y-71802020D01*
X103058326Y-71807862D01*
X103053259Y-71814349D01*
X103047209Y-71820549D01*
X103040733Y-71825911D01*
X103038681Y-71827347D01*
X103031903Y-71831354D01*
X103024058Y-71835135D01*
X103015668Y-71838474D01*
X103007257Y-71841157D01*
X103002118Y-71842426D01*
X102998072Y-71843070D01*
X102992907Y-71843562D01*
X102987091Y-71843885D01*
X102981093Y-71844024D01*
X102975378Y-71843965D01*
X102970414Y-71843692D01*
X102968690Y-71843513D01*
X102956621Y-71841269D01*
X102945302Y-71837629D01*
X102934775Y-71832620D01*
X102925082Y-71826267D01*
X102916264Y-71818596D01*
X102908363Y-71809633D01*
X102903780Y-71803190D01*
X102900337Y-71797576D01*
X102897554Y-71792170D01*
X102895205Y-71786456D01*
X102893066Y-71779918D01*
X102892054Y-71776359D01*
X102891217Y-71773320D01*
X102890469Y-71770572D01*
X102889803Y-71768013D01*
X102889215Y-71765543D01*
X102888701Y-71763062D01*
X102888254Y-71760469D01*
X102887872Y-71757663D01*
X102887548Y-71754544D01*
X102887277Y-71751011D01*
X102887056Y-71746964D01*
X102886878Y-71742302D01*
X102886740Y-71736925D01*
X102886636Y-71730731D01*
X102886562Y-71723620D01*
X102886512Y-71715492D01*
X102886482Y-71706247D01*
X102886467Y-71695782D01*
X102886462Y-71683999D01*
X102886462Y-71670796D01*
X102886462Y-71660566D01*
X102886462Y-71571850D01*
X102930769Y-71571644D01*
X102975076Y-71571438D01*
X102975407Y-71650813D01*
G37*
G36*
X101949684Y-71564481D02*
G01*
X101951158Y-71564523D01*
X101960082Y-71565007D01*
X101967838Y-71565922D01*
X101974811Y-71567351D01*
X101981388Y-71569376D01*
X101987952Y-71572079D01*
X101989105Y-71572616D01*
X101999550Y-71578327D01*
X102008834Y-71585026D01*
X102016975Y-71592745D01*
X102023994Y-71601514D01*
X102029907Y-71611363D01*
X102034735Y-71622322D01*
X102038495Y-71634422D01*
X102041207Y-71647693D01*
X102042652Y-71659373D01*
X102042778Y-71661576D01*
X102042896Y-71665285D01*
X102043005Y-71670410D01*
X102043104Y-71676866D01*
X102043192Y-71684565D01*
X102043269Y-71693420D01*
X102043333Y-71703345D01*
X102043385Y-71714252D01*
X102043423Y-71726055D01*
X102043447Y-71738666D01*
X102043455Y-71751998D01*
X102043455Y-71752266D01*
X102043455Y-71836408D01*
X101998898Y-71836408D01*
X101954341Y-71836408D01*
X101954341Y-71764118D01*
X101954332Y-71751948D01*
X101954304Y-71740373D01*
X101954259Y-71729501D01*
X101954198Y-71719438D01*
X101954123Y-71710292D01*
X101954033Y-71702171D01*
X101953931Y-71695183D01*
X101953816Y-71689435D01*
X101953691Y-71685035D01*
X101953557Y-71682090D01*
X101953520Y-71681568D01*
X101952331Y-71671865D01*
X101950401Y-71663481D01*
X101947688Y-71656304D01*
X101944152Y-71650222D01*
X101940031Y-71645397D01*
X101936045Y-71642063D01*
X101931732Y-71639672D01*
X101926792Y-71638125D01*
X101920921Y-71637324D01*
X101914956Y-71637156D01*
X101910312Y-71637273D01*
X101906733Y-71637598D01*
X101903700Y-71638199D01*
X101901119Y-71638992D01*
X101894975Y-71641782D01*
X101889125Y-71645631D01*
X101884170Y-71650134D01*
X101883585Y-71650790D01*
X101880639Y-71654815D01*
X101877708Y-71659934D01*
X101875030Y-71665667D01*
X101872844Y-71671533D01*
X101872193Y-71673695D01*
X101871900Y-71674759D01*
X101871641Y-71675796D01*
X101871413Y-71676904D01*
X101871214Y-71678185D01*
X101871042Y-71679738D01*
X101870895Y-71681663D01*
X101870769Y-71684062D01*
X101870663Y-71687034D01*
X101870574Y-71690679D01*
X101870499Y-71695097D01*
X101870437Y-71700390D01*
X101870385Y-71706657D01*
X101870341Y-71713998D01*
X101870302Y-71722514D01*
X101870265Y-71732304D01*
X101870230Y-71743470D01*
X101870192Y-71756111D01*
X101870186Y-71758234D01*
X101869956Y-71836408D01*
X101825421Y-71836408D01*
X101780886Y-71836408D01*
X101780886Y-71703930D01*
X101780886Y-71607654D01*
X101866022Y-71607654D01*
X101866420Y-71608052D01*
X101866818Y-71607654D01*
X101866420Y-71607257D01*
X101866022Y-71607654D01*
X101780886Y-71607654D01*
X101780886Y-71571452D01*
X101823852Y-71571452D01*
X101866818Y-71571452D01*
X101866818Y-71589141D01*
X101866818Y-71606830D01*
X101868940Y-71603662D01*
X101871281Y-71600422D01*
X101874203Y-71596750D01*
X101877364Y-71593042D01*
X101880422Y-71589693D01*
X101883036Y-71587100D01*
X101883837Y-71586400D01*
X101891215Y-71581025D01*
X101899804Y-71576041D01*
X101909238Y-71571644D01*
X101917228Y-71568653D01*
X101922489Y-71567009D01*
X101927284Y-71565809D01*
X101932007Y-71565004D01*
X101937052Y-71564546D01*
X101942813Y-71564388D01*
X101949684Y-71564481D01*
G37*
G36*
X105318411Y-71635503D02*
G01*
X105318411Y-71836408D01*
X105277434Y-71836408D01*
X105236457Y-71836408D01*
X105236457Y-71819620D01*
X105236457Y-71802832D01*
X105232894Y-71807573D01*
X105225938Y-71815534D01*
X105217754Y-71822634D01*
X105208488Y-71828819D01*
X105198281Y-71834037D01*
X105187279Y-71838236D01*
X105175624Y-71841362D01*
X105163460Y-71843363D01*
X105150931Y-71844186D01*
X105138181Y-71843779D01*
X105135081Y-71843489D01*
X105124346Y-71841940D01*
X105114503Y-71839578D01*
X105104986Y-71836236D01*
X105095234Y-71831745D01*
X105094736Y-71831490D01*
X105082929Y-71824540D01*
X105071953Y-71816279D01*
X105061906Y-71806807D01*
X105052887Y-71796225D01*
X105044992Y-71784634D01*
X105039573Y-71774744D01*
X105033365Y-71760394D01*
X105028625Y-71745562D01*
X105025352Y-71730377D01*
X105023548Y-71714970D01*
X105023338Y-71705234D01*
X105108975Y-71705234D01*
X105109944Y-71715111D01*
X105112042Y-71724889D01*
X105115213Y-71734223D01*
X105119405Y-71742771D01*
X105119561Y-71743037D01*
X105122294Y-71746945D01*
X105125993Y-71751230D01*
X105130241Y-71755479D01*
X105134622Y-71759281D01*
X105138718Y-71762224D01*
X105139392Y-71762630D01*
X105147832Y-71766640D01*
X105156927Y-71769309D01*
X105166419Y-71770600D01*
X105176050Y-71770477D01*
X105184594Y-71769133D01*
X105193425Y-71766307D01*
X105201788Y-71762058D01*
X105209452Y-71756536D01*
X105216185Y-71749890D01*
X105218304Y-71747294D01*
X105221566Y-71742489D01*
X105224776Y-71736761D01*
X105227677Y-71730649D01*
X105230010Y-71724692D01*
X105231427Y-71719843D01*
X105232340Y-71714217D01*
X105232806Y-71707706D01*
X105232829Y-71700845D01*
X105232419Y-71694173D01*
X105231580Y-71688224D01*
X105230987Y-71685630D01*
X105227631Y-71675890D01*
X105223072Y-71666931D01*
X105217421Y-71658887D01*
X105210785Y-71651895D01*
X105203274Y-71646090D01*
X105195829Y-71641979D01*
X105189066Y-71639272D01*
X105182562Y-71637563D01*
X105175692Y-71636723D01*
X105170019Y-71636582D01*
X105160094Y-71637313D01*
X105150973Y-71639380D01*
X105142547Y-71642819D01*
X105135113Y-71647365D01*
X105128316Y-71653008D01*
X105122611Y-71659423D01*
X105117899Y-71666771D01*
X105114078Y-71675214D01*
X105111048Y-71684912D01*
X105110639Y-71686553D01*
X105109188Y-71695600D01*
X105108975Y-71705234D01*
X105023338Y-71705234D01*
X105023214Y-71699470D01*
X105024349Y-71684008D01*
X105026956Y-71668714D01*
X105031033Y-71653717D01*
X105036584Y-71639148D01*
X105038804Y-71634319D01*
X105045696Y-71621685D01*
X105053669Y-71610153D01*
X105062660Y-71599774D01*
X105072611Y-71590597D01*
X105083461Y-71582669D01*
X105095147Y-71576042D01*
X105107612Y-71570764D01*
X105120792Y-71566884D01*
X105122212Y-71566561D01*
X105127447Y-71565668D01*
X105133832Y-71565000D01*
X105140940Y-71564567D01*
X105148344Y-71564380D01*
X105155618Y-71564448D01*
X105162335Y-71564782D01*
X105168067Y-71565392D01*
X105168430Y-71565446D01*
X105180404Y-71568093D01*
X105192026Y-71572243D01*
X105203143Y-71577818D01*
X105213603Y-71584744D01*
X105223130Y-71592825D01*
X105229296Y-71598715D01*
X105229296Y-71516656D01*
X105229296Y-71434597D01*
X105273854Y-71434597D01*
X105318411Y-71434597D01*
X105318411Y-71635503D01*
G37*
G36*
X102707624Y-71564034D02*
G01*
X102713749Y-71564780D01*
X102728946Y-71567670D01*
X102743722Y-71572080D01*
X102758138Y-71578029D01*
X102764328Y-71581111D01*
X102772405Y-71585641D01*
X102779597Y-71590369D01*
X102786433Y-71595675D01*
X102793438Y-71601942D01*
X102794423Y-71602880D01*
X102804201Y-71613280D01*
X102812654Y-71624499D01*
X102819910Y-71636711D01*
X102820704Y-71638248D01*
X102825297Y-71648004D01*
X102828901Y-71657425D01*
X102831634Y-71666946D01*
X102833616Y-71676997D01*
X102834965Y-71688013D01*
X102835243Y-71691303D01*
X102835669Y-71701575D01*
X102835438Y-71712244D01*
X102834585Y-71722724D01*
X102833144Y-71732427D01*
X102832746Y-71734424D01*
X102829028Y-71748295D01*
X102823802Y-71761777D01*
X102817128Y-71774747D01*
X102809064Y-71787084D01*
X102802949Y-71794895D01*
X102793613Y-71804815D01*
X102783066Y-71813840D01*
X102771465Y-71821887D01*
X102758966Y-71828879D01*
X102745725Y-71834733D01*
X102731898Y-71839370D01*
X102717641Y-71842710D01*
X102706872Y-71844302D01*
X102702151Y-71844680D01*
X102696328Y-71844921D01*
X102689880Y-71845027D01*
X102683288Y-71844997D01*
X102677029Y-71844833D01*
X102671582Y-71844533D01*
X102668848Y-71844283D01*
X102655296Y-71842154D01*
X102642237Y-71838825D01*
X102629323Y-71834192D01*
X102617527Y-71828816D01*
X102608608Y-71824080D01*
X102600795Y-71819262D01*
X102593624Y-71814030D01*
X102586628Y-71808050D01*
X102580934Y-71802592D01*
X102573735Y-71794980D01*
X102567639Y-71787523D01*
X102562293Y-71779732D01*
X102557346Y-71771118D01*
X102555129Y-71766787D01*
X102549976Y-71755269D01*
X102546036Y-71743812D01*
X102543239Y-71732097D01*
X102541511Y-71719803D01*
X102540781Y-71706610D01*
X102540781Y-71706603D01*
X102626925Y-71706603D01*
X102627811Y-71714671D01*
X102630346Y-71725414D01*
X102634004Y-71735174D01*
X102638727Y-71743890D01*
X102644461Y-71751503D01*
X102651147Y-71757952D01*
X102658732Y-71763179D01*
X102667157Y-71767122D01*
X102676367Y-71769723D01*
X102680089Y-71770351D01*
X102686109Y-71770767D01*
X102692866Y-71770544D01*
X102699657Y-71769726D01*
X102704408Y-71768737D01*
X102712746Y-71765980D01*
X102720099Y-71762159D01*
X102726811Y-71757089D01*
X102728029Y-71755981D01*
X102735205Y-71748252D01*
X102740970Y-71739789D01*
X102745320Y-71730598D01*
X102748254Y-71720687D01*
X102749769Y-71710063D01*
X102749995Y-71703643D01*
X102749305Y-71693020D01*
X102747300Y-71682898D01*
X102744038Y-71673436D01*
X102739578Y-71664797D01*
X102733978Y-71657142D01*
X102732724Y-71655742D01*
X102725546Y-71649050D01*
X102717731Y-71643808D01*
X102709247Y-71640002D01*
X102700064Y-71637618D01*
X102690150Y-71636644D01*
X102687944Y-71636618D01*
X102677785Y-71637346D01*
X102668350Y-71639482D01*
X102659655Y-71643019D01*
X102651714Y-71647954D01*
X102650355Y-71648999D01*
X102644228Y-71654824D01*
X102638895Y-71661840D01*
X102634434Y-71669811D01*
X102630927Y-71678507D01*
X102628453Y-71687692D01*
X102627092Y-71697136D01*
X102626925Y-71706603D01*
X102540781Y-71706603D01*
X102540746Y-71702736D01*
X102541464Y-71687309D01*
X102543621Y-71672556D01*
X102547223Y-71658464D01*
X102552275Y-71645016D01*
X102558783Y-71632198D01*
X102566753Y-71619994D01*
X102574485Y-71610316D01*
X102584079Y-71600482D01*
X102594781Y-71591713D01*
X102606484Y-71584044D01*
X102619084Y-71577508D01*
X102632475Y-71572141D01*
X102646553Y-71567977D01*
X102661212Y-71565049D01*
X102676347Y-71563393D01*
X102691853Y-71563044D01*
X102707624Y-71564034D01*
G37*
G36*
X101297243Y-71564655D02*
G01*
X101307921Y-71565801D01*
X101317859Y-71567807D01*
X101327400Y-71570752D01*
X101336889Y-71574717D01*
X101342172Y-71577340D01*
X101354021Y-71584411D01*
X101364908Y-71592717D01*
X101374788Y-71602192D01*
X101383613Y-71612771D01*
X101391339Y-71624386D01*
X101397919Y-71636973D01*
X101403308Y-71650466D01*
X101407460Y-71664797D01*
X101409382Y-71674017D01*
X101410248Y-71680075D01*
X101410916Y-71687205D01*
X101411368Y-71694932D01*
X101411589Y-71702784D01*
X101411562Y-71710288D01*
X101411271Y-71716971D01*
X101410979Y-71720241D01*
X101408501Y-71736027D01*
X101404678Y-71751206D01*
X101399551Y-71765662D01*
X101393160Y-71779278D01*
X101386235Y-71790910D01*
X101379001Y-71800537D01*
X101370542Y-71809561D01*
X101361079Y-71817830D01*
X101350832Y-71825194D01*
X101340021Y-71831502D01*
X101328866Y-71836602D01*
X101317589Y-71840343D01*
X101312477Y-71841554D01*
X101299764Y-71843506D01*
X101287082Y-71844161D01*
X101274582Y-71843559D01*
X101262412Y-71841742D01*
X101250724Y-71838749D01*
X101239665Y-71834621D01*
X101229387Y-71829399D01*
X101220037Y-71823123D01*
X101211766Y-71815833D01*
X101209798Y-71813763D01*
X101204825Y-71808330D01*
X101204825Y-71886022D01*
X101204825Y-71963714D01*
X101160666Y-71963714D01*
X101116506Y-71963714D01*
X101116506Y-71767583D01*
X101116506Y-71703437D01*
X101201658Y-71703437D01*
X101202271Y-71711480D01*
X101203958Y-71720023D01*
X101206574Y-71728544D01*
X101209970Y-71736524D01*
X101212072Y-71740416D01*
X101215500Y-71745401D01*
X101219879Y-71750525D01*
X101224830Y-71755421D01*
X101229971Y-71759719D01*
X101234922Y-71763052D01*
X101236254Y-71763779D01*
X101245550Y-71767705D01*
X101255016Y-71770054D01*
X101264616Y-71770821D01*
X101274317Y-71770003D01*
X101281825Y-71768293D01*
X101287125Y-71766598D01*
X101291504Y-71764769D01*
X101295621Y-71762489D01*
X101299907Y-71759604D01*
X101304583Y-71755939D01*
X101308481Y-71752062D01*
X101312082Y-71747460D01*
X101314150Y-71744369D01*
X101318188Y-71737371D01*
X101321222Y-71730411D01*
X101323342Y-71723144D01*
X101324639Y-71715229D01*
X101325203Y-71706324D01*
X101325243Y-71702339D01*
X101325099Y-71695355D01*
X101324641Y-71689505D01*
X101323771Y-71684346D01*
X101322388Y-71679435D01*
X101320394Y-71674330D01*
X101317690Y-71668587D01*
X101317658Y-71668523D01*
X101315447Y-71664301D01*
X101313400Y-71661000D01*
X101311113Y-71658055D01*
X101308178Y-71654902D01*
X101307083Y-71653803D01*
X101301869Y-71649016D01*
X101296851Y-71645327D01*
X101291511Y-71642408D01*
X101285335Y-71639935D01*
X101284997Y-71639818D01*
X101275344Y-71637303D01*
X101265629Y-71636367D01*
X101255934Y-71637002D01*
X101246343Y-71639202D01*
X101236941Y-71642960D01*
X101235458Y-71643707D01*
X101231667Y-71646093D01*
X101227378Y-71649477D01*
X101222950Y-71653513D01*
X101218739Y-71657856D01*
X101215102Y-71662161D01*
X101212557Y-71665816D01*
X101209115Y-71672438D01*
X101206163Y-71679907D01*
X101203843Y-71687735D01*
X101202297Y-71695435D01*
X101201665Y-71702518D01*
X101201658Y-71703437D01*
X101116506Y-71703437D01*
X101116506Y-71571452D01*
X101158676Y-71571452D01*
X101200847Y-71571452D01*
X101200847Y-71587446D01*
X101200847Y-71603439D01*
X101206573Y-71597308D01*
X101214313Y-71589902D01*
X101223004Y-71583139D01*
X101232322Y-71577218D01*
X101241944Y-71572334D01*
X101251545Y-71568685D01*
X101255606Y-71567539D01*
X101261492Y-71566202D01*
X101267070Y-71565263D01*
X101272833Y-71564667D01*
X101279275Y-71564362D01*
X101285481Y-71564291D01*
X101297243Y-71564655D01*
G37*
G36*
X103557829Y-71563376D02*
G01*
X103566194Y-71563864D01*
X103574108Y-71564779D01*
X103582127Y-71566186D01*
X103590807Y-71568156D01*
X103592718Y-71568635D01*
X103599491Y-71570438D01*
X103605200Y-71572172D01*
X103610352Y-71574022D01*
X103615455Y-71576175D01*
X103621016Y-71578815D01*
X103622255Y-71579432D01*
X103631007Y-71584275D01*
X103638640Y-71589536D01*
X103644955Y-71594908D01*
X103649504Y-71599151D01*
X103647845Y-71601016D01*
X103646989Y-71601999D01*
X103645210Y-71604056D01*
X103642623Y-71607053D01*
X103639344Y-71610858D01*
X103635487Y-71615337D01*
X103631166Y-71620357D01*
X103626497Y-71625786D01*
X103623273Y-71629535D01*
X103618467Y-71635125D01*
X103613958Y-71640364D01*
X103609858Y-71645126D01*
X103606277Y-71649281D01*
X103603324Y-71652701D01*
X103601112Y-71655259D01*
X103599750Y-71656827D01*
X103599365Y-71657262D01*
X103598697Y-71657599D01*
X103597713Y-71657240D01*
X103596178Y-71656033D01*
X103593861Y-71653824D01*
X103593302Y-71653268D01*
X103588086Y-71648878D01*
X103581714Y-71644858D01*
X103574615Y-71641444D01*
X103567497Y-71638953D01*
X103562178Y-71637854D01*
X103556002Y-71637236D01*
X103549530Y-71637108D01*
X103543325Y-71637475D01*
X103537948Y-71638344D01*
X103536981Y-71638589D01*
X103528714Y-71641655D01*
X103520861Y-71646116D01*
X103513677Y-71651788D01*
X103507416Y-71658483D01*
X103504542Y-71662408D01*
X103499350Y-71671573D01*
X103495525Y-71681353D01*
X103493080Y-71691552D01*
X103492030Y-71701974D01*
X103492389Y-71712425D01*
X103494172Y-71722709D01*
X103497392Y-71732630D01*
X103499134Y-71736552D01*
X103504089Y-71745135D01*
X103510072Y-71752563D01*
X103516963Y-71758790D01*
X103524646Y-71763768D01*
X103533005Y-71767450D01*
X103541921Y-71769788D01*
X103551278Y-71770736D01*
X103560960Y-71770246D01*
X103570848Y-71768270D01*
X103574712Y-71767094D01*
X103582934Y-71763852D01*
X103589916Y-71759987D01*
X103595939Y-71755345D01*
X103596181Y-71755125D01*
X103598424Y-71753233D01*
X103600206Y-71752024D01*
X103601222Y-71751702D01*
X103601297Y-71751751D01*
X103602544Y-71753196D01*
X103604578Y-71755627D01*
X103607281Y-71758896D01*
X103610533Y-71762856D01*
X103614215Y-71767361D01*
X103618208Y-71772263D01*
X103622394Y-71777415D01*
X103626654Y-71782671D01*
X103630868Y-71787884D01*
X103634917Y-71792905D01*
X103638684Y-71797590D01*
X103642048Y-71801790D01*
X103644891Y-71805359D01*
X103647094Y-71808149D01*
X103648537Y-71810014D01*
X103649103Y-71810807D01*
X103649107Y-71810821D01*
X103648499Y-71811699D01*
X103646851Y-71813278D01*
X103644425Y-71815347D01*
X103641485Y-71817693D01*
X103638293Y-71820104D01*
X103635112Y-71822369D01*
X103633193Y-71823650D01*
X103624027Y-71828861D01*
X103613555Y-71833530D01*
X103601998Y-71837579D01*
X103589571Y-71840930D01*
X103578292Y-71843206D01*
X103574417Y-71843707D01*
X103569311Y-71844129D01*
X103563336Y-71844462D01*
X103556852Y-71844698D01*
X103550218Y-71844829D01*
X103543795Y-71844847D01*
X103537943Y-71844744D01*
X103533022Y-71844511D01*
X103530593Y-71844297D01*
X103514819Y-71841836D01*
X103499837Y-71838089D01*
X103485699Y-71833093D01*
X103472459Y-71826881D01*
X103460168Y-71819488D01*
X103448879Y-71810947D01*
X103438646Y-71801293D01*
X103429519Y-71790560D01*
X103421552Y-71778783D01*
X103416762Y-71770070D01*
X103411202Y-71757704D01*
X103406975Y-71745287D01*
X103404017Y-71732542D01*
X103402265Y-71719193D01*
X103401656Y-71704963D01*
X103401655Y-71704155D01*
X103402297Y-71689315D01*
X103404208Y-71675160D01*
X103407368Y-71661820D01*
X103410100Y-71653597D01*
X103415972Y-71639821D01*
X103422866Y-71627250D01*
X103430831Y-71615828D01*
X103439915Y-71605499D01*
X103450170Y-71596207D01*
X103461643Y-71587897D01*
X103474384Y-71580513D01*
X103475443Y-71579969D01*
X103488262Y-71574127D01*
X103501288Y-71569590D01*
X103514743Y-71566309D01*
X103528850Y-71564231D01*
X103543830Y-71563307D01*
X103548455Y-71563246D01*
X103557829Y-71563376D01*
G37*
G36*
X101610450Y-71563640D02*
G01*
X101625441Y-71565848D01*
X101640012Y-71569512D01*
X101641549Y-71569994D01*
X101653756Y-71574722D01*
X101665382Y-71580875D01*
X101676322Y-71588356D01*
X101686466Y-71597068D01*
X101695707Y-71606917D01*
X101703937Y-71617805D01*
X101711048Y-71629638D01*
X101713104Y-71633679D01*
X101718019Y-71644936D01*
X101721922Y-71656538D01*
X101724854Y-71668687D01*
X101726853Y-71681585D01*
X101727960Y-71695434D01*
X101728212Y-71710436D01*
X101728199Y-71711489D01*
X101727974Y-71727800D01*
X101632296Y-71728002D01*
X101536617Y-71728204D01*
X101536634Y-71730389D01*
X101537038Y-71733056D01*
X101538095Y-71736604D01*
X101539623Y-71740560D01*
X101541437Y-71744452D01*
X101543354Y-71747808D01*
X101543477Y-71747994D01*
X101549570Y-71755778D01*
X101556696Y-71762432D01*
X101564719Y-71767909D01*
X101573505Y-71772161D01*
X101582922Y-71775143D01*
X101592833Y-71776806D01*
X101603106Y-71777104D01*
X101613606Y-71775990D01*
X101619649Y-71774703D01*
X101626494Y-71772390D01*
X101633629Y-71768945D01*
X101640605Y-71764646D01*
X101646977Y-71759773D01*
X101652296Y-71754604D01*
X101652774Y-71754057D01*
X101654606Y-71751987D01*
X101656058Y-71750466D01*
X101656784Y-71749843D01*
X101657541Y-71750208D01*
X101659475Y-71751322D01*
X101662419Y-71753083D01*
X101666209Y-71755386D01*
X101670678Y-71758127D01*
X101675660Y-71761204D01*
X101680989Y-71764512D01*
X101686499Y-71767947D01*
X101692025Y-71771406D01*
X101697399Y-71774785D01*
X101702457Y-71777980D01*
X101707031Y-71780889D01*
X101710957Y-71783406D01*
X101714067Y-71785428D01*
X101716197Y-71786852D01*
X101717168Y-71787563D01*
X101717719Y-71788376D01*
X101717515Y-71789467D01*
X101716443Y-71791261D01*
X101716040Y-71791851D01*
X101708699Y-71801128D01*
X101700008Y-71809807D01*
X101690132Y-71817769D01*
X101679237Y-71824897D01*
X101667490Y-71831074D01*
X101655056Y-71836181D01*
X101651712Y-71837327D01*
X101642815Y-71839955D01*
X101633904Y-71841958D01*
X101624611Y-71843391D01*
X101614570Y-71844308D01*
X101603416Y-71844763D01*
X101601464Y-71844797D01*
X101595907Y-71844840D01*
X101590488Y-71844812D01*
X101585551Y-71844720D01*
X101581436Y-71844571D01*
X101578488Y-71844372D01*
X101577992Y-71844317D01*
X101562472Y-71841724D01*
X101547665Y-71837881D01*
X101533654Y-71832829D01*
X101520523Y-71826612D01*
X101508356Y-71819270D01*
X101497237Y-71810848D01*
X101487248Y-71801386D01*
X101482707Y-71796281D01*
X101474080Y-71784777D01*
X101466821Y-71772472D01*
X101460945Y-71759405D01*
X101456469Y-71745615D01*
X101453409Y-71731141D01*
X101452319Y-71722743D01*
X101451602Y-71711258D01*
X101451665Y-71699154D01*
X101452478Y-71687021D01*
X101454009Y-71675448D01*
X101454418Y-71673297D01*
X101536436Y-71673297D01*
X101591544Y-71673297D01*
X101646652Y-71673297D01*
X101646148Y-71667336D01*
X101644761Y-71659253D01*
X101642081Y-71651578D01*
X101638247Y-71644532D01*
X101633398Y-71638334D01*
X101627672Y-71633206D01*
X101622731Y-71630114D01*
X101617874Y-71627842D01*
X101613132Y-71626223D01*
X101608090Y-71625171D01*
X101602334Y-71624601D01*
X101595450Y-71624428D01*
X101595098Y-71624429D01*
X101588548Y-71624575D01*
X101583119Y-71625052D01*
X101578358Y-71625947D01*
X101573813Y-71627347D01*
X101569033Y-71629340D01*
X101568528Y-71629574D01*
X101560531Y-71634066D01*
X101553469Y-71639584D01*
X101547467Y-71645966D01*
X101542652Y-71653055D01*
X101539150Y-71660690D01*
X101537087Y-71668712D01*
X101536966Y-71669517D01*
X101536436Y-71673297D01*
X101454418Y-71673297D01*
X101455022Y-71670114D01*
X101457431Y-71660954D01*
X101460826Y-71651210D01*
X101464998Y-71641352D01*
X101469741Y-71631850D01*
X101474846Y-71623172D01*
X101477528Y-71619206D01*
X101486014Y-71608653D01*
X101495760Y-71598952D01*
X101506618Y-71590222D01*
X101518436Y-71582576D01*
X101531066Y-71576132D01*
X101535614Y-71574197D01*
X101549955Y-71569231D01*
X101564792Y-71565685D01*
X101579942Y-71563566D01*
X101595223Y-71562882D01*
X101610450Y-71563640D01*
G37*
G36*
X103827967Y-71563640D02*
G01*
X103842958Y-71565848D01*
X103857529Y-71569512D01*
X103859066Y-71569994D01*
X103871273Y-71574722D01*
X103882900Y-71580875D01*
X103893839Y-71588356D01*
X103903983Y-71597068D01*
X103913224Y-71606917D01*
X103921454Y-71617805D01*
X103928565Y-71629638D01*
X103930622Y-71633679D01*
X103935536Y-71644936D01*
X103939439Y-71656538D01*
X103942371Y-71668687D01*
X103944371Y-71681585D01*
X103945477Y-71695434D01*
X103945729Y-71710436D01*
X103945716Y-71711489D01*
X103945492Y-71727800D01*
X103849813Y-71728002D01*
X103754134Y-71728204D01*
X103754151Y-71730389D01*
X103754555Y-71733056D01*
X103755613Y-71736604D01*
X103757140Y-71740560D01*
X103758954Y-71744452D01*
X103760871Y-71747808D01*
X103760994Y-71747994D01*
X103767087Y-71755778D01*
X103774213Y-71762432D01*
X103782236Y-71767909D01*
X103791023Y-71772161D01*
X103800439Y-71775143D01*
X103810350Y-71776806D01*
X103820623Y-71777104D01*
X103831123Y-71775990D01*
X103837166Y-71774703D01*
X103844012Y-71772390D01*
X103851146Y-71768945D01*
X103858123Y-71764646D01*
X103864494Y-71759773D01*
X103869813Y-71754604D01*
X103870291Y-71754057D01*
X103872123Y-71751987D01*
X103873575Y-71750466D01*
X103874302Y-71749843D01*
X103875058Y-71750208D01*
X103876992Y-71751322D01*
X103879936Y-71753083D01*
X103883726Y-71755386D01*
X103888195Y-71758127D01*
X103893177Y-71761204D01*
X103898506Y-71764512D01*
X103904017Y-71767947D01*
X103909542Y-71771406D01*
X103914916Y-71774785D01*
X103919974Y-71777980D01*
X103924548Y-71780889D01*
X103928474Y-71783406D01*
X103931585Y-71785428D01*
X103933714Y-71786852D01*
X103934685Y-71787563D01*
X103935236Y-71788376D01*
X103935032Y-71789467D01*
X103933960Y-71791261D01*
X103933557Y-71791851D01*
X103926216Y-71801128D01*
X103917525Y-71809807D01*
X103907649Y-71817769D01*
X103896754Y-71824897D01*
X103885007Y-71831074D01*
X103872574Y-71836181D01*
X103869229Y-71837327D01*
X103860332Y-71839955D01*
X103851421Y-71841958D01*
X103842128Y-71843391D01*
X103832088Y-71844308D01*
X103820933Y-71844763D01*
X103818981Y-71844797D01*
X103813424Y-71844840D01*
X103808006Y-71844812D01*
X103803068Y-71844720D01*
X103798954Y-71844571D01*
X103796005Y-71844372D01*
X103795509Y-71844317D01*
X103779989Y-71841724D01*
X103765182Y-71837881D01*
X103751171Y-71832829D01*
X103738040Y-71826612D01*
X103725873Y-71819270D01*
X103714754Y-71810848D01*
X103704765Y-71801386D01*
X103700224Y-71796281D01*
X103691598Y-71784777D01*
X103684338Y-71772472D01*
X103678462Y-71759405D01*
X103673986Y-71745615D01*
X103670926Y-71731141D01*
X103669836Y-71722743D01*
X103669120Y-71711258D01*
X103669183Y-71699154D01*
X103669995Y-71687021D01*
X103671526Y-71675448D01*
X103671935Y-71673297D01*
X103753954Y-71673297D01*
X103809062Y-71673297D01*
X103864169Y-71673297D01*
X103863666Y-71667336D01*
X103862279Y-71659253D01*
X103859599Y-71651578D01*
X103855764Y-71644532D01*
X103850915Y-71638334D01*
X103845189Y-71633206D01*
X103840248Y-71630114D01*
X103835391Y-71627842D01*
X103830649Y-71626223D01*
X103825607Y-71625171D01*
X103819851Y-71624601D01*
X103812967Y-71624428D01*
X103812616Y-71624429D01*
X103806065Y-71624575D01*
X103800636Y-71625052D01*
X103795875Y-71625947D01*
X103791330Y-71627347D01*
X103786550Y-71629340D01*
X103786046Y-71629574D01*
X103778048Y-71634066D01*
X103770986Y-71639584D01*
X103764984Y-71645966D01*
X103760169Y-71653055D01*
X103756667Y-71660690D01*
X103754604Y-71668712D01*
X103754483Y-71669517D01*
X103753954Y-71673297D01*
X103671935Y-71673297D01*
X103672539Y-71670114D01*
X103674948Y-71660954D01*
X103678343Y-71651210D01*
X103682515Y-71641352D01*
X103687258Y-71631850D01*
X103692363Y-71623172D01*
X103695045Y-71619206D01*
X103703531Y-71608653D01*
X103713278Y-71598952D01*
X103724135Y-71590222D01*
X103735953Y-71582576D01*
X103748583Y-71576132D01*
X103753131Y-71574197D01*
X103767472Y-71569231D01*
X103782309Y-71565685D01*
X103797459Y-71563566D01*
X103812740Y-71562882D01*
X103827967Y-71563640D01*
G37*
G36*
X106494239Y-71563640D02*
G01*
X106509230Y-71565848D01*
X106523801Y-71569512D01*
X106525338Y-71569994D01*
X106537545Y-71574722D01*
X106549172Y-71580875D01*
X106560111Y-71588356D01*
X106570255Y-71597068D01*
X106579496Y-71606917D01*
X106587726Y-71617805D01*
X106594837Y-71629638D01*
X106596894Y-71633679D01*
X106601808Y-71644936D01*
X106605711Y-71656538D01*
X106608643Y-71668687D01*
X106610642Y-71681585D01*
X106611749Y-71695434D01*
X106612001Y-71710436D01*
X106611988Y-71711489D01*
X106611764Y-71727800D01*
X106516085Y-71728002D01*
X106420406Y-71728204D01*
X106420423Y-71730389D01*
X106420827Y-71733056D01*
X106421885Y-71736604D01*
X106423412Y-71740560D01*
X106425226Y-71744452D01*
X106427143Y-71747808D01*
X106427266Y-71747994D01*
X106433359Y-71755778D01*
X106440485Y-71762432D01*
X106448508Y-71767909D01*
X106457294Y-71772161D01*
X106466711Y-71775143D01*
X106476622Y-71776806D01*
X106486895Y-71777104D01*
X106497395Y-71775990D01*
X106503438Y-71774703D01*
X106510284Y-71772390D01*
X106517418Y-71768945D01*
X106524395Y-71764646D01*
X106530766Y-71759773D01*
X106536085Y-71754604D01*
X106536563Y-71754057D01*
X106538395Y-71751987D01*
X106539847Y-71750466D01*
X106540574Y-71749843D01*
X106541330Y-71750208D01*
X106543264Y-71751322D01*
X106546208Y-71753083D01*
X106549998Y-71755386D01*
X106554467Y-71758127D01*
X106559449Y-71761204D01*
X106564778Y-71764512D01*
X106570289Y-71767947D01*
X106575814Y-71771406D01*
X106581188Y-71774785D01*
X106586246Y-71777980D01*
X106590820Y-71780889D01*
X106594746Y-71783406D01*
X106597857Y-71785428D01*
X106599986Y-71786852D01*
X106600957Y-71787563D01*
X106601508Y-71788376D01*
X106601304Y-71789467D01*
X106600232Y-71791261D01*
X106599829Y-71791851D01*
X106592488Y-71801128D01*
X106583797Y-71809807D01*
X106573921Y-71817769D01*
X106563026Y-71824897D01*
X106551279Y-71831074D01*
X106538846Y-71836181D01*
X106535501Y-71837327D01*
X106526604Y-71839955D01*
X106517693Y-71841958D01*
X106508400Y-71843391D01*
X106498360Y-71844308D01*
X106487205Y-71844763D01*
X106485253Y-71844797D01*
X106479696Y-71844840D01*
X106474278Y-71844812D01*
X106469340Y-71844720D01*
X106465225Y-71844571D01*
X106462277Y-71844372D01*
X106461781Y-71844317D01*
X106446261Y-71841724D01*
X106431454Y-71837881D01*
X106417443Y-71832829D01*
X106404312Y-71826612D01*
X106392145Y-71819270D01*
X106381026Y-71810848D01*
X106371037Y-71801386D01*
X106366496Y-71796281D01*
X106357870Y-71784777D01*
X106350610Y-71772472D01*
X106344734Y-71759405D01*
X106340258Y-71745615D01*
X106337198Y-71731141D01*
X106336108Y-71722743D01*
X106335392Y-71711258D01*
X106335455Y-71699154D01*
X106336267Y-71687021D01*
X106337798Y-71675448D01*
X106338207Y-71673297D01*
X106420226Y-71673297D01*
X106475333Y-71673297D01*
X106530441Y-71673297D01*
X106529938Y-71667336D01*
X106528551Y-71659253D01*
X106525870Y-71651578D01*
X106522036Y-71644532D01*
X106517187Y-71638334D01*
X106511461Y-71633206D01*
X106506520Y-71630114D01*
X106501663Y-71627842D01*
X106496921Y-71626223D01*
X106491879Y-71625171D01*
X106486123Y-71624601D01*
X106479239Y-71624428D01*
X106478888Y-71624429D01*
X106472337Y-71624575D01*
X106466908Y-71625052D01*
X106462147Y-71625947D01*
X106457602Y-71627347D01*
X106452822Y-71629340D01*
X106452318Y-71629574D01*
X106444320Y-71634066D01*
X106437258Y-71639584D01*
X106431256Y-71645966D01*
X106426441Y-71653055D01*
X106422939Y-71660690D01*
X106420876Y-71668712D01*
X106420755Y-71669517D01*
X106420226Y-71673297D01*
X106338207Y-71673297D01*
X106338811Y-71670114D01*
X106341220Y-71660954D01*
X106344615Y-71651210D01*
X106348787Y-71641352D01*
X106353530Y-71631850D01*
X106358635Y-71623172D01*
X106361317Y-71619206D01*
X106369803Y-71608653D01*
X106379550Y-71598952D01*
X106390407Y-71590222D01*
X106402225Y-71582576D01*
X106414855Y-71576132D01*
X106419403Y-71574197D01*
X106433744Y-71569231D01*
X106448581Y-71565685D01*
X106463731Y-71563566D01*
X106479012Y-71562882D01*
X106494239Y-71563640D01*
G37*
G36*
X102517868Y-70777715D02*
G01*
X102518069Y-70883079D01*
X102525007Y-70877310D01*
X102539955Y-70865760D01*
X102555203Y-70855745D01*
X102570844Y-70847226D01*
X102586969Y-70840160D01*
X102603672Y-70834507D01*
X102621043Y-70830224D01*
X102635430Y-70827764D01*
X102640934Y-70827174D01*
X102647667Y-70826738D01*
X102655275Y-70826454D01*
X102663404Y-70826322D01*
X102671698Y-70826342D01*
X102679803Y-70826514D01*
X102687365Y-70826837D01*
X102694029Y-70827311D01*
X102698685Y-70827827D01*
X102710440Y-70829822D01*
X102720853Y-70832420D01*
X102730079Y-70835682D01*
X102738273Y-70839671D01*
X102745589Y-70844449D01*
X102750933Y-70848899D01*
X102756778Y-70854984D01*
X102761858Y-70861808D01*
X102766210Y-70869476D01*
X102769873Y-70878096D01*
X102772881Y-70887773D01*
X102775274Y-70898615D01*
X102777088Y-70910727D01*
X102778360Y-70924217D01*
X102778618Y-70928157D01*
X102778730Y-70930849D01*
X102778836Y-70935050D01*
X102778934Y-70940681D01*
X102779026Y-70947659D01*
X102779110Y-70955903D01*
X102779186Y-70965332D01*
X102779252Y-70975865D01*
X102779310Y-70987420D01*
X102779357Y-70999916D01*
X102779394Y-71013273D01*
X102779420Y-71027407D01*
X102779435Y-71042239D01*
X102779437Y-71051567D01*
X102779445Y-71161451D01*
X102785214Y-71161919D01*
X102787562Y-71162095D01*
X102791221Y-71162351D01*
X102795911Y-71162670D01*
X102801355Y-71163032D01*
X102807275Y-71163418D01*
X102813062Y-71163788D01*
X102835142Y-71165191D01*
X102835142Y-71199242D01*
X102835142Y-71233294D01*
X102730114Y-71233294D01*
X102625086Y-71233294D01*
X102625086Y-71199256D01*
X102625086Y-71165217D01*
X102647564Y-71163798D01*
X102653753Y-71163405D01*
X102659750Y-71163018D01*
X102665275Y-71162658D01*
X102670050Y-71162341D01*
X102673793Y-71162086D01*
X102676208Y-71161914D01*
X102682374Y-71161449D01*
X102682353Y-71067877D01*
X102682346Y-71051996D01*
X102682328Y-71037621D01*
X102682299Y-71024665D01*
X102682256Y-71013042D01*
X102682198Y-71002667D01*
X102682120Y-70993454D01*
X102682023Y-70985317D01*
X102681903Y-70978170D01*
X102681758Y-70971926D01*
X102681586Y-70966501D01*
X102681386Y-70961808D01*
X102681154Y-70957761D01*
X102680888Y-70954274D01*
X102680587Y-70951262D01*
X102680248Y-70948638D01*
X102679870Y-70946317D01*
X102679449Y-70944212D01*
X102679201Y-70943127D01*
X102676783Y-70935214D01*
X102673512Y-70928418D01*
X102669311Y-70922688D01*
X102664105Y-70917972D01*
X102657818Y-70914218D01*
X102650374Y-70911373D01*
X102641697Y-70909387D01*
X102631711Y-70908206D01*
X102627871Y-70907973D01*
X102617624Y-70907684D01*
X102607963Y-70907866D01*
X102598678Y-70908567D01*
X102589558Y-70909839D01*
X102580393Y-70911731D01*
X102570974Y-70914293D01*
X102561089Y-70917576D01*
X102550529Y-70921629D01*
X102539082Y-70926504D01*
X102527021Y-70932023D01*
X102517672Y-70936418D01*
X102517672Y-71048937D01*
X102517672Y-71161456D01*
X102523838Y-71161935D01*
X102526300Y-71162115D01*
X102530065Y-71162374D01*
X102534852Y-71162693D01*
X102540374Y-71163055D01*
X102546350Y-71163440D01*
X102552084Y-71163803D01*
X102574164Y-71165191D01*
X102574164Y-71199242D01*
X102574164Y-71233294D01*
X102468730Y-71233294D01*
X102363296Y-71233294D01*
X102363503Y-71199280D01*
X102363710Y-71165265D01*
X102389172Y-71163532D01*
X102395519Y-71163104D01*
X102401476Y-71162711D01*
X102406827Y-71162367D01*
X102411351Y-71162084D01*
X102414833Y-71161878D01*
X102417052Y-71161762D01*
X102417617Y-71161741D01*
X102420600Y-71161684D01*
X102420600Y-70952886D01*
X102420600Y-70744087D01*
X102415628Y-70743636D01*
X102413313Y-70743461D01*
X102409737Y-70743234D01*
X102405225Y-70742973D01*
X102400105Y-70742697D01*
X102394704Y-70742426D01*
X102393548Y-70742370D01*
X102387993Y-70742098D01*
X102382520Y-70741814D01*
X102377492Y-70741540D01*
X102373272Y-70741294D01*
X102370222Y-70741098D01*
X102369877Y-70741073D01*
X102363313Y-70740590D01*
X102363313Y-70706470D01*
X102363313Y-70672351D01*
X102440489Y-70672351D01*
X102517666Y-70672351D01*
X102517868Y-70777715D01*
G37*
G36*
X105148139Y-70763852D02*
G01*
X105148139Y-70854558D01*
X105106415Y-70854558D01*
X105064691Y-70854558D01*
X105064251Y-70851176D01*
X105064133Y-70849916D01*
X105063920Y-70847253D01*
X105063624Y-70843362D01*
X105063256Y-70838413D01*
X105062829Y-70832581D01*
X105062354Y-70826036D01*
X105061846Y-70818952D01*
X105061314Y-70811500D01*
X105060772Y-70803854D01*
X105060232Y-70796185D01*
X105059705Y-70788667D01*
X105059205Y-70781470D01*
X105058742Y-70774769D01*
X105058331Y-70768735D01*
X105057981Y-70763541D01*
X105057707Y-70759358D01*
X105057519Y-70756361D01*
X105057430Y-70754720D01*
X105057425Y-70754503D01*
X105057118Y-70754284D01*
X105056127Y-70754097D01*
X105054349Y-70753941D01*
X105051684Y-70753813D01*
X105048031Y-70753710D01*
X105043287Y-70753632D01*
X105037353Y-70753575D01*
X105030127Y-70753538D01*
X105021508Y-70753517D01*
X105011881Y-70753512D01*
X105003142Y-70753522D01*
X104994589Y-70753549D01*
X104986406Y-70753591D01*
X104978779Y-70753648D01*
X104971895Y-70753716D01*
X104965939Y-70753795D01*
X104961096Y-70753882D01*
X104957553Y-70753976D01*
X104956185Y-70754032D01*
X104946040Y-70754550D01*
X104946040Y-70953343D01*
X104946040Y-71152136D01*
X104948228Y-71152122D01*
X104949793Y-71152163D01*
X104952666Y-71152289D01*
X104956629Y-71152487D01*
X104961466Y-71152744D01*
X104966959Y-71153047D01*
X104972891Y-71153384D01*
X104979045Y-71153742D01*
X104985202Y-71154107D01*
X104991147Y-71154468D01*
X104996662Y-71154811D01*
X105001530Y-71155123D01*
X105005532Y-71155393D01*
X105008453Y-71155606D01*
X105010075Y-71155750D01*
X105010290Y-71155781D01*
X105012080Y-71156145D01*
X105012080Y-71194720D01*
X105012080Y-71233294D01*
X104891935Y-71233294D01*
X104771789Y-71233294D01*
X104771789Y-71194720D01*
X104771789Y-71156145D01*
X104773579Y-71155782D01*
X104774752Y-71155657D01*
X104777330Y-71155457D01*
X104781131Y-71155193D01*
X104785973Y-71154877D01*
X104791672Y-71154520D01*
X104798046Y-71154136D01*
X104804912Y-71153735D01*
X104806600Y-71153638D01*
X104837829Y-71151857D01*
X104837829Y-70953526D01*
X104837828Y-70931786D01*
X104837824Y-70911589D01*
X104837816Y-70892883D01*
X104837805Y-70875619D01*
X104837790Y-70859748D01*
X104837771Y-70845219D01*
X104837748Y-70831983D01*
X104837720Y-70819990D01*
X104837687Y-70809190D01*
X104837650Y-70799533D01*
X104837607Y-70790971D01*
X104837559Y-70783452D01*
X104837505Y-70776927D01*
X104837445Y-70771347D01*
X104837379Y-70766662D01*
X104837306Y-70762821D01*
X104837227Y-70759776D01*
X104837140Y-70757476D01*
X104837046Y-70755872D01*
X104836945Y-70754913D01*
X104836836Y-70754551D01*
X104836835Y-70754550D01*
X104835933Y-70754458D01*
X104833612Y-70754363D01*
X104830029Y-70754266D01*
X104825342Y-70754168D01*
X104819708Y-70754071D01*
X104813285Y-70753977D01*
X104806230Y-70753885D01*
X104798702Y-70753799D01*
X104790859Y-70753719D01*
X104782857Y-70753646D01*
X104774854Y-70753582D01*
X104767009Y-70753528D01*
X104759479Y-70753486D01*
X104752421Y-70753456D01*
X104745993Y-70753441D01*
X104740354Y-70753441D01*
X104735660Y-70753458D01*
X104732069Y-70753494D01*
X104729739Y-70753549D01*
X104728828Y-70753624D01*
X104728821Y-70753633D01*
X104728766Y-70754453D01*
X104728605Y-70756725D01*
X104728350Y-70760314D01*
X104728009Y-70765085D01*
X104727593Y-70770902D01*
X104727111Y-70777630D01*
X104726572Y-70785134D01*
X104725987Y-70793279D01*
X104725366Y-70801929D01*
X104725243Y-70803635D01*
X104724615Y-70812379D01*
X104724022Y-70820651D01*
X104723473Y-70828316D01*
X104722979Y-70835237D01*
X104722550Y-70841278D01*
X104722194Y-70846303D01*
X104721921Y-70850174D01*
X104721742Y-70852757D01*
X104721666Y-70853914D01*
X104721664Y-70853961D01*
X104720893Y-70854075D01*
X104718677Y-70854182D01*
X104715164Y-70854280D01*
X104710500Y-70854366D01*
X104704834Y-70854439D01*
X104698311Y-70854496D01*
X104691079Y-70854536D01*
X104683285Y-70854556D01*
X104679890Y-70854558D01*
X104638118Y-70854558D01*
X104638118Y-70763852D01*
X104638118Y-70673146D01*
X104893128Y-70673146D01*
X105148139Y-70673146D01*
X105148139Y-70763852D01*
G37*
G36*
X100867889Y-71450136D02*
G01*
X100885609Y-71451473D01*
X100903134Y-71454064D01*
X100920324Y-71457916D01*
X100937040Y-71463037D01*
X100953143Y-71469432D01*
X100959362Y-71472340D01*
X100974488Y-71480541D01*
X100988455Y-71489801D01*
X101001339Y-71500176D01*
X101011801Y-71510229D01*
X101022781Y-71522797D01*
X101032449Y-71536260D01*
X101040808Y-71550620D01*
X101047859Y-71565881D01*
X101053604Y-71582047D01*
X101058044Y-71599122D01*
X101061182Y-71617110D01*
X101061310Y-71618074D01*
X101061948Y-71624411D01*
X101062392Y-71631900D01*
X101062641Y-71640123D01*
X101062695Y-71648664D01*
X101062555Y-71657104D01*
X101062220Y-71665028D01*
X101061690Y-71672016D01*
X101061319Y-71675286D01*
X101058238Y-71693082D01*
X101053769Y-71710286D01*
X101047947Y-71726811D01*
X101040807Y-71742575D01*
X101032386Y-71757494D01*
X101022718Y-71771482D01*
X101018036Y-71777373D01*
X101006982Y-71789465D01*
X100994767Y-71800526D01*
X100981475Y-71810514D01*
X100967193Y-71819386D01*
X100952005Y-71827099D01*
X100935997Y-71833613D01*
X100919255Y-71838883D01*
X100901864Y-71842867D01*
X100883910Y-71845523D01*
X100880194Y-71845897D01*
X100875181Y-71846240D01*
X100869013Y-71846473D01*
X100862121Y-71846596D01*
X100854938Y-71846609D01*
X100847896Y-71846513D01*
X100841426Y-71846309D01*
X100835961Y-71845995D01*
X100834443Y-71845867D01*
X100815922Y-71843400D01*
X100798072Y-71839538D01*
X100780934Y-71834299D01*
X100764554Y-71827702D01*
X100748975Y-71819767D01*
X100734239Y-71810513D01*
X100720392Y-71799958D01*
X100711327Y-71791879D01*
X100699422Y-71779510D01*
X100688840Y-71766260D01*
X100679586Y-71752138D01*
X100671664Y-71737154D01*
X100665078Y-71721316D01*
X100659834Y-71704636D01*
X100655937Y-71687121D01*
X100653789Y-71672501D01*
X100653293Y-71666772D01*
X100652965Y-71659926D01*
X100652800Y-71652326D01*
X100652798Y-71649265D01*
X100751612Y-71649265D01*
X100751803Y-71656712D01*
X100752221Y-71663702D01*
X100752864Y-71669842D01*
X100753582Y-71674092D01*
X100757152Y-71687557D01*
X100761892Y-71700141D01*
X100767755Y-71711752D01*
X100774694Y-71722298D01*
X100782663Y-71731689D01*
X100783336Y-71732380D01*
X100788493Y-71737371D01*
X100793379Y-71741493D01*
X100798578Y-71745197D01*
X100804672Y-71748933D01*
X100805004Y-71749125D01*
X100816136Y-71754638D01*
X100827916Y-71758754D01*
X100840184Y-71761447D01*
X100852781Y-71762692D01*
X100865546Y-71762463D01*
X100877838Y-71760828D01*
X100890209Y-71757700D01*
X100901816Y-71753225D01*
X100912606Y-71747481D01*
X100922525Y-71740546D01*
X100931519Y-71732496D01*
X100939535Y-71723411D01*
X100946519Y-71713367D01*
X100952418Y-71702441D01*
X100957178Y-71690712D01*
X100960745Y-71678257D01*
X100963066Y-71665154D01*
X100964087Y-71651479D01*
X100963754Y-71637311D01*
X100963702Y-71636600D01*
X100961960Y-71622745D01*
X100958924Y-71609592D01*
X100954638Y-71597216D01*
X100949150Y-71585691D01*
X100942504Y-71575093D01*
X100934747Y-71565495D01*
X100925924Y-71556974D01*
X100916081Y-71549602D01*
X100907212Y-71544433D01*
X100897582Y-71540040D01*
X100887801Y-71536765D01*
X100877609Y-71534558D01*
X100866744Y-71533371D01*
X100854946Y-71533152D01*
X100849128Y-71533363D01*
X100836911Y-71534753D01*
X100825062Y-71537588D01*
X100813711Y-71541783D01*
X100802987Y-71547252D01*
X100793020Y-71553909D01*
X100783938Y-71561670D01*
X100775870Y-71570447D01*
X100768947Y-71580155D01*
X100763548Y-71590160D01*
X100760977Y-71596299D01*
X100758430Y-71603399D01*
X100756107Y-71610840D01*
X100754203Y-71618001D01*
X100753178Y-71622772D01*
X100752431Y-71628115D01*
X100751922Y-71634574D01*
X100751651Y-71641755D01*
X100751612Y-71649265D01*
X100652798Y-71649265D01*
X100652794Y-71644339D01*
X100652941Y-71636328D01*
X100653238Y-71628659D01*
X100653679Y-71621696D01*
X100654259Y-71615804D01*
X100654538Y-71613778D01*
X100657966Y-71595955D01*
X100662664Y-71579088D01*
X100668637Y-71563168D01*
X100675887Y-71548187D01*
X100684419Y-71534136D01*
X100694238Y-71521008D01*
X100703500Y-71510667D01*
X100712285Y-71502060D01*
X100720942Y-71494538D01*
X100729937Y-71487712D01*
X100735781Y-71483729D01*
X100750058Y-71475290D01*
X100765252Y-71468048D01*
X100781224Y-71462011D01*
X100797836Y-71457184D01*
X100814947Y-71453577D01*
X100832419Y-71451195D01*
X100850113Y-71450045D01*
X100867889Y-71450136D01*
G37*
G36*
X106069518Y-70785372D02*
G01*
X106069518Y-70889642D01*
X106074905Y-70885005D01*
X106089726Y-70873207D01*
X106105025Y-70862921D01*
X106120818Y-70854141D01*
X106137126Y-70846861D01*
X106153965Y-70841075D01*
X106171353Y-70836777D01*
X106189311Y-70833961D01*
X106207854Y-70832621D01*
X106227002Y-70832751D01*
X106232130Y-70833027D01*
X106244960Y-70834132D01*
X106256403Y-70835755D01*
X106266593Y-70837943D01*
X106275662Y-70840745D01*
X106283746Y-70844209D01*
X106290976Y-70848382D01*
X106297487Y-70853313D01*
X106302827Y-70858422D01*
X106308279Y-70865043D01*
X106312991Y-70872604D01*
X106317005Y-70881216D01*
X106320366Y-70890991D01*
X106323118Y-70902040D01*
X106325307Y-70914474D01*
X106325444Y-70915426D01*
X106325629Y-70916849D01*
X106325798Y-70918431D01*
X106325951Y-70920252D01*
X106326089Y-70922393D01*
X106326214Y-70924936D01*
X106326326Y-70927960D01*
X106326426Y-70931546D01*
X106326516Y-70935775D01*
X106326596Y-70940728D01*
X106326668Y-70946485D01*
X106326732Y-70953126D01*
X106326790Y-70960733D01*
X106326842Y-70969386D01*
X106326890Y-70979166D01*
X106326935Y-70990153D01*
X106326977Y-71002428D01*
X106327018Y-71016071D01*
X106327058Y-71031164D01*
X106327090Y-71043684D01*
X106327381Y-71162393D01*
X106330729Y-71162816D01*
X106332448Y-71162982D01*
X106335492Y-71163223D01*
X106339600Y-71163519D01*
X106344507Y-71163852D01*
X106349951Y-71164204D01*
X106353968Y-71164454D01*
X106359693Y-71164811D01*
X106365122Y-71165164D01*
X106369977Y-71165495D01*
X106373984Y-71165783D01*
X106376865Y-71166011D01*
X106378037Y-71166120D01*
X106382214Y-71166573D01*
X106382214Y-71199934D01*
X106382214Y-71233294D01*
X106278778Y-71233294D01*
X106175342Y-71233294D01*
X106175342Y-71199954D01*
X106175342Y-71166615D01*
X106179917Y-71166142D01*
X106181984Y-71165963D01*
X106185361Y-71165712D01*
X106189769Y-71165407D01*
X106194931Y-71165067D01*
X106200567Y-71164712D01*
X106204781Y-71164456D01*
X106210502Y-71164105D01*
X106215871Y-71163759D01*
X106220629Y-71163436D01*
X106224516Y-71163154D01*
X106227272Y-71162932D01*
X106228452Y-71162813D01*
X106231834Y-71162383D01*
X106231833Y-71066753D01*
X106231830Y-71051468D01*
X106231821Y-71037685D01*
X106231803Y-71025313D01*
X106231773Y-71014262D01*
X106231729Y-71004441D01*
X106231668Y-70995761D01*
X106231590Y-70988131D01*
X106231489Y-70981461D01*
X106231366Y-70975662D01*
X106231216Y-70970642D01*
X106231039Y-70966311D01*
X106230830Y-70962580D01*
X106230588Y-70959359D01*
X106230311Y-70956556D01*
X106229996Y-70954083D01*
X106229640Y-70951848D01*
X106229242Y-70949762D01*
X106228798Y-70947734D01*
X106228643Y-70947067D01*
X106226375Y-70939614D01*
X106223288Y-70933195D01*
X106219300Y-70927758D01*
X106214327Y-70923251D01*
X106208286Y-70919621D01*
X106201096Y-70916816D01*
X106192672Y-70914783D01*
X106182932Y-70913471D01*
X106174546Y-70912921D01*
X106164093Y-70912783D01*
X106153967Y-70913281D01*
X106143964Y-70914467D01*
X106133882Y-70916390D01*
X106123521Y-70919101D01*
X106112678Y-70922650D01*
X106101151Y-70927087D01*
X106088738Y-70932464D01*
X106080061Y-70936504D01*
X106069518Y-70941529D01*
X106069518Y-71051948D01*
X106069518Y-71162366D01*
X106073695Y-71162816D01*
X106075682Y-71162993D01*
X106078973Y-71163246D01*
X106083283Y-71163554D01*
X106088327Y-71163898D01*
X106093819Y-71164256D01*
X106096969Y-71164454D01*
X106102649Y-71164815D01*
X106108094Y-71165173D01*
X106113007Y-71165508D01*
X106117087Y-71165799D01*
X106120035Y-71166027D01*
X106121037Y-71166114D01*
X106126010Y-71166585D01*
X106126010Y-71199940D01*
X106126010Y-71233294D01*
X106022176Y-71233294D01*
X105918342Y-71233294D01*
X105918342Y-71199954D01*
X105918342Y-71166615D01*
X105922917Y-71166147D01*
X105924997Y-71165967D01*
X105928383Y-71165712D01*
X105932791Y-71165403D01*
X105937940Y-71165059D01*
X105943547Y-71164698D01*
X105947384Y-71164460D01*
X105953051Y-71164103D01*
X105958369Y-71163753D01*
X105963074Y-71163426D01*
X105966902Y-71163143D01*
X105969591Y-71162921D01*
X105970657Y-71162811D01*
X105974038Y-71162383D01*
X105974038Y-70957199D01*
X105974038Y-70752015D01*
X105970657Y-70751601D01*
X105968864Y-70751440D01*
X105965771Y-70751225D01*
X105961665Y-70750975D01*
X105956837Y-70750705D01*
X105951576Y-70750434D01*
X105949771Y-70750346D01*
X105944130Y-70750068D01*
X105938548Y-70749779D01*
X105933389Y-70749501D01*
X105929015Y-70749251D01*
X105925792Y-70749051D01*
X105925304Y-70749017D01*
X105918342Y-70748529D01*
X105918342Y-70714816D01*
X105918342Y-70681103D01*
X105993930Y-70681103D01*
X106069518Y-70681103D01*
X106069518Y-70785372D01*
G37*
G36*
X104352818Y-70832636D02*
G01*
X104361817Y-70833062D01*
X104370703Y-70833735D01*
X104378958Y-70834625D01*
X104384989Y-70835512D01*
X104396937Y-70838150D01*
X104407703Y-70841772D01*
X104417262Y-70846364D01*
X104425588Y-70851913D01*
X104432656Y-70858406D01*
X104435382Y-70861585D01*
X104440711Y-70869361D01*
X104445361Y-70878335D01*
X104449200Y-70888211D01*
X104452098Y-70898693D01*
X104452362Y-70899911D01*
X104452871Y-70902314D01*
X104453333Y-70904523D01*
X104453751Y-70906622D01*
X104454126Y-70908694D01*
X104454462Y-70910823D01*
X104454762Y-70913093D01*
X104455026Y-70915588D01*
X104455258Y-70918391D01*
X104455461Y-70921585D01*
X104455635Y-70925255D01*
X104455785Y-70929484D01*
X104455913Y-70934356D01*
X104456020Y-70939955D01*
X104456110Y-70946364D01*
X104456184Y-70953667D01*
X104456245Y-70961948D01*
X104456296Y-70971290D01*
X104456339Y-70981777D01*
X104456377Y-70993492D01*
X104456411Y-71006520D01*
X104456445Y-71020944D01*
X104456480Y-71036848D01*
X104456492Y-71042489D01*
X104456760Y-71162391D01*
X104460114Y-71162815D01*
X104461835Y-71162982D01*
X104464882Y-71163223D01*
X104468991Y-71163520D01*
X104473899Y-71163855D01*
X104479345Y-71164209D01*
X104483361Y-71164460D01*
X104489115Y-71164820D01*
X104494599Y-71165177D01*
X104499531Y-71165512D01*
X104503628Y-71165805D01*
X104506606Y-71166037D01*
X104507828Y-71166147D01*
X104512403Y-71166615D01*
X104512403Y-71199954D01*
X104512403Y-71233294D01*
X104408966Y-71233294D01*
X104305530Y-71233294D01*
X104305530Y-71199934D01*
X104305530Y-71166573D01*
X104309707Y-71166131D01*
X104311658Y-71165960D01*
X104314925Y-71165716D01*
X104319236Y-71165417D01*
X104324319Y-71165081D01*
X104329902Y-71164727D01*
X104334174Y-71164466D01*
X104339894Y-71164112D01*
X104345263Y-71163764D01*
X104350021Y-71163439D01*
X104353908Y-71163156D01*
X104356664Y-71162932D01*
X104357845Y-71162813D01*
X104361226Y-71162383D01*
X104361220Y-71064366D01*
X104361212Y-71048825D01*
X104361191Y-71034339D01*
X104361156Y-71020960D01*
X104361110Y-71008738D01*
X104361051Y-70997726D01*
X104360980Y-70987973D01*
X104360898Y-70979532D01*
X104360804Y-70972454D01*
X104360701Y-70966789D01*
X104360587Y-70962589D01*
X104360463Y-70959906D01*
X104360402Y-70959188D01*
X104358875Y-70949572D01*
X104356586Y-70941299D01*
X104353468Y-70934279D01*
X104349453Y-70928423D01*
X104344473Y-70923642D01*
X104338459Y-70919846D01*
X104331345Y-70916945D01*
X104327500Y-70915840D01*
X104320284Y-70914389D01*
X104311943Y-70913378D01*
X104302893Y-70912841D01*
X104293549Y-70912811D01*
X104291208Y-70912887D01*
X104282098Y-70913476D01*
X104273284Y-70914540D01*
X104264540Y-70916141D01*
X104255646Y-70918342D01*
X104246378Y-70921207D01*
X104236512Y-70924799D01*
X104225827Y-70929180D01*
X104214100Y-70934415D01*
X104212437Y-70935184D01*
X104200104Y-70940914D01*
X104199903Y-71051648D01*
X104199701Y-71162382D01*
X104203085Y-71162811D01*
X104204815Y-71162979D01*
X104207869Y-71163221D01*
X104211986Y-71163519D01*
X104216900Y-71163855D01*
X104222349Y-71164209D01*
X104226361Y-71164460D01*
X104232115Y-71164820D01*
X104237600Y-71165177D01*
X104242531Y-71165512D01*
X104246628Y-71165805D01*
X104249607Y-71166037D01*
X104250828Y-71166147D01*
X104255403Y-71166615D01*
X104255403Y-71199954D01*
X104255403Y-71233294D01*
X104151569Y-71233294D01*
X104047734Y-71233294D01*
X104047734Y-71199954D01*
X104047734Y-71166615D01*
X104052310Y-71166145D01*
X104054376Y-71165966D01*
X104057753Y-71165714D01*
X104062162Y-71165408D01*
X104067324Y-71165065D01*
X104072960Y-71164707D01*
X104077174Y-71164448D01*
X104082895Y-71164094D01*
X104088264Y-71163745D01*
X104093021Y-71163422D01*
X104096908Y-71163140D01*
X104099664Y-71162919D01*
X104100845Y-71162802D01*
X104104227Y-71162383D01*
X104104227Y-71036074D01*
X104104227Y-70909765D01*
X104076975Y-70907996D01*
X104070523Y-70907580D01*
X104064559Y-70907200D01*
X104059272Y-70906868D01*
X104054854Y-70906596D01*
X104051495Y-70906395D01*
X104049385Y-70906278D01*
X104048729Y-70906252D01*
X104048476Y-70905937D01*
X104048266Y-70904903D01*
X104048097Y-70903031D01*
X104047965Y-70900206D01*
X104047867Y-70896311D01*
X104047798Y-70891230D01*
X104047756Y-70884844D01*
X104047737Y-70877040D01*
X104047734Y-70872858D01*
X104047734Y-70839440D01*
X104123720Y-70839440D01*
X104199706Y-70839440D01*
X104199706Y-70864183D01*
X104199706Y-70888926D01*
X104202690Y-70886431D01*
X104217182Y-70874987D01*
X104231533Y-70865046D01*
X104245894Y-70856549D01*
X104260417Y-70849435D01*
X104275252Y-70843643D01*
X104290549Y-70839112D01*
X104306460Y-70835783D01*
X104323136Y-70833594D01*
X104336561Y-70832649D01*
X104344227Y-70832488D01*
X104352818Y-70832636D01*
G37*
G36*
X105653415Y-71654519D02*
G01*
X105656682Y-71665690D01*
X105659825Y-71676385D01*
X105662816Y-71686510D01*
X105665625Y-71695968D01*
X105668224Y-71704666D01*
X105670584Y-71712508D01*
X105672677Y-71719400D01*
X105674475Y-71725247D01*
X105675947Y-71729955D01*
X105677066Y-71733428D01*
X105677804Y-71735571D01*
X105678130Y-71736290D01*
X105678139Y-71736280D01*
X105678413Y-71735348D01*
X105679081Y-71732983D01*
X105680116Y-71729288D01*
X105681489Y-71724364D01*
X105683172Y-71718312D01*
X105685137Y-71711233D01*
X105687356Y-71703231D01*
X105689800Y-71694406D01*
X105692442Y-71684859D01*
X105695252Y-71674693D01*
X105698204Y-71664010D01*
X105701186Y-71653206D01*
X105723747Y-71571452D01*
X105769790Y-71571452D01*
X105778264Y-71571463D01*
X105786207Y-71571496D01*
X105793483Y-71571549D01*
X105799957Y-71571620D01*
X105805492Y-71571706D01*
X105809952Y-71571805D01*
X105813202Y-71571916D01*
X105815106Y-71572036D01*
X105815569Y-71572139D01*
X105815284Y-71572951D01*
X105814503Y-71575191D01*
X105813254Y-71578780D01*
X105811563Y-71583644D01*
X105809457Y-71589704D01*
X105806961Y-71596886D01*
X105804104Y-71605111D01*
X105800910Y-71614304D01*
X105797407Y-71624388D01*
X105793622Y-71635287D01*
X105789581Y-71646923D01*
X105785310Y-71659221D01*
X105780836Y-71672104D01*
X105776186Y-71685496D01*
X105771387Y-71699319D01*
X105769553Y-71704602D01*
X105723802Y-71836379D01*
X105679177Y-71836393D01*
X105634553Y-71836408D01*
X105608763Y-71754829D01*
X105604077Y-71740035D01*
X105599852Y-71726759D01*
X105596087Y-71714997D01*
X105592780Y-71704746D01*
X105589932Y-71696001D01*
X105587539Y-71688759D01*
X105585601Y-71683016D01*
X105584117Y-71678767D01*
X105583085Y-71676008D01*
X105582503Y-71674736D01*
X105582376Y-71674666D01*
X105582065Y-71675603D01*
X105581325Y-71677928D01*
X105580195Y-71681520D01*
X105578712Y-71686259D01*
X105576914Y-71692022D01*
X105574837Y-71698689D01*
X105572521Y-71706138D01*
X105570001Y-71714249D01*
X105567316Y-71722901D01*
X105564503Y-71731971D01*
X105561599Y-71741340D01*
X105558643Y-71750886D01*
X105555671Y-71760488D01*
X105552721Y-71770024D01*
X105549831Y-71779375D01*
X105547037Y-71788417D01*
X105544378Y-71797032D01*
X105541891Y-71805096D01*
X105539613Y-71812490D01*
X105537582Y-71819092D01*
X105535836Y-71824781D01*
X105534412Y-71829436D01*
X105533347Y-71832936D01*
X105532678Y-71835159D01*
X105532445Y-71835985D01*
X105531673Y-71836063D01*
X105529451Y-71836136D01*
X105525923Y-71836202D01*
X105521229Y-71836260D01*
X105515512Y-71836310D01*
X105508914Y-71836349D01*
X105501577Y-71836376D01*
X105493642Y-71836390D01*
X105487688Y-71836392D01*
X105442932Y-71836376D01*
X105397632Y-71704909D01*
X105392822Y-71690949D01*
X105388150Y-71677390D01*
X105383643Y-71664308D01*
X105379326Y-71651780D01*
X105375228Y-71639884D01*
X105371373Y-71628696D01*
X105367789Y-71618293D01*
X105364502Y-71608753D01*
X105361538Y-71600151D01*
X105358925Y-71592566D01*
X105356689Y-71586073D01*
X105354855Y-71580751D01*
X105353451Y-71576676D01*
X105352504Y-71573924D01*
X105352039Y-71572574D01*
X105351995Y-71572446D01*
X105352221Y-71572232D01*
X105353119Y-71572050D01*
X105354788Y-71571895D01*
X105357328Y-71571768D01*
X105360837Y-71571666D01*
X105365415Y-71571586D01*
X105371160Y-71571527D01*
X105378171Y-71571486D01*
X105386549Y-71571462D01*
X105396390Y-71571452D01*
X105399430Y-71571452D01*
X105409359Y-71571454D01*
X105417816Y-71571463D01*
X105424920Y-71571482D01*
X105430788Y-71571515D01*
X105435541Y-71571564D01*
X105439297Y-71571635D01*
X105442174Y-71571729D01*
X105444293Y-71571850D01*
X105445770Y-71572002D01*
X105446727Y-71572189D01*
X105447280Y-71572413D01*
X105447550Y-71572678D01*
X105447621Y-71572844D01*
X105447884Y-71573787D01*
X105448537Y-71576163D01*
X105449553Y-71579870D01*
X105450905Y-71584808D01*
X105452564Y-71590874D01*
X105454502Y-71597967D01*
X105456693Y-71605984D01*
X105459107Y-71614825D01*
X105461718Y-71624386D01*
X105464497Y-71634567D01*
X105467416Y-71645266D01*
X105470389Y-71656161D01*
X105473412Y-71667240D01*
X105476317Y-71677880D01*
X105479078Y-71687983D01*
X105481667Y-71697448D01*
X105484056Y-71706176D01*
X105486219Y-71714066D01*
X105488127Y-71721020D01*
X105489754Y-71726937D01*
X105491071Y-71731718D01*
X105492053Y-71735263D01*
X105492671Y-71737472D01*
X105492898Y-71738246D01*
X105493131Y-71737518D01*
X105493768Y-71735357D01*
X105494781Y-71731860D01*
X105496143Y-71727126D01*
X105497824Y-71721252D01*
X105499797Y-71714338D01*
X105502035Y-71706480D01*
X105504509Y-71697777D01*
X105507191Y-71688326D01*
X105510054Y-71678227D01*
X105513069Y-71667577D01*
X105516208Y-71656474D01*
X105516588Y-71655127D01*
X105540118Y-71571850D01*
X105584647Y-71571644D01*
X105629177Y-71571439D01*
X105653415Y-71654519D01*
G37*
G36*
X104665059Y-71563379D02*
G01*
X104677894Y-71564532D01*
X104689395Y-71566230D01*
X104699741Y-71568531D01*
X104709112Y-71571489D01*
X104717687Y-71575161D01*
X104725646Y-71579604D01*
X104732809Y-71584596D01*
X104740788Y-71591694D01*
X104747976Y-71600101D01*
X104754314Y-71609714D01*
X104759744Y-71620428D01*
X104764209Y-71632142D01*
X104767650Y-71644751D01*
X104768261Y-71647621D01*
X104768966Y-71651140D01*
X104769594Y-71654410D01*
X104770150Y-71657540D01*
X104770638Y-71660643D01*
X104771065Y-71663828D01*
X104771433Y-71667208D01*
X104771749Y-71670891D01*
X104772018Y-71674990D01*
X104772244Y-71679615D01*
X104772432Y-71684877D01*
X104772587Y-71690887D01*
X104772715Y-71697756D01*
X104772820Y-71705593D01*
X104772906Y-71714512D01*
X104772980Y-71724621D01*
X104773045Y-71736032D01*
X104773108Y-71748856D01*
X104773146Y-71757438D01*
X104773496Y-71836408D01*
X104732878Y-71836408D01*
X104692260Y-71836408D01*
X104692042Y-71822482D01*
X104691825Y-71808556D01*
X104688038Y-71813675D01*
X104682145Y-71820345D01*
X104674970Y-71826256D01*
X104666654Y-71831356D01*
X104657339Y-71835595D01*
X104647167Y-71838923D01*
X104636280Y-71841289D01*
X104624820Y-71842643D01*
X104612927Y-71842934D01*
X104606689Y-71842653D01*
X104601468Y-71842131D01*
X104595549Y-71841274D01*
X104589378Y-71840168D01*
X104583404Y-71838904D01*
X104578073Y-71837567D01*
X104573833Y-71836248D01*
X104573455Y-71836108D01*
X104563132Y-71831542D01*
X104553632Y-71825968D01*
X104545149Y-71819524D01*
X104537877Y-71812349D01*
X104534699Y-71808455D01*
X104529303Y-71800277D01*
X104525157Y-71791616D01*
X104522182Y-71782544D01*
X104521384Y-71779389D01*
X104520814Y-71776585D01*
X104520433Y-71773741D01*
X104520201Y-71770467D01*
X104520079Y-71766373D01*
X104520029Y-71761218D01*
X104520050Y-71759214D01*
X104601543Y-71759214D01*
X104601671Y-71761680D01*
X104602149Y-71763733D01*
X104603072Y-71765956D01*
X104603496Y-71766838D01*
X104606370Y-71771548D01*
X104610029Y-71775380D01*
X104614627Y-71778419D01*
X104620321Y-71780751D01*
X104627264Y-71782463D01*
X104633344Y-71783386D01*
X104636712Y-71783551D01*
X104641089Y-71783421D01*
X104645928Y-71783040D01*
X104650680Y-71782450D01*
X104654429Y-71781773D01*
X104662598Y-71779280D01*
X104669827Y-71775543D01*
X104676257Y-71770485D01*
X104677505Y-71769262D01*
X104682199Y-71763775D01*
X104685882Y-71757779D01*
X104688638Y-71751059D01*
X104690549Y-71743396D01*
X104691697Y-71734573D01*
X104691932Y-71731208D01*
X104692475Y-71721589D01*
X104672656Y-71722082D01*
X104664931Y-71722305D01*
X104658512Y-71722573D01*
X104653114Y-71722916D01*
X104648451Y-71723364D01*
X104644238Y-71723950D01*
X104640191Y-71724702D01*
X104636023Y-71725653D01*
X104633480Y-71726296D01*
X104624824Y-71728951D01*
X104617645Y-71732063D01*
X104611877Y-71735692D01*
X104607456Y-71739898D01*
X104604318Y-71744739D01*
X104602399Y-71750277D01*
X104601667Y-71755749D01*
X104601543Y-71759214D01*
X104520050Y-71759214D01*
X104520106Y-71754018D01*
X104520458Y-71748009D01*
X104521144Y-71742804D01*
X104522226Y-71738016D01*
X104523764Y-71733259D01*
X104524848Y-71730460D01*
X104529155Y-71721955D01*
X104534925Y-71713975D01*
X104542109Y-71706560D01*
X104550654Y-71699750D01*
X104560508Y-71693587D01*
X104571621Y-71688110D01*
X104583941Y-71683361D01*
X104585445Y-71682859D01*
X104595044Y-71679982D01*
X104605127Y-71677518D01*
X104615865Y-71675445D01*
X104627430Y-71673737D01*
X104639994Y-71672371D01*
X104653729Y-71671322D01*
X104668807Y-71670565D01*
X104673939Y-71670381D01*
X104689470Y-71669873D01*
X104688922Y-71663032D01*
X104687978Y-71656344D01*
X104686229Y-71650748D01*
X104683537Y-71645892D01*
X104680896Y-71642610D01*
X104675763Y-71638118D01*
X104669470Y-71634479D01*
X104662222Y-71631727D01*
X104654224Y-71629895D01*
X104645679Y-71629016D01*
X104636793Y-71629124D01*
X104627769Y-71630252D01*
X104618811Y-71632432D01*
X104618624Y-71632490D01*
X104613470Y-71634325D01*
X104607783Y-71636754D01*
X104601867Y-71639610D01*
X104596026Y-71642725D01*
X104590564Y-71645932D01*
X104585784Y-71649063D01*
X104581991Y-71651951D01*
X104580094Y-71653728D01*
X104578581Y-71655109D01*
X104577412Y-71655777D01*
X104577309Y-71655788D01*
X104576598Y-71655224D01*
X104574955Y-71653635D01*
X104572520Y-71651172D01*
X104569436Y-71647984D01*
X104565842Y-71644222D01*
X104561878Y-71640038D01*
X104557686Y-71635581D01*
X104553406Y-71631003D01*
X104549179Y-71626454D01*
X104545144Y-71622084D01*
X104541444Y-71618044D01*
X104538218Y-71614485D01*
X104535608Y-71611557D01*
X104533753Y-71609411D01*
X104532794Y-71608198D01*
X104532692Y-71607999D01*
X104533257Y-71607172D01*
X104534768Y-71605605D01*
X104536947Y-71603578D01*
X104538025Y-71602630D01*
X104549902Y-71593398D01*
X104562799Y-71585314D01*
X104576599Y-71578416D01*
X104591185Y-71572739D01*
X104606440Y-71568319D01*
X104622245Y-71565193D01*
X104638485Y-71563397D01*
X104655040Y-71562967D01*
X104665059Y-71563379D01*
G37*
G36*
X105977110Y-71563379D02*
G01*
X105989945Y-71564532D01*
X106001446Y-71566230D01*
X106011792Y-71568531D01*
X106021163Y-71571489D01*
X106029738Y-71575161D01*
X106037697Y-71579604D01*
X106044860Y-71584596D01*
X106052839Y-71591694D01*
X106060027Y-71600101D01*
X106066365Y-71609714D01*
X106071795Y-71620428D01*
X106076260Y-71632142D01*
X106079701Y-71644751D01*
X106080312Y-71647621D01*
X106081017Y-71651140D01*
X106081645Y-71654410D01*
X106082201Y-71657540D01*
X106082689Y-71660643D01*
X106083115Y-71663828D01*
X106083484Y-71667208D01*
X106083800Y-71670891D01*
X106084069Y-71674990D01*
X106084295Y-71679615D01*
X106084483Y-71684877D01*
X106084638Y-71690887D01*
X106084766Y-71697756D01*
X106084871Y-71705593D01*
X106084957Y-71714512D01*
X106085031Y-71724621D01*
X106085096Y-71736032D01*
X106085159Y-71748856D01*
X106085197Y-71757438D01*
X106085547Y-71836408D01*
X106044929Y-71836408D01*
X106004310Y-71836408D01*
X106004093Y-71822482D01*
X106003876Y-71808556D01*
X106000088Y-71813675D01*
X105994196Y-71820345D01*
X105987021Y-71826256D01*
X105978705Y-71831356D01*
X105969390Y-71835595D01*
X105959218Y-71838923D01*
X105948331Y-71841289D01*
X105936870Y-71842643D01*
X105924978Y-71842934D01*
X105918740Y-71842653D01*
X105913519Y-71842131D01*
X105907600Y-71841274D01*
X105901429Y-71840168D01*
X105895454Y-71838904D01*
X105890124Y-71837567D01*
X105885884Y-71836248D01*
X105885505Y-71836108D01*
X105875183Y-71831542D01*
X105865683Y-71825968D01*
X105857200Y-71819524D01*
X105849928Y-71812349D01*
X105846750Y-71808455D01*
X105841354Y-71800277D01*
X105837207Y-71791616D01*
X105834233Y-71782544D01*
X105833434Y-71779389D01*
X105832865Y-71776585D01*
X105832483Y-71773741D01*
X105832252Y-71770467D01*
X105832130Y-71766373D01*
X105832080Y-71761218D01*
X105832101Y-71759214D01*
X105913594Y-71759214D01*
X105913722Y-71761680D01*
X105914200Y-71763733D01*
X105915123Y-71765956D01*
X105915547Y-71766838D01*
X105918421Y-71771548D01*
X105922080Y-71775380D01*
X105926678Y-71778419D01*
X105932372Y-71780751D01*
X105939315Y-71782463D01*
X105945394Y-71783386D01*
X105948763Y-71783551D01*
X105953140Y-71783421D01*
X105957979Y-71783040D01*
X105962731Y-71782450D01*
X105966480Y-71781773D01*
X105974649Y-71779280D01*
X105981877Y-71775543D01*
X105988308Y-71770485D01*
X105989556Y-71769262D01*
X105994249Y-71763775D01*
X105997933Y-71757779D01*
X106000689Y-71751059D01*
X106002600Y-71743396D01*
X106003748Y-71734573D01*
X106003983Y-71731208D01*
X106004526Y-71721589D01*
X105984707Y-71722082D01*
X105976982Y-71722305D01*
X105970563Y-71722573D01*
X105965164Y-71722916D01*
X105960502Y-71723364D01*
X105956289Y-71723950D01*
X105952242Y-71724702D01*
X105948074Y-71725653D01*
X105945531Y-71726296D01*
X105936875Y-71728951D01*
X105929696Y-71732063D01*
X105923928Y-71735692D01*
X105919507Y-71739898D01*
X105916369Y-71744739D01*
X105914450Y-71750277D01*
X105913718Y-71755749D01*
X105913594Y-71759214D01*
X105832101Y-71759214D01*
X105832157Y-71754018D01*
X105832509Y-71748009D01*
X105833195Y-71742804D01*
X105834277Y-71738016D01*
X105835815Y-71733259D01*
X105836899Y-71730460D01*
X105841205Y-71721955D01*
X105846976Y-71713975D01*
X105854160Y-71706560D01*
X105862705Y-71699750D01*
X105872559Y-71693587D01*
X105883672Y-71688110D01*
X105895992Y-71683361D01*
X105897496Y-71682859D01*
X105907095Y-71679982D01*
X105917178Y-71677518D01*
X105927916Y-71675445D01*
X105939481Y-71673737D01*
X105952045Y-71672371D01*
X105965780Y-71671322D01*
X105980858Y-71670565D01*
X105985990Y-71670381D01*
X106001521Y-71669873D01*
X106000973Y-71663032D01*
X106000028Y-71656344D01*
X105998280Y-71650748D01*
X105995588Y-71645892D01*
X105992947Y-71642610D01*
X105987814Y-71638118D01*
X105981521Y-71634479D01*
X105974273Y-71631727D01*
X105966275Y-71629895D01*
X105957730Y-71629016D01*
X105948844Y-71629124D01*
X105939820Y-71630252D01*
X105930862Y-71632432D01*
X105930675Y-71632490D01*
X105925521Y-71634325D01*
X105919834Y-71636754D01*
X105913918Y-71639610D01*
X105908077Y-71642725D01*
X105902615Y-71645932D01*
X105897835Y-71649063D01*
X105894042Y-71651951D01*
X105892145Y-71653728D01*
X105890632Y-71655109D01*
X105889463Y-71655777D01*
X105889360Y-71655788D01*
X105888649Y-71655224D01*
X105887006Y-71653635D01*
X105884571Y-71651172D01*
X105881487Y-71647984D01*
X105877892Y-71644222D01*
X105873929Y-71640038D01*
X105869737Y-71635581D01*
X105865457Y-71631003D01*
X105861229Y-71626454D01*
X105857195Y-71622084D01*
X105853495Y-71618044D01*
X105850269Y-71614485D01*
X105847658Y-71611557D01*
X105845803Y-71609411D01*
X105844845Y-71608198D01*
X105844743Y-71607999D01*
X105845308Y-71607172D01*
X105846819Y-71605605D01*
X105848998Y-71603578D01*
X105850076Y-71602630D01*
X105861953Y-71593398D01*
X105874850Y-71585314D01*
X105888650Y-71578416D01*
X105903236Y-71572739D01*
X105918490Y-71568319D01*
X105934296Y-71565193D01*
X105950536Y-71563397D01*
X105967091Y-71562967D01*
X105977110Y-71563379D01*
G37*
G36*
X101675858Y-70710938D02*
G01*
X101675854Y-70718606D01*
X101675843Y-70725769D01*
X101675825Y-70732273D01*
X101675801Y-70737966D01*
X101675772Y-70742693D01*
X101675739Y-70746303D01*
X101675703Y-70748641D01*
X101675663Y-70749555D01*
X101675659Y-70749563D01*
X101674713Y-70749639D01*
X101672388Y-70749800D01*
X101668897Y-70750031D01*
X101664451Y-70750319D01*
X101659260Y-70750651D01*
X101653535Y-70751014D01*
X101647487Y-70751395D01*
X101641327Y-70751780D01*
X101635267Y-70752157D01*
X101629516Y-70752511D01*
X101624286Y-70752831D01*
X101619787Y-70753102D01*
X101616232Y-70753312D01*
X101613830Y-70753447D01*
X101612802Y-70753494D01*
X101610614Y-70753509D01*
X101610614Y-70952410D01*
X101610614Y-71151310D01*
X101612404Y-71151675D01*
X101613576Y-71151800D01*
X101616154Y-71152001D01*
X101619956Y-71152266D01*
X101624797Y-71152583D01*
X101630496Y-71152941D01*
X101636870Y-71153327D01*
X101643736Y-71153730D01*
X101645424Y-71153827D01*
X101676654Y-71155614D01*
X101676654Y-71194454D01*
X101676654Y-71233294D01*
X101560885Y-71233294D01*
X101445116Y-71233294D01*
X101445116Y-71194450D01*
X101445116Y-71155605D01*
X101474181Y-71153705D01*
X101480837Y-71153258D01*
X101486999Y-71152823D01*
X101492484Y-71152414D01*
X101497110Y-71152045D01*
X101500696Y-71151731D01*
X101503060Y-71151487D01*
X101504018Y-71151326D01*
X101504020Y-71151326D01*
X101504110Y-71150475D01*
X101504194Y-71148051D01*
X101504270Y-71144073D01*
X101504340Y-71138560D01*
X101504402Y-71131529D01*
X101504456Y-71123000D01*
X101504504Y-71112991D01*
X101504544Y-71101520D01*
X101504576Y-71088606D01*
X101504601Y-71074267D01*
X101504619Y-71058522D01*
X101504629Y-71041391D01*
X101504631Y-71022890D01*
X101504625Y-71003038D01*
X101504612Y-70981855D01*
X101504593Y-70961462D01*
X101504393Y-70772077D01*
X101431987Y-71002669D01*
X101359582Y-71233262D01*
X101305079Y-71233269D01*
X101250576Y-71233277D01*
X101176977Y-71005179D01*
X101103378Y-70777081D01*
X101103177Y-70963964D01*
X101103155Y-70987468D01*
X101103142Y-71009404D01*
X101103137Y-71029772D01*
X101103141Y-71048570D01*
X101103153Y-71065796D01*
X101103173Y-71081448D01*
X101103202Y-71095525D01*
X101103240Y-71108025D01*
X101103286Y-71118946D01*
X101103340Y-71128286D01*
X101103403Y-71136045D01*
X101103474Y-71142219D01*
X101103554Y-71146808D01*
X101103642Y-71149809D01*
X101103739Y-71151221D01*
X101103774Y-71151340D01*
X101104724Y-71151499D01*
X101107082Y-71151739D01*
X101110670Y-71152046D01*
X101115307Y-71152406D01*
X101120813Y-71152805D01*
X101127009Y-71153228D01*
X101133716Y-71153663D01*
X101134409Y-71153707D01*
X101164246Y-71155580D01*
X101164246Y-71194437D01*
X101164246Y-71233294D01*
X101048875Y-71233294D01*
X100933503Y-71233294D01*
X100933503Y-71194454D01*
X100933503Y-71155614D01*
X100964733Y-71153827D01*
X100971689Y-71153422D01*
X100978197Y-71153031D01*
X100984073Y-71152665D01*
X100989136Y-71152337D01*
X100993202Y-71152059D01*
X100996088Y-71151841D01*
X100997611Y-71151697D01*
X100997753Y-71151675D01*
X100999544Y-71151310D01*
X100999544Y-70952410D01*
X100999544Y-70753509D01*
X100997753Y-70753509D01*
X100996322Y-70753459D01*
X100993537Y-70753316D01*
X100989633Y-70753096D01*
X100984843Y-70752813D01*
X100979402Y-70752483D01*
X100973543Y-70752120D01*
X100967502Y-70751739D01*
X100961512Y-70751355D01*
X100955807Y-70750982D01*
X100950621Y-70750636D01*
X100946188Y-70750331D01*
X100942744Y-70750082D01*
X100940520Y-70749903D01*
X100940068Y-70749860D01*
X100935890Y-70749416D01*
X100935890Y-70710881D01*
X100935890Y-70672346D01*
X101058924Y-70672547D01*
X101181958Y-70672749D01*
X101239138Y-70859332D01*
X101245672Y-70880662D01*
X101251755Y-70900534D01*
X101257405Y-70919011D01*
X101262641Y-70936156D01*
X101267480Y-70952033D01*
X101271941Y-70966703D01*
X101276043Y-70980229D01*
X101279805Y-70992675D01*
X101283243Y-71004103D01*
X101286378Y-71014575D01*
X101289227Y-71024156D01*
X101291809Y-71032907D01*
X101294142Y-71040891D01*
X101296245Y-71048172D01*
X101298136Y-71054811D01*
X101299834Y-71060872D01*
X101301356Y-71066418D01*
X101302722Y-71071511D01*
X101303950Y-71076214D01*
X101305058Y-71080591D01*
X101306065Y-71084703D01*
X101306989Y-71088614D01*
X101307848Y-71092386D01*
X101308662Y-71096082D01*
X101308803Y-71096735D01*
X101309071Y-71097802D01*
X101309348Y-71098231D01*
X101309701Y-71097858D01*
X101310196Y-71096521D01*
X101310901Y-71094055D01*
X101311883Y-71090299D01*
X101312576Y-71087585D01*
X101313590Y-71083618D01*
X101314613Y-71079667D01*
X101315664Y-71075665D01*
X101316763Y-71071546D01*
X101317929Y-71067244D01*
X101319182Y-71062692D01*
X101320542Y-71057823D01*
X101322027Y-71052573D01*
X101323658Y-71046874D01*
X101325454Y-71040660D01*
X101327434Y-71033864D01*
X101329618Y-71026422D01*
X101332026Y-71018265D01*
X101334677Y-71009328D01*
X101337590Y-70999545D01*
X101340786Y-70988850D01*
X101344283Y-70977175D01*
X101348102Y-70964455D01*
X101352261Y-70950623D01*
X101356780Y-70935614D01*
X101361679Y-70919360D01*
X101366978Y-70901796D01*
X101372695Y-70882856D01*
X101378850Y-70862472D01*
X101380159Y-70858138D01*
X101436157Y-70672749D01*
X101556008Y-70672547D01*
X101675858Y-70672346D01*
X101675858Y-70710938D01*
G37*
G36*
X102169946Y-70832754D02*
G01*
X102183513Y-70833213D01*
X102196627Y-70833901D01*
X102209034Y-70834813D01*
X102220481Y-70835945D01*
X102230717Y-70837291D01*
X102234813Y-70837957D01*
X102246806Y-70840485D01*
X102258054Y-70843735D01*
X102268366Y-70847634D01*
X102277552Y-70852109D01*
X102285420Y-70857087D01*
X102286420Y-70857830D01*
X102293245Y-70863868D01*
X102299213Y-70870982D01*
X102304340Y-70879214D01*
X102308639Y-70888608D01*
X102312125Y-70899204D01*
X102314812Y-70911047D01*
X102316714Y-70924177D01*
X102317847Y-70938638D01*
X102318209Y-70951231D01*
X102318358Y-70967144D01*
X102284542Y-70968839D01*
X102276895Y-70969223D01*
X102269350Y-70969603D01*
X102262144Y-70969969D01*
X102255511Y-70970306D01*
X102249685Y-70970605D01*
X102244903Y-70970852D01*
X102241399Y-70971035D01*
X102240581Y-70971079D01*
X102230437Y-70971625D01*
X102230430Y-70965406D01*
X102230096Y-70956854D01*
X102229151Y-70948624D01*
X102227657Y-70941009D01*
X102225672Y-70934304D01*
X102223257Y-70928803D01*
X102222785Y-70927971D01*
X102218751Y-70922474D01*
X102213598Y-70917803D01*
X102207256Y-70913922D01*
X102199656Y-70910794D01*
X102190729Y-70908383D01*
X102182697Y-70906961D01*
X102178823Y-70906555D01*
X102173717Y-70906240D01*
X102167661Y-70906016D01*
X102160936Y-70905880D01*
X102153825Y-70905832D01*
X102146611Y-70905870D01*
X102139575Y-70905993D01*
X102133001Y-70906198D01*
X102127170Y-70906486D01*
X102122365Y-70906853D01*
X102118879Y-70907297D01*
X102109616Y-70909384D01*
X102101683Y-70912197D01*
X102094951Y-70915821D01*
X102089294Y-70920340D01*
X102084584Y-70925840D01*
X102080694Y-70932405D01*
X102080437Y-70932931D01*
X102078265Y-70937934D01*
X102076354Y-70943437D01*
X102074692Y-70949545D01*
X102073267Y-70956366D01*
X102072067Y-70964005D01*
X102071080Y-70972571D01*
X102070294Y-70982168D01*
X102069698Y-70992904D01*
X102069280Y-71004885D01*
X102069027Y-71018218D01*
X102068927Y-71033010D01*
X102068925Y-71035969D01*
X102068998Y-71051124D01*
X102069226Y-71064798D01*
X102069619Y-71077096D01*
X102070189Y-71088121D01*
X102070949Y-71097979D01*
X102071910Y-71106773D01*
X102073082Y-71114608D01*
X102074479Y-71121588D01*
X102076111Y-71127817D01*
X102077991Y-71133400D01*
X102080129Y-71138441D01*
X102080417Y-71139041D01*
X102084240Y-71145641D01*
X102088838Y-71151162D01*
X102094342Y-71155688D01*
X102100883Y-71159305D01*
X102108591Y-71162097D01*
X102117597Y-71164148D01*
X102119839Y-71164519D01*
X102124897Y-71165134D01*
X102131187Y-71165626D01*
X102138352Y-71165986D01*
X102146036Y-71166208D01*
X102153884Y-71166281D01*
X102161540Y-71166199D01*
X102168649Y-71165953D01*
X102172353Y-71165734D01*
X102183107Y-71164740D01*
X102192418Y-71163342D01*
X102200398Y-71161483D01*
X102207157Y-71159110D01*
X102212805Y-71156167D01*
X102217452Y-71152598D01*
X102221208Y-71148350D01*
X102224185Y-71143368D01*
X102226010Y-71139008D01*
X102227390Y-71134759D01*
X102228430Y-71130539D01*
X102229194Y-71125952D01*
X102229747Y-71120606D01*
X102230152Y-71114105D01*
X102230189Y-71113348D01*
X102230682Y-71102805D01*
X102235134Y-71102799D01*
X102236854Y-71102763D01*
X102239977Y-71102662D01*
X102244317Y-71102505D01*
X102249690Y-71102297D01*
X102255909Y-71102047D01*
X102262788Y-71101761D01*
X102270141Y-71101447D01*
X102275392Y-71101218D01*
X102282933Y-71100890D01*
X102290102Y-71100585D01*
X102296719Y-71100309D01*
X102302600Y-71100071D01*
X102307565Y-71099877D01*
X102311432Y-71099735D01*
X102314019Y-71099652D01*
X102314976Y-71099633D01*
X102318755Y-71099623D01*
X102318743Y-71109767D01*
X102318501Y-71122129D01*
X102317825Y-71134221D01*
X102316744Y-71145808D01*
X102315287Y-71156659D01*
X102313483Y-71166537D01*
X102311361Y-71175211D01*
X102310069Y-71179384D01*
X102306546Y-71188339D01*
X102302289Y-71196440D01*
X102297230Y-71203721D01*
X102291301Y-71210218D01*
X102284433Y-71215966D01*
X102276558Y-71221000D01*
X102267607Y-71225355D01*
X102257513Y-71229066D01*
X102246206Y-71232169D01*
X102233618Y-71234698D01*
X102219681Y-71236689D01*
X102204327Y-71238177D01*
X102194345Y-71238847D01*
X102189641Y-71239056D01*
X102183685Y-71239226D01*
X102176728Y-71239358D01*
X102169023Y-71239452D01*
X102160824Y-71239507D01*
X102152383Y-71239525D01*
X102143952Y-71239505D01*
X102135785Y-71239447D01*
X102128135Y-71239352D01*
X102121254Y-71239220D01*
X102115395Y-71239050D01*
X102110811Y-71238844D01*
X102109893Y-71238787D01*
X102093214Y-71237313D01*
X102077954Y-71235195D01*
X102064051Y-71232376D01*
X102051445Y-71228800D01*
X102040076Y-71224408D01*
X102029883Y-71219144D01*
X102020804Y-71212950D01*
X102012780Y-71205770D01*
X102005749Y-71197546D01*
X101999651Y-71188220D01*
X101994425Y-71177736D01*
X101990010Y-71166037D01*
X101986346Y-71153064D01*
X101983371Y-71138762D01*
X101981026Y-71123073D01*
X101980286Y-71116729D01*
X101979514Y-71109069D01*
X101978867Y-71101376D01*
X101978336Y-71093446D01*
X101977913Y-71085069D01*
X101977591Y-71076040D01*
X101977361Y-71066151D01*
X101977215Y-71055195D01*
X101977145Y-71042964D01*
X101977136Y-71035969D01*
X101977218Y-71018921D01*
X101977470Y-71003329D01*
X101977906Y-70989071D01*
X101978538Y-70976019D01*
X101979380Y-70964048D01*
X101980443Y-70953033D01*
X101981741Y-70942848D01*
X101983285Y-70933368D01*
X101985089Y-70924466D01*
X101987166Y-70916018D01*
X101989528Y-70907898D01*
X101990303Y-70905480D01*
X101994705Y-70894050D01*
X102000095Y-70883543D01*
X102006388Y-70874082D01*
X102013496Y-70865790D01*
X102021332Y-70858790D01*
X102025421Y-70855862D01*
X102034792Y-70850442D01*
X102045392Y-70845773D01*
X102057265Y-70841842D01*
X102070458Y-70838634D01*
X102085016Y-70836136D01*
X102093184Y-70835107D01*
X102104161Y-70834082D01*
X102116201Y-70833317D01*
X102129053Y-70832806D01*
X102142463Y-70832546D01*
X102156178Y-70832530D01*
X102169946Y-70832754D01*
G37*
G36*
X102382020Y-71450732D02*
G01*
X102389826Y-71450998D01*
X102397233Y-71451457D01*
X102403773Y-71452096D01*
X102406676Y-71452495D01*
X102423466Y-71455826D01*
X102439677Y-71460460D01*
X102455189Y-71466344D01*
X102469880Y-71473423D01*
X102483629Y-71481644D01*
X102496315Y-71490952D01*
X102500438Y-71494419D01*
X102503494Y-71497080D01*
X102474285Y-71527901D01*
X102468729Y-71533752D01*
X102463498Y-71539240D01*
X102458694Y-71544258D01*
X102454420Y-71548701D01*
X102450778Y-71552461D01*
X102447871Y-71555434D01*
X102445802Y-71557512D01*
X102444673Y-71558590D01*
X102444495Y-71558721D01*
X102443734Y-71558161D01*
X102442239Y-71556677D01*
X102440299Y-71554561D01*
X102439807Y-71554000D01*
X102433553Y-71547829D01*
X102426042Y-71542131D01*
X102417578Y-71537074D01*
X102408464Y-71532827D01*
X102399007Y-71529557D01*
X102393049Y-71528084D01*
X102386121Y-71527082D01*
X102378505Y-71526731D01*
X102370601Y-71526997D01*
X102362811Y-71527841D01*
X102355535Y-71529229D01*
X102349175Y-71531124D01*
X102346356Y-71532301D01*
X102340128Y-71536002D01*
X102334985Y-71540590D01*
X102330962Y-71545880D01*
X102328095Y-71551683D01*
X102326422Y-71557812D01*
X102325977Y-71564082D01*
X102326797Y-71570304D01*
X102328919Y-71576291D01*
X102332378Y-71581858D01*
X102336000Y-71585761D01*
X102337812Y-71587329D01*
X102339781Y-71588827D01*
X102342021Y-71590303D01*
X102344645Y-71591804D01*
X102347768Y-71593377D01*
X102351502Y-71595071D01*
X102355961Y-71596934D01*
X102361260Y-71599011D01*
X102367511Y-71601352D01*
X102374828Y-71604004D01*
X102383325Y-71607014D01*
X102393116Y-71610430D01*
X102403349Y-71613967D01*
X102414935Y-71618088D01*
X102425137Y-71622014D01*
X102434132Y-71625843D01*
X102442101Y-71629674D01*
X102449223Y-71633603D01*
X102455676Y-71637731D01*
X102461640Y-71642154D01*
X102467294Y-71646971D01*
X102472319Y-71651780D01*
X102480217Y-71660426D01*
X102486647Y-71669106D01*
X102491724Y-71678038D01*
X102495561Y-71687442D01*
X102498271Y-71697537D01*
X102499434Y-71704231D01*
X102499861Y-71708738D01*
X102500077Y-71714410D01*
X102500095Y-71720844D01*
X102499930Y-71727637D01*
X102499595Y-71734384D01*
X102499105Y-71740683D01*
X102498473Y-71746130D01*
X102497858Y-71749681D01*
X102494390Y-71762458D01*
X102489593Y-71774504D01*
X102483357Y-71786083D01*
X102480954Y-71789862D01*
X102477697Y-71794265D01*
X102473441Y-71799233D01*
X102468512Y-71804446D01*
X102463232Y-71809584D01*
X102457927Y-71814327D01*
X102452919Y-71818354D01*
X102450040Y-71820396D01*
X102437896Y-71827571D01*
X102424885Y-71833574D01*
X102410927Y-71838432D01*
X102395940Y-71842174D01*
X102380578Y-71844733D01*
X102377260Y-71845058D01*
X102372825Y-71845337D01*
X102367589Y-71845566D01*
X102361865Y-71845740D01*
X102355966Y-71845854D01*
X102350208Y-71845902D01*
X102344903Y-71845879D01*
X102340367Y-71845781D01*
X102336913Y-71845603D01*
X102335464Y-71845452D01*
X102333788Y-71845228D01*
X102331026Y-71844877D01*
X102327671Y-71844461D01*
X102326314Y-71844296D01*
X102315074Y-71842508D01*
X102303300Y-71839858D01*
X102291288Y-71836456D01*
X102279336Y-71832412D01*
X102267741Y-71827835D01*
X102256799Y-71822836D01*
X102246807Y-71817524D01*
X102238063Y-71812011D01*
X102236862Y-71811162D01*
X102233339Y-71808538D01*
X102229623Y-71805611D01*
X102225919Y-71802561D01*
X102222430Y-71799567D01*
X102219359Y-71796808D01*
X102216912Y-71794464D01*
X102215293Y-71792715D01*
X102214704Y-71791738D01*
X102214712Y-71791683D01*
X102215300Y-71790984D01*
X102216876Y-71789284D01*
X102219315Y-71786711D01*
X102222492Y-71783394D01*
X102226281Y-71779461D01*
X102230557Y-71775041D01*
X102235195Y-71770261D01*
X102240070Y-71765251D01*
X102245055Y-71760139D01*
X102250026Y-71755053D01*
X102254858Y-71750121D01*
X102259425Y-71745473D01*
X102263602Y-71741235D01*
X102267264Y-71737537D01*
X102270285Y-71734508D01*
X102272540Y-71732274D01*
X102273903Y-71730966D01*
X102274262Y-71730669D01*
X102274968Y-71731164D01*
X102276577Y-71732579D01*
X102278864Y-71734708D01*
X102281605Y-71737347D01*
X102282218Y-71737948D01*
X102291130Y-71745712D01*
X102301219Y-71752746D01*
X102312174Y-71758881D01*
X102323685Y-71763953D01*
X102335441Y-71767792D01*
X102339840Y-71768879D01*
X102343966Y-71769508D01*
X102349202Y-71769866D01*
X102355092Y-71769964D01*
X102361179Y-71769812D01*
X102367007Y-71769420D01*
X102372120Y-71768798D01*
X102375645Y-71768075D01*
X102383850Y-71765346D01*
X102390594Y-71761991D01*
X102395808Y-71758076D01*
X102400232Y-71752894D01*
X102403614Y-71746749D01*
X102405870Y-71739951D01*
X102406914Y-71732810D01*
X102406663Y-71725634D01*
X102405846Y-71721403D01*
X102404618Y-71717624D01*
X102402889Y-71714215D01*
X102400415Y-71710803D01*
X102396951Y-71707016D01*
X102395398Y-71705473D01*
X102392064Y-71702520D01*
X102388218Y-71699717D01*
X102383721Y-71697000D01*
X102378433Y-71694306D01*
X102372214Y-71691572D01*
X102364924Y-71688732D01*
X102356422Y-71685723D01*
X102346569Y-71682481D01*
X102341432Y-71680859D01*
X102328490Y-71676678D01*
X102316972Y-71672647D01*
X102306727Y-71668692D01*
X102297603Y-71664740D01*
X102289448Y-71660717D01*
X102282111Y-71656552D01*
X102275440Y-71652171D01*
X102269283Y-71647500D01*
X102265460Y-71644252D01*
X102256714Y-71635485D01*
X102249250Y-71625856D01*
X102243131Y-71615469D01*
X102238418Y-71604430D01*
X102235592Y-71594723D01*
X102234115Y-71586305D01*
X102233294Y-71576874D01*
X102233136Y-71566869D01*
X102233648Y-71556730D01*
X102234837Y-71546896D01*
X102234862Y-71546743D01*
X102237594Y-71534788D01*
X102241837Y-71523294D01*
X102247565Y-71512309D01*
X102254750Y-71501882D01*
X102263368Y-71492062D01*
X102265824Y-71489628D01*
X102276137Y-71480786D01*
X102287554Y-71473065D01*
X102300081Y-71466463D01*
X102313727Y-71460976D01*
X102328497Y-71456601D01*
X102344400Y-71453336D01*
X102360926Y-71451226D01*
X102367100Y-71450833D01*
X102374288Y-71450673D01*
X102382020Y-71450732D01*
G37*
G36*
X105738234Y-70832936D02*
G01*
X105753981Y-70833351D01*
X105768359Y-70834057D01*
X105781467Y-70835068D01*
X105793407Y-70836403D01*
X105804279Y-70838076D01*
X105814183Y-70840104D01*
X105823219Y-70842502D01*
X105831488Y-70845288D01*
X105839091Y-70848476D01*
X105846127Y-70852083D01*
X105847825Y-70853061D01*
X105852106Y-70856005D01*
X105856783Y-70859919D01*
X105861476Y-70864424D01*
X105865808Y-70869142D01*
X105869400Y-70873694D01*
X105871223Y-70876494D01*
X105875241Y-70884351D01*
X105878616Y-70892997D01*
X105881372Y-70902551D01*
X105883532Y-70913131D01*
X105885121Y-70924857D01*
X105886164Y-70937849D01*
X105886683Y-70952225D01*
X105886700Y-70953219D01*
X105886913Y-70967143D01*
X105852302Y-70968847D01*
X105844624Y-70969227D01*
X105837097Y-70969603D01*
X105829943Y-70969963D01*
X105823387Y-70970295D01*
X105817652Y-70970590D01*
X105812961Y-70970834D01*
X105809538Y-70971017D01*
X105808495Y-70971075D01*
X105799300Y-70971598D01*
X105798377Y-70959028D01*
X105797486Y-70949982D01*
X105796208Y-70942300D01*
X105794478Y-70935788D01*
X105792230Y-70930253D01*
X105789399Y-70925499D01*
X105785920Y-70921333D01*
X105785595Y-70921002D01*
X105781564Y-70917457D01*
X105776998Y-70914455D01*
X105771755Y-70911959D01*
X105765695Y-70909933D01*
X105758678Y-70908341D01*
X105750562Y-70907146D01*
X105741209Y-70906311D01*
X105730477Y-70905802D01*
X105726464Y-70905695D01*
X105715465Y-70905575D01*
X105705847Y-70905739D01*
X105697426Y-70906198D01*
X105690014Y-70906967D01*
X105683425Y-70908055D01*
X105680399Y-70908719D01*
X105672314Y-70911189D01*
X105665278Y-70914533D01*
X105659222Y-70918837D01*
X105654076Y-70924190D01*
X105649772Y-70930678D01*
X105646241Y-70938389D01*
X105643415Y-70947410D01*
X105641223Y-70957828D01*
X105641128Y-70958392D01*
X105640494Y-70962345D01*
X105639947Y-70966140D01*
X105639480Y-70969928D01*
X105639087Y-70973857D01*
X105638763Y-70978076D01*
X105638500Y-70982735D01*
X105638294Y-70987982D01*
X105638137Y-70993967D01*
X105638023Y-71000838D01*
X105637947Y-71008745D01*
X105637902Y-71017837D01*
X105637882Y-71028262D01*
X105637879Y-71036765D01*
X105637887Y-71047591D01*
X105637908Y-71056966D01*
X105637945Y-71065033D01*
X105638002Y-71071931D01*
X105638081Y-71077802D01*
X105638185Y-71082788D01*
X105638318Y-71087029D01*
X105638482Y-71090666D01*
X105638681Y-71093841D01*
X105638917Y-71096694D01*
X105639194Y-71099367D01*
X105639233Y-71099705D01*
X105640824Y-71111383D01*
X105642769Y-71121597D01*
X105645148Y-71130452D01*
X105648040Y-71138049D01*
X105651523Y-71144494D01*
X105655677Y-71149889D01*
X105660581Y-71154337D01*
X105666313Y-71157944D01*
X105672952Y-71160811D01*
X105680579Y-71163044D01*
X105688793Y-71164667D01*
X105691870Y-71165091D01*
X105695410Y-71165419D01*
X105699629Y-71165663D01*
X105704745Y-71165830D01*
X105710974Y-71165930D01*
X105718533Y-71165971D01*
X105720221Y-71165973D01*
X105730697Y-71165901D01*
X105739773Y-71165654D01*
X105747633Y-71165208D01*
X105754462Y-71164535D01*
X105760443Y-71163612D01*
X105765761Y-71162411D01*
X105770601Y-71160909D01*
X105775146Y-71159080D01*
X105777240Y-71158096D01*
X105782569Y-71154949D01*
X105787027Y-71151098D01*
X105790675Y-71146414D01*
X105793575Y-71140770D01*
X105795786Y-71134037D01*
X105797370Y-71126088D01*
X105798388Y-71116796D01*
X105798621Y-71113216D01*
X105799196Y-71102805D01*
X105802078Y-71102822D01*
X105803422Y-71102793D01*
X105806192Y-71102701D01*
X105810227Y-71102554D01*
X105815363Y-71102357D01*
X105821437Y-71102118D01*
X105828287Y-71101842D01*
X105835749Y-71101536D01*
X105843662Y-71101207D01*
X105845758Y-71101118D01*
X105853663Y-71100795D01*
X105861084Y-71100511D01*
X105867867Y-71100270D01*
X105873863Y-71100077D01*
X105878921Y-71099937D01*
X105882889Y-71099854D01*
X105885617Y-71099832D01*
X105886953Y-71099876D01*
X105887062Y-71099904D01*
X105887208Y-71100861D01*
X105887250Y-71103178D01*
X105887201Y-71106626D01*
X105887071Y-71110977D01*
X105886872Y-71116004D01*
X105886615Y-71121479D01*
X105886313Y-71127174D01*
X105885976Y-71132861D01*
X105885616Y-71138312D01*
X105885245Y-71143300D01*
X105884873Y-71147596D01*
X105884513Y-71150972D01*
X105884466Y-71151341D01*
X105882276Y-71164491D01*
X105879267Y-71176312D01*
X105875417Y-71186852D01*
X105870701Y-71196160D01*
X105865097Y-71204283D01*
X105858581Y-71211272D01*
X105853960Y-71215142D01*
X105846834Y-71219913D01*
X105838718Y-71224122D01*
X105829537Y-71227789D01*
X105819214Y-71230935D01*
X105807671Y-71233580D01*
X105794834Y-71235743D01*
X105780624Y-71237445D01*
X105764966Y-71238704D01*
X105762789Y-71238838D01*
X105758228Y-71239047D01*
X105752374Y-71239218D01*
X105745483Y-71239350D01*
X105737813Y-71239444D01*
X105729618Y-71239499D01*
X105721154Y-71239518D01*
X105712678Y-71239498D01*
X105704444Y-71239441D01*
X105696710Y-71239347D01*
X105689731Y-71239215D01*
X105683762Y-71239047D01*
X105679060Y-71238842D01*
X105678051Y-71238781D01*
X105661479Y-71237337D01*
X105646316Y-71235235D01*
X105632502Y-71232429D01*
X105619974Y-71228871D01*
X105608673Y-71224513D01*
X105598538Y-71219309D01*
X105589508Y-71213210D01*
X105581523Y-71206171D01*
X105574520Y-71198143D01*
X105568441Y-71189079D01*
X105563224Y-71178931D01*
X105558807Y-71167654D01*
X105555131Y-71155199D01*
X105552135Y-71141518D01*
X105551977Y-71140664D01*
X105550709Y-71133371D01*
X105549608Y-71126151D01*
X105548666Y-71118840D01*
X105547871Y-71111272D01*
X105547214Y-71103284D01*
X105546685Y-71094709D01*
X105546273Y-71085383D01*
X105545969Y-71075142D01*
X105545763Y-71063820D01*
X105545644Y-71051252D01*
X105545603Y-71037273D01*
X105545603Y-71035969D01*
X105545618Y-71024144D01*
X105545667Y-71013721D01*
X105545760Y-71004511D01*
X105545903Y-70996326D01*
X105546104Y-70988975D01*
X105546372Y-70982271D01*
X105546715Y-70976023D01*
X105547140Y-70970044D01*
X105547655Y-70964144D01*
X105548269Y-70958134D01*
X105548988Y-70951826D01*
X105549203Y-70950038D01*
X105551516Y-70934181D01*
X105554478Y-70919741D01*
X105558142Y-70906658D01*
X105562560Y-70894873D01*
X105567789Y-70884327D01*
X105573880Y-70874959D01*
X105580889Y-70866711D01*
X105588869Y-70859522D01*
X105597874Y-70853334D01*
X105607958Y-70848087D01*
X105619175Y-70843721D01*
X105631578Y-70840176D01*
X105645222Y-70837394D01*
X105652192Y-70836317D01*
X105658981Y-70835423D01*
X105665599Y-70834682D01*
X105672278Y-70834083D01*
X105679254Y-70833615D01*
X105686758Y-70833264D01*
X105695026Y-70833020D01*
X105704290Y-70832870D01*
X105714785Y-70832803D01*
X105721017Y-70832796D01*
X105738234Y-70832936D01*
G37*
G36*
X103786950Y-70832678D02*
G01*
X103801315Y-70833241D01*
X103815092Y-70834118D01*
X103828056Y-70835296D01*
X103839980Y-70836762D01*
X103850639Y-70838505D01*
X103853990Y-70839170D01*
X103867394Y-70842471D01*
X103879447Y-70846531D01*
X103890209Y-70851412D01*
X103899738Y-70857179D01*
X103908094Y-70863896D01*
X103915335Y-70871625D01*
X103921520Y-70880430D01*
X103926708Y-70890376D01*
X103930958Y-70901525D01*
X103934328Y-70913941D01*
X103936879Y-70927689D01*
X103937064Y-70928953D01*
X103937524Y-70932297D01*
X103937940Y-70935669D01*
X103938313Y-70939161D01*
X103938646Y-70942867D01*
X103938941Y-70946880D01*
X103939200Y-70951292D01*
X103939425Y-70956199D01*
X103939619Y-70961692D01*
X103939784Y-70967865D01*
X103939921Y-70974812D01*
X103940034Y-70982625D01*
X103940125Y-70991399D01*
X103940195Y-71001225D01*
X103940247Y-71012199D01*
X103940283Y-71024412D01*
X103940306Y-71037958D01*
X103940317Y-71052931D01*
X103940320Y-71065440D01*
X103940320Y-71162366D01*
X103944497Y-71162801D01*
X103946540Y-71162969D01*
X103949868Y-71163187D01*
X103954177Y-71163439D01*
X103959160Y-71163708D01*
X103964514Y-71163975D01*
X103966179Y-71164054D01*
X103971751Y-71164322D01*
X103977201Y-71164602D01*
X103982182Y-71164872D01*
X103986347Y-71165115D01*
X103989351Y-71165312D01*
X103989850Y-71165349D01*
X103996016Y-71165828D01*
X103996016Y-71199561D01*
X103996016Y-71233294D01*
X103923713Y-71233294D01*
X103851410Y-71233294D01*
X103850954Y-71229515D01*
X103850782Y-71227775D01*
X103850516Y-71224681D01*
X103850175Y-71220466D01*
X103849776Y-71215364D01*
X103849339Y-71209608D01*
X103848881Y-71203431D01*
X103848729Y-71201346D01*
X103846960Y-71176956D01*
X103837328Y-71185830D01*
X103830053Y-71192396D01*
X103823460Y-71198033D01*
X103817198Y-71203023D01*
X103810915Y-71207646D01*
X103805069Y-71211648D01*
X103791018Y-71220049D01*
X103776389Y-71226967D01*
X103761192Y-71232399D01*
X103745436Y-71236343D01*
X103729130Y-71238794D01*
X103728788Y-71238829D01*
X103723986Y-71239184D01*
X103718112Y-71239418D01*
X103711554Y-71239533D01*
X103704699Y-71239531D01*
X103697934Y-71239417D01*
X103691646Y-71239193D01*
X103686224Y-71238861D01*
X103682524Y-71238488D01*
X103668037Y-71235981D01*
X103654714Y-71232394D01*
X103642548Y-71227721D01*
X103631529Y-71221956D01*
X103621647Y-71215092D01*
X103612894Y-71207122D01*
X103605260Y-71198041D01*
X103598735Y-71187841D01*
X103593740Y-71177549D01*
X103590402Y-71168517D01*
X103587868Y-71159059D01*
X103586095Y-71148922D01*
X103585040Y-71137852D01*
X103584660Y-71125596D01*
X103584658Y-71124412D01*
X103584820Y-71118719D01*
X103675860Y-71118719D01*
X103675906Y-71123386D01*
X103676060Y-71126904D01*
X103676376Y-71129713D01*
X103676907Y-71132254D01*
X103677709Y-71134969D01*
X103677922Y-71135622D01*
X103681266Y-71143350D01*
X103685830Y-71150062D01*
X103691610Y-71155753D01*
X103698599Y-71160422D01*
X103706792Y-71164063D01*
X103716183Y-71166674D01*
X103726766Y-71168251D01*
X103734243Y-71168719D01*
X103736118Y-71168693D01*
X103739157Y-71168555D01*
X103742936Y-71168328D01*
X103746973Y-71168039D01*
X103759194Y-71166630D01*
X103770752Y-71164300D01*
X103781813Y-71160970D01*
X103792541Y-71156560D01*
X103803103Y-71150990D01*
X103813662Y-71144181D01*
X103824383Y-71136052D01*
X103835433Y-71126524D01*
X103838276Y-71123906D01*
X103844840Y-71117785D01*
X103844840Y-71088414D01*
X103844840Y-71059044D01*
X103812005Y-71059044D01*
X103797635Y-71059109D01*
X103784711Y-71059313D01*
X103773094Y-71059669D01*
X103762644Y-71060190D01*
X103753222Y-71060889D01*
X103744689Y-71061778D01*
X103736904Y-71062870D01*
X103729728Y-71064179D01*
X103723021Y-71065716D01*
X103716644Y-71067495D01*
X103715147Y-71067960D01*
X103705535Y-71071579D01*
X103697263Y-71075926D01*
X103690361Y-71080980D01*
X103684856Y-71086720D01*
X103680778Y-71093124D01*
X103680608Y-71093469D01*
X103678602Y-71098157D01*
X103677206Y-71102873D01*
X103676339Y-71108035D01*
X103675924Y-71114062D01*
X103675860Y-71118719D01*
X103584820Y-71118719D01*
X103585038Y-71111026D01*
X103586211Y-71098912D01*
X103588219Y-71087937D01*
X103591109Y-71077971D01*
X103594924Y-71068879D01*
X103599710Y-71060529D01*
X103605512Y-71052788D01*
X103610820Y-71047040D01*
X103618932Y-71039862D01*
X103628129Y-71033441D01*
X103638492Y-71027734D01*
X103650107Y-71022701D01*
X103663055Y-71018300D01*
X103675761Y-71014884D01*
X103683691Y-71013066D01*
X103691495Y-71011469D01*
X103699327Y-71010080D01*
X103707340Y-71008887D01*
X103715686Y-71007879D01*
X103724518Y-71007042D01*
X103733989Y-71006364D01*
X103744252Y-71005834D01*
X103755458Y-71005439D01*
X103767762Y-71005166D01*
X103781316Y-71005004D01*
X103796272Y-71004941D01*
X103799796Y-71004939D01*
X103845088Y-71004939D01*
X103844595Y-70982859D01*
X103844359Y-70973993D01*
X103844067Y-70966492D01*
X103843697Y-70960132D01*
X103843231Y-70954685D01*
X103842647Y-70949928D01*
X103841926Y-70945634D01*
X103841047Y-70941578D01*
X103840778Y-70940490D01*
X103838149Y-70932400D01*
X103834580Y-70925382D01*
X103829999Y-70919384D01*
X103824336Y-70914351D01*
X103817520Y-70910230D01*
X103809480Y-70906968D01*
X103800145Y-70904511D01*
X103791087Y-70903009D01*
X103787145Y-70902638D01*
X103781954Y-70902353D01*
X103775850Y-70902156D01*
X103769170Y-70902045D01*
X103762250Y-70902023D01*
X103755429Y-70902087D01*
X103749042Y-70902240D01*
X103743427Y-70902481D01*
X103738921Y-70902810D01*
X103737425Y-70902976D01*
X103727498Y-70904590D01*
X103718991Y-70906734D01*
X103711803Y-70909477D01*
X103705833Y-70912886D01*
X103700979Y-70917028D01*
X103697138Y-70921972D01*
X103694209Y-70927785D01*
X103692503Y-70932931D01*
X103691934Y-70935706D01*
X103691398Y-70939525D01*
X103690964Y-70943837D01*
X103690734Y-70947287D01*
X103690264Y-70956869D01*
X103652777Y-70958670D01*
X103644936Y-70959050D01*
X103637361Y-70959424D01*
X103630247Y-70959781D01*
X103623787Y-70960111D01*
X103618176Y-70960405D01*
X103613608Y-70960653D01*
X103610275Y-70960844D01*
X103608602Y-70960951D01*
X103601913Y-70961431D01*
X103602386Y-70945987D01*
X103603169Y-70931724D01*
X103604621Y-70918822D01*
X103606776Y-70907184D01*
X103609666Y-70896711D01*
X103613324Y-70887308D01*
X103617781Y-70878876D01*
X103623070Y-70871319D01*
X103629224Y-70864538D01*
X103629723Y-70864057D01*
X103633835Y-70860302D01*
X103637673Y-70857250D01*
X103641740Y-70854555D01*
X103646538Y-70851867D01*
X103649586Y-70850308D01*
X103657170Y-70846870D01*
X103665365Y-70843857D01*
X103674298Y-70841246D01*
X103684098Y-70839013D01*
X103694892Y-70837134D01*
X103706808Y-70835586D01*
X103719974Y-70834345D01*
X103734519Y-70833387D01*
X103742597Y-70832995D01*
X103757365Y-70832542D01*
X103772225Y-70832441D01*
X103786950Y-70832678D01*
G37*
G36*
X105341223Y-70832627D02*
G01*
X105353051Y-70832868D01*
X105364320Y-70833270D01*
X105374704Y-70833832D01*
X105383882Y-70834551D01*
X105385247Y-70834683D01*
X105399941Y-70836508D01*
X105413224Y-70838922D01*
X105425181Y-70841972D01*
X105435895Y-70845702D01*
X105445450Y-70850158D01*
X105453931Y-70855385D01*
X105461422Y-70861430D01*
X105468007Y-70868336D01*
X105473771Y-70876149D01*
X105478797Y-70884916D01*
X105478936Y-70885191D01*
X105482546Y-70893181D01*
X105485737Y-70901987D01*
X105488527Y-70911710D01*
X105490936Y-70922455D01*
X105492984Y-70934325D01*
X105494691Y-70947422D01*
X105496075Y-70961850D01*
X105497157Y-70977712D01*
X105497416Y-70982578D01*
X105497659Y-70988266D01*
X105497858Y-70994656D01*
X105498013Y-71001548D01*
X105498124Y-71008742D01*
X105498192Y-71016039D01*
X105498217Y-71023239D01*
X105498199Y-71030141D01*
X105498138Y-71036547D01*
X105498035Y-71042255D01*
X105497890Y-71047067D01*
X105497702Y-71050781D01*
X105497472Y-71053200D01*
X105497349Y-71053835D01*
X105495610Y-71057422D01*
X105492756Y-71060500D01*
X105489261Y-71062595D01*
X105488248Y-71062936D01*
X105487184Y-71063068D01*
X105484963Y-71063188D01*
X105481549Y-71063297D01*
X105476908Y-71063394D01*
X105471004Y-71063481D01*
X105463803Y-71063557D01*
X105455269Y-71063623D01*
X105445368Y-71063678D01*
X105434065Y-71063724D01*
X105421324Y-71063760D01*
X105407111Y-71063786D01*
X105391390Y-71063804D01*
X105374128Y-71063812D01*
X105366747Y-71063813D01*
X105350140Y-71063816D01*
X105335060Y-71063824D01*
X105321444Y-71063838D01*
X105309226Y-71063858D01*
X105298343Y-71063885D01*
X105288731Y-71063919D01*
X105280326Y-71063961D01*
X105273064Y-71064011D01*
X105266881Y-71064070D01*
X105261712Y-71064138D01*
X105257493Y-71064217D01*
X105254161Y-71064306D01*
X105251652Y-71064406D01*
X105249900Y-71064517D01*
X105248843Y-71064641D01*
X105248416Y-71064777D01*
X105248400Y-71064812D01*
X105248441Y-71065885D01*
X105248550Y-71068286D01*
X105248716Y-71071752D01*
X105248925Y-71076022D01*
X105249166Y-71080834D01*
X105249190Y-71081322D01*
X105249990Y-71094250D01*
X105251027Y-71105713D01*
X105252330Y-71115823D01*
X105253930Y-71124694D01*
X105255854Y-71132438D01*
X105258134Y-71139169D01*
X105260799Y-71144998D01*
X105263877Y-71150040D01*
X105267399Y-71154405D01*
X105268664Y-71155717D01*
X105273370Y-71159720D01*
X105278773Y-71162994D01*
X105285060Y-71165610D01*
X105292417Y-71167637D01*
X105301031Y-71169146D01*
X105305893Y-71169730D01*
X105309204Y-71169970D01*
X105313735Y-71170141D01*
X105319225Y-71170248D01*
X105325414Y-71170294D01*
X105332043Y-71170281D01*
X105338850Y-71170214D01*
X105345577Y-71170096D01*
X105351962Y-71169929D01*
X105357746Y-71169719D01*
X105362669Y-71169467D01*
X105366470Y-71169177D01*
X105368538Y-71168919D01*
X105377681Y-71167073D01*
X105385392Y-71164852D01*
X105391807Y-71162157D01*
X105397061Y-71158890D01*
X105401290Y-71154953D01*
X105404628Y-71150249D01*
X105407212Y-71144680D01*
X105408754Y-71139804D01*
X105409285Y-71137127D01*
X105409787Y-71133358D01*
X105410204Y-71128995D01*
X105410481Y-71124536D01*
X105410483Y-71124487D01*
X105410693Y-71120151D01*
X105410915Y-71117169D01*
X105411188Y-71115304D01*
X105411550Y-71114320D01*
X105412040Y-71113979D01*
X105412213Y-71113967D01*
X105413234Y-71113939D01*
X105415692Y-71113849D01*
X105419434Y-71113704D01*
X105424309Y-71113510D01*
X105430164Y-71113274D01*
X105436847Y-71113000D01*
X105444204Y-71112696D01*
X105452083Y-71112367D01*
X105455447Y-71112226D01*
X105463457Y-71111896D01*
X105470975Y-71111599D01*
X105477855Y-71111339D01*
X105483947Y-71111123D01*
X105489105Y-71110955D01*
X105493181Y-71110840D01*
X105496026Y-71110782D01*
X105497494Y-71110788D01*
X105497665Y-71110811D01*
X105497794Y-71111806D01*
X105497823Y-71114138D01*
X105497763Y-71117558D01*
X105497627Y-71121814D01*
X105497427Y-71126657D01*
X105497176Y-71131837D01*
X105496886Y-71137104D01*
X105496569Y-71142207D01*
X105496238Y-71146897D01*
X105495906Y-71150923D01*
X105495583Y-71154035D01*
X105495487Y-71154776D01*
X105493511Y-71166276D01*
X105490878Y-71176744D01*
X105487524Y-71186226D01*
X105483384Y-71194766D01*
X105478395Y-71202407D01*
X105472493Y-71209195D01*
X105465612Y-71215173D01*
X105457690Y-71220385D01*
X105448662Y-71224877D01*
X105438463Y-71228692D01*
X105427030Y-71231875D01*
X105414299Y-71234469D01*
X105400204Y-71236520D01*
X105384683Y-71238071D01*
X105373709Y-71238838D01*
X105369105Y-71239049D01*
X105363214Y-71239221D01*
X105356297Y-71239354D01*
X105348609Y-71239447D01*
X105340410Y-71239501D01*
X105331957Y-71239517D01*
X105323508Y-71239495D01*
X105315320Y-71239434D01*
X105307652Y-71239335D01*
X105300761Y-71239198D01*
X105294906Y-71239023D01*
X105290343Y-71238811D01*
X105289767Y-71238775D01*
X105273919Y-71237413D01*
X105259490Y-71235499D01*
X105246397Y-71233004D01*
X105234557Y-71229899D01*
X105223887Y-71226156D01*
X105214304Y-71221746D01*
X105205725Y-71216643D01*
X105198066Y-71210816D01*
X105192563Y-71205633D01*
X105186739Y-71198966D01*
X105181516Y-71191586D01*
X105176868Y-71183404D01*
X105172770Y-71174332D01*
X105169196Y-71164284D01*
X105166120Y-71153172D01*
X105163517Y-71140908D01*
X105161362Y-71127405D01*
X105159627Y-71112576D01*
X105158289Y-71096332D01*
X105157698Y-71086494D01*
X105157525Y-71082360D01*
X105157364Y-71076899D01*
X105157220Y-71070376D01*
X105157098Y-71063055D01*
X105157002Y-71055202D01*
X105156935Y-71047081D01*
X105156902Y-71038955D01*
X105156899Y-71035969D01*
X105156918Y-71027911D01*
X105156973Y-71019757D01*
X105157059Y-71011772D01*
X105157161Y-71004939D01*
X105248364Y-71004939D01*
X105329138Y-71004939D01*
X105409912Y-71004939D01*
X105409912Y-70997539D01*
X105409846Y-70993742D01*
X105409665Y-70988988D01*
X105409399Y-70983904D01*
X105409099Y-70979437D01*
X105407890Y-70966514D01*
X105406304Y-70955062D01*
X105404287Y-70944995D01*
X105401781Y-70936226D01*
X105398729Y-70928667D01*
X105395076Y-70922233D01*
X105390765Y-70916834D01*
X105385739Y-70912386D01*
X105379941Y-70908800D01*
X105373317Y-70905990D01*
X105365808Y-70903868D01*
X105359271Y-70902631D01*
X105355481Y-70902131D01*
X105351180Y-70901756D01*
X105346117Y-70901492D01*
X105340039Y-70901327D01*
X105332695Y-70901250D01*
X105330346Y-70901242D01*
X105319417Y-70901341D01*
X105309906Y-70901709D01*
X105301656Y-70902383D01*
X105294510Y-70903403D01*
X105288311Y-70904805D01*
X105282903Y-70906629D01*
X105278129Y-70908911D01*
X105273831Y-70911690D01*
X105269853Y-70915005D01*
X105268602Y-70916205D01*
X105265235Y-70919911D01*
X105262267Y-70924033D01*
X105259669Y-70928691D01*
X105257412Y-70934006D01*
X105255466Y-70940099D01*
X105253800Y-70947089D01*
X105252384Y-70955097D01*
X105251190Y-70964243D01*
X105250186Y-70974648D01*
X105249344Y-70986432D01*
X105248813Y-70995987D01*
X105248364Y-71004939D01*
X105157161Y-71004939D01*
X105157172Y-71004222D01*
X105157308Y-70997369D01*
X105157463Y-70991480D01*
X105157632Y-70986819D01*
X105157698Y-70985445D01*
X105158934Y-70967111D01*
X105160655Y-70950249D01*
X105162911Y-70934802D01*
X105165749Y-70920711D01*
X105169218Y-70907918D01*
X105173368Y-70896365D01*
X105178247Y-70885994D01*
X105183904Y-70876748D01*
X105190387Y-70868568D01*
X105197746Y-70861396D01*
X105206028Y-70855174D01*
X105215284Y-70849844D01*
X105225561Y-70845348D01*
X105236908Y-70841628D01*
X105249374Y-70838626D01*
X105263008Y-70836285D01*
X105277858Y-70834545D01*
X105284993Y-70833940D01*
X105294772Y-70833334D01*
X105305608Y-70832903D01*
X105317177Y-70832642D01*
X105329157Y-70832551D01*
X105341223Y-70832627D01*
G37*
G36*
X103281654Y-70832552D02*
G01*
X103284294Y-70832632D01*
X103296272Y-70833212D01*
X103306898Y-70834043D01*
X103316399Y-70835171D01*
X103325002Y-70836641D01*
X103332932Y-70838500D01*
X103340416Y-70840793D01*
X103347681Y-70843565D01*
X103354954Y-70846864D01*
X103355171Y-70846970D01*
X103364882Y-70852269D01*
X103374159Y-70858516D01*
X103383290Y-70865921D01*
X103391112Y-70873245D01*
X103400064Y-70882111D01*
X103400064Y-70860378D01*
X103400064Y-70838645D01*
X103433748Y-70838645D01*
X103441757Y-70838656D01*
X103451002Y-70838690D01*
X103461126Y-70838743D01*
X103471775Y-70838813D01*
X103482592Y-70838898D01*
X103493222Y-70838995D01*
X103503310Y-70839101D01*
X103509337Y-70839173D01*
X103551240Y-70839701D01*
X103551240Y-70872870D01*
X103551240Y-70906040D01*
X103545073Y-70906499D01*
X103542596Y-70906676D01*
X103538819Y-70906934D01*
X103534030Y-70907256D01*
X103528517Y-70907621D01*
X103522569Y-70908010D01*
X103517225Y-70908356D01*
X103495543Y-70909754D01*
X103495536Y-71075701D01*
X103495531Y-71095091D01*
X103495519Y-71113638D01*
X103495499Y-71131290D01*
X103495472Y-71147993D01*
X103495438Y-71163697D01*
X103495397Y-71178349D01*
X103495350Y-71191896D01*
X103495296Y-71204286D01*
X103495236Y-71215466D01*
X103495171Y-71225385D01*
X103495099Y-71233991D01*
X103495023Y-71241230D01*
X103494941Y-71247051D01*
X103494855Y-71251400D01*
X103494764Y-71254227D01*
X103494735Y-71254777D01*
X103493569Y-71269785D01*
X103491953Y-71283365D01*
X103489851Y-71295624D01*
X103487229Y-71306669D01*
X103484052Y-71316610D01*
X103480284Y-71325552D01*
X103475890Y-71333605D01*
X103470835Y-71340875D01*
X103465084Y-71347471D01*
X103464207Y-71348361D01*
X103458116Y-71353884D01*
X103451418Y-71358836D01*
X103444021Y-71363240D01*
X103435834Y-71367122D01*
X103426767Y-71370507D01*
X103416728Y-71373419D01*
X103405625Y-71375884D01*
X103393369Y-71377926D01*
X103379867Y-71379570D01*
X103365029Y-71380842D01*
X103348763Y-71381765D01*
X103340787Y-71382080D01*
X103332782Y-71382344D01*
X103325889Y-71382536D01*
X103319746Y-71382656D01*
X103313991Y-71382704D01*
X103308263Y-71382679D01*
X103302199Y-71382581D01*
X103295437Y-71382409D01*
X103287617Y-71382164D01*
X103283499Y-71382023D01*
X103266380Y-71381176D01*
X103250727Y-71379856D01*
X103236477Y-71378039D01*
X103223569Y-71375701D01*
X103211942Y-71372818D01*
X103201534Y-71369365D01*
X103192284Y-71365320D01*
X103184129Y-71360657D01*
X103177010Y-71355352D01*
X103170863Y-71349382D01*
X103165627Y-71342723D01*
X103161242Y-71335350D01*
X103160538Y-71333946D01*
X103157218Y-71326269D01*
X103154501Y-71318007D01*
X103152349Y-71308974D01*
X103150727Y-71298981D01*
X103149596Y-71287840D01*
X103148922Y-71275364D01*
X103148892Y-71274470D01*
X103148382Y-71258756D01*
X103151890Y-71258748D01*
X103153409Y-71258711D01*
X103156337Y-71258610D01*
X103160492Y-71258451D01*
X103165693Y-71258242D01*
X103171759Y-71257990D01*
X103178509Y-71257702D01*
X103185761Y-71257387D01*
X103190804Y-71257164D01*
X103198316Y-71256834D01*
X103205469Y-71256526D01*
X103212076Y-71256250D01*
X103217954Y-71256011D01*
X103222917Y-71255818D01*
X103226781Y-71255677D01*
X103229361Y-71255597D01*
X103230266Y-71255581D01*
X103234322Y-71255573D01*
X103234806Y-71264610D01*
X103235731Y-71274242D01*
X103237439Y-71282552D01*
X103239986Y-71289635D01*
X103243431Y-71295587D01*
X103247833Y-71300503D01*
X103253248Y-71304477D01*
X103259735Y-71307605D01*
X103261353Y-71308203D01*
X103267970Y-71310095D01*
X103275867Y-71311625D01*
X103284772Y-71312791D01*
X103294416Y-71313592D01*
X103304528Y-71314026D01*
X103314837Y-71314092D01*
X103325073Y-71313788D01*
X103334966Y-71313112D01*
X103344245Y-71312063D01*
X103352639Y-71310639D01*
X103359879Y-71308839D01*
X103360071Y-71308780D01*
X103368812Y-71305429D01*
X103376322Y-71301083D01*
X103382653Y-71295690D01*
X103387857Y-71289199D01*
X103391983Y-71281557D01*
X103394811Y-71273678D01*
X103395753Y-71270306D01*
X103396560Y-71267084D01*
X103397244Y-71263856D01*
X103397816Y-71260465D01*
X103398289Y-71256753D01*
X103398673Y-71252565D01*
X103398982Y-71247743D01*
X103399226Y-71242130D01*
X103399417Y-71235570D01*
X103399568Y-71227906D01*
X103399690Y-71218982D01*
X103399795Y-71208639D01*
X103399805Y-71207435D01*
X103400179Y-71165265D01*
X103390945Y-71174971D01*
X103380956Y-71184909D01*
X103371196Y-71193414D01*
X103361466Y-71200583D01*
X103351566Y-71206514D01*
X103341296Y-71211306D01*
X103330456Y-71215057D01*
X103318849Y-71217866D01*
X103306273Y-71219830D01*
X103298333Y-71220632D01*
X103293095Y-71220950D01*
X103286709Y-71221149D01*
X103279493Y-71221235D01*
X103271765Y-71221213D01*
X103263842Y-71221091D01*
X103256041Y-71220874D01*
X103248679Y-71220568D01*
X103242074Y-71220180D01*
X103236543Y-71219715D01*
X103233770Y-71219388D01*
X103221442Y-71217279D01*
X103210106Y-71214443D01*
X103199722Y-71210825D01*
X103190255Y-71206371D01*
X103181667Y-71201027D01*
X103173922Y-71194738D01*
X103166981Y-71187449D01*
X103160808Y-71179106D01*
X103155365Y-71169653D01*
X103150616Y-71159038D01*
X103146524Y-71147204D01*
X103143051Y-71134098D01*
X103140160Y-71119665D01*
X103137815Y-71103850D01*
X103135977Y-71086598D01*
X103135009Y-71074161D01*
X103134797Y-71070187D01*
X103134602Y-71064894D01*
X103134428Y-71058554D01*
X103134283Y-71051441D01*
X103134170Y-71043826D01*
X103134096Y-71035982D01*
X103134084Y-71032868D01*
X103224408Y-71032868D01*
X103224463Y-71040914D01*
X103224591Y-71048309D01*
X103224796Y-71054774D01*
X103224944Y-71057841D01*
X103225796Y-71070233D01*
X103226910Y-71081176D01*
X103228319Y-71090796D01*
X103230059Y-71099217D01*
X103232161Y-71106567D01*
X103234662Y-71112971D01*
X103237594Y-71118555D01*
X103240991Y-71123444D01*
X103243438Y-71126280D01*
X103249217Y-71131304D01*
X103256285Y-71135405D01*
X103264634Y-71138579D01*
X103274254Y-71140822D01*
X103280714Y-71141729D01*
X103284249Y-71141995D01*
X103289037Y-71142180D01*
X103294809Y-71142288D01*
X103301294Y-71142323D01*
X103308221Y-71142289D01*
X103315322Y-71142191D01*
X103322327Y-71142033D01*
X103328963Y-71141820D01*
X103334963Y-71141555D01*
X103340056Y-71141243D01*
X103343971Y-71140889D01*
X103345480Y-71140685D01*
X103356694Y-71138538D01*
X103366800Y-71135858D01*
X103376235Y-71132497D01*
X103385434Y-71128306D01*
X103391513Y-71125057D01*
X103400070Y-71120238D01*
X103399868Y-71025813D01*
X103399666Y-70931389D01*
X103390005Y-70926520D01*
X103382561Y-70922992D01*
X103375245Y-70920020D01*
X103367847Y-70917566D01*
X103360159Y-70915591D01*
X103351971Y-70914057D01*
X103343072Y-70912924D01*
X103333252Y-70912156D01*
X103322303Y-70911712D01*
X103310015Y-70911556D01*
X103308562Y-70911554D01*
X103299830Y-70911596D01*
X103292448Y-70911738D01*
X103286180Y-70912004D01*
X103280787Y-70912417D01*
X103276029Y-70913001D01*
X103271670Y-70913781D01*
X103267471Y-70914781D01*
X103263193Y-70916024D01*
X103262749Y-70916163D01*
X103255832Y-70918888D01*
X103249734Y-70922479D01*
X103244408Y-70927015D01*
X103239810Y-70932576D01*
X103235895Y-70939244D01*
X103232617Y-70947097D01*
X103229932Y-70956217D01*
X103227795Y-70966683D01*
X103226159Y-70978577D01*
X103225816Y-70981864D01*
X103225445Y-70986620D01*
X103225126Y-70992686D01*
X103224861Y-70999782D01*
X103224653Y-71007628D01*
X103224506Y-71015945D01*
X103224424Y-71024451D01*
X103224408Y-71032868D01*
X103134084Y-71032868D01*
X103134066Y-71028181D01*
X103134065Y-71027217D01*
X103134173Y-71010544D01*
X103134506Y-70995291D01*
X103135077Y-70981301D01*
X103135903Y-70968417D01*
X103136996Y-70956480D01*
X103138371Y-70945336D01*
X103140043Y-70934825D01*
X103142025Y-70924791D01*
X103144251Y-70915397D01*
X103148258Y-70901893D01*
X103153035Y-70889762D01*
X103158634Y-70878952D01*
X103165111Y-70869415D01*
X103172518Y-70861101D01*
X103180910Y-70853961D01*
X103190342Y-70847943D01*
X103200866Y-70842999D01*
X103212537Y-70839080D01*
X103225409Y-70836134D01*
X103231410Y-70835143D01*
X103238391Y-70834282D01*
X103246517Y-70833565D01*
X103255348Y-70833012D01*
X103264441Y-70832645D01*
X103273357Y-70832485D01*
X103281654Y-70832552D01*
G37*
G36*
X103555923Y-66598700D02*
G01*
X103579430Y-66598707D01*
X103603958Y-66598719D01*
X103628817Y-66598736D01*
X103908891Y-66598946D01*
X103913044Y-66600650D01*
X103919284Y-66603975D01*
X103924542Y-66608348D01*
X103928653Y-66613589D01*
X103931451Y-66619518D01*
X103931963Y-66621225D01*
X103932201Y-66622356D01*
X103932720Y-66624996D01*
X103933507Y-66629087D01*
X103934553Y-66634573D01*
X103935847Y-66641398D01*
X103937379Y-66649503D01*
X103939137Y-66658834D01*
X103941111Y-66669332D01*
X103943291Y-66680943D01*
X103945666Y-66693608D01*
X103948226Y-66707272D01*
X103950959Y-66721878D01*
X103953856Y-66737369D01*
X103956905Y-66753688D01*
X103960096Y-66770780D01*
X103963418Y-66788586D01*
X103966861Y-66807052D01*
X103970415Y-66826119D01*
X103974068Y-66845732D01*
X103977810Y-66865834D01*
X103981630Y-66886368D01*
X103985294Y-66906073D01*
X103989919Y-66930947D01*
X103994262Y-66954306D01*
X103998334Y-66976198D01*
X104002143Y-66996672D01*
X104005699Y-67015776D01*
X104009011Y-67033560D01*
X104012088Y-67050071D01*
X104014941Y-67065359D01*
X104017578Y-67079473D01*
X104020009Y-67092460D01*
X104022242Y-67104371D01*
X104024289Y-67115254D01*
X104026157Y-67125157D01*
X104027856Y-67134129D01*
X104029396Y-67142219D01*
X104030786Y-67149476D01*
X104032035Y-67155948D01*
X104033153Y-67161685D01*
X104034149Y-67166735D01*
X104035033Y-67171146D01*
X104035813Y-67174968D01*
X104036500Y-67178249D01*
X104037102Y-67181039D01*
X104037629Y-67183385D01*
X104038091Y-67185336D01*
X104038496Y-67186942D01*
X104038854Y-67188251D01*
X104039175Y-67189312D01*
X104039468Y-67190173D01*
X104039742Y-67190884D01*
X104040006Y-67191492D01*
X104040271Y-67192048D01*
X104040295Y-67192096D01*
X104042709Y-67196140D01*
X104045968Y-67200411D01*
X104049722Y-67204539D01*
X104053623Y-67208155D01*
X104057321Y-67210890D01*
X104058874Y-67211758D01*
X104060010Y-67212254D01*
X104062543Y-67213320D01*
X104066398Y-67214925D01*
X104071497Y-67217038D01*
X104077765Y-67219627D01*
X104085126Y-67222662D01*
X104093504Y-67226112D01*
X104102822Y-67229944D01*
X104113005Y-67234129D01*
X104123976Y-67238635D01*
X104135659Y-67243430D01*
X104147979Y-67248485D01*
X104160858Y-67253766D01*
X104174221Y-67259244D01*
X104187991Y-67264887D01*
X104202094Y-67270665D01*
X104216452Y-67276545D01*
X104230989Y-67282497D01*
X104245629Y-67288489D01*
X104260297Y-67294491D01*
X104274915Y-67300471D01*
X104289408Y-67306399D01*
X104303701Y-67312242D01*
X104317715Y-67317971D01*
X104331377Y-67323553D01*
X104344609Y-67328957D01*
X104357335Y-67334153D01*
X104369479Y-67339109D01*
X104380965Y-67343795D01*
X104391717Y-67348178D01*
X104401659Y-67352228D01*
X104410715Y-67355914D01*
X104418808Y-67359204D01*
X104425863Y-67362067D01*
X104431803Y-67364473D01*
X104436553Y-67366390D01*
X104440035Y-67367787D01*
X104442175Y-67368633D01*
X104442782Y-67368862D01*
X104450077Y-67370683D01*
X104457775Y-67371230D01*
X104465459Y-67370524D01*
X104472712Y-67368585D01*
X104475806Y-67367277D01*
X104476784Y-67366673D01*
X104479025Y-67365201D01*
X104482483Y-67362893D01*
X104487110Y-67359780D01*
X104492857Y-67355897D01*
X104499679Y-67351275D01*
X104507526Y-67345946D01*
X104516352Y-67339944D01*
X104526108Y-67333301D01*
X104536748Y-67326048D01*
X104548223Y-67318220D01*
X104560485Y-67309848D01*
X104573489Y-67300964D01*
X104587184Y-67291602D01*
X104601525Y-67281793D01*
X104616464Y-67271571D01*
X104631952Y-67260967D01*
X104647943Y-67250015D01*
X104664388Y-67238746D01*
X104681240Y-67227193D01*
X104698452Y-67215389D01*
X104714556Y-67204340D01*
X104732048Y-67192337D01*
X104749221Y-67180558D01*
X104766025Y-67169033D01*
X104782415Y-67157796D01*
X104798343Y-67146878D01*
X104813761Y-67136313D01*
X104828622Y-67126132D01*
X104842879Y-67116369D01*
X104856484Y-67107054D01*
X104869390Y-67098222D01*
X104881549Y-67089904D01*
X104892914Y-67082133D01*
X104903438Y-67074941D01*
X104913073Y-67068360D01*
X104921772Y-67062423D01*
X104929487Y-67057163D01*
X104936172Y-67052611D01*
X104941778Y-67048800D01*
X104946258Y-67045763D01*
X104949566Y-67043532D01*
X104951653Y-67042140D01*
X104952456Y-67041626D01*
X104954243Y-67040773D01*
X104956036Y-67040221D01*
X104958246Y-67039908D01*
X104961289Y-67039771D01*
X104964755Y-67039744D01*
X104965943Y-67039699D01*
X104966990Y-67039587D01*
X104967931Y-67039440D01*
X104968801Y-67039293D01*
X104969637Y-67039178D01*
X104970475Y-67039130D01*
X104971349Y-67039181D01*
X104972295Y-67039365D01*
X104973350Y-67039716D01*
X104974549Y-67040266D01*
X104975927Y-67041050D01*
X104977520Y-67042100D01*
X104979364Y-67043450D01*
X104981495Y-67045134D01*
X104983948Y-67047185D01*
X104986759Y-67049636D01*
X104989963Y-67052521D01*
X104993596Y-67055873D01*
X104997695Y-67059725D01*
X105002293Y-67064111D01*
X105007428Y-67069065D01*
X105013135Y-67074620D01*
X105019450Y-67080809D01*
X105026408Y-67087665D01*
X105034044Y-67095223D01*
X105042395Y-67103515D01*
X105051497Y-67112575D01*
X105061384Y-67122437D01*
X105072093Y-67133133D01*
X105083659Y-67144697D01*
X105096118Y-67157163D01*
X105109506Y-67170564D01*
X105123858Y-67184933D01*
X105139210Y-67200304D01*
X105155597Y-67216710D01*
X105173056Y-67234185D01*
X105184056Y-67245193D01*
X105201896Y-67263044D01*
X105218645Y-67279805D01*
X105234339Y-67295510D01*
X105249011Y-67310196D01*
X105262697Y-67323898D01*
X105275431Y-67336651D01*
X105287249Y-67348490D01*
X105298184Y-67359450D01*
X105308271Y-67369566D01*
X105317546Y-67378875D01*
X105326042Y-67387410D01*
X105333795Y-67395208D01*
X105340839Y-67402303D01*
X105347210Y-67408731D01*
X105352941Y-67414527D01*
X105358067Y-67419726D01*
X105362623Y-67424363D01*
X105366644Y-67428475D01*
X105370165Y-67432095D01*
X105373219Y-67435259D01*
X105375843Y-67438002D01*
X105378070Y-67440360D01*
X105379936Y-67442368D01*
X105381474Y-67444060D01*
X105382720Y-67445473D01*
X105383709Y-67446642D01*
X105384474Y-67447601D01*
X105385052Y-67448386D01*
X105385476Y-67449033D01*
X105385781Y-67449575D01*
X105386002Y-67450050D01*
X105386105Y-67450307D01*
X105387348Y-67454832D01*
X105387989Y-67459990D01*
X105388022Y-67465255D01*
X105387446Y-67470100D01*
X105386271Y-67473968D01*
X105385695Y-67474902D01*
X105384251Y-67477101D01*
X105381971Y-67480515D01*
X105378889Y-67485097D01*
X105375037Y-67490798D01*
X105370447Y-67497571D01*
X105365154Y-67505368D01*
X105359189Y-67514140D01*
X105352585Y-67523839D01*
X105345375Y-67534418D01*
X105337592Y-67545828D01*
X105329268Y-67558022D01*
X105320437Y-67570951D01*
X105311130Y-67584567D01*
X105301382Y-67598823D01*
X105291224Y-67613670D01*
X105280690Y-67629060D01*
X105269812Y-67644945D01*
X105258622Y-67661277D01*
X105247155Y-67678009D01*
X105235442Y-67695091D01*
X105227480Y-67706699D01*
X105215620Y-67723988D01*
X105203982Y-67740954D01*
X105192597Y-67757551D01*
X105181500Y-67773731D01*
X105170722Y-67789445D01*
X105160297Y-67804646D01*
X105150257Y-67819286D01*
X105140636Y-67833317D01*
X105131466Y-67846690D01*
X105122779Y-67859359D01*
X105114610Y-67871274D01*
X105106990Y-67882389D01*
X105099953Y-67892656D01*
X105093532Y-67902025D01*
X105087758Y-67910450D01*
X105082666Y-67917882D01*
X105078287Y-67924274D01*
X105074656Y-67929578D01*
X105071804Y-67933745D01*
X105069765Y-67936729D01*
X105068571Y-67938480D01*
X105068260Y-67938940D01*
X105065090Y-67945082D01*
X105062943Y-67952076D01*
X105061910Y-67959486D01*
X105062081Y-67966875D01*
X105062228Y-67968037D01*
X105062381Y-67968783D01*
X105062684Y-67969852D01*
X105063158Y-67971294D01*
X105063825Y-67973158D01*
X105064704Y-67975496D01*
X105065817Y-67978358D01*
X105067186Y-67981792D01*
X105068831Y-67985850D01*
X105070774Y-67990582D01*
X105073035Y-67996037D01*
X105075635Y-68002266D01*
X105078597Y-68009319D01*
X105081940Y-68017246D01*
X105085685Y-68026097D01*
X105089855Y-68035922D01*
X105094470Y-68046772D01*
X105099550Y-68058696D01*
X105105118Y-68071745D01*
X105111194Y-68085968D01*
X105117799Y-68101416D01*
X105124955Y-68118139D01*
X105132682Y-68136187D01*
X105141001Y-68155610D01*
X105147454Y-68170670D01*
X105154709Y-68187598D01*
X105161812Y-68204168D01*
X105168738Y-68220318D01*
X105175460Y-68235988D01*
X105181951Y-68251116D01*
X105188186Y-68265640D01*
X105194137Y-68279500D01*
X105199779Y-68292634D01*
X105205085Y-68304981D01*
X105210029Y-68316479D01*
X105214584Y-68327068D01*
X105218725Y-68336686D01*
X105222424Y-68345272D01*
X105225656Y-68352764D01*
X105228393Y-68359101D01*
X105230611Y-68364222D01*
X105232282Y-68368066D01*
X105233380Y-68370571D01*
X105233879Y-68371677D01*
X105233884Y-68371687D01*
X105236301Y-68375464D01*
X105239781Y-68379550D01*
X105243944Y-68383585D01*
X105248407Y-68387209D01*
X105252791Y-68390062D01*
X105254012Y-68390703D01*
X105254576Y-68390974D01*
X105255183Y-68391241D01*
X105255883Y-68391517D01*
X105256726Y-68391809D01*
X105257761Y-68392128D01*
X105259037Y-68392483D01*
X105260604Y-68392883D01*
X105262512Y-68393338D01*
X105264808Y-68393858D01*
X105267544Y-68394451D01*
X105270768Y-68395128D01*
X105274530Y-68395898D01*
X105278879Y-68396771D01*
X105283864Y-68397755D01*
X105289536Y-68398861D01*
X105295942Y-68400098D01*
X105303133Y-68401475D01*
X105311158Y-68403003D01*
X105320067Y-68404689D01*
X105329908Y-68406545D01*
X105340731Y-68408579D01*
X105352586Y-68410802D01*
X105365522Y-68413221D01*
X105379588Y-68415848D01*
X105394833Y-68418691D01*
X105411308Y-68421760D01*
X105429061Y-68425065D01*
X105448142Y-68428614D01*
X105468601Y-68432419D01*
X105490486Y-68436487D01*
X105513846Y-68440828D01*
X105533487Y-68444478D01*
X105558988Y-68449218D01*
X105582966Y-68453678D01*
X105605464Y-68457865D01*
X105626524Y-68461788D01*
X105646188Y-68465454D01*
X105664498Y-68468872D01*
X105681496Y-68472050D01*
X105697226Y-68474996D01*
X105711728Y-68477718D01*
X105725046Y-68480223D01*
X105737222Y-68482520D01*
X105748297Y-68484617D01*
X105758314Y-68486523D01*
X105767316Y-68488244D01*
X105775344Y-68489789D01*
X105782442Y-68491166D01*
X105788650Y-68492384D01*
X105794012Y-68493449D01*
X105798569Y-68494371D01*
X105802364Y-68495156D01*
X105805440Y-68495814D01*
X105807838Y-68496353D01*
X105809600Y-68496779D01*
X105810769Y-68497102D01*
X105811338Y-68497305D01*
X105815843Y-68500062D01*
X105820151Y-68503958D01*
X105823835Y-68508562D01*
X105825782Y-68511910D01*
X105828034Y-68516498D01*
X105828237Y-68800530D01*
X105828255Y-68825935D01*
X105828271Y-68849797D01*
X105828284Y-68872165D01*
X105828295Y-68893088D01*
X105828303Y-68912614D01*
X105828308Y-68930791D01*
X105828311Y-68947670D01*
X105828310Y-68963297D01*
X105828306Y-68977722D01*
X105828298Y-68990994D01*
X105828286Y-69003161D01*
X105828271Y-69014272D01*
X105828252Y-69024374D01*
X105828228Y-69033518D01*
X105828200Y-69041752D01*
X105828167Y-69049124D01*
X105828129Y-69055683D01*
X105828086Y-69061477D01*
X105828038Y-69066556D01*
X105827985Y-69070968D01*
X105827926Y-69074761D01*
X105827862Y-69077984D01*
X105827792Y-69080686D01*
X105827715Y-69082916D01*
X105827632Y-69084721D01*
X105827543Y-69086152D01*
X105827448Y-69087256D01*
X105827345Y-69088081D01*
X105827235Y-69088678D01*
X105827170Y-69088933D01*
X105824528Y-69095243D01*
X105820560Y-69100790D01*
X105815426Y-69105386D01*
X105811210Y-69107942D01*
X105810945Y-69108091D01*
X105810762Y-69108219D01*
X105810614Y-69108335D01*
X105810454Y-69108447D01*
X105810234Y-69108565D01*
X105809909Y-69108698D01*
X105809430Y-69108854D01*
X105808751Y-69109042D01*
X105807825Y-69109272D01*
X105806605Y-69109552D01*
X105805043Y-69109891D01*
X105803093Y-69110298D01*
X105800707Y-69110782D01*
X105797840Y-69111353D01*
X105794442Y-69112018D01*
X105790468Y-69112787D01*
X105785871Y-69113668D01*
X105780603Y-69114672D01*
X105774618Y-69115806D01*
X105767868Y-69117079D01*
X105760306Y-69118501D01*
X105751886Y-69120081D01*
X105742560Y-69121826D01*
X105732282Y-69123748D01*
X105721003Y-69125853D01*
X105708678Y-69128151D01*
X105695259Y-69130652D01*
X105680699Y-69133364D01*
X105664952Y-69136295D01*
X105647969Y-69139456D01*
X105629705Y-69142854D01*
X105610111Y-69146499D01*
X105589142Y-69150400D01*
X105566750Y-69154565D01*
X105542887Y-69159004D01*
X105517508Y-69163725D01*
X105517341Y-69163756D01*
X105494145Y-69168072D01*
X105472462Y-69172107D01*
X105452239Y-69175872D01*
X105433424Y-69179376D01*
X105415964Y-69182631D01*
X105399807Y-69185645D01*
X105384901Y-69188429D01*
X105371194Y-69190994D01*
X105358633Y-69193348D01*
X105347166Y-69195503D01*
X105336741Y-69197468D01*
X105327305Y-69199254D01*
X105318807Y-69200870D01*
X105311194Y-69202327D01*
X105304413Y-69203634D01*
X105298412Y-69204802D01*
X105293140Y-69205841D01*
X105288544Y-69206761D01*
X105284571Y-69207571D01*
X105281169Y-69208283D01*
X105278286Y-69208906D01*
X105275870Y-69209450D01*
X105273868Y-69209926D01*
X105272229Y-69210343D01*
X105270899Y-69210711D01*
X105269827Y-69211041D01*
X105268960Y-69211343D01*
X105268247Y-69211626D01*
X105267633Y-69211901D01*
X105267605Y-69211914D01*
X105262631Y-69214859D01*
X105257667Y-69218825D01*
X105253135Y-69223407D01*
X105249457Y-69228196D01*
X105247832Y-69231004D01*
X105247341Y-69232137D01*
X105246283Y-69234686D01*
X105244684Y-69238593D01*
X105242568Y-69243796D01*
X105239959Y-69250234D01*
X105236882Y-69257848D01*
X105233360Y-69266576D01*
X105229419Y-69276359D01*
X105225082Y-69287135D01*
X105220373Y-69298844D01*
X105215318Y-69311426D01*
X105209941Y-69324820D01*
X105204265Y-69338965D01*
X105198316Y-69353802D01*
X105192116Y-69369268D01*
X105185692Y-69385305D01*
X105179067Y-69401852D01*
X105172265Y-69418847D01*
X105165311Y-69436230D01*
X105161630Y-69445436D01*
X105077801Y-69655094D01*
X105077459Y-69662189D01*
X105077608Y-69670596D01*
X105078897Y-69678062D01*
X105081142Y-69684149D01*
X105081754Y-69685138D01*
X105083234Y-69687389D01*
X105085548Y-69690853D01*
X105088663Y-69695481D01*
X105092544Y-69701223D01*
X105097158Y-69708031D01*
X105102472Y-69715854D01*
X105108452Y-69724644D01*
X105115064Y-69734351D01*
X105122275Y-69744927D01*
X105130051Y-69756321D01*
X105138359Y-69768485D01*
X105147164Y-69781369D01*
X105156434Y-69794924D01*
X105166134Y-69809101D01*
X105176231Y-69823851D01*
X105186691Y-69839123D01*
X105197481Y-69854870D01*
X105208567Y-69871042D01*
X105219916Y-69887588D01*
X105231493Y-69904462D01*
X105233994Y-69908106D01*
X105245609Y-69925031D01*
X105256998Y-69941636D01*
X105268129Y-69957871D01*
X105278968Y-69973686D01*
X105289482Y-69989035D01*
X105299636Y-70003866D01*
X105309399Y-70018131D01*
X105318736Y-70031782D01*
X105327614Y-70044769D01*
X105335999Y-70057043D01*
X105343858Y-70068556D01*
X105351158Y-70079257D01*
X105357865Y-70089100D01*
X105363945Y-70098033D01*
X105369366Y-70106009D01*
X105374094Y-70112978D01*
X105378095Y-70118891D01*
X105381336Y-70123700D01*
X105383783Y-70127356D01*
X105385404Y-70129808D01*
X105386164Y-70131010D01*
X105386213Y-70131102D01*
X105387768Y-70136321D01*
X105388281Y-70142244D01*
X105387774Y-70148392D01*
X105386269Y-70154284D01*
X105385065Y-70157158D01*
X105384365Y-70158026D01*
X105382591Y-70159958D01*
X105379741Y-70162958D01*
X105375811Y-70167030D01*
X105370799Y-70172175D01*
X105364700Y-70178398D01*
X105357513Y-70185700D01*
X105349234Y-70194087D01*
X105339860Y-70203560D01*
X105329388Y-70214122D01*
X105317814Y-70225777D01*
X105305136Y-70238529D01*
X105291351Y-70252379D01*
X105276455Y-70267331D01*
X105260446Y-70283389D01*
X105243320Y-70300555D01*
X105225074Y-70318833D01*
X105205705Y-70338225D01*
X105185210Y-70358734D01*
X105183273Y-70360672D01*
X105164986Y-70378967D01*
X105147790Y-70396166D01*
X105131654Y-70412301D01*
X105116545Y-70427404D01*
X105102431Y-70441507D01*
X105089279Y-70454642D01*
X105077059Y-70466840D01*
X105065738Y-70478133D01*
X105055284Y-70488553D01*
X105045665Y-70498132D01*
X105036848Y-70506901D01*
X105028802Y-70514892D01*
X105021495Y-70522137D01*
X105014894Y-70528667D01*
X105008968Y-70534515D01*
X105003684Y-70539712D01*
X104999010Y-70544289D01*
X104994915Y-70548279D01*
X104991367Y-70551713D01*
X104988332Y-70554623D01*
X104985780Y-70557041D01*
X104983677Y-70558999D01*
X104981993Y-70560528D01*
X104980695Y-70561659D01*
X104979751Y-70562426D01*
X104979128Y-70562858D01*
X104978991Y-70562932D01*
X104976729Y-70563812D01*
X104973743Y-70564718D01*
X104970511Y-70565536D01*
X104967512Y-70566153D01*
X104965227Y-70566453D01*
X104964340Y-70566422D01*
X104963392Y-70566264D01*
X104961383Y-70565959D01*
X104959726Y-70565715D01*
X104956370Y-70564946D01*
X104952908Y-70563738D01*
X104951770Y-70563219D01*
X104950828Y-70562626D01*
X104948625Y-70561165D01*
X104945209Y-70558871D01*
X104940631Y-70555778D01*
X104934940Y-70551919D01*
X104928186Y-70547328D01*
X104920418Y-70542040D01*
X104911687Y-70536088D01*
X104902041Y-70529506D01*
X104891530Y-70522327D01*
X104880205Y-70514587D01*
X104868114Y-70506319D01*
X104855307Y-70497557D01*
X104841835Y-70488334D01*
X104827746Y-70478685D01*
X104813090Y-70468644D01*
X104797918Y-70458244D01*
X104782277Y-70447520D01*
X104766219Y-70436505D01*
X104749793Y-70425234D01*
X104733319Y-70413925D01*
X104716588Y-70402440D01*
X104700181Y-70391180D01*
X104684148Y-70380180D01*
X104668537Y-70369472D01*
X104653398Y-70359092D01*
X104638781Y-70349072D01*
X104624735Y-70339446D01*
X104611309Y-70330249D01*
X104598553Y-70321514D01*
X104586517Y-70313274D01*
X104575248Y-70305564D01*
X104564798Y-70298418D01*
X104555215Y-70291869D01*
X104546548Y-70285951D01*
X104538848Y-70280698D01*
X104532164Y-70276143D01*
X104526544Y-70272321D01*
X104522039Y-70269265D01*
X104518697Y-70267009D01*
X104516569Y-70265587D01*
X104515705Y-70265034D01*
X104509807Y-70262756D01*
X104503125Y-70261378D01*
X104496224Y-70260958D01*
X104489672Y-70261555D01*
X104487339Y-70262075D01*
X104486695Y-70262241D01*
X104486123Y-70262384D01*
X104485554Y-70262543D01*
X104484918Y-70262752D01*
X104484144Y-70263050D01*
X104483163Y-70263472D01*
X104481904Y-70264055D01*
X104480298Y-70264836D01*
X104478274Y-70265851D01*
X104475762Y-70267136D01*
X104472692Y-70268729D01*
X104468995Y-70270666D01*
X104464599Y-70272983D01*
X104459436Y-70275717D01*
X104453434Y-70278904D01*
X104446524Y-70282581D01*
X104438637Y-70286785D01*
X104429700Y-70291552D01*
X104419646Y-70296919D01*
X104408403Y-70302922D01*
X104395902Y-70309598D01*
X104382072Y-70316983D01*
X104380915Y-70317600D01*
X104365461Y-70325843D01*
X104351388Y-70333332D01*
X104338679Y-70340073D01*
X104327319Y-70346077D01*
X104317292Y-70351350D01*
X104308583Y-70355901D01*
X104301174Y-70359738D01*
X104295051Y-70362871D01*
X104290198Y-70365306D01*
X104286599Y-70367052D01*
X104284237Y-70368117D01*
X104283181Y-70368496D01*
X104277528Y-70368934D01*
X104271937Y-70367939D01*
X104266760Y-70365630D01*
X104262350Y-70362123D01*
X104261564Y-70361256D01*
X104260522Y-70359774D01*
X104259191Y-70357390D01*
X104257522Y-70354001D01*
X104255466Y-70349500D01*
X104252975Y-70343782D01*
X104249999Y-70336742D01*
X104248021Y-70331984D01*
X104246707Y-70328810D01*
X104244818Y-70324244D01*
X104242385Y-70318362D01*
X104239440Y-70311243D01*
X104236015Y-70302964D01*
X104232143Y-70293603D01*
X104227855Y-70283238D01*
X104223184Y-70271945D01*
X104218162Y-70259804D01*
X104212821Y-70246891D01*
X104207192Y-70233285D01*
X104201309Y-70219063D01*
X104195204Y-70204302D01*
X104188907Y-70189080D01*
X104182453Y-70173476D01*
X104175872Y-70157566D01*
X104169197Y-70141428D01*
X104165665Y-70132890D01*
X104159709Y-70118491D01*
X104153188Y-70102726D01*
X104146144Y-70085697D01*
X104138619Y-70067509D01*
X104130658Y-70048265D01*
X104122303Y-70028069D01*
X104113597Y-70007024D01*
X104104583Y-69985234D01*
X104095303Y-69962803D01*
X104085800Y-69939835D01*
X104076118Y-69916433D01*
X104066299Y-69892700D01*
X104056386Y-69868741D01*
X104046422Y-69844658D01*
X104036451Y-69820557D01*
X104026513Y-69796539D01*
X104016654Y-69772710D01*
X104006915Y-69749172D01*
X103997339Y-69726029D01*
X103987970Y-69703386D01*
X103980004Y-69684135D01*
X103865925Y-69408438D01*
X103865925Y-69400879D01*
X103865989Y-69397013D01*
X103866243Y-69394196D01*
X103866781Y-69391889D01*
X103867698Y-69389553D01*
X103868022Y-69388848D01*
X103869045Y-69386785D01*
X103870140Y-69384922D01*
X103871440Y-69383155D01*
X103873076Y-69381382D01*
X103875181Y-69379498D01*
X103877887Y-69377399D01*
X103881325Y-69374982D01*
X103885628Y-69372144D01*
X103890928Y-69368780D01*
X103897357Y-69364787D01*
X103903395Y-69361073D01*
X103911599Y-69356021D01*
X103918607Y-69351658D01*
X103924594Y-69347864D01*
X103929735Y-69344520D01*
X103934206Y-69341507D01*
X103938181Y-69338707D01*
X103941837Y-69335999D01*
X103945349Y-69333266D01*
X103948891Y-69330388D01*
X103950266Y-69329245D01*
X103953186Y-69326921D01*
X103957034Y-69324026D01*
X103961406Y-69320856D01*
X103965896Y-69317708D01*
X103968168Y-69316160D01*
X103991519Y-69299586D01*
X104014394Y-69281644D01*
X104036593Y-69262516D01*
X104057920Y-69242385D01*
X104078174Y-69221432D01*
X104097158Y-69199840D01*
X104103906Y-69191619D01*
X104122945Y-69166706D01*
X104140686Y-69140896D01*
X104157092Y-69114248D01*
X104172128Y-69086826D01*
X104185757Y-69058691D01*
X104197608Y-69030753D01*
X104208164Y-69001907D01*
X104217219Y-68972595D01*
X104224773Y-68942888D01*
X104230824Y-68912854D01*
X104235370Y-68882565D01*
X104238411Y-68852090D01*
X104239943Y-68821500D01*
X104239966Y-68790864D01*
X104238478Y-68760253D01*
X104235478Y-68729737D01*
X104230963Y-68699386D01*
X104224933Y-68669270D01*
X104217385Y-68639460D01*
X104208319Y-68610025D01*
X104207184Y-68606682D01*
X104196283Y-68577313D01*
X104183965Y-68548667D01*
X104170242Y-68520761D01*
X104155122Y-68493612D01*
X104138617Y-68467237D01*
X104120736Y-68441653D01*
X104101489Y-68416878D01*
X104081105Y-68393170D01*
X104060136Y-68371108D01*
X104037956Y-68349987D01*
X104014717Y-68329937D01*
X103990573Y-68311090D01*
X103965677Y-68293577D01*
X103962438Y-68291435D01*
X103935689Y-68274796D01*
X103908379Y-68259644D01*
X103880503Y-68245978D01*
X103852057Y-68233796D01*
X103823038Y-68223098D01*
X103793442Y-68213882D01*
X103763265Y-68206146D01*
X103732502Y-68199890D01*
X103701152Y-68195111D01*
X103672976Y-68192120D01*
X103668447Y-68191823D01*
X103662567Y-68191575D01*
X103655578Y-68191375D01*
X103647720Y-68191224D01*
X103639233Y-68191121D01*
X103630359Y-68191067D01*
X103621338Y-68191062D01*
X103612409Y-68191105D01*
X103603815Y-68191197D01*
X103595795Y-68191337D01*
X103588590Y-68191526D01*
X103582441Y-68191763D01*
X103577587Y-68192049D01*
X103576701Y-68192120D01*
X103544812Y-68195598D01*
X103513502Y-68200557D01*
X103482773Y-68206999D01*
X103452624Y-68214922D01*
X103423056Y-68224327D01*
X103394067Y-68235214D01*
X103365660Y-68247582D01*
X103342378Y-68259048D01*
X103315068Y-68274110D01*
X103288661Y-68290455D01*
X103263194Y-68308036D01*
X103238707Y-68326810D01*
X103215239Y-68346729D01*
X103192829Y-68367750D01*
X103171516Y-68389827D01*
X103151338Y-68412915D01*
X103132335Y-68436967D01*
X103114546Y-68461940D01*
X103098009Y-68487788D01*
X103082764Y-68514466D01*
X103068850Y-68541928D01*
X103056305Y-68570129D01*
X103045169Y-68599024D01*
X103042158Y-68607674D01*
X103034809Y-68630663D01*
X103028477Y-68653440D01*
X103023098Y-68676316D01*
X103018606Y-68699601D01*
X103014938Y-68723608D01*
X103012029Y-68748648D01*
X103011260Y-68756788D01*
X103010860Y-68762357D01*
X103010523Y-68769235D01*
X103010251Y-68777154D01*
X103010045Y-68785842D01*
X103009907Y-68795031D01*
X103009837Y-68804449D01*
X103009838Y-68813828D01*
X103009909Y-68822896D01*
X103010053Y-68831385D01*
X103010271Y-68839024D01*
X103010563Y-68845542D01*
X103010828Y-68849483D01*
X103013972Y-68880225D01*
X103018352Y-68910053D01*
X103024004Y-68939094D01*
X103030964Y-68967479D01*
X103039267Y-68995334D01*
X103048948Y-69022790D01*
X103060043Y-69049975D01*
X103072587Y-69077017D01*
X103074223Y-69080322D01*
X103088339Y-69107031D01*
X103103578Y-69132728D01*
X103120009Y-69157510D01*
X103137702Y-69181471D01*
X103156727Y-69204707D01*
X103177153Y-69227313D01*
X103193309Y-69243789D01*
X103209325Y-69259112D01*
X103225171Y-69273286D01*
X103241250Y-69286640D01*
X103257965Y-69299505D01*
X103275719Y-69312213D01*
X103281510Y-69316181D01*
X103285995Y-69319294D01*
X103290673Y-69322657D01*
X103295106Y-69325950D01*
X103298857Y-69328850D01*
X103300303Y-69330021D01*
X103303713Y-69332809D01*
X103306988Y-69335394D01*
X103310299Y-69337891D01*
X103313821Y-69340418D01*
X103317726Y-69343091D01*
X103322187Y-69346027D01*
X103327378Y-69349342D01*
X103333471Y-69353155D01*
X103340640Y-69357580D01*
X103346356Y-69361085D01*
X103352339Y-69364772D01*
X103358001Y-69368314D01*
X103363173Y-69371600D01*
X103367684Y-69374520D01*
X103371364Y-69376963D01*
X103374042Y-69378818D01*
X103375548Y-69379976D01*
X103375641Y-69380062D01*
X103377601Y-69382350D01*
X103379678Y-69385396D01*
X103381211Y-69388131D01*
X103382394Y-69390655D01*
X103383137Y-69392749D01*
X103383541Y-69394928D01*
X103383703Y-69397707D01*
X103383723Y-69401260D01*
X103383694Y-69409233D01*
X103187234Y-69883691D01*
X103173551Y-69916733D01*
X103160464Y-69948333D01*
X103147962Y-69978516D01*
X103136033Y-70007310D01*
X103124665Y-70034743D01*
X103113848Y-70060842D01*
X103103569Y-70085634D01*
X103093819Y-70109147D01*
X103084584Y-70131408D01*
X103075854Y-70152445D01*
X103067617Y-70172284D01*
X103059862Y-70190953D01*
X103052577Y-70208481D01*
X103045752Y-70224893D01*
X103039374Y-70240217D01*
X103033432Y-70254481D01*
X103027915Y-70267713D01*
X103022811Y-70279938D01*
X103018110Y-70291186D01*
X103013799Y-70301482D01*
X103009867Y-70310855D01*
X103006303Y-70319332D01*
X103003095Y-70326941D01*
X103000232Y-70333708D01*
X102997702Y-70339661D01*
X102995495Y-70344827D01*
X102993598Y-70349234D01*
X102992001Y-70352909D01*
X102990691Y-70355880D01*
X102989658Y-70358174D01*
X102988890Y-70359818D01*
X102988375Y-70360839D01*
X102988128Y-70361240D01*
X102983960Y-70364921D01*
X102978876Y-70367440D01*
X102973167Y-70368671D01*
X102970769Y-70368774D01*
X102969973Y-70368797D01*
X102969318Y-70368853D01*
X102968734Y-70368906D01*
X102968151Y-70368921D01*
X102967499Y-70368863D01*
X102966707Y-70368696D01*
X102965705Y-70368384D01*
X102964424Y-70367894D01*
X102962792Y-70367188D01*
X102960741Y-70366233D01*
X102958199Y-70364991D01*
X102955096Y-70363430D01*
X102951363Y-70361511D01*
X102946929Y-70359202D01*
X102941724Y-70356465D01*
X102935677Y-70353267D01*
X102928719Y-70349570D01*
X102920780Y-70345341D01*
X102911789Y-70340544D01*
X102901676Y-70335143D01*
X102890370Y-70329103D01*
X102877803Y-70322388D01*
X102863902Y-70314964D01*
X102863324Y-70314656D01*
X102852140Y-70308686D01*
X102841268Y-70302889D01*
X102830800Y-70297311D01*
X102820825Y-70292001D01*
X102811435Y-70287008D01*
X102802722Y-70282379D01*
X102794775Y-70278164D01*
X102787687Y-70274409D01*
X102781547Y-70271164D01*
X102776448Y-70268477D01*
X102772480Y-70266396D01*
X102769733Y-70264969D01*
X102768306Y-70264248D01*
X102765765Y-70263059D01*
X102763739Y-70262256D01*
X102761806Y-70261764D01*
X102759544Y-70261507D01*
X102756531Y-70261409D01*
X102752393Y-70261394D01*
X102747809Y-70261445D01*
X102744399Y-70261626D01*
X102741748Y-70261987D01*
X102739439Y-70262576D01*
X102737933Y-70263102D01*
X102736867Y-70263687D01*
X102734643Y-70265076D01*
X102731252Y-70267273D01*
X102726687Y-70270285D01*
X102720938Y-70274118D01*
X102713998Y-70278777D01*
X102705858Y-70284269D01*
X102696509Y-70290598D01*
X102685943Y-70297771D01*
X102674152Y-70305793D01*
X102661126Y-70314670D01*
X102646858Y-70324409D01*
X102631340Y-70335014D01*
X102614562Y-70346491D01*
X102596516Y-70358847D01*
X102577194Y-70372086D01*
X102556587Y-70386215D01*
X102534687Y-70401240D01*
X102516348Y-70413827D01*
X102497700Y-70426626D01*
X102479619Y-70439027D01*
X102462145Y-70451005D01*
X102445316Y-70462534D01*
X102429171Y-70473586D01*
X102413749Y-70484136D01*
X102399088Y-70494157D01*
X102385227Y-70503623D01*
X102372205Y-70512508D01*
X102360060Y-70520785D01*
X102348831Y-70528428D01*
X102338557Y-70535410D01*
X102329276Y-70541705D01*
X102321028Y-70547287D01*
X102313850Y-70552130D01*
X102307783Y-70556206D01*
X102302863Y-70559490D01*
X102299130Y-70561956D01*
X102296623Y-70563577D01*
X102295381Y-70564326D01*
X102295290Y-70564368D01*
X102291016Y-70565412D01*
X102285889Y-70565777D01*
X102280477Y-70565494D01*
X102275352Y-70564593D01*
X102271083Y-70563106D01*
X102270949Y-70563040D01*
X102270420Y-70562714D01*
X102269642Y-70562126D01*
X102268582Y-70561243D01*
X102267205Y-70560033D01*
X102265480Y-70558462D01*
X102263372Y-70556498D01*
X102260848Y-70554108D01*
X102257876Y-70551259D01*
X102254422Y-70547918D01*
X102250452Y-70544053D01*
X102245934Y-70539629D01*
X102240834Y-70534615D01*
X102235119Y-70528977D01*
X102228755Y-70522683D01*
X102221711Y-70515700D01*
X102213951Y-70507995D01*
X102205443Y-70499534D01*
X102196154Y-70490285D01*
X102186051Y-70480216D01*
X102175100Y-70469293D01*
X102163268Y-70457483D01*
X102150522Y-70444754D01*
X102136828Y-70431072D01*
X102122154Y-70416405D01*
X102106465Y-70400719D01*
X102089730Y-70383983D01*
X102071914Y-70366163D01*
X102066338Y-70360585D01*
X102045746Y-70339981D01*
X102026280Y-70320494D01*
X102007937Y-70302122D01*
X101990714Y-70284862D01*
X101974608Y-70268710D01*
X101959616Y-70253664D01*
X101945734Y-70239719D01*
X101932960Y-70226874D01*
X101921289Y-70215124D01*
X101910720Y-70204467D01*
X101901249Y-70194899D01*
X101892873Y-70186417D01*
X101885589Y-70179018D01*
X101879393Y-70172700D01*
X101874283Y-70167458D01*
X101870255Y-70163289D01*
X101867306Y-70160191D01*
X101865433Y-70158161D01*
X101864633Y-70157194D01*
X101864613Y-70157158D01*
X101862559Y-70151520D01*
X101861526Y-70145377D01*
X101861533Y-70139205D01*
X101862599Y-70133483D01*
X101863516Y-70130985D01*
X101864083Y-70130062D01*
X101865517Y-70127877D01*
X101867786Y-70124478D01*
X101870856Y-70119914D01*
X101874694Y-70114233D01*
X101879266Y-70107486D01*
X101884539Y-70099721D01*
X101890479Y-70090986D01*
X101897054Y-70081331D01*
X101904230Y-70070804D01*
X101911973Y-70059455D01*
X101920250Y-70047331D01*
X101929028Y-70034483D01*
X101938274Y-70020959D01*
X101947953Y-70006809D01*
X101958034Y-69992079D01*
X101968481Y-69976821D01*
X101979263Y-69961082D01*
X101990345Y-69944912D01*
X102001695Y-69928359D01*
X102013278Y-69911473D01*
X102016497Y-69906781D01*
X102031295Y-69885212D01*
X102045210Y-69864923D01*
X102058263Y-69845883D01*
X102070474Y-69828062D01*
X102081863Y-69811429D01*
X102092452Y-69795955D01*
X102102262Y-69781609D01*
X102111311Y-69768360D01*
X102119622Y-69756179D01*
X102127215Y-69745035D01*
X102134110Y-69734898D01*
X102140328Y-69725738D01*
X102145890Y-69717523D01*
X102150815Y-69710224D01*
X102155126Y-69703811D01*
X102158842Y-69698253D01*
X102161983Y-69693520D01*
X102164572Y-69689581D01*
X102166627Y-69686407D01*
X102168170Y-69683966D01*
X102169222Y-69682229D01*
X102169802Y-69681166D01*
X102169895Y-69680953D01*
X102170744Y-69678555D01*
X102171316Y-69676321D01*
X102171665Y-69673831D01*
X102171847Y-69670669D01*
X102171914Y-69666414D01*
X102171919Y-69665437D01*
X102171955Y-69655094D01*
X102087757Y-69444700D01*
X102080719Y-69427118D01*
X102073822Y-69409896D01*
X102067092Y-69393097D01*
X102060552Y-69376779D01*
X102054226Y-69361003D01*
X102048139Y-69345829D01*
X102042314Y-69331317D01*
X102036776Y-69317527D01*
X102031549Y-69304519D01*
X102026657Y-69292354D01*
X102022125Y-69281091D01*
X102017976Y-69270791D01*
X102014235Y-69261513D01*
X102010926Y-69253319D01*
X102008073Y-69246268D01*
X102005700Y-69240420D01*
X102003831Y-69235835D01*
X102002492Y-69232573D01*
X102001705Y-69230695D01*
X102001514Y-69230268D01*
X102000026Y-69227904D01*
X101997750Y-69224947D01*
X101995068Y-69221879D01*
X101993711Y-69220468D01*
X101992386Y-69219115D01*
X101991210Y-69217895D01*
X101990103Y-69216787D01*
X101988983Y-69215772D01*
X101987772Y-69214830D01*
X101986389Y-69213939D01*
X101984754Y-69213081D01*
X101982787Y-69212235D01*
X101980408Y-69211380D01*
X101977536Y-69210497D01*
X101974092Y-69209566D01*
X101969996Y-69208566D01*
X101965167Y-69207478D01*
X101959525Y-69206280D01*
X101952991Y-69204954D01*
X101945484Y-69203479D01*
X101936924Y-69201834D01*
X101927231Y-69200000D01*
X101916324Y-69197956D01*
X101904125Y-69195683D01*
X101890552Y-69193160D01*
X101875526Y-69190368D01*
X101869554Y-69189257D01*
X101857356Y-69186987D01*
X101843749Y-69184454D01*
X101828886Y-69181688D01*
X101812922Y-69178717D01*
X101796012Y-69175570D01*
X101778310Y-69172276D01*
X101759971Y-69168863D01*
X101741148Y-69165360D01*
X101721998Y-69161796D01*
X101702673Y-69158199D01*
X101683329Y-69154599D01*
X101664120Y-69151024D01*
X101645201Y-69147503D01*
X101626726Y-69144065D01*
X101608850Y-69140738D01*
X101602429Y-69139543D01*
X101583326Y-69135986D01*
X101565729Y-69132706D01*
X101549576Y-69129690D01*
X101534808Y-69126928D01*
X101521366Y-69124407D01*
X101509188Y-69122116D01*
X101498216Y-69120043D01*
X101488388Y-69118177D01*
X101479646Y-69116506D01*
X101471929Y-69115018D01*
X101465176Y-69113702D01*
X101459329Y-69112546D01*
X101454326Y-69111538D01*
X101450109Y-69110667D01*
X101446617Y-69109921D01*
X101443790Y-69109289D01*
X101441567Y-69108758D01*
X101439890Y-69108318D01*
X101438698Y-69107956D01*
X101437931Y-69107662D01*
X101437821Y-69107609D01*
X101432976Y-69104412D01*
X101428529Y-69100092D01*
X101424934Y-69095117D01*
X101423975Y-69093337D01*
X101421644Y-69088580D01*
X101421644Y-68802539D01*
X101421644Y-68516498D01*
X101423895Y-68511910D01*
X101426892Y-68507086D01*
X101430805Y-68502665D01*
X101435205Y-68499081D01*
X101438325Y-68497312D01*
X101439014Y-68497073D01*
X101440267Y-68496735D01*
X101442126Y-68496292D01*
X101444633Y-68495734D01*
X101447829Y-68495055D01*
X101451758Y-68494245D01*
X101456461Y-68493297D01*
X101461980Y-68492203D01*
X101468357Y-68490956D01*
X101475635Y-68489546D01*
X101483855Y-68487965D01*
X101493059Y-68486207D01*
X101503290Y-68484263D01*
X101514590Y-68482125D01*
X101527000Y-68479785D01*
X101540563Y-68477234D01*
X101555320Y-68474466D01*
X101571315Y-68471471D01*
X101588588Y-68468243D01*
X101607182Y-68464772D01*
X101627140Y-68461051D01*
X101648502Y-68457073D01*
X101671312Y-68452828D01*
X101695610Y-68448309D01*
X101716170Y-68444488D01*
X101740739Y-68439922D01*
X101763792Y-68435637D01*
X101785379Y-68431624D01*
X101805550Y-68427873D01*
X101824354Y-68424374D01*
X101841841Y-68421119D01*
X101858059Y-68418097D01*
X101873058Y-68415299D01*
X101886888Y-68412715D01*
X101899597Y-68410337D01*
X101911236Y-68408154D01*
X101921853Y-68406157D01*
X101931499Y-68404337D01*
X101940222Y-68402684D01*
X101948071Y-68401188D01*
X101955097Y-68399840D01*
X101961349Y-68398631D01*
X101966875Y-68397551D01*
X101971726Y-68396590D01*
X101975950Y-68395740D01*
X101979597Y-68394989D01*
X101982717Y-68394330D01*
X101985359Y-68393753D01*
X101987572Y-68393247D01*
X101989406Y-68392804D01*
X101990909Y-68392414D01*
X101992132Y-68392067D01*
X101993124Y-68391754D01*
X101993934Y-68391466D01*
X101994612Y-68391193D01*
X101995206Y-68390925D01*
X101995659Y-68390707D01*
X101999951Y-68388147D01*
X102004435Y-68384710D01*
X102008728Y-68380756D01*
X102012450Y-68376646D01*
X102015220Y-68372738D01*
X102015795Y-68371687D01*
X102016277Y-68370620D01*
X102017359Y-68368153D01*
X102019014Y-68364344D01*
X102021218Y-68359257D01*
X102023942Y-68352952D01*
X102027160Y-68345491D01*
X102030847Y-68336934D01*
X102034976Y-68327344D01*
X102039520Y-68316781D01*
X102044454Y-68305306D01*
X102049751Y-68292982D01*
X102055384Y-68279868D01*
X102061327Y-68266028D01*
X102067554Y-68251521D01*
X102074038Y-68236409D01*
X102080754Y-68220753D01*
X102087675Y-68204615D01*
X102094774Y-68188055D01*
X102102025Y-68171136D01*
X102102224Y-68170670D01*
X102110951Y-68150307D01*
X102119075Y-68131354D01*
X102126616Y-68113758D01*
X102133596Y-68097467D01*
X102140037Y-68082426D01*
X102145959Y-68068582D01*
X102151383Y-68055884D01*
X102156332Y-68044276D01*
X102160825Y-68033706D01*
X102164885Y-68024122D01*
X102168531Y-68015468D01*
X102171787Y-68007693D01*
X102174672Y-68000744D01*
X102177208Y-67994566D01*
X102179416Y-67989107D01*
X102181317Y-67984313D01*
X102182933Y-67980132D01*
X102184285Y-67976509D01*
X102185393Y-67973393D01*
X102186280Y-67970730D01*
X102186965Y-67968465D01*
X102187471Y-67966548D01*
X102187819Y-67964923D01*
X102188030Y-67963538D01*
X102188124Y-67962340D01*
X102188124Y-67961275D01*
X102188050Y-67960290D01*
X102187923Y-67959332D01*
X102187765Y-67958349D01*
X102187598Y-67957285D01*
X102187494Y-67956536D01*
X102186317Y-67950303D01*
X102184332Y-67944560D01*
X102181337Y-67938794D01*
X102178884Y-67934986D01*
X102177336Y-67932724D01*
X102174956Y-67929250D01*
X102171787Y-67924626D01*
X102167869Y-67918911D01*
X102163245Y-67912167D01*
X102157956Y-67904453D01*
X102152043Y-67895831D01*
X102145548Y-67886361D01*
X102138513Y-67876103D01*
X102130979Y-67865119D01*
X102122987Y-67853468D01*
X102114580Y-67841212D01*
X102105799Y-67828410D01*
X102096685Y-67815124D01*
X102087280Y-67801414D01*
X102077626Y-67787341D01*
X102067764Y-67772964D01*
X102057735Y-67758346D01*
X102047581Y-67743545D01*
X102037345Y-67728624D01*
X102027066Y-67713642D01*
X102016787Y-67698660D01*
X102006550Y-67683738D01*
X101996396Y-67668938D01*
X101986366Y-67654320D01*
X101976502Y-67639943D01*
X101966846Y-67625870D01*
X101957439Y-67612160D01*
X101948322Y-67598874D01*
X101939538Y-67586073D01*
X101931128Y-67573817D01*
X101923133Y-67562166D01*
X101915596Y-67551182D01*
X101908556Y-67540925D01*
X101902057Y-67531455D01*
X101896139Y-67522833D01*
X101890845Y-67515120D01*
X101886215Y-67508376D01*
X101882292Y-67502661D01*
X101879116Y-67498037D01*
X101876730Y-67494564D01*
X101875175Y-67492303D01*
X101874622Y-67491499D01*
X101870827Y-67485974D01*
X101867856Y-67481521D01*
X101865609Y-67477919D01*
X101863984Y-67474943D01*
X101862884Y-67472371D01*
X101862207Y-67469978D01*
X101861854Y-67467543D01*
X101861725Y-67464842D01*
X101861715Y-67462640D01*
X101861843Y-67458266D01*
X101862247Y-67454873D01*
X101863017Y-67451866D01*
X101863572Y-67450307D01*
X101863761Y-67449856D01*
X101864013Y-67449357D01*
X101864364Y-67448775D01*
X101864848Y-67448075D01*
X101865500Y-67447221D01*
X101866356Y-67446178D01*
X101867448Y-67444911D01*
X101868813Y-67443384D01*
X101870485Y-67441563D01*
X101872499Y-67439412D01*
X101874888Y-67436897D01*
X101877689Y-67433980D01*
X101880936Y-67430629D01*
X101884663Y-67426806D01*
X101888905Y-67422478D01*
X101893697Y-67417609D01*
X101899073Y-67412163D01*
X101905069Y-67406105D01*
X101911718Y-67399401D01*
X101919057Y-67392014D01*
X101927118Y-67383910D01*
X101935938Y-67375054D01*
X101945550Y-67365410D01*
X101955990Y-67354942D01*
X101967292Y-67343617D01*
X101979491Y-67331398D01*
X101992622Y-67318250D01*
X102006719Y-67304138D01*
X102021817Y-67289027D01*
X102037950Y-67272882D01*
X102055154Y-67255667D01*
X102065621Y-67245193D01*
X102083740Y-67227061D01*
X102100766Y-67210018D01*
X102116734Y-67194030D01*
X102131682Y-67179064D01*
X102145643Y-67165086D01*
X102158655Y-67152064D01*
X102170752Y-67139962D01*
X102181971Y-67128750D01*
X102192347Y-67118392D01*
X102201916Y-67108855D01*
X102210712Y-67100106D01*
X102218773Y-67092112D01*
X102226134Y-67084839D01*
X102232830Y-67078254D01*
X102238897Y-67072323D01*
X102244371Y-67067012D01*
X102249287Y-67062290D01*
X102253681Y-67058121D01*
X102257589Y-67054473D01*
X102261047Y-67051312D01*
X102264089Y-67048605D01*
X102266752Y-67046318D01*
X102269072Y-67044418D01*
X102271084Y-67042872D01*
X102272823Y-67041646D01*
X102274326Y-67040706D01*
X102275628Y-67040020D01*
X102276765Y-67039554D01*
X102277772Y-67039274D01*
X102278685Y-67039147D01*
X102279540Y-67039139D01*
X102280373Y-67039218D01*
X102281219Y-67039350D01*
X102282113Y-67039501D01*
X102283092Y-67039638D01*
X102284191Y-67039727D01*
X102284923Y-67039744D01*
X102288972Y-67039784D01*
X102291847Y-67039947D01*
X102293963Y-67040295D01*
X102295737Y-67040895D01*
X102297272Y-67041642D01*
X102298366Y-67042325D01*
X102300744Y-67043893D01*
X102304384Y-67046330D01*
X102309258Y-67049618D01*
X102315344Y-67053741D01*
X102322614Y-67058681D01*
X102331046Y-67064421D01*
X102340612Y-67070944D01*
X102351290Y-67078233D01*
X102363052Y-67086270D01*
X102375876Y-67095040D01*
X102389734Y-67104524D01*
X102404603Y-67114706D01*
X102420458Y-67125568D01*
X102437273Y-67137093D01*
X102455024Y-67149265D01*
X102473685Y-67162066D01*
X102493231Y-67175479D01*
X102513638Y-67189487D01*
X102534881Y-67204073D01*
X102543531Y-67210013D01*
X102564271Y-67224257D01*
X102583740Y-67237626D01*
X102601980Y-67250149D01*
X102619030Y-67261852D01*
X102634931Y-67272763D01*
X102649724Y-67282910D01*
X102663450Y-67292321D01*
X102676148Y-67301022D01*
X102687860Y-67309042D01*
X102698626Y-67316408D01*
X102708486Y-67323147D01*
X102717482Y-67329287D01*
X102725653Y-67334856D01*
X102733040Y-67339882D01*
X102739684Y-67344391D01*
X102745626Y-67348411D01*
X102750905Y-67351970D01*
X102755563Y-67355095D01*
X102759640Y-67357815D01*
X102763177Y-67360156D01*
X102766213Y-67362146D01*
X102768791Y-67363812D01*
X102770949Y-67365183D01*
X102772730Y-67366285D01*
X102774173Y-67367147D01*
X102775318Y-67367795D01*
X102776208Y-67368257D01*
X102776881Y-67368562D01*
X102777049Y-67368627D01*
X102781619Y-67369891D01*
X102787045Y-67370717D01*
X102792759Y-67371074D01*
X102798196Y-67370930D01*
X102802790Y-67370252D01*
X102803315Y-67370117D01*
X102804801Y-67369612D01*
X102807621Y-67368554D01*
X102811639Y-67366997D01*
X102816720Y-67364996D01*
X102822727Y-67362604D01*
X102829524Y-67359877D01*
X102836974Y-67356868D01*
X102844942Y-67353631D01*
X102853291Y-67350222D01*
X102856227Y-67349020D01*
X102862089Y-67346616D01*
X102869317Y-67343654D01*
X102877804Y-67340176D01*
X102887445Y-67336227D01*
X102898133Y-67331850D01*
X102909760Y-67327088D01*
X102922221Y-67321986D01*
X102935409Y-67316586D01*
X102949217Y-67310933D01*
X102963539Y-67305070D01*
X102978268Y-67299041D01*
X102993298Y-67292889D01*
X103008521Y-67286658D01*
X103023832Y-67280392D01*
X103039124Y-67274134D01*
X103047807Y-67270581D01*
X103062266Y-67264660D01*
X103076358Y-67258880D01*
X103090009Y-67253270D01*
X103103148Y-67247862D01*
X103115701Y-67242686D01*
X103127594Y-67237773D01*
X103138756Y-67233151D01*
X103149112Y-67228853D01*
X103158590Y-67224908D01*
X103167116Y-67221347D01*
X103174618Y-67218200D01*
X103181022Y-67215497D01*
X103186256Y-67213270D01*
X103190246Y-67211547D01*
X103192919Y-67210360D01*
X103194203Y-67209739D01*
X103194270Y-67209697D01*
X103199597Y-67205263D01*
X103204444Y-67199766D01*
X103208515Y-67193623D01*
X103211517Y-67187251D01*
X103212637Y-67183670D01*
X103212869Y-67182544D01*
X103213380Y-67179910D01*
X103214160Y-67175825D01*
X103215199Y-67170346D01*
X103216486Y-67163529D01*
X103218010Y-67155430D01*
X103219761Y-67146108D01*
X103221728Y-67135618D01*
X103223900Y-67124017D01*
X103226267Y-67111362D01*
X103228819Y-67097710D01*
X103231544Y-67083117D01*
X103234433Y-67067640D01*
X103237474Y-67051335D01*
X103240657Y-67034261D01*
X103243971Y-67016472D01*
X103247406Y-66998026D01*
X103250952Y-66978980D01*
X103254596Y-66959391D01*
X103258330Y-66939314D01*
X103262142Y-66918807D01*
X103265617Y-66900105D01*
X103270286Y-66874968D01*
X103274672Y-66851348D01*
X103278786Y-66829195D01*
X103282636Y-66808463D01*
X103286233Y-66789103D01*
X103289587Y-66771067D01*
X103292707Y-66754307D01*
X103295604Y-66738775D01*
X103298287Y-66724424D01*
X103300766Y-66711204D01*
X103303051Y-66699068D01*
X103305153Y-66687968D01*
X103307080Y-66677857D01*
X103308843Y-66668685D01*
X103310451Y-66660405D01*
X103311915Y-66652970D01*
X103313245Y-66646330D01*
X103314449Y-66640438D01*
X103315539Y-66635246D01*
X103316524Y-66630706D01*
X103317413Y-66626770D01*
X103318218Y-66623390D01*
X103318947Y-66620517D01*
X103319610Y-66618105D01*
X103320218Y-66616104D01*
X103320780Y-66614467D01*
X103321306Y-66613146D01*
X103321806Y-66612093D01*
X103322291Y-66611259D01*
X103322768Y-66610597D01*
X103323250Y-66610059D01*
X103323745Y-66609597D01*
X103324264Y-66609162D01*
X103324815Y-66608707D01*
X103325410Y-66608184D01*
X103325738Y-66607871D01*
X103331153Y-66603566D01*
X103337263Y-66600680D01*
X103343292Y-66599278D01*
X103344588Y-66599211D01*
X103347444Y-66599147D01*
X103351828Y-66599087D01*
X103357708Y-66599031D01*
X103365053Y-66598979D01*
X103373831Y-66598931D01*
X103384010Y-66598888D01*
X103395559Y-66598849D01*
X103408447Y-66598814D01*
X103422641Y-66598784D01*
X103438109Y-66598758D01*
X103454821Y-66598736D01*
X103472745Y-66598720D01*
X103491849Y-66598708D01*
X103512101Y-66598700D01*
X103533469Y-66598698D01*
X103555923Y-66598700D01*
G37*
%TD*%
D11*
%TO.C,REF\u002A\u002A*%
X94234000Y-82727800D03*
D12*
X91694000Y-82727800D03*
X89154000Y-82727800D03*
X86614000Y-82727800D03*
%TD*%
D13*
%TO.C,TP3*%
X90937600Y-58365900D03*
%TD*%
D14*
%TO.C,REF\u002A\u002A*%
X108458000Y-61976000D03*
%TD*%
%TO.C,REF\u002A\u002A*%
X108458000Y-66040000D03*
%TD*%
D11*
%TO.C,REF\u002A\u002A*%
X100457000Y-76962000D03*
D12*
X97917000Y-76962000D03*
X95377000Y-76962000D03*
X92837000Y-76962000D03*
%TD*%
D15*
%TO.C,H1*%
X85520000Y-76660000D03*
%TD*%
D16*
%TO.C,USB1*%
X94060000Y-59182000D03*
X94560000Y-59182000D03*
X95060000Y-59182000D03*
X95560000Y-59182000D03*
X96060000Y-59182000D03*
X96560000Y-59182000D03*
X97060000Y-59182000D03*
X97560000Y-59182000D03*
X98060000Y-59182000D03*
X98560000Y-59182000D03*
X99060000Y-59182000D03*
X99560000Y-59182000D03*
D17*
X93390000Y-60022000D03*
%TD*%
D18*
%TO.C,F1*%
X103505000Y-76705000D03*
X103505000Y-79505000D03*
%TD*%
D13*
%TO.C,TP3*%
X102761300Y-58365900D03*
%TD*%
D15*
%TO.C,H2*%
X108120000Y-76660000D03*
%TD*%
D14*
%TO.C,REF\u002A\u002A*%
X108458000Y-64008000D03*
%TD*%
D11*
%TO.C,REF\u002A\u002A*%
X106680000Y-82737000D03*
D12*
X104140000Y-82737000D03*
X101600000Y-82737000D03*
X99060000Y-82737000D03*
%TD*%
D19*
%TO.C,C2*%
X89535000Y-79320400D03*
D20*
X89535000Y-78397500D03*
X89535000Y-75272500D03*
D19*
X89535000Y-74320400D03*
%TD*%
D21*
%TO.C,SW1*%
X98715000Y-66521000D03*
X97445000Y-66521000D03*
X96175000Y-66521000D03*
X94905000Y-66521000D03*
X94905000Y-72671000D03*
X96175000Y-72671000D03*
X97445000Y-72671000D03*
X98715000Y-72671000D03*
%TD*%
D22*
%TO.C,R1*%
X85852000Y-58369200D03*
X88777000Y-58369200D03*
%TD*%
D19*
%TO.C,C1*%
X91004400Y-62103000D03*
D23*
X90081500Y-62103000D03*
X86956500Y-62103000D03*
D19*
X86004400Y-62103000D03*
%TD*%
D24*
%TO.C,U1*%
X85598000Y-64389000D03*
X85598000Y-65659000D03*
X85598000Y-66929000D03*
X85598000Y-68199000D03*
X85598000Y-69469000D03*
X85598000Y-70739000D03*
X85598000Y-72009000D03*
X90548000Y-72009000D03*
X90548000Y-70739000D03*
X90548000Y-69469000D03*
X90548000Y-68199000D03*
X90548000Y-66929000D03*
X90548000Y-65659000D03*
X90548000Y-64389000D03*
%TD*%
D14*
%TO.C,REF\u002A\u002A*%
X108458000Y-70104000D03*
%TD*%
%TO.C,REF\u002A\u002A*%
X108458000Y-72136000D03*
%TD*%
D25*
%TO.C,R2*%
X107837700Y-58369200D03*
X104912700Y-58369200D03*
%TD*%
D14*
%TO.C,REF\u002A\u002A*%
X108458000Y-68072000D03*
%TD*%
M02*
