%TF.GenerationSoftware,KiCad,Pcbnew,9.0.4*%
%TF.CreationDate,2025-10-27T13:57:54-04:00*%
%TF.ProjectId,USBC_I2C,55534243-5f49-4324-932e-6b696361645f,rev?*%
%TF.SameCoordinates,Original*%
%TF.FileFunction,Legend,Top*%
%TF.FilePolarity,Positive*%
%FSLAX46Y46*%
G04 Gerber Fmt 4.6, Leading zero omitted, Abs format (unit mm)*
G04 Created by KiCad (PCBNEW 9.0.4) date 2025-10-27 13:57:54*
%MOMM*%
%LPD*%
G01*
G04 APERTURE LIST*
%ADD10C,0.150000*%
%ADD11C,0.120000*%
G04 APERTURE END LIST*
D10*
X94507255Y-62918875D02*
X94602493Y-62918875D01*
X94602493Y-62918875D02*
X94697731Y-62966494D01*
X94697731Y-62966494D02*
X94745350Y-63014113D01*
X94745350Y-63014113D02*
X94792969Y-63109351D01*
X94792969Y-63109351D02*
X94840588Y-63299827D01*
X94840588Y-63299827D02*
X94840588Y-63537922D01*
X94840588Y-63537922D02*
X94792969Y-63728398D01*
X94792969Y-63728398D02*
X94745350Y-63823636D01*
X94745350Y-63823636D02*
X94697731Y-63871256D01*
X94697731Y-63871256D02*
X94602493Y-63918875D01*
X94602493Y-63918875D02*
X94507255Y-63918875D01*
X94507255Y-63918875D02*
X94412017Y-63871256D01*
X94412017Y-63871256D02*
X94364398Y-63823636D01*
X94364398Y-63823636D02*
X94316779Y-63728398D01*
X94316779Y-63728398D02*
X94269160Y-63537922D01*
X94269160Y-63537922D02*
X94269160Y-63299827D01*
X94269160Y-63299827D02*
X94316779Y-63109351D01*
X94316779Y-63109351D02*
X94364398Y-63014113D01*
X94364398Y-63014113D02*
X94412017Y-62966494D01*
X94412017Y-62966494D02*
X94507255Y-62918875D01*
X95459636Y-62918875D02*
X95554874Y-62918875D01*
X95554874Y-62918875D02*
X95650112Y-62966494D01*
X95650112Y-62966494D02*
X95697731Y-63014113D01*
X95697731Y-63014113D02*
X95745350Y-63109351D01*
X95745350Y-63109351D02*
X95792969Y-63299827D01*
X95792969Y-63299827D02*
X95792969Y-63537922D01*
X95792969Y-63537922D02*
X95745350Y-63728398D01*
X95745350Y-63728398D02*
X95697731Y-63823636D01*
X95697731Y-63823636D02*
X95650112Y-63871256D01*
X95650112Y-63871256D02*
X95554874Y-63918875D01*
X95554874Y-63918875D02*
X95459636Y-63918875D01*
X95459636Y-63918875D02*
X95364398Y-63871256D01*
X95364398Y-63871256D02*
X95316779Y-63823636D01*
X95316779Y-63823636D02*
X95269160Y-63728398D01*
X95269160Y-63728398D02*
X95221541Y-63537922D01*
X95221541Y-63537922D02*
X95221541Y-63299827D01*
X95221541Y-63299827D02*
X95269160Y-63109351D01*
X95269160Y-63109351D02*
X95316779Y-63014113D01*
X95316779Y-63014113D02*
X95364398Y-62966494D01*
X95364398Y-62966494D02*
X95459636Y-62918875D01*
X96745350Y-63918875D02*
X96173922Y-63918875D01*
X96459636Y-63918875D02*
X96459636Y-62918875D01*
X96459636Y-62918875D02*
X96364398Y-63061732D01*
X96364398Y-63061732D02*
X96269160Y-63156970D01*
X96269160Y-63156970D02*
X96173922Y-63204589D01*
X97697731Y-63918875D02*
X97126303Y-63918875D01*
X97412017Y-63918875D02*
X97412017Y-62918875D01*
X97412017Y-62918875D02*
X97316779Y-63061732D01*
X97316779Y-63061732D02*
X97221541Y-63156970D01*
X97221541Y-63156970D02*
X97126303Y-63204589D01*
X98888208Y-63918875D02*
X98888208Y-62918875D01*
X99316779Y-63014113D02*
X99364398Y-62966494D01*
X99364398Y-62966494D02*
X99459636Y-62918875D01*
X99459636Y-62918875D02*
X99697731Y-62918875D01*
X99697731Y-62918875D02*
X99792969Y-62966494D01*
X99792969Y-62966494D02*
X99840588Y-63014113D01*
X99840588Y-63014113D02*
X99888207Y-63109351D01*
X99888207Y-63109351D02*
X99888207Y-63204589D01*
X99888207Y-63204589D02*
X99840588Y-63347446D01*
X99840588Y-63347446D02*
X99269160Y-63918875D01*
X99269160Y-63918875D02*
X99888207Y-63918875D01*
X100888207Y-63823636D02*
X100840588Y-63871256D01*
X100840588Y-63871256D02*
X100697731Y-63918875D01*
X100697731Y-63918875D02*
X100602493Y-63918875D01*
X100602493Y-63918875D02*
X100459636Y-63871256D01*
X100459636Y-63871256D02*
X100364398Y-63776017D01*
X100364398Y-63776017D02*
X100316779Y-63680779D01*
X100316779Y-63680779D02*
X100269160Y-63490303D01*
X100269160Y-63490303D02*
X100269160Y-63347446D01*
X100269160Y-63347446D02*
X100316779Y-63156970D01*
X100316779Y-63156970D02*
X100364398Y-63061732D01*
X100364398Y-63061732D02*
X100459636Y-62966494D01*
X100459636Y-62966494D02*
X100602493Y-62918875D01*
X100602493Y-62918875D02*
X100697731Y-62918875D01*
X100697731Y-62918875D02*
X100840588Y-62966494D01*
X100840588Y-62966494D02*
X100888207Y-63014113D01*
X94840588Y-65528819D02*
X94269160Y-65528819D01*
X94554874Y-65528819D02*
X94554874Y-64528819D01*
X94554874Y-64528819D02*
X94459636Y-64671676D01*
X94459636Y-64671676D02*
X94364398Y-64766914D01*
X94364398Y-64766914D02*
X94269160Y-64814533D01*
X95792969Y-65528819D02*
X95221541Y-65528819D01*
X95507255Y-65528819D02*
X95507255Y-64528819D01*
X95507255Y-64528819D02*
X95412017Y-64671676D01*
X95412017Y-64671676D02*
X95316779Y-64766914D01*
X95316779Y-64766914D02*
X95221541Y-64814533D01*
X96412017Y-64528819D02*
X96507255Y-64528819D01*
X96507255Y-64528819D02*
X96602493Y-64576438D01*
X96602493Y-64576438D02*
X96650112Y-64624057D01*
X96650112Y-64624057D02*
X96697731Y-64719295D01*
X96697731Y-64719295D02*
X96745350Y-64909771D01*
X96745350Y-64909771D02*
X96745350Y-65147866D01*
X96745350Y-65147866D02*
X96697731Y-65338342D01*
X96697731Y-65338342D02*
X96650112Y-65433580D01*
X96650112Y-65433580D02*
X96602493Y-65481200D01*
X96602493Y-65481200D02*
X96507255Y-65528819D01*
X96507255Y-65528819D02*
X96412017Y-65528819D01*
X96412017Y-65528819D02*
X96316779Y-65481200D01*
X96316779Y-65481200D02*
X96269160Y-65433580D01*
X96269160Y-65433580D02*
X96221541Y-65338342D01*
X96221541Y-65338342D02*
X96173922Y-65147866D01*
X96173922Y-65147866D02*
X96173922Y-64909771D01*
X96173922Y-64909771D02*
X96221541Y-64719295D01*
X96221541Y-64719295D02*
X96269160Y-64624057D01*
X96269160Y-64624057D02*
X96316779Y-64576438D01*
X96316779Y-64576438D02*
X96412017Y-64528819D01*
X97364398Y-64528819D02*
X97459636Y-64528819D01*
X97459636Y-64528819D02*
X97554874Y-64576438D01*
X97554874Y-64576438D02*
X97602493Y-64624057D01*
X97602493Y-64624057D02*
X97650112Y-64719295D01*
X97650112Y-64719295D02*
X97697731Y-64909771D01*
X97697731Y-64909771D02*
X97697731Y-65147866D01*
X97697731Y-65147866D02*
X97650112Y-65338342D01*
X97650112Y-65338342D02*
X97602493Y-65433580D01*
X97602493Y-65433580D02*
X97554874Y-65481200D01*
X97554874Y-65481200D02*
X97459636Y-65528819D01*
X97459636Y-65528819D02*
X97364398Y-65528819D01*
X97364398Y-65528819D02*
X97269160Y-65481200D01*
X97269160Y-65481200D02*
X97221541Y-65433580D01*
X97221541Y-65433580D02*
X97173922Y-65338342D01*
X97173922Y-65338342D02*
X97126303Y-65147866D01*
X97126303Y-65147866D02*
X97126303Y-64909771D01*
X97126303Y-64909771D02*
X97173922Y-64719295D01*
X97173922Y-64719295D02*
X97221541Y-64624057D01*
X97221541Y-64624057D02*
X97269160Y-64576438D01*
X97269160Y-64576438D02*
X97364398Y-64528819D01*
X98888208Y-64528819D02*
X98888208Y-65338342D01*
X98888208Y-65338342D02*
X98935827Y-65433580D01*
X98935827Y-65433580D02*
X98983446Y-65481200D01*
X98983446Y-65481200D02*
X99078684Y-65528819D01*
X99078684Y-65528819D02*
X99269160Y-65528819D01*
X99269160Y-65528819D02*
X99364398Y-65481200D01*
X99364398Y-65481200D02*
X99412017Y-65433580D01*
X99412017Y-65433580D02*
X99459636Y-65338342D01*
X99459636Y-65338342D02*
X99459636Y-64528819D01*
X99888208Y-65243104D02*
X100364398Y-65243104D01*
X99792970Y-65528819D02*
X100126303Y-64528819D01*
X100126303Y-64528819D02*
X100459636Y-65528819D01*
X101364398Y-65528819D02*
X101031065Y-65052628D01*
X100792970Y-65528819D02*
X100792970Y-64528819D01*
X100792970Y-64528819D02*
X101173922Y-64528819D01*
X101173922Y-64528819D02*
X101269160Y-64576438D01*
X101269160Y-64576438D02*
X101316779Y-64624057D01*
X101316779Y-64624057D02*
X101364398Y-64719295D01*
X101364398Y-64719295D02*
X101364398Y-64862152D01*
X101364398Y-64862152D02*
X101316779Y-64957390D01*
X101316779Y-64957390D02*
X101269160Y-65005009D01*
X101269160Y-65005009D02*
X101173922Y-65052628D01*
X101173922Y-65052628D02*
X100792970Y-65052628D01*
X101650113Y-64528819D02*
X102221541Y-64528819D01*
X101935827Y-65528819D02*
X101935827Y-64528819D01*
X100673067Y-74029219D02*
X101006400Y-75029219D01*
X101006400Y-75029219D02*
X101339733Y-74029219D01*
X101673067Y-75029219D02*
X101673067Y-74029219D01*
X101673067Y-74029219D02*
X101911162Y-74029219D01*
X101911162Y-74029219D02*
X102054019Y-74076838D01*
X102054019Y-74076838D02*
X102149257Y-74172076D01*
X102149257Y-74172076D02*
X102196876Y-74267314D01*
X102196876Y-74267314D02*
X102244495Y-74457790D01*
X102244495Y-74457790D02*
X102244495Y-74600647D01*
X102244495Y-74600647D02*
X102196876Y-74791123D01*
X102196876Y-74791123D02*
X102149257Y-74886361D01*
X102149257Y-74886361D02*
X102054019Y-74981600D01*
X102054019Y-74981600D02*
X101911162Y-75029219D01*
X101911162Y-75029219D02*
X101673067Y-75029219D01*
X102673067Y-75029219D02*
X102673067Y-74029219D01*
X102673067Y-74029219D02*
X102911162Y-74029219D01*
X102911162Y-74029219D02*
X103054019Y-74076838D01*
X103054019Y-74076838D02*
X103149257Y-74172076D01*
X103149257Y-74172076D02*
X103196876Y-74267314D01*
X103196876Y-74267314D02*
X103244495Y-74457790D01*
X103244495Y-74457790D02*
X103244495Y-74600647D01*
X103244495Y-74600647D02*
X103196876Y-74791123D01*
X103196876Y-74791123D02*
X103149257Y-74886361D01*
X103149257Y-74886361D02*
X103054019Y-74981600D01*
X103054019Y-74981600D02*
X102911162Y-75029219D01*
X102911162Y-75029219D02*
X102673067Y-75029219D01*
X94440524Y-75005084D02*
X94583381Y-75052703D01*
X94583381Y-75052703D02*
X94821476Y-75052703D01*
X94821476Y-75052703D02*
X94916714Y-75005084D01*
X94916714Y-75005084D02*
X94964333Y-74957464D01*
X94964333Y-74957464D02*
X95011952Y-74862226D01*
X95011952Y-74862226D02*
X95011952Y-74766988D01*
X95011952Y-74766988D02*
X94964333Y-74671750D01*
X94964333Y-74671750D02*
X94916714Y-74624131D01*
X94916714Y-74624131D02*
X94821476Y-74576512D01*
X94821476Y-74576512D02*
X94631000Y-74528893D01*
X94631000Y-74528893D02*
X94535762Y-74481274D01*
X94535762Y-74481274D02*
X94488143Y-74433655D01*
X94488143Y-74433655D02*
X94440524Y-74338417D01*
X94440524Y-74338417D02*
X94440524Y-74243179D01*
X94440524Y-74243179D02*
X94488143Y-74147941D01*
X94488143Y-74147941D02*
X94535762Y-74100322D01*
X94535762Y-74100322D02*
X94631000Y-74052703D01*
X94631000Y-74052703D02*
X94869095Y-74052703D01*
X94869095Y-74052703D02*
X95011952Y-74100322D01*
X96011952Y-74957464D02*
X95964333Y-75005084D01*
X95964333Y-75005084D02*
X95821476Y-75052703D01*
X95821476Y-75052703D02*
X95726238Y-75052703D01*
X95726238Y-75052703D02*
X95583381Y-75005084D01*
X95583381Y-75005084D02*
X95488143Y-74909845D01*
X95488143Y-74909845D02*
X95440524Y-74814607D01*
X95440524Y-74814607D02*
X95392905Y-74624131D01*
X95392905Y-74624131D02*
X95392905Y-74481274D01*
X95392905Y-74481274D02*
X95440524Y-74290798D01*
X95440524Y-74290798D02*
X95488143Y-74195560D01*
X95488143Y-74195560D02*
X95583381Y-74100322D01*
X95583381Y-74100322D02*
X95726238Y-74052703D01*
X95726238Y-74052703D02*
X95821476Y-74052703D01*
X95821476Y-74052703D02*
X95964333Y-74100322D01*
X95964333Y-74100322D02*
X96011952Y-74147941D01*
X96916714Y-75052703D02*
X96440524Y-75052703D01*
X96440524Y-75052703D02*
X96440524Y-74052703D01*
X94488143Y-78882535D02*
X94488143Y-79692058D01*
X94488143Y-79692058D02*
X94535762Y-79787296D01*
X94535762Y-79787296D02*
X94583381Y-79834916D01*
X94583381Y-79834916D02*
X94678619Y-79882535D01*
X94678619Y-79882535D02*
X94869095Y-79882535D01*
X94869095Y-79882535D02*
X94964333Y-79834916D01*
X94964333Y-79834916D02*
X95011952Y-79787296D01*
X95011952Y-79787296D02*
X95059571Y-79692058D01*
X95059571Y-79692058D02*
X95059571Y-78882535D01*
X95392905Y-78882535D02*
X95964333Y-78882535D01*
X95678619Y-79882535D02*
X95678619Y-78882535D01*
X96202429Y-78882535D02*
X96869095Y-79882535D01*
X96869095Y-78882535D02*
X96202429Y-79882535D01*
X91821095Y-74076838D02*
X91725857Y-74029219D01*
X91725857Y-74029219D02*
X91583000Y-74029219D01*
X91583000Y-74029219D02*
X91440143Y-74076838D01*
X91440143Y-74076838D02*
X91344905Y-74172076D01*
X91344905Y-74172076D02*
X91297286Y-74267314D01*
X91297286Y-74267314D02*
X91249667Y-74457790D01*
X91249667Y-74457790D02*
X91249667Y-74600647D01*
X91249667Y-74600647D02*
X91297286Y-74791123D01*
X91297286Y-74791123D02*
X91344905Y-74886361D01*
X91344905Y-74886361D02*
X91440143Y-74981600D01*
X91440143Y-74981600D02*
X91583000Y-75029219D01*
X91583000Y-75029219D02*
X91678238Y-75029219D01*
X91678238Y-75029219D02*
X91821095Y-74981600D01*
X91821095Y-74981600D02*
X91868714Y-74933980D01*
X91868714Y-74933980D02*
X91868714Y-74600647D01*
X91868714Y-74600647D02*
X91678238Y-74600647D01*
X92297286Y-75029219D02*
X92297286Y-74029219D01*
X92297286Y-74029219D02*
X92868714Y-75029219D01*
X92868714Y-75029219D02*
X92868714Y-74029219D01*
X93344905Y-75029219D02*
X93344905Y-74029219D01*
X93344905Y-74029219D02*
X93583000Y-74029219D01*
X93583000Y-74029219D02*
X93725857Y-74076838D01*
X93725857Y-74076838D02*
X93821095Y-74172076D01*
X93821095Y-74172076D02*
X93868714Y-74267314D01*
X93868714Y-74267314D02*
X93916333Y-74457790D01*
X93916333Y-74457790D02*
X93916333Y-74600647D01*
X93916333Y-74600647D02*
X93868714Y-74791123D01*
X93868714Y-74791123D02*
X93821095Y-74886361D01*
X93821095Y-74886361D02*
X93725857Y-74981600D01*
X93725857Y-74981600D02*
X93583000Y-75029219D01*
X93583000Y-75029219D02*
X93344905Y-75029219D01*
X97642514Y-75005084D02*
X97785371Y-75052703D01*
X97785371Y-75052703D02*
X98023466Y-75052703D01*
X98023466Y-75052703D02*
X98118704Y-75005084D01*
X98118704Y-75005084D02*
X98166323Y-74957464D01*
X98166323Y-74957464D02*
X98213942Y-74862226D01*
X98213942Y-74862226D02*
X98213942Y-74766988D01*
X98213942Y-74766988D02*
X98166323Y-74671750D01*
X98166323Y-74671750D02*
X98118704Y-74624131D01*
X98118704Y-74624131D02*
X98023466Y-74576512D01*
X98023466Y-74576512D02*
X97832990Y-74528893D01*
X97832990Y-74528893D02*
X97737752Y-74481274D01*
X97737752Y-74481274D02*
X97690133Y-74433655D01*
X97690133Y-74433655D02*
X97642514Y-74338417D01*
X97642514Y-74338417D02*
X97642514Y-74243179D01*
X97642514Y-74243179D02*
X97690133Y-74147941D01*
X97690133Y-74147941D02*
X97737752Y-74100322D01*
X97737752Y-74100322D02*
X97832990Y-74052703D01*
X97832990Y-74052703D02*
X98071085Y-74052703D01*
X98071085Y-74052703D02*
X98213942Y-74100322D01*
X98642514Y-75052703D02*
X98642514Y-74052703D01*
X98642514Y-74052703D02*
X98880609Y-74052703D01*
X98880609Y-74052703D02*
X99023466Y-74100322D01*
X99023466Y-74100322D02*
X99118704Y-74195560D01*
X99118704Y-74195560D02*
X99166323Y-74290798D01*
X99166323Y-74290798D02*
X99213942Y-74481274D01*
X99213942Y-74481274D02*
X99213942Y-74624131D01*
X99213942Y-74624131D02*
X99166323Y-74814607D01*
X99166323Y-74814607D02*
X99118704Y-74909845D01*
X99118704Y-74909845D02*
X99023466Y-75005084D01*
X99023466Y-75005084D02*
X98880609Y-75052703D01*
X98880609Y-75052703D02*
X98642514Y-75052703D01*
X99594895Y-74766988D02*
X100071085Y-74766988D01*
X99499657Y-75052703D02*
X99832990Y-74052703D01*
X99832990Y-74052703D02*
X100166323Y-75052703D01*
X97594895Y-78882535D02*
X97594895Y-79692058D01*
X97594895Y-79692058D02*
X97642514Y-79787296D01*
X97642514Y-79787296D02*
X97690133Y-79834916D01*
X97690133Y-79834916D02*
X97785371Y-79882535D01*
X97785371Y-79882535D02*
X97975847Y-79882535D01*
X97975847Y-79882535D02*
X98071085Y-79834916D01*
X98071085Y-79834916D02*
X98118704Y-79787296D01*
X98118704Y-79787296D02*
X98166323Y-79692058D01*
X98166323Y-79692058D02*
X98166323Y-78882535D01*
X99213942Y-79882535D02*
X98880609Y-79406344D01*
X98642514Y-79882535D02*
X98642514Y-78882535D01*
X98642514Y-78882535D02*
X99023466Y-78882535D01*
X99023466Y-78882535D02*
X99118704Y-78930154D01*
X99118704Y-78930154D02*
X99166323Y-78977773D01*
X99166323Y-78977773D02*
X99213942Y-79073011D01*
X99213942Y-79073011D02*
X99213942Y-79215868D01*
X99213942Y-79215868D02*
X99166323Y-79311106D01*
X99166323Y-79311106D02*
X99118704Y-79358725D01*
X99118704Y-79358725D02*
X99023466Y-79406344D01*
X99023466Y-79406344D02*
X98642514Y-79406344D01*
X99547276Y-78882535D02*
X100213942Y-79882535D01*
X100213942Y-78882535D02*
X99547276Y-79882535D01*
X95071905Y-60636819D02*
X95071905Y-61446342D01*
X95071905Y-61446342D02*
X95119524Y-61541580D01*
X95119524Y-61541580D02*
X95167143Y-61589200D01*
X95167143Y-61589200D02*
X95262381Y-61636819D01*
X95262381Y-61636819D02*
X95452857Y-61636819D01*
X95452857Y-61636819D02*
X95548095Y-61589200D01*
X95548095Y-61589200D02*
X95595714Y-61541580D01*
X95595714Y-61541580D02*
X95643333Y-61446342D01*
X95643333Y-61446342D02*
X95643333Y-60636819D01*
X96071905Y-61589200D02*
X96214762Y-61636819D01*
X96214762Y-61636819D02*
X96452857Y-61636819D01*
X96452857Y-61636819D02*
X96548095Y-61589200D01*
X96548095Y-61589200D02*
X96595714Y-61541580D01*
X96595714Y-61541580D02*
X96643333Y-61446342D01*
X96643333Y-61446342D02*
X96643333Y-61351104D01*
X96643333Y-61351104D02*
X96595714Y-61255866D01*
X96595714Y-61255866D02*
X96548095Y-61208247D01*
X96548095Y-61208247D02*
X96452857Y-61160628D01*
X96452857Y-61160628D02*
X96262381Y-61113009D01*
X96262381Y-61113009D02*
X96167143Y-61065390D01*
X96167143Y-61065390D02*
X96119524Y-61017771D01*
X96119524Y-61017771D02*
X96071905Y-60922533D01*
X96071905Y-60922533D02*
X96071905Y-60827295D01*
X96071905Y-60827295D02*
X96119524Y-60732057D01*
X96119524Y-60732057D02*
X96167143Y-60684438D01*
X96167143Y-60684438D02*
X96262381Y-60636819D01*
X96262381Y-60636819D02*
X96500476Y-60636819D01*
X96500476Y-60636819D02*
X96643333Y-60684438D01*
X97405238Y-61113009D02*
X97548095Y-61160628D01*
X97548095Y-61160628D02*
X97595714Y-61208247D01*
X97595714Y-61208247D02*
X97643333Y-61303485D01*
X97643333Y-61303485D02*
X97643333Y-61446342D01*
X97643333Y-61446342D02*
X97595714Y-61541580D01*
X97595714Y-61541580D02*
X97548095Y-61589200D01*
X97548095Y-61589200D02*
X97452857Y-61636819D01*
X97452857Y-61636819D02*
X97071905Y-61636819D01*
X97071905Y-61636819D02*
X97071905Y-60636819D01*
X97071905Y-60636819D02*
X97405238Y-60636819D01*
X97405238Y-60636819D02*
X97500476Y-60684438D01*
X97500476Y-60684438D02*
X97548095Y-60732057D01*
X97548095Y-60732057D02*
X97595714Y-60827295D01*
X97595714Y-60827295D02*
X97595714Y-60922533D01*
X97595714Y-60922533D02*
X97548095Y-61017771D01*
X97548095Y-61017771D02*
X97500476Y-61065390D01*
X97500476Y-61065390D02*
X97405238Y-61113009D01*
X97405238Y-61113009D02*
X97071905Y-61113009D01*
X98595714Y-61636819D02*
X98024286Y-61636819D01*
X98310000Y-61636819D02*
X98310000Y-60636819D01*
X98310000Y-60636819D02*
X98214762Y-60779676D01*
X98214762Y-60779676D02*
X98119524Y-60874914D01*
X98119524Y-60874914D02*
X98024286Y-60922533D01*
X105001666Y-78036009D02*
X104668333Y-78036009D01*
X104668333Y-78559819D02*
X104668333Y-77559819D01*
X104668333Y-77559819D02*
X105144523Y-77559819D01*
X106049285Y-78559819D02*
X105477857Y-78559819D01*
X105763571Y-78559819D02*
X105763571Y-77559819D01*
X105763571Y-77559819D02*
X105668333Y-77702676D01*
X105668333Y-77702676D02*
X105573095Y-77797914D01*
X105573095Y-77797914D02*
X105477857Y-77845533D01*
X86955333Y-74019580D02*
X86907714Y-74067200D01*
X86907714Y-74067200D02*
X86764857Y-74114819D01*
X86764857Y-74114819D02*
X86669619Y-74114819D01*
X86669619Y-74114819D02*
X86526762Y-74067200D01*
X86526762Y-74067200D02*
X86431524Y-73971961D01*
X86431524Y-73971961D02*
X86383905Y-73876723D01*
X86383905Y-73876723D02*
X86336286Y-73686247D01*
X86336286Y-73686247D02*
X86336286Y-73543390D01*
X86336286Y-73543390D02*
X86383905Y-73352914D01*
X86383905Y-73352914D02*
X86431524Y-73257676D01*
X86431524Y-73257676D02*
X86526762Y-73162438D01*
X86526762Y-73162438D02*
X86669619Y-73114819D01*
X86669619Y-73114819D02*
X86764857Y-73114819D01*
X86764857Y-73114819D02*
X86907714Y-73162438D01*
X86907714Y-73162438D02*
X86955333Y-73210057D01*
X87336286Y-73210057D02*
X87383905Y-73162438D01*
X87383905Y-73162438D02*
X87479143Y-73114819D01*
X87479143Y-73114819D02*
X87717238Y-73114819D01*
X87717238Y-73114819D02*
X87812476Y-73162438D01*
X87812476Y-73162438D02*
X87860095Y-73210057D01*
X87860095Y-73210057D02*
X87907714Y-73305295D01*
X87907714Y-73305295D02*
X87907714Y-73400533D01*
X87907714Y-73400533D02*
X87860095Y-73543390D01*
X87860095Y-73543390D02*
X87288667Y-74114819D01*
X87288667Y-74114819D02*
X87907714Y-74114819D01*
X99504667Y-73305200D02*
X99647524Y-73352819D01*
X99647524Y-73352819D02*
X99885619Y-73352819D01*
X99885619Y-73352819D02*
X99980857Y-73305200D01*
X99980857Y-73305200D02*
X100028476Y-73257580D01*
X100028476Y-73257580D02*
X100076095Y-73162342D01*
X100076095Y-73162342D02*
X100076095Y-73067104D01*
X100076095Y-73067104D02*
X100028476Y-72971866D01*
X100028476Y-72971866D02*
X99980857Y-72924247D01*
X99980857Y-72924247D02*
X99885619Y-72876628D01*
X99885619Y-72876628D02*
X99695143Y-72829009D01*
X99695143Y-72829009D02*
X99599905Y-72781390D01*
X99599905Y-72781390D02*
X99552286Y-72733771D01*
X99552286Y-72733771D02*
X99504667Y-72638533D01*
X99504667Y-72638533D02*
X99504667Y-72543295D01*
X99504667Y-72543295D02*
X99552286Y-72448057D01*
X99552286Y-72448057D02*
X99599905Y-72400438D01*
X99599905Y-72400438D02*
X99695143Y-72352819D01*
X99695143Y-72352819D02*
X99933238Y-72352819D01*
X99933238Y-72352819D02*
X100076095Y-72400438D01*
X100409429Y-72352819D02*
X100647524Y-73352819D01*
X100647524Y-73352819D02*
X100838000Y-72638533D01*
X100838000Y-72638533D02*
X101028476Y-73352819D01*
X101028476Y-73352819D02*
X101266572Y-72352819D01*
X102171333Y-73352819D02*
X101599905Y-73352819D01*
X101885619Y-73352819D02*
X101885619Y-72352819D01*
X101885619Y-72352819D02*
X101790381Y-72495676D01*
X101790381Y-72495676D02*
X101695143Y-72590914D01*
X101695143Y-72590914D02*
X101599905Y-72638533D01*
X85685333Y-60398819D02*
X85352000Y-59922628D01*
X85113905Y-60398819D02*
X85113905Y-59398819D01*
X85113905Y-59398819D02*
X85494857Y-59398819D01*
X85494857Y-59398819D02*
X85590095Y-59446438D01*
X85590095Y-59446438D02*
X85637714Y-59494057D01*
X85637714Y-59494057D02*
X85685333Y-59589295D01*
X85685333Y-59589295D02*
X85685333Y-59732152D01*
X85685333Y-59732152D02*
X85637714Y-59827390D01*
X85637714Y-59827390D02*
X85590095Y-59875009D01*
X85590095Y-59875009D02*
X85494857Y-59922628D01*
X85494857Y-59922628D02*
X85113905Y-59922628D01*
X86637714Y-60398819D02*
X86066286Y-60398819D01*
X86352000Y-60398819D02*
X86352000Y-59398819D01*
X86352000Y-59398819D02*
X86256762Y-59541676D01*
X86256762Y-59541676D02*
X86161524Y-59636914D01*
X86161524Y-59636914D02*
X86066286Y-59684533D01*
X93305333Y-61700580D02*
X93257714Y-61748200D01*
X93257714Y-61748200D02*
X93114857Y-61795819D01*
X93114857Y-61795819D02*
X93019619Y-61795819D01*
X93019619Y-61795819D02*
X92876762Y-61748200D01*
X92876762Y-61748200D02*
X92781524Y-61652961D01*
X92781524Y-61652961D02*
X92733905Y-61557723D01*
X92733905Y-61557723D02*
X92686286Y-61367247D01*
X92686286Y-61367247D02*
X92686286Y-61224390D01*
X92686286Y-61224390D02*
X92733905Y-61033914D01*
X92733905Y-61033914D02*
X92781524Y-60938676D01*
X92781524Y-60938676D02*
X92876762Y-60843438D01*
X92876762Y-60843438D02*
X93019619Y-60795819D01*
X93019619Y-60795819D02*
X93114857Y-60795819D01*
X93114857Y-60795819D02*
X93257714Y-60843438D01*
X93257714Y-60843438D02*
X93305333Y-60891057D01*
X94257714Y-61795819D02*
X93686286Y-61795819D01*
X93972000Y-61795819D02*
X93972000Y-60795819D01*
X93972000Y-60795819D02*
X93876762Y-60938676D01*
X93876762Y-60938676D02*
X93781524Y-61033914D01*
X93781524Y-61033914D02*
X93686286Y-61081533D01*
X91821095Y-63843819D02*
X91821095Y-64653342D01*
X91821095Y-64653342D02*
X91868714Y-64748580D01*
X91868714Y-64748580D02*
X91916333Y-64796200D01*
X91916333Y-64796200D02*
X92011571Y-64843819D01*
X92011571Y-64843819D02*
X92202047Y-64843819D01*
X92202047Y-64843819D02*
X92297285Y-64796200D01*
X92297285Y-64796200D02*
X92344904Y-64748580D01*
X92344904Y-64748580D02*
X92392523Y-64653342D01*
X92392523Y-64653342D02*
X92392523Y-63843819D01*
X93392523Y-64843819D02*
X92821095Y-64843819D01*
X93106809Y-64843819D02*
X93106809Y-63843819D01*
X93106809Y-63843819D02*
X93011571Y-63986676D01*
X93011571Y-63986676D02*
X92916333Y-64081914D01*
X92916333Y-64081914D02*
X92821095Y-64129533D01*
X104786133Y-60652819D02*
X104452800Y-60176628D01*
X104214705Y-60652819D02*
X104214705Y-59652819D01*
X104214705Y-59652819D02*
X104595657Y-59652819D01*
X104595657Y-59652819D02*
X104690895Y-59700438D01*
X104690895Y-59700438D02*
X104738514Y-59748057D01*
X104738514Y-59748057D02*
X104786133Y-59843295D01*
X104786133Y-59843295D02*
X104786133Y-59986152D01*
X104786133Y-59986152D02*
X104738514Y-60081390D01*
X104738514Y-60081390D02*
X104690895Y-60129009D01*
X104690895Y-60129009D02*
X104595657Y-60176628D01*
X104595657Y-60176628D02*
X104214705Y-60176628D01*
X105167086Y-59748057D02*
X105214705Y-59700438D01*
X105214705Y-59700438D02*
X105309943Y-59652819D01*
X105309943Y-59652819D02*
X105548038Y-59652819D01*
X105548038Y-59652819D02*
X105643276Y-59700438D01*
X105643276Y-59700438D02*
X105690895Y-59748057D01*
X105690895Y-59748057D02*
X105738514Y-59843295D01*
X105738514Y-59843295D02*
X105738514Y-59938533D01*
X105738514Y-59938533D02*
X105690895Y-60081390D01*
X105690895Y-60081390D02*
X105119467Y-60652819D01*
X105119467Y-60652819D02*
X105738514Y-60652819D01*
D11*
%TO.C,REF\u002A\u002A*%
X85234000Y-84117800D02*
X85234000Y-86877800D01*
X85234000Y-86877800D02*
X95614000Y-86877800D01*
X86184000Y-83805158D02*
X86184000Y-84117800D01*
X87044000Y-83805158D02*
X87044000Y-84117800D01*
X87884000Y-84117800D02*
X87884000Y-86877800D01*
X88724000Y-83805158D02*
X88724000Y-84117800D01*
X89584000Y-83805158D02*
X89584000Y-84117800D01*
X90424000Y-84117800D02*
X90424000Y-86877800D01*
X91264000Y-83805158D02*
X91264000Y-84117800D01*
X92124000Y-83805158D02*
X92124000Y-84117800D01*
X92964000Y-84117800D02*
X92964000Y-86877800D01*
X93804000Y-83887800D02*
X93804000Y-84117800D01*
X94234000Y-81457800D02*
X95504000Y-81457800D01*
X94664000Y-83887800D02*
X94664000Y-84117800D01*
X95504000Y-81457800D02*
X95504000Y-82727800D01*
X95614000Y-84117800D02*
X85234000Y-84117800D01*
X95614000Y-86877800D02*
X95614000Y-84117800D01*
%TO.C,TP3*%
X89987600Y-57415900D02*
X91887600Y-57415900D01*
X89987600Y-59315900D02*
X89987600Y-57415900D01*
X91887600Y-57415900D02*
X91887600Y-59315900D01*
X91887600Y-59315900D02*
X89987600Y-59315900D01*
%TO.C,REF\u002A\u002A*%
X107758000Y-61276000D02*
X109158000Y-61276000D01*
X107758000Y-62676000D02*
X107758000Y-61276000D01*
X109158000Y-61276000D02*
X109158000Y-62676000D01*
X109158000Y-62676000D02*
X107758000Y-62676000D01*
X107758000Y-65340000D02*
X109158000Y-65340000D01*
X107758000Y-66740000D02*
X107758000Y-65340000D01*
X109158000Y-65340000D02*
X109158000Y-66740000D01*
X109158000Y-66740000D02*
X107758000Y-66740000D01*
X91457000Y-75582000D02*
X91457000Y-78342000D01*
X99187000Y-75582000D02*
X91457000Y-75582000D01*
X99187000Y-75582000D02*
X99187000Y-78342000D01*
X99187000Y-78342000D02*
X91457000Y-78342000D01*
X100457000Y-75582000D02*
X101837000Y-75582000D01*
X101837000Y-75582000D02*
X101837000Y-76962000D01*
%TO.C,F1*%
X102595000Y-77502936D02*
X102595000Y-78707064D01*
X104415000Y-77502936D02*
X104415000Y-78707064D01*
%TO.C,TP3*%
X101811300Y-57415900D02*
X103711300Y-57415900D01*
X101811300Y-59315900D02*
X101811300Y-57415900D01*
X103711300Y-57415900D02*
X103711300Y-59315900D01*
X103711300Y-59315900D02*
X101811300Y-59315900D01*
%TO.C,REF\u002A\u002A*%
X107758000Y-63308000D02*
X109158000Y-63308000D01*
X107758000Y-64708000D02*
X107758000Y-63308000D01*
X109158000Y-63308000D02*
X109158000Y-64708000D01*
X109158000Y-64708000D02*
X107758000Y-64708000D01*
X97680000Y-84127000D02*
X97680000Y-86887000D01*
X97680000Y-86887000D02*
X108060000Y-86887000D01*
X98630000Y-83814358D02*
X98630000Y-84127000D01*
X99490000Y-83814358D02*
X99490000Y-84127000D01*
X100330000Y-84127000D02*
X100330000Y-86887000D01*
X101170000Y-83814358D02*
X101170000Y-84127000D01*
X102030000Y-83814358D02*
X102030000Y-84127000D01*
X102870000Y-84127000D02*
X102870000Y-86887000D01*
X103710000Y-83814358D02*
X103710000Y-84127000D01*
X104570000Y-83814358D02*
X104570000Y-84127000D01*
X105410000Y-84127000D02*
X105410000Y-86887000D01*
X106250000Y-83897000D02*
X106250000Y-84127000D01*
X106680000Y-81467000D02*
X107950000Y-81467000D01*
X107110000Y-83897000D02*
X107110000Y-84127000D01*
X107950000Y-81467000D02*
X107950000Y-82737000D01*
X108060000Y-84127000D02*
X97680000Y-84127000D01*
X108060000Y-86887000D02*
X108060000Y-84127000D01*
%TO.C,C2*%
X88165000Y-72985000D02*
X90905000Y-72985000D01*
X88165000Y-80725000D02*
X88165000Y-72985000D01*
X88625000Y-76123748D02*
X88625000Y-77546252D01*
X90445000Y-76123748D02*
X90445000Y-77546252D01*
X90905000Y-72985000D02*
X90905000Y-80725000D01*
X90905000Y-80725000D02*
X88165000Y-80725000D01*
%TO.C,SW1*%
X93575000Y-67286000D02*
X93575000Y-71906000D01*
X93575000Y-67286000D02*
X94285000Y-67286000D01*
X93575000Y-71906000D02*
X94285000Y-71906000D01*
X99395000Y-65896000D02*
X99395000Y-67286000D01*
X100045000Y-67286000D02*
X99395000Y-67286000D01*
X100045000Y-67286000D02*
X100045000Y-71906000D01*
X100045000Y-71906000D02*
X99335000Y-71906000D01*
%TO.C,R1*%
X86587436Y-57459200D02*
X88041564Y-57459200D01*
X86587436Y-59279200D02*
X88041564Y-59279200D01*
%TO.C,C1*%
X84629000Y-60733000D02*
X92369000Y-60733000D01*
X84629000Y-63473000D02*
X84629000Y-60733000D01*
X89230252Y-61193000D02*
X87807748Y-61193000D01*
X89230252Y-63013000D02*
X87807748Y-63013000D01*
X92369000Y-60733000D02*
X92369000Y-63473000D01*
X92369000Y-63473000D02*
X84629000Y-63473000D01*
%TO.C,U1*%
X88073000Y-63764000D02*
X86123000Y-63764000D01*
X88073000Y-63764000D02*
X90023000Y-63764000D01*
X88073000Y-72634000D02*
X86123000Y-72634000D01*
X88073000Y-72634000D02*
X90023000Y-72634000D01*
X84523842Y-64385967D02*
X84193842Y-64625967D01*
X84193842Y-64145967D01*
X84523842Y-64385967D01*
G36*
X84523842Y-64385967D02*
G01*
X84193842Y-64625967D01*
X84193842Y-64145967D01*
X84523842Y-64385967D01*
G37*
%TO.C,REF\u002A\u002A*%
X107758000Y-69404000D02*
X109158000Y-69404000D01*
X107758000Y-70804000D02*
X107758000Y-69404000D01*
X109158000Y-69404000D02*
X109158000Y-70804000D01*
X109158000Y-70804000D02*
X107758000Y-70804000D01*
X107758000Y-71436000D02*
X109158000Y-71436000D01*
X107758000Y-72836000D02*
X107758000Y-71436000D01*
X109158000Y-71436000D02*
X109158000Y-72836000D01*
X109158000Y-72836000D02*
X107758000Y-72836000D01*
%TO.C,R2*%
X107102264Y-57459200D02*
X105648136Y-57459200D01*
X107102264Y-59279200D02*
X105648136Y-59279200D01*
%TO.C,REF\u002A\u002A*%
X107758000Y-67372000D02*
X109158000Y-67372000D01*
X107758000Y-68772000D02*
X107758000Y-67372000D01*
X109158000Y-67372000D02*
X109158000Y-68772000D01*
X109158000Y-68772000D02*
X107758000Y-68772000D01*
%TD*%
M02*
