%TF.GenerationSoftware,KiCad,Pcbnew,9.0.7*%
%TF.CreationDate,2026-01-26T10:20:21-05:00*%
%TF.ProjectId,USBC_I2C,55534243-5f49-4324-932e-6b696361645f,rev?*%
%TF.SameCoordinates,Original*%
%TF.FileFunction,Paste,Top*%
%TF.FilePolarity,Positive*%
%FSLAX46Y46*%
G04 Gerber Fmt 4.6, Leading zero omitted, Abs format (unit mm)*
G04 Created by KiCad (PCBNEW 9.0.7) date 2026-01-26 10:20:21*
%MOMM*%
%LPD*%
G01*
G04 APERTURE LIST*
G04 Aperture macros list*
%AMRoundRect*
0 Rectangle with rounded corners*
0 $1 Rounding radius*
0 $2 $3 $4 $5 $6 $7 $8 $9 X,Y pos of 4 corners*
0 Add a 4 corners polygon primitive as box body*
4,1,4,$2,$3,$4,$5,$6,$7,$8,$9,$2,$3,0*
0 Add four circle primitives for the rounded corners*
1,1,$1+$1,$2,$3*
1,1,$1+$1,$4,$5*
1,1,$1+$1,$6,$7*
1,1,$1+$1,$8,$9*
0 Add four rect primitives between the rounded corners*
20,1,$1+$1,$2,$3,$4,$5,0*
20,1,$1+$1,$4,$5,$6,$7,0*
20,1,$1+$1,$6,$7,$8,$9,0*
20,1,$1+$1,$8,$9,$2,$3,0*%
G04 Aperture macros list end*
%ADD10RoundRect,0.250000X0.312500X0.625000X-0.312500X0.625000X-0.312500X-0.625000X0.312500X-0.625000X0*%
%ADD11RoundRect,0.150000X-0.512500X-0.150000X0.512500X-0.150000X0.512500X0.150000X-0.512500X0.150000X0*%
%ADD12RoundRect,0.250000X0.650000X-0.412500X0.650000X0.412500X-0.650000X0.412500X-0.650000X-0.412500X0*%
%ADD13RoundRect,0.150000X0.512500X0.150000X-0.512500X0.150000X-0.512500X-0.150000X0.512500X-0.150000X0*%
%ADD14R,0.380000X1.000000*%
%ADD15R,0.700000X1.150000*%
%ADD16RoundRect,0.190000X-0.190000X0.435000X-0.190000X-0.435000X0.190000X-0.435000X0.190000X0.435000X0*%
%ADD17RoundRect,0.250000X-0.312500X-0.625000X0.312500X-0.625000X0.312500X0.625000X-0.312500X0.625000X0*%
%ADD18RoundRect,0.250000X0.412500X0.650000X-0.412500X0.650000X-0.412500X-0.650000X0.412500X-0.650000X0*%
%ADD19RoundRect,0.150000X-0.825000X-0.150000X0.825000X-0.150000X0.825000X0.150000X-0.825000X0.150000X0*%
%ADD20RoundRect,0.250000X-0.375000X-0.625000X0.375000X-0.625000X0.375000X0.625000X-0.375000X0.625000X0*%
G04 APERTURE END LIST*
D10*
%TO.C,R2*%
X107431300Y-72200000D03*
X104506300Y-72200000D03*
%TD*%
D11*
%TO.C,Q1*%
X105415500Y-66868000D03*
X105415500Y-67818000D03*
X105415500Y-68768000D03*
X107690500Y-68768000D03*
X107690500Y-67818000D03*
X107690500Y-66868000D03*
%TD*%
D12*
%TO.C,C2*%
X88900000Y-77127500D03*
X88900000Y-74002500D03*
%TD*%
D13*
%TO.C,U2*%
X107558000Y-63500000D03*
X107558000Y-62550000D03*
X107558000Y-61600000D03*
X105283000Y-61600000D03*
X105283000Y-62550000D03*
X105283000Y-63500000D03*
%TD*%
D14*
%TO.C,USB1*%
X93771050Y-59138000D03*
X94271050Y-59138000D03*
X94771050Y-59138000D03*
X95271050Y-59138000D03*
X95771050Y-59138000D03*
X96271050Y-59138000D03*
X96771050Y-59138000D03*
X97271050Y-59138000D03*
X97771050Y-59138000D03*
X98271050Y-59138000D03*
X98771050Y-59138000D03*
X99271050Y-59138000D03*
D15*
X93101050Y-59978000D03*
%TD*%
D12*
%TO.C,C3*%
X104100000Y-77862500D03*
X104100000Y-74737500D03*
%TD*%
D16*
%TO.C,SW1*%
X98426050Y-66477000D03*
X97156050Y-66477000D03*
X95886050Y-66477000D03*
X94616050Y-66477000D03*
X94616050Y-72627000D03*
X95886050Y-72627000D03*
X97156050Y-72627000D03*
X98426050Y-72627000D03*
%TD*%
D17*
%TO.C,R1*%
X85563050Y-58547000D03*
X88488050Y-58547000D03*
%TD*%
D18*
%TO.C,C1*%
X89792550Y-62059000D03*
X86667550Y-62059000D03*
%TD*%
D19*
%TO.C,U1*%
X85309050Y-64345000D03*
X85309050Y-65615000D03*
X85309050Y-66885000D03*
X85309050Y-68155000D03*
X85309050Y-69425000D03*
X85309050Y-70695000D03*
X85309050Y-71965000D03*
X90259050Y-71965000D03*
X90259050Y-70695000D03*
X90259050Y-69425000D03*
X90259050Y-68155000D03*
X90259050Y-66885000D03*
X90259050Y-65615000D03*
X90259050Y-64345000D03*
%TD*%
D20*
%TO.C,F1*%
X104645000Y-58547000D03*
X107445000Y-58547000D03*
%TD*%
M02*
