%TF.GenerationSoftware,KiCad,Pcbnew,9.0.5*%
%TF.CreationDate,2025-10-28T13:43:02-04:00*%
%TF.ProjectId,USBC_I2C,55534243-5f49-4324-932e-6b696361645f,rev?*%
%TF.SameCoordinates,Original*%
%TF.FileFunction,Copper,L2,Bot*%
%TF.FilePolarity,Positive*%
%FSLAX46Y46*%
G04 Gerber Fmt 4.6, Leading zero omitted, Abs format (unit mm)*
G04 Created by KiCad (PCBNEW 9.0.5) date 2025-10-28 13:43:02*
%MOMM*%
%LPD*%
G01*
G04 APERTURE LIST*
%TA.AperFunction,ComponentPad*%
%ADD10R,1.700000X1.700000*%
%TD*%
%TA.AperFunction,ComponentPad*%
%ADD11C,1.700000*%
%TD*%
%TA.AperFunction,SMDPad,CuDef*%
%ADD12R,0.380000X1.000000*%
%TD*%
%TA.AperFunction,SMDPad,CuDef*%
%ADD13R,0.700000X1.150000*%
%TD*%
%TA.AperFunction,ComponentPad*%
%ADD14C,2.000000*%
%TD*%
%TA.AperFunction,SMDPad,CuDef*%
%ADD15R,0.850000X0.850000*%
%TD*%
%TA.AperFunction,SMDPad,CuDef*%
%ADD16R,1.500000X1.500000*%
%TD*%
%TA.AperFunction,ViaPad*%
%ADD17C,0.600000*%
%TD*%
%TA.AperFunction,Conductor*%
%ADD18C,0.200000*%
%TD*%
%TA.AperFunction,Conductor*%
%ADD19C,0.600000*%
%TD*%
G04 APERTURE END LIST*
D10*
%TO.P,REF\u002A\u002A,1*%
%TO.N,Vo*%
X94234000Y-82727800D03*
D11*
%TO.P,REF\u002A\u002A,2*%
%TO.N,Out0*%
X91694000Y-82727800D03*
%TO.P,REF\u002A\u002A,3*%
%TO.N,Out1*%
X89154000Y-82727800D03*
%TO.P,REF\u002A\u002A,4*%
%TO.N,GND*%
X86614000Y-82727800D03*
%TD*%
D10*
%TO.P,REF\u002A\u002A,1*%
%TO.N,Vo*%
X100457000Y-76962000D03*
D11*
%TO.P,REF\u002A\u002A,2*%
%TO.N,Out0*%
X97917000Y-76962000D03*
%TO.P,REF\u002A\u002A,3*%
%TO.N,Out1*%
X95377000Y-76962000D03*
%TO.P,REF\u002A\u002A,4*%
%TO.N,GND*%
X92837000Y-76962000D03*
%TD*%
D12*
%TO.P,USB1,B1,GND*%
%TO.N,GND*%
X99560000Y-59182000D03*
%TO.P,USB1,B2*%
%TO.N,N/C*%
X99060000Y-59182000D03*
%TO.P,USB1,B3*%
X98560000Y-59182000D03*
%TO.P,USB1,B4,VBUS*%
%TO.N,Net-(U1-VDD)*%
X98060000Y-59182000D03*
%TO.P,USB1,B5,VCONN*%
%TO.N,Net-(USB1-VCONN)*%
X97560000Y-59182000D03*
%TO.P,USB1,B8*%
%TO.N,N/C*%
X96060000Y-59182000D03*
%TO.P,USB1,B9,VBUS*%
%TO.N,Net-(U1-VDD)*%
X95560000Y-59182000D03*
%TO.P,USB1,B10*%
%TO.N,N/C*%
X95060000Y-59182000D03*
%TO.P,USB1,B11*%
X94560000Y-59182000D03*
%TO.P,USB1,B12,GND*%
%TO.N,GND*%
X94060000Y-59182000D03*
D13*
%TO.P,USB1,S1,SHIELD*%
X100230000Y-60022000D03*
%TD*%
D10*
%TO.P,REF\u002A\u002A,1*%
%TO.N,Vo*%
X106680000Y-82737000D03*
D11*
%TO.P,REF\u002A\u002A,2*%
%TO.N,Out0*%
X104140000Y-82737000D03*
%TO.P,REF\u002A\u002A,3*%
%TO.N,Out1*%
X101600000Y-82737000D03*
%TO.P,REF\u002A\u002A,4*%
%TO.N,GND*%
X99060000Y-82737000D03*
%TD*%
D14*
%TO.P,C2,1*%
%TO.N,GND*%
X89535000Y-79320400D03*
%TO.P,C2,2*%
%TO.N,Net-(U1-VUSB)*%
X89535000Y-74320400D03*
%TD*%
%TO.P,C1,1*%
%TO.N,GND*%
X91004400Y-62103000D03*
%TO.P,C1,2*%
%TO.N,Net-(U1-VDD)*%
X86004400Y-62103000D03*
%TD*%
D15*
%TO.P,2x Pads,1*%
%TO.N,Net-(U1-SDA)*%
X97129600Y-73370400D03*
%TO.P,2x Pads,2*%
%TO.N,Out0*%
X97129600Y-74320400D03*
%TD*%
D16*
%TO.P,,1*%
%TO.N,GND*%
X102768400Y-58369200D03*
%TD*%
D15*
%TO.P,2x Pads,1*%
%TO.N,Net-(U1-SCL)*%
X95377000Y-73370400D03*
%TO.P,2x Pads,2*%
%TO.N,Out1*%
X95377000Y-74320400D03*
%TD*%
D16*
%TO.P,,1*%
%TO.N,GND*%
X90932000Y-58369200D03*
%TD*%
D17*
%TO.N,Net-(D1-A)*%
X104267000Y-61976000D03*
X87122000Y-65659000D03*
%TO.N,GND*%
X90462100Y-57937400D03*
X91414600Y-58826400D03*
X90462100Y-58826400D03*
X102285800Y-57937400D03*
X102285800Y-58826400D03*
X91414600Y-57937400D03*
X108458000Y-73761600D03*
X103238300Y-57937400D03*
X103238300Y-58826400D03*
%TO.N,Net-(U1-VUSB)*%
X88798400Y-69469000D03*
X88798400Y-68199000D03*
%TO.N,Net-(D4-A)*%
X92075000Y-72009000D03*
X104902000Y-63492000D03*
%TO.N,Net-(D3-A)*%
X87122000Y-72009000D03*
X104267000Y-62992000D03*
%TO.N,Net-(D2-A)*%
X104902000Y-62476000D03*
X87122000Y-66929000D03*
%TO.N,Net-(U1-SCL)*%
X95377000Y-69469000D03*
%TO.N,Net-(U1-SDA)*%
X97155000Y-70739000D03*
%TO.N,Net-(USB1-CC)*%
X87376000Y-59690000D03*
X94742000Y-61925200D03*
%TO.N,Net-(USB1-VCONN)*%
X106680000Y-60706000D03*
%TO.N,Net-(U1-VDD)*%
X94742000Y-61214000D03*
X98425000Y-61087000D03*
%TD*%
D18*
%TO.N,Net-(D1-A)*%
X87122000Y-65659000D02*
X87503000Y-65659000D01*
X97155000Y-61976000D02*
X104267000Y-61976000D01*
X88138000Y-65024000D02*
X94107000Y-65024000D01*
X94107000Y-65024000D02*
X97155000Y-61976000D01*
X87503000Y-65659000D02*
X88138000Y-65024000D01*
%TO.N,GND*%
X99560000Y-59182000D02*
X99560000Y-59352000D01*
X94060000Y-59356000D02*
X93395800Y-60020200D01*
X94060000Y-59182000D02*
X94060000Y-59356000D01*
D19*
X102284000Y-60022000D02*
X102768400Y-59537600D01*
X100230000Y-60022000D02*
X102284000Y-60022000D01*
D18*
X91516200Y-60020200D02*
X90932000Y-59436000D01*
X93395800Y-60020200D02*
X91516200Y-60020200D01*
X99560000Y-59352000D02*
X100230000Y-60022000D01*
D19*
X102768400Y-59537600D02*
X102768400Y-58369200D01*
D18*
X90932000Y-59436000D02*
X90932000Y-58369200D01*
%TO.N,Net-(U1-VUSB)*%
X88798400Y-69469000D02*
X88798400Y-68199000D01*
%TO.N,Net-(D4-A)*%
X92075000Y-72009000D02*
X92583000Y-71501000D01*
X104058479Y-63492000D02*
X104059479Y-63493000D01*
X92583000Y-71501000D02*
X92583000Y-68707000D01*
X97917000Y-68199000D02*
X97917000Y-63746000D01*
X104474521Y-63493000D02*
X104475521Y-63492000D01*
X97917000Y-63746000D02*
X98171000Y-63492000D01*
X104475521Y-63492000D02*
X104902000Y-63492000D01*
X92583000Y-68707000D02*
X92837000Y-68453000D01*
X98171000Y-63492000D02*
X104058479Y-63492000D01*
X97663000Y-68453000D02*
X97917000Y-68199000D01*
X92837000Y-68453000D02*
X97663000Y-68453000D01*
X104059479Y-63493000D02*
X104474521Y-63493000D01*
%TO.N,Net-(D3-A)*%
X87122000Y-70739000D02*
X87122000Y-72009000D01*
X96647000Y-66548000D02*
X95123000Y-68072000D01*
X87757000Y-70104000D02*
X87122000Y-70739000D01*
X92075000Y-68453000D02*
X92075000Y-69850000D01*
X91821000Y-70104000D02*
X87757000Y-70104000D01*
X104267000Y-62992000D02*
X97536000Y-62992000D01*
X92075000Y-69850000D02*
X91821000Y-70104000D01*
X95123000Y-68072000D02*
X92456000Y-68072000D01*
X92456000Y-68072000D02*
X92075000Y-68453000D01*
X97536000Y-62992000D02*
X96647000Y-63881000D01*
X96647000Y-63881000D02*
X96647000Y-66548000D01*
%TO.N,Net-(D2-A)*%
X87757000Y-66294000D02*
X95123000Y-66294000D01*
X104894000Y-62484000D02*
X104902000Y-62476000D01*
X97282000Y-62484000D02*
X104894000Y-62484000D01*
X95377000Y-66040000D02*
X95377000Y-64389000D01*
X87122000Y-66929000D02*
X87757000Y-66294000D01*
X95377000Y-64389000D02*
X97282000Y-62484000D01*
X95123000Y-66294000D02*
X95377000Y-66040000D01*
%TO.N,Net-(U1-SCL)*%
X95377000Y-69469000D02*
X95377000Y-73370400D01*
%TO.N,Out0*%
X97129600Y-74320400D02*
X97129600Y-76174600D01*
X97129600Y-76174600D02*
X97917000Y-76962000D01*
%TO.N,Net-(U1-SDA)*%
X97129600Y-70891400D02*
X97129600Y-73370400D01*
X97155000Y-70866000D02*
X97129600Y-70891400D01*
X97155000Y-70739000D02*
X97155000Y-70866000D01*
%TO.N,Out1*%
X98873000Y-80010000D02*
X101600000Y-82737000D01*
X93421200Y-80010000D02*
X94234000Y-80010000D01*
X91881000Y-80010000D02*
X93421200Y-80010000D01*
X95377000Y-76641000D02*
X95377000Y-78867000D01*
X95377000Y-74320400D02*
X95377000Y-76962000D01*
X95377000Y-78867000D02*
X94234000Y-80010000D01*
X89154000Y-82737000D02*
X91881000Y-80010000D01*
X94234000Y-80010000D02*
X98873000Y-80010000D01*
%TO.N,Net-(USB1-CC)*%
X88900000Y-63881000D02*
X89154000Y-64135000D01*
X89154000Y-64135000D02*
X94488000Y-64135000D01*
X87376000Y-59690000D02*
X88646000Y-59690000D01*
X88646000Y-59690000D02*
X88900000Y-59944000D01*
X94488000Y-64135000D02*
X94742000Y-63881000D01*
X94742000Y-63881000D02*
X94742000Y-61925200D01*
X88900000Y-59944000D02*
X88900000Y-63881000D01*
%TO.N,Net-(USB1-VCONN)*%
X97790000Y-61595000D02*
X97560000Y-61365000D01*
X106172000Y-61214000D02*
X99441000Y-61214000D01*
X106680000Y-60706000D02*
X106172000Y-61214000D01*
X97560000Y-61365000D02*
X97560000Y-59182000D01*
X99060000Y-61595000D02*
X97790000Y-61595000D01*
X99441000Y-61214000D02*
X99060000Y-61595000D01*
%TO.N,Net-(U1-VDD)*%
X98060000Y-60722000D02*
X98425000Y-61087000D01*
X94742000Y-61214000D02*
X95560000Y-60396000D01*
X98060000Y-59182000D02*
X98060000Y-60722000D01*
X95560000Y-60396000D02*
X95560000Y-59182000D01*
%TD*%
%TA.AperFunction,Conductor*%
%TO.N,GND*%
G36*
X89626256Y-57449085D02*
G01*
X89672011Y-57501889D01*
X89682507Y-57566653D01*
X89682000Y-57571366D01*
X89682000Y-58119200D01*
X90808000Y-58119200D01*
X90875039Y-58138885D01*
X90920794Y-58191689D01*
X90932000Y-58243200D01*
X90932000Y-58369200D01*
X91058000Y-58369200D01*
X91125039Y-58388885D01*
X91170794Y-58441689D01*
X91182000Y-58493200D01*
X91182000Y-59619200D01*
X91659400Y-59619200D01*
X91726439Y-59638885D01*
X91772194Y-59691689D01*
X91783400Y-59743200D01*
X91783400Y-60614081D01*
X91763715Y-60681120D01*
X91710911Y-60726875D01*
X91641753Y-60736819D01*
X91603107Y-60724567D01*
X91580203Y-60712897D01*
X91355647Y-60639934D01*
X91355648Y-60639934D01*
X91122452Y-60603000D01*
X90886348Y-60603000D01*
X90653152Y-60639934D01*
X90428597Y-60712897D01*
X90218230Y-60820084D01*
X90135294Y-60880340D01*
X90874991Y-61620037D01*
X90811407Y-61637075D01*
X90697393Y-61702901D01*
X90604301Y-61795993D01*
X90538475Y-61910007D01*
X90521437Y-61973591D01*
X89781740Y-61233894D01*
X89721484Y-61316830D01*
X89614297Y-61527197D01*
X89541334Y-61751752D01*
X89504400Y-61984947D01*
X89504400Y-62221052D01*
X89541334Y-62454247D01*
X89614297Y-62678802D01*
X89721487Y-62889174D01*
X89781738Y-62972104D01*
X89781740Y-62972105D01*
X90521437Y-62232408D01*
X90538475Y-62295993D01*
X90604301Y-62410007D01*
X90697393Y-62503099D01*
X90811407Y-62568925D01*
X90874990Y-62585962D01*
X90135293Y-63325658D01*
X90218228Y-63385914D01*
X90428597Y-63493102D01*
X90653152Y-63566065D01*
X90653151Y-63566065D01*
X90886348Y-63603000D01*
X91122452Y-63603000D01*
X91355647Y-63566065D01*
X91580202Y-63493102D01*
X91790563Y-63385918D01*
X91790569Y-63385914D01*
X91873504Y-63325658D01*
X91873505Y-63325658D01*
X91133808Y-62585962D01*
X91197393Y-62568925D01*
X91311407Y-62503099D01*
X91404499Y-62410007D01*
X91470325Y-62295993D01*
X91487362Y-62232408D01*
X92227058Y-62972105D01*
X92227058Y-62972104D01*
X92287314Y-62889169D01*
X92287318Y-62889163D01*
X92394502Y-62678802D01*
X92467465Y-62454247D01*
X92504400Y-62221052D01*
X92504400Y-61984947D01*
X92467465Y-61751752D01*
X92394502Y-61527197D01*
X92287312Y-61316825D01*
X92148877Y-61126285D01*
X92125397Y-61060479D01*
X92141222Y-60992425D01*
X92191328Y-60943730D01*
X92249195Y-60929400D01*
X94187782Y-60929400D01*
X94254821Y-60949085D01*
X94300576Y-61001889D01*
X94310520Y-61071047D01*
X94307558Y-61085485D01*
X94289100Y-61154375D01*
X94289100Y-61273625D01*
X94300675Y-61316825D01*
X94319964Y-61388814D01*
X94335259Y-61415305D01*
X94376413Y-61486585D01*
X94379591Y-61492088D01*
X94381147Y-61494116D01*
X94381927Y-61496133D01*
X94383654Y-61499125D01*
X94383187Y-61499394D01*
X94406339Y-61559286D01*
X94392299Y-61627730D01*
X94381147Y-61645084D01*
X94379591Y-61647111D01*
X94319964Y-61750385D01*
X94297820Y-61833032D01*
X94289100Y-61865575D01*
X94289100Y-61984825D01*
X94299356Y-62023100D01*
X94319964Y-62100014D01*
X94327804Y-62113592D01*
X94379590Y-62203287D01*
X94379592Y-62203289D01*
X94452781Y-62276478D01*
X94486266Y-62337801D01*
X94489100Y-62364159D01*
X94489100Y-63724884D01*
X94480455Y-63754324D01*
X94473932Y-63784311D01*
X94470177Y-63789326D01*
X94469415Y-63791923D01*
X94452781Y-63812565D01*
X94419565Y-63845781D01*
X94358242Y-63879266D01*
X94331884Y-63882100D01*
X89310116Y-63882100D01*
X89243077Y-63862415D01*
X89222435Y-63845781D01*
X89189219Y-63812565D01*
X89155734Y-63751242D01*
X89152900Y-63724884D01*
X89152900Y-60008747D01*
X89152901Y-60008738D01*
X89152901Y-59893696D01*
X89152901Y-59893695D01*
X89132559Y-59844587D01*
X89114399Y-59800743D01*
X89043257Y-59729601D01*
X89043253Y-59729599D01*
X88870611Y-59556957D01*
X88870603Y-59556947D01*
X88789256Y-59475600D01*
X88750196Y-59459421D01*
X88750193Y-59459420D01*
X88734806Y-59453047D01*
X88696305Y-59437099D01*
X88595695Y-59437099D01*
X88595693Y-59437100D01*
X87814959Y-59437100D01*
X87747920Y-59417415D01*
X87727278Y-59400781D01*
X87654089Y-59327592D01*
X87654087Y-59327590D01*
X87582830Y-59286449D01*
X87550814Y-59267964D01*
X87493219Y-59252532D01*
X87435625Y-59237100D01*
X87316375Y-59237100D01*
X87201185Y-59267964D01*
X87097913Y-59327590D01*
X87097910Y-59327592D01*
X87013592Y-59411910D01*
X87013590Y-59411913D01*
X86953964Y-59515185D01*
X86923100Y-59630375D01*
X86923100Y-59749624D01*
X86953964Y-59864814D01*
X86970639Y-59893695D01*
X87013590Y-59968087D01*
X87097913Y-60052410D01*
X87201187Y-60112036D01*
X87316375Y-60142900D01*
X87316377Y-60142900D01*
X87435623Y-60142900D01*
X87435625Y-60142900D01*
X87550813Y-60112036D01*
X87654087Y-60052410D01*
X87727278Y-59979219D01*
X87788601Y-59945734D01*
X87814959Y-59942900D01*
X88489884Y-59942900D01*
X88519324Y-59951544D01*
X88549311Y-59958068D01*
X88554326Y-59961822D01*
X88556923Y-59962585D01*
X88577565Y-59979219D01*
X88610781Y-60012435D01*
X88644266Y-60073758D01*
X88647100Y-60100116D01*
X88647100Y-63820692D01*
X88647099Y-63820706D01*
X88647099Y-63931307D01*
X88659148Y-63960395D01*
X88659149Y-63960397D01*
X88659150Y-63960398D01*
X88669653Y-63985754D01*
X88685601Y-64024257D01*
X88766947Y-64105603D01*
X88766957Y-64105611D01*
X88939599Y-64278253D01*
X88939601Y-64278257D01*
X89010743Y-64349399D01*
X89065193Y-64371952D01*
X89103695Y-64387901D01*
X89103697Y-64387901D01*
X89218739Y-64387901D01*
X89218747Y-64387900D01*
X94086084Y-64387900D01*
X94107329Y-64394138D01*
X94129418Y-64395718D01*
X94140201Y-64403790D01*
X94153123Y-64407585D01*
X94167622Y-64424318D01*
X94185351Y-64437590D01*
X94190058Y-64450210D01*
X94198878Y-64460389D01*
X94202029Y-64482306D01*
X94209768Y-64503054D01*
X94206905Y-64516214D01*
X94208822Y-64529547D01*
X94199622Y-64549690D01*
X94194916Y-64571327D01*
X94181647Y-64589052D01*
X94179797Y-64593103D01*
X94173765Y-64599581D01*
X94038565Y-64734781D01*
X93977242Y-64768266D01*
X93950884Y-64771100D01*
X88202747Y-64771100D01*
X88202739Y-64771099D01*
X88188305Y-64771099D01*
X88087695Y-64771099D01*
X88087693Y-64771099D01*
X88021968Y-64798323D01*
X88021968Y-64798324D01*
X87994743Y-64809601D01*
X87994741Y-64809602D01*
X87923600Y-64880744D01*
X87535625Y-65268718D01*
X87474302Y-65302203D01*
X87404610Y-65297219D01*
X87385943Y-65288424D01*
X87296814Y-65236964D01*
X87239219Y-65221532D01*
X87181625Y-65206100D01*
X87062375Y-65206100D01*
X86947185Y-65236964D01*
X86843913Y-65296590D01*
X86843910Y-65296592D01*
X86759592Y-65380910D01*
X86759590Y-65380913D01*
X86699964Y-65484185D01*
X86669100Y-65599375D01*
X86669100Y-65718624D01*
X86699964Y-65833814D01*
X86722819Y-65873399D01*
X86759590Y-65937087D01*
X86843913Y-66021410D01*
X86909886Y-66059500D01*
X86944701Y-66079601D01*
X86947187Y-66081036D01*
X87062375Y-66111900D01*
X87062377Y-66111900D01*
X87181622Y-66111900D01*
X87181625Y-66111900D01*
X87280786Y-66085330D01*
X87283836Y-66085402D01*
X87286517Y-66083939D01*
X87318536Y-66086228D01*
X87350632Y-66086993D01*
X87353161Y-66088705D01*
X87356209Y-66088923D01*
X87381908Y-66108161D01*
X87408495Y-66126155D01*
X87409697Y-66128963D01*
X87412143Y-66130794D01*
X87423362Y-66160874D01*
X87435999Y-66190384D01*
X87435492Y-66193396D01*
X87436560Y-66196258D01*
X87429736Y-66227626D01*
X87424413Y-66259286D01*
X87422162Y-66262446D01*
X87421709Y-66264531D01*
X87400558Y-66292786D01*
X87253562Y-66439782D01*
X87192242Y-66473266D01*
X87165883Y-66476100D01*
X87062375Y-66476100D01*
X86947185Y-66506964D01*
X86843913Y-66566590D01*
X86843910Y-66566592D01*
X86759592Y-66650910D01*
X86759590Y-66650913D01*
X86699964Y-66754185D01*
X86669100Y-66869375D01*
X86669100Y-66988624D01*
X86699964Y-67103814D01*
X86729777Y-67155450D01*
X86759590Y-67207087D01*
X86843913Y-67291410D01*
X86947187Y-67351036D01*
X87062375Y-67381900D01*
X87062377Y-67381900D01*
X87181623Y-67381900D01*
X87181625Y-67381900D01*
X87296813Y-67351036D01*
X87400087Y-67291410D01*
X87484410Y-67207087D01*
X87544036Y-67103813D01*
X87574900Y-66988625D01*
X87574900Y-66885116D01*
X87594585Y-66818077D01*
X87611219Y-66797434D01*
X87646255Y-66762399D01*
X87825437Y-66583218D01*
X87886760Y-66549734D01*
X87913118Y-66546900D01*
X95072693Y-66546900D01*
X95072695Y-66546901D01*
X95173305Y-66546901D01*
X95211806Y-66530952D01*
X95266257Y-66508399D01*
X95337399Y-66437257D01*
X95337399Y-66437254D01*
X95349314Y-66425340D01*
X95349317Y-66425335D01*
X95520253Y-66254400D01*
X95520257Y-66254399D01*
X95591399Y-66183257D01*
X95613952Y-66128806D01*
X95629901Y-66090305D01*
X95629901Y-65989695D01*
X95629901Y-65979706D01*
X95629900Y-65979692D01*
X95629900Y-64545116D01*
X95649585Y-64478077D01*
X95666219Y-64457435D01*
X96182419Y-63941235D01*
X96243742Y-63907750D01*
X96313434Y-63912734D01*
X96369367Y-63954606D01*
X96393784Y-64020070D01*
X96394100Y-64028916D01*
X96394100Y-66391883D01*
X96374415Y-66458922D01*
X96357781Y-66479564D01*
X95054565Y-67782781D01*
X94993242Y-67816266D01*
X94966884Y-67819100D01*
X92506307Y-67819100D01*
X92506305Y-67819099D01*
X92405695Y-67819099D01*
X92363469Y-67836590D01*
X92348380Y-67842839D01*
X92348378Y-67842840D01*
X92312746Y-67857599D01*
X92312740Y-67857603D01*
X91936084Y-68234260D01*
X91936062Y-68234280D01*
X91860602Y-68309740D01*
X91847134Y-68342256D01*
X91822099Y-68402693D01*
X91822099Y-68517738D01*
X91822100Y-68517747D01*
X91822100Y-69693884D01*
X91813455Y-69723324D01*
X91806932Y-69753311D01*
X91803177Y-69758326D01*
X91802415Y-69760923D01*
X91785781Y-69781565D01*
X91752565Y-69814781D01*
X91691242Y-69848266D01*
X91664884Y-69851100D01*
X89315533Y-69851100D01*
X89248494Y-69831415D01*
X89202739Y-69778611D01*
X89192795Y-69709453D01*
X89208147Y-69665098D01*
X89220435Y-69643815D01*
X89220436Y-69643813D01*
X89251300Y-69528625D01*
X89251300Y-69409375D01*
X89220436Y-69294187D01*
X89160810Y-69190913D01*
X89087619Y-69117722D01*
X89054134Y-69056399D01*
X89051300Y-69030041D01*
X89051300Y-68637959D01*
X89070985Y-68570920D01*
X89087619Y-68550278D01*
X89120159Y-68517738D01*
X89160810Y-68477087D01*
X89220436Y-68373813D01*
X89251300Y-68258625D01*
X89251300Y-68139375D01*
X89220436Y-68024187D01*
X89160810Y-67920913D01*
X89076487Y-67836590D01*
X89024850Y-67806777D01*
X88973214Y-67776964D01*
X88915619Y-67761532D01*
X88858025Y-67746100D01*
X88738775Y-67746100D01*
X88623585Y-67776964D01*
X88520313Y-67836590D01*
X88520310Y-67836592D01*
X88435992Y-67920910D01*
X88435990Y-67920913D01*
X88376364Y-68024185D01*
X88348652Y-68127611D01*
X88345500Y-68139375D01*
X88345500Y-68258625D01*
X88359196Y-68309740D01*
X88376364Y-68373814D01*
X88393038Y-68402693D01*
X88435990Y-68477087D01*
X88435992Y-68477089D01*
X88509181Y-68550278D01*
X88542666Y-68611601D01*
X88545500Y-68637959D01*
X88545500Y-69030041D01*
X88525815Y-69097080D01*
X88509181Y-69117722D01*
X88435992Y-69190910D01*
X88435990Y-69190913D01*
X88376364Y-69294185D01*
X88345500Y-69409375D01*
X88345500Y-69528624D01*
X88376364Y-69643815D01*
X88388653Y-69665098D01*
X88405127Y-69732998D01*
X88382275Y-69799026D01*
X88327355Y-69842217D01*
X88281267Y-69851100D01*
X87807307Y-69851100D01*
X87807305Y-69851099D01*
X87706695Y-69851099D01*
X87662272Y-69869500D01*
X87647354Y-69875678D01*
X87647353Y-69875679D01*
X87613746Y-69889599D01*
X87613740Y-69889603D01*
X86989100Y-70514243D01*
X86989093Y-70514251D01*
X86978746Y-70524599D01*
X86978743Y-70524601D01*
X86907601Y-70595743D01*
X86889891Y-70638500D01*
X86883792Y-70653222D01*
X86883790Y-70653226D01*
X86869099Y-70688694D01*
X86869099Y-70803738D01*
X86869100Y-70803747D01*
X86869100Y-71570041D01*
X86849415Y-71637080D01*
X86832781Y-71657722D01*
X86759592Y-71730910D01*
X86759590Y-71730913D01*
X86699964Y-71834185D01*
X86669100Y-71949375D01*
X86669100Y-72068624D01*
X86699964Y-72183814D01*
X86729777Y-72235450D01*
X86759590Y-72287087D01*
X86843913Y-72371410D01*
X86947187Y-72431036D01*
X87062375Y-72461900D01*
X87062377Y-72461900D01*
X87181623Y-72461900D01*
X87181625Y-72461900D01*
X87296813Y-72431036D01*
X87400087Y-72371410D01*
X87484410Y-72287087D01*
X87544036Y-72183813D01*
X87574900Y-72068625D01*
X87574900Y-71949375D01*
X87544036Y-71834187D01*
X87484410Y-71730913D01*
X87411219Y-71657722D01*
X87377734Y-71596399D01*
X87374900Y-71570041D01*
X87374900Y-70895116D01*
X87394585Y-70828077D01*
X87411219Y-70807435D01*
X87825436Y-70393219D01*
X87886759Y-70359734D01*
X87913117Y-70356900D01*
X91770693Y-70356900D01*
X91770695Y-70356901D01*
X91871305Y-70356901D01*
X91909806Y-70340952D01*
X91964257Y-70318399D01*
X92035399Y-70247257D01*
X92035399Y-70247254D01*
X92047309Y-70235345D01*
X92047313Y-70235340D01*
X92118421Y-70164231D01*
X92179743Y-70130749D01*
X92249434Y-70135734D01*
X92305368Y-70177605D01*
X92329784Y-70243070D01*
X92330100Y-70251915D01*
X92330100Y-71344883D01*
X92310415Y-71411922D01*
X92293781Y-71432564D01*
X92206564Y-71519781D01*
X92145241Y-71553266D01*
X92118883Y-71556100D01*
X92015375Y-71556100D01*
X91900185Y-71586964D01*
X91796913Y-71646590D01*
X91796910Y-71646592D01*
X91712592Y-71730910D01*
X91712590Y-71730913D01*
X91652964Y-71834185D01*
X91622100Y-71949375D01*
X91622100Y-72068624D01*
X91652964Y-72183814D01*
X91682777Y-72235450D01*
X91712590Y-72287087D01*
X91796913Y-72371410D01*
X91900187Y-72431036D01*
X92015375Y-72461900D01*
X92015377Y-72461900D01*
X92134623Y-72461900D01*
X92134625Y-72461900D01*
X92249813Y-72431036D01*
X92353087Y-72371410D01*
X92437410Y-72287087D01*
X92497036Y-72183813D01*
X92527900Y-72068625D01*
X92527900Y-71965115D01*
X92536544Y-71935674D01*
X92543068Y-71905688D01*
X92546822Y-71900672D01*
X92547585Y-71898076D01*
X92564219Y-71877434D01*
X92607468Y-71834185D01*
X92708814Y-71732840D01*
X92708818Y-71732837D01*
X92726256Y-71715399D01*
X92726257Y-71715399D01*
X92797399Y-71644257D01*
X92821130Y-71586964D01*
X92835901Y-71551305D01*
X92835901Y-71450695D01*
X92835900Y-71450692D01*
X92835900Y-68863116D01*
X92855585Y-68796077D01*
X92872219Y-68775435D01*
X92905435Y-68742219D01*
X92966758Y-68708734D01*
X92993116Y-68705900D01*
X97612693Y-68705900D01*
X97612695Y-68705901D01*
X97713305Y-68705901D01*
X97751806Y-68689952D01*
X97806257Y-68667399D01*
X97877399Y-68596257D01*
X97877399Y-68596254D01*
X97889314Y-68584340D01*
X97889317Y-68584335D01*
X98048335Y-68425318D01*
X98048343Y-68425312D01*
X98060255Y-68413399D01*
X98060257Y-68413399D01*
X98131399Y-68342257D01*
X98131399Y-68342255D01*
X98131401Y-68342254D01*
X98158540Y-68276731D01*
X98166040Y-68258625D01*
X98169901Y-68249305D01*
X98169901Y-68148695D01*
X98169900Y-68148692D01*
X98169900Y-63902116D01*
X98189585Y-63835077D01*
X98206219Y-63814435D01*
X98239435Y-63781219D01*
X98300758Y-63747734D01*
X98327116Y-63744900D01*
X103991930Y-63744900D01*
X103992867Y-63744904D01*
X104007025Y-63745011D01*
X104009174Y-63745901D01*
X104109784Y-63745901D01*
X104109786Y-63745900D01*
X104409774Y-63745900D01*
X104409782Y-63745901D01*
X104464041Y-63745901D01*
X104531080Y-63765586D01*
X104551722Y-63782219D01*
X104623913Y-63854410D01*
X104727187Y-63914036D01*
X104842375Y-63944900D01*
X104842377Y-63944900D01*
X104961623Y-63944900D01*
X104961625Y-63944900D01*
X105076813Y-63914036D01*
X105180087Y-63854410D01*
X105264410Y-63770087D01*
X105324036Y-63666813D01*
X105354900Y-63551625D01*
X105354900Y-63432375D01*
X105324036Y-63317187D01*
X105264410Y-63213913D01*
X105180087Y-63129590D01*
X105113917Y-63091386D01*
X105065702Y-63040820D01*
X105052480Y-62972213D01*
X105078448Y-62907348D01*
X105113918Y-62876613D01*
X105180087Y-62838410D01*
X105264410Y-62754087D01*
X105324036Y-62650813D01*
X105354900Y-62535625D01*
X105354900Y-62416375D01*
X105324036Y-62301187D01*
X105264410Y-62197913D01*
X105180087Y-62113590D01*
X105128450Y-62083777D01*
X105076814Y-62053964D01*
X105008370Y-62035625D01*
X104961625Y-62023100D01*
X104842695Y-62023100D01*
X104775656Y-62003415D01*
X104729901Y-61950611D01*
X104722301Y-61924145D01*
X104722003Y-61924225D01*
X104719900Y-61916375D01*
X104689036Y-61801187D01*
X104629410Y-61697913D01*
X104610078Y-61678581D01*
X104576593Y-61617258D01*
X104581577Y-61547566D01*
X104623449Y-61491633D01*
X104688913Y-61467216D01*
X104697759Y-61466900D01*
X106121693Y-61466900D01*
X106121695Y-61466901D01*
X106222305Y-61466901D01*
X106260806Y-61450952D01*
X106315257Y-61428399D01*
X106386399Y-61357257D01*
X106386399Y-61357254D01*
X106398309Y-61345345D01*
X106398313Y-61345340D01*
X106548436Y-61195216D01*
X106609757Y-61161734D01*
X106636115Y-61158900D01*
X106739623Y-61158900D01*
X106739625Y-61158900D01*
X106854813Y-61128036D01*
X106958087Y-61068410D01*
X107042410Y-60984087D01*
X107102036Y-60880813D01*
X107132900Y-60765625D01*
X107132900Y-60646375D01*
X107102036Y-60531187D01*
X107042410Y-60427913D01*
X106958087Y-60343590D01*
X106906450Y-60313777D01*
X106854814Y-60283964D01*
X106797219Y-60268532D01*
X106739625Y-60253100D01*
X106620375Y-60253100D01*
X106505185Y-60283964D01*
X106401913Y-60343590D01*
X106401910Y-60343592D01*
X106317592Y-60427910D01*
X106317590Y-60427913D01*
X106257964Y-60531185D01*
X106227100Y-60646375D01*
X106227100Y-60749882D01*
X106218456Y-60779318D01*
X106211933Y-60809308D01*
X106208177Y-60814325D01*
X106207415Y-60816921D01*
X106190782Y-60837563D01*
X106103565Y-60924781D01*
X106042242Y-60958266D01*
X106015883Y-60961100D01*
X101664309Y-60961100D01*
X101597270Y-60941415D01*
X101551515Y-60888611D01*
X101540624Y-60828265D01*
X101569220Y-60427913D01*
X101622999Y-59675008D01*
X101647409Y-59609546D01*
X101703339Y-59567669D01*
X101773030Y-59562678D01*
X101790016Y-59567665D01*
X101911020Y-59612796D01*
X101911027Y-59612798D01*
X101970555Y-59619199D01*
X101970572Y-59619200D01*
X102518400Y-59619200D01*
X103018400Y-59619200D01*
X103566228Y-59619200D01*
X103566244Y-59619199D01*
X103625772Y-59612798D01*
X103625779Y-59612796D01*
X103760486Y-59562554D01*
X103760493Y-59562550D01*
X103875587Y-59476390D01*
X103875590Y-59476387D01*
X103961750Y-59361293D01*
X103961754Y-59361286D01*
X104011996Y-59226579D01*
X104011998Y-59226572D01*
X104018399Y-59167044D01*
X104018400Y-59167027D01*
X104018400Y-58619200D01*
X103018400Y-58619200D01*
X103018400Y-59619200D01*
X102518400Y-59619200D01*
X102518400Y-58493200D01*
X102538085Y-58426161D01*
X102590889Y-58380406D01*
X102642400Y-58369200D01*
X102768400Y-58369200D01*
X102768400Y-58243200D01*
X102788085Y-58176161D01*
X102840889Y-58130406D01*
X102892400Y-58119200D01*
X104018400Y-58119200D01*
X104018400Y-57571372D01*
X104018399Y-57571366D01*
X104017893Y-57566653D01*
X104030300Y-57497894D01*
X104077911Y-57446757D01*
X104141183Y-57429400D01*
X108357184Y-57429400D01*
X108424223Y-57449085D01*
X108469978Y-57501889D01*
X108481164Y-57555593D01*
X108421400Y-60929400D01*
X109359400Y-60929400D01*
X109426439Y-60949085D01*
X109472194Y-61001889D01*
X109483400Y-61053400D01*
X109483400Y-75857318D01*
X109463715Y-75924357D01*
X109410911Y-75970112D01*
X109341753Y-75980056D01*
X109278197Y-75951031D01*
X109259082Y-75930203D01*
X109150109Y-75780214D01*
X109150105Y-75780209D01*
X108999786Y-75629890D01*
X108827820Y-75504951D01*
X108638414Y-75408444D01*
X108638413Y-75408443D01*
X108638412Y-75408443D01*
X108436243Y-75342754D01*
X108436241Y-75342753D01*
X108436240Y-75342753D01*
X108274957Y-75317208D01*
X108226287Y-75309500D01*
X108013713Y-75309500D01*
X107965042Y-75317208D01*
X107803760Y-75342753D01*
X107601585Y-75408444D01*
X107412179Y-75504951D01*
X107240213Y-75629890D01*
X107089890Y-75780213D01*
X106964951Y-75952179D01*
X106868444Y-76141585D01*
X106802753Y-76343760D01*
X106774228Y-76523860D01*
X106769500Y-76553713D01*
X106769500Y-76766287D01*
X106802754Y-76976243D01*
X106851800Y-77127191D01*
X106868444Y-77178414D01*
X106964951Y-77367820D01*
X107089890Y-77539786D01*
X107240213Y-77690109D01*
X107412179Y-77815048D01*
X107412181Y-77815049D01*
X107412184Y-77815051D01*
X107601588Y-77911557D01*
X107803757Y-77977246D01*
X108013713Y-78010500D01*
X108013714Y-78010500D01*
X108226286Y-78010500D01*
X108226287Y-78010500D01*
X108436243Y-77977246D01*
X108638412Y-77911557D01*
X108827816Y-77815051D01*
X108929734Y-77741004D01*
X108999786Y-77690109D01*
X108999788Y-77690106D01*
X108999792Y-77690104D01*
X109150104Y-77539792D01*
X109259082Y-77389794D01*
X109314411Y-77347130D01*
X109384024Y-77341151D01*
X109445820Y-77373756D01*
X109480177Y-77434595D01*
X109483400Y-77462681D01*
X109483400Y-86705400D01*
X109463715Y-86772439D01*
X109410911Y-86818194D01*
X109359400Y-86829400D01*
X84207400Y-86829400D01*
X84140361Y-86809715D01*
X84094606Y-86756911D01*
X84083400Y-86705400D01*
X84083400Y-82621553D01*
X85264000Y-82621553D01*
X85264000Y-82834046D01*
X85297242Y-83043927D01*
X85297242Y-83043930D01*
X85362904Y-83246017D01*
X85459375Y-83435350D01*
X85498728Y-83489516D01*
X86131037Y-82857208D01*
X86148075Y-82920793D01*
X86213901Y-83034807D01*
X86306993Y-83127899D01*
X86421007Y-83193725D01*
X86484590Y-83210762D01*
X85852282Y-83843069D01*
X85852282Y-83843070D01*
X85906449Y-83882424D01*
X86095782Y-83978895D01*
X86297870Y-84044557D01*
X86507754Y-84077800D01*
X86720246Y-84077800D01*
X86930127Y-84044557D01*
X86930130Y-84044557D01*
X87132217Y-83978895D01*
X87321554Y-83882422D01*
X87375716Y-83843070D01*
X87375717Y-83843070D01*
X86743408Y-83210762D01*
X86806993Y-83193725D01*
X86921007Y-83127899D01*
X87014099Y-83034807D01*
X87079925Y-82920793D01*
X87096962Y-82857208D01*
X87729270Y-83489517D01*
X87729270Y-83489516D01*
X87768622Y-83435354D01*
X87865095Y-83246017D01*
X87930756Y-83043933D01*
X87938971Y-82992062D01*
X87968900Y-82928927D01*
X88028211Y-82891995D01*
X88098073Y-82892991D01*
X88156307Y-82931600D01*
X88183062Y-82987264D01*
X88189640Y-83020331D01*
X88189641Y-83020336D01*
X88265237Y-83202843D01*
X88265243Y-83202854D01*
X88374997Y-83367114D01*
X88514685Y-83506802D01*
X88514688Y-83506804D01*
X88678949Y-83616559D01*
X88861465Y-83692159D01*
X88861467Y-83692159D01*
X88861472Y-83692161D01*
X89055218Y-83730699D01*
X89055221Y-83730700D01*
X89055223Y-83730700D01*
X89252779Y-83730700D01*
X89252780Y-83730699D01*
X89317363Y-83717853D01*
X89446527Y-83692161D01*
X89446530Y-83692159D01*
X89446535Y-83692159D01*
X89629051Y-83616559D01*
X89793312Y-83506804D01*
X89933004Y-83367112D01*
X90042759Y-83202851D01*
X90118359Y-83020335D01*
X90123108Y-82996464D01*
X90155069Y-82835781D01*
X90156900Y-82826577D01*
X90156900Y-82629023D01*
X90156900Y-82629020D01*
X90156899Y-82629018D01*
X90691100Y-82629018D01*
X90691100Y-82826581D01*
X90729638Y-83020327D01*
X90729641Y-83020336D01*
X90805237Y-83202843D01*
X90805243Y-83202854D01*
X90914997Y-83367114D01*
X91054685Y-83506802D01*
X91054688Y-83506804D01*
X91218949Y-83616559D01*
X91401465Y-83692159D01*
X91401467Y-83692159D01*
X91401472Y-83692161D01*
X91595218Y-83730699D01*
X91595221Y-83730700D01*
X91595223Y-83730700D01*
X91792779Y-83730700D01*
X91792780Y-83730699D01*
X91857363Y-83717853D01*
X91986527Y-83692161D01*
X91986530Y-83692159D01*
X91986535Y-83692159D01*
X92169051Y-83616559D01*
X92333312Y-83506804D01*
X92473004Y-83367112D01*
X92582759Y-83202851D01*
X92658359Y-83020335D01*
X92663108Y-82996464D01*
X92695069Y-82835781D01*
X92696900Y-82826577D01*
X92696900Y-82629023D01*
X92696900Y-82629020D01*
X92696899Y-82629018D01*
X92658361Y-82435272D01*
X92658358Y-82435263D01*
X92652364Y-82420793D01*
X92582759Y-82252749D01*
X92473004Y-82088488D01*
X92473002Y-82088485D01*
X92333315Y-81948798D01*
X92204519Y-81862740D01*
X93231100Y-81862740D01*
X93231100Y-83592854D01*
X93239972Y-83637458D01*
X93239973Y-83637461D01*
X93273765Y-83688033D01*
X93273766Y-83688034D01*
X93324342Y-83721828D01*
X93324343Y-83721828D01*
X93324345Y-83721829D01*
X93346642Y-83726264D01*
X93368943Y-83730700D01*
X95099056Y-83730699D01*
X95143658Y-83721828D01*
X95194234Y-83688034D01*
X95228028Y-83637458D01*
X95236900Y-83592857D01*
X95236899Y-81862744D01*
X95228028Y-81818142D01*
X95228026Y-81818140D01*
X95228026Y-81818138D01*
X95194234Y-81767566D01*
X95194233Y-81767565D01*
X95143658Y-81733772D01*
X95143657Y-81733771D01*
X95143656Y-81733771D01*
X95143654Y-81733770D01*
X95099059Y-81724900D01*
X93368945Y-81724900D01*
X93324341Y-81733772D01*
X93324338Y-81733773D01*
X93273766Y-81767565D01*
X93239971Y-81818143D01*
X93239970Y-81818145D01*
X93231100Y-81862740D01*
X92204519Y-81862740D01*
X92169054Y-81839043D01*
X92169053Y-81839042D01*
X92169051Y-81839041D01*
X92169048Y-81839039D01*
X92169043Y-81839037D01*
X91986536Y-81763441D01*
X91986527Y-81763438D01*
X91792780Y-81724900D01*
X91792777Y-81724900D01*
X91595223Y-81724900D01*
X91595220Y-81724900D01*
X91401472Y-81763438D01*
X91401463Y-81763441D01*
X91218956Y-81839037D01*
X91218945Y-81839043D01*
X91054685Y-81948797D01*
X90914997Y-82088485D01*
X90805243Y-82252745D01*
X90805237Y-82252756D01*
X90729641Y-82435263D01*
X90729638Y-82435272D01*
X90691100Y-82629018D01*
X90156899Y-82629018D01*
X90118361Y-82435272D01*
X90118358Y-82435263D01*
X90112364Y-82420793D01*
X90060742Y-82296164D01*
X90053273Y-82226695D01*
X90084548Y-82164216D01*
X90087593Y-82161060D01*
X91949436Y-80299219D01*
X92010759Y-80265734D01*
X92037117Y-80262900D01*
X93370895Y-80262900D01*
X94183693Y-80262900D01*
X94183695Y-80262901D01*
X94284305Y-80262901D01*
X94284307Y-80262900D01*
X98716884Y-80262900D01*
X98783923Y-80282585D01*
X98804564Y-80299218D01*
X99866729Y-81361384D01*
X99900214Y-81422706D01*
X99895230Y-81492398D01*
X99853358Y-81548331D01*
X99787894Y-81572748D01*
X99722753Y-81559549D01*
X99578217Y-81485904D01*
X99376129Y-81420242D01*
X99166246Y-81387000D01*
X98953754Y-81387000D01*
X98743872Y-81420242D01*
X98743869Y-81420242D01*
X98541782Y-81485904D01*
X98352439Y-81582380D01*
X98298282Y-81621727D01*
X98298282Y-81621728D01*
X98930591Y-82254037D01*
X98867007Y-82271075D01*
X98752993Y-82336901D01*
X98659901Y-82429993D01*
X98594075Y-82544007D01*
X98577037Y-82607591D01*
X97944728Y-81975282D01*
X97944727Y-81975282D01*
X97905380Y-82029439D01*
X97808904Y-82218782D01*
X97743242Y-82420869D01*
X97743242Y-82420872D01*
X97710000Y-82630753D01*
X97710000Y-82843246D01*
X97743242Y-83053127D01*
X97743242Y-83053130D01*
X97808904Y-83255217D01*
X97905375Y-83444550D01*
X97944728Y-83498716D01*
X98577037Y-82866408D01*
X98594075Y-82929993D01*
X98659901Y-83044007D01*
X98752993Y-83137099D01*
X98867007Y-83202925D01*
X98930590Y-83219962D01*
X98298282Y-83852269D01*
X98298282Y-83852270D01*
X98352449Y-83891624D01*
X98541782Y-83988095D01*
X98743870Y-84053757D01*
X98953754Y-84087000D01*
X99166246Y-84087000D01*
X99376127Y-84053757D01*
X99376130Y-84053757D01*
X99578217Y-83988095D01*
X99767554Y-83891622D01*
X99821716Y-83852270D01*
X99821717Y-83852270D01*
X99189408Y-83219962D01*
X99252993Y-83202925D01*
X99367007Y-83137099D01*
X99460099Y-83044007D01*
X99525925Y-82929993D01*
X99542962Y-82866408D01*
X100175270Y-83498717D01*
X100175270Y-83498716D01*
X100214622Y-83444554D01*
X100311095Y-83255217D01*
X100376756Y-83053133D01*
X100384971Y-83001262D01*
X100414900Y-82938127D01*
X100474211Y-82901195D01*
X100544073Y-82902191D01*
X100602307Y-82940800D01*
X100629062Y-82996464D01*
X100635640Y-83029531D01*
X100635641Y-83029536D01*
X100711237Y-83212043D01*
X100711243Y-83212054D01*
X100820997Y-83376314D01*
X100960685Y-83516002D01*
X100960688Y-83516004D01*
X101124949Y-83625759D01*
X101307465Y-83701359D01*
X101307467Y-83701359D01*
X101307472Y-83701361D01*
X101501218Y-83739899D01*
X101501221Y-83739900D01*
X101501223Y-83739900D01*
X101698779Y-83739900D01*
X101698780Y-83739899D01*
X101789636Y-83721827D01*
X101892527Y-83701361D01*
X101892530Y-83701359D01*
X101892535Y-83701359D01*
X102075051Y-83625759D01*
X102239312Y-83516004D01*
X102379004Y-83376312D01*
X102488759Y-83212051D01*
X102564359Y-83029535D01*
X102570938Y-82996464D01*
X102591519Y-82892991D01*
X102602900Y-82835777D01*
X102602900Y-82638223D01*
X102602900Y-82638220D01*
X102602899Y-82638218D01*
X103137100Y-82638218D01*
X103137100Y-82835781D01*
X103175638Y-83029527D01*
X103175641Y-83029536D01*
X103251237Y-83212043D01*
X103251243Y-83212054D01*
X103360997Y-83376314D01*
X103500685Y-83516002D01*
X103500688Y-83516004D01*
X103664949Y-83625759D01*
X103847465Y-83701359D01*
X103847467Y-83701359D01*
X103847472Y-83701361D01*
X104041218Y-83739899D01*
X104041221Y-83739900D01*
X104041223Y-83739900D01*
X104238779Y-83739900D01*
X104238780Y-83739899D01*
X104329636Y-83721827D01*
X104432527Y-83701361D01*
X104432530Y-83701359D01*
X104432535Y-83701359D01*
X104615051Y-83625759D01*
X104779312Y-83516004D01*
X104919004Y-83376312D01*
X105028759Y-83212051D01*
X105104359Y-83029535D01*
X105110938Y-82996464D01*
X105131519Y-82892991D01*
X105142900Y-82835777D01*
X105142900Y-82638223D01*
X105142900Y-82638220D01*
X105142899Y-82638218D01*
X105104361Y-82444472D01*
X105104358Y-82444463D01*
X105100549Y-82435268D01*
X105028759Y-82261949D01*
X104919004Y-82097688D01*
X104919002Y-82097685D01*
X104779315Y-81957998D01*
X104650519Y-81871940D01*
X105677100Y-81871940D01*
X105677100Y-83602054D01*
X105685972Y-83646658D01*
X105685973Y-83646661D01*
X105716374Y-83692158D01*
X105719766Y-83697234D01*
X105770342Y-83731028D01*
X105770343Y-83731028D01*
X105770345Y-83731029D01*
X105792642Y-83735464D01*
X105814943Y-83739900D01*
X107545056Y-83739899D01*
X107589658Y-83731028D01*
X107640234Y-83697234D01*
X107674028Y-83646658D01*
X107682900Y-83602057D01*
X107682899Y-81871944D01*
X107674028Y-81827342D01*
X107674026Y-81827340D01*
X107674026Y-81827338D01*
X107640234Y-81776766D01*
X107640233Y-81776765D01*
X107589658Y-81742972D01*
X107589657Y-81742971D01*
X107589656Y-81742971D01*
X107589654Y-81742970D01*
X107545059Y-81734100D01*
X105814945Y-81734100D01*
X105770341Y-81742972D01*
X105770338Y-81742973D01*
X105719766Y-81776765D01*
X105685971Y-81827343D01*
X105685970Y-81827345D01*
X105677100Y-81871940D01*
X104650519Y-81871940D01*
X104615054Y-81848243D01*
X104615053Y-81848242D01*
X104615051Y-81848241D01*
X104615048Y-81848239D01*
X104615043Y-81848237D01*
X104432536Y-81772641D01*
X104432527Y-81772638D01*
X104238780Y-81734100D01*
X104238777Y-81734100D01*
X104041223Y-81734100D01*
X104041220Y-81734100D01*
X103847472Y-81772638D01*
X103847463Y-81772641D01*
X103664956Y-81848237D01*
X103664945Y-81848243D01*
X103500685Y-81957997D01*
X103360997Y-82097685D01*
X103251243Y-82261945D01*
X103251237Y-82261956D01*
X103175641Y-82444463D01*
X103175638Y-82444472D01*
X103137100Y-82638218D01*
X102602899Y-82638218D01*
X102564361Y-82444472D01*
X102564358Y-82444463D01*
X102560549Y-82435268D01*
X102488759Y-82261949D01*
X102379004Y-82097688D01*
X102379002Y-82097685D01*
X102239314Y-81957997D01*
X102075054Y-81848243D01*
X102075053Y-81848242D01*
X102075051Y-81848241D01*
X102075048Y-81848239D01*
X102075043Y-81848237D01*
X101892536Y-81772641D01*
X101892527Y-81772638D01*
X101698780Y-81734100D01*
X101698777Y-81734100D01*
X101501223Y-81734100D01*
X101501220Y-81734100D01*
X101307472Y-81772638D01*
X101307463Y-81772641D01*
X101161859Y-81832952D01*
X101092390Y-81840421D01*
X101029911Y-81809145D01*
X101026753Y-81806098D01*
X99087400Y-79866746D01*
X99087399Y-79866743D01*
X99016257Y-79795601D01*
X98961806Y-79773047D01*
X98947626Y-79767173D01*
X98923307Y-79757099D01*
X98923305Y-79757099D01*
X98822695Y-79757099D01*
X98808261Y-79757099D01*
X98808253Y-79757100D01*
X95143916Y-79757100D01*
X95076877Y-79737415D01*
X95031122Y-79684611D01*
X95021178Y-79615453D01*
X95050203Y-79551897D01*
X95056235Y-79545419D01*
X95115900Y-79485753D01*
X95520253Y-79081400D01*
X95520257Y-79081399D01*
X95591399Y-79010257D01*
X95613952Y-78955806D01*
X95629901Y-78917305D01*
X95629901Y-78816695D01*
X95629901Y-78806706D01*
X95629900Y-78806692D01*
X95629900Y-78025630D01*
X95649585Y-77958591D01*
X95702389Y-77912836D01*
X95706435Y-77911074D01*
X95852051Y-77850759D01*
X96016312Y-77741004D01*
X96156004Y-77601312D01*
X96265759Y-77437051D01*
X96341359Y-77254535D01*
X96344643Y-77238029D01*
X96379899Y-77060781D01*
X96379900Y-77060779D01*
X96379900Y-76863220D01*
X96379899Y-76863218D01*
X96341361Y-76669472D01*
X96341358Y-76669463D01*
X96335364Y-76654993D01*
X96265759Y-76486949D01*
X96156004Y-76322688D01*
X96156002Y-76322685D01*
X96016314Y-76182997D01*
X95852054Y-76073243D01*
X95852053Y-76073242D01*
X95852051Y-76073241D01*
X95852049Y-76073240D01*
X95852047Y-76073239D01*
X95706447Y-76012930D01*
X95652044Y-75969089D01*
X95629979Y-75902795D01*
X95629900Y-75898369D01*
X95629900Y-75022299D01*
X95649585Y-74955260D01*
X95702389Y-74909505D01*
X95753900Y-74898299D01*
X95817055Y-74898299D01*
X95817056Y-74898299D01*
X95861658Y-74889428D01*
X95912234Y-74855634D01*
X95946028Y-74805058D01*
X95954900Y-74760457D01*
X95954899Y-73880344D01*
X95952760Y-73869589D01*
X95952762Y-73821205D01*
X95952878Y-73820618D01*
X95954900Y-73810457D01*
X95954899Y-72930344D01*
X95954898Y-72930340D01*
X96551700Y-72930340D01*
X96551700Y-73810453D01*
X96551701Y-73810457D01*
X96553840Y-73821213D01*
X96553840Y-73869577D01*
X96551700Y-73880335D01*
X96551700Y-74760454D01*
X96560572Y-74805058D01*
X96560573Y-74805061D01*
X96594365Y-74855633D01*
X96594366Y-74855634D01*
X96644942Y-74889428D01*
X96644943Y-74889428D01*
X96644945Y-74889429D01*
X96667242Y-74893864D01*
X96689543Y-74898300D01*
X96752700Y-74898299D01*
X96819738Y-74917983D01*
X96865494Y-74970786D01*
X96876700Y-75022299D01*
X96876700Y-76124292D01*
X96876699Y-76124295D01*
X96876699Y-76224905D01*
X96892647Y-76263406D01*
X96898953Y-76278632D01*
X96898954Y-76278633D01*
X96915200Y-76317856D01*
X96986071Y-76388727D01*
X97019556Y-76450050D01*
X97014572Y-76519742D01*
X97012952Y-76523860D01*
X96952641Y-76669465D01*
X96952640Y-76669469D01*
X96952639Y-76669472D01*
X96952638Y-76669472D01*
X96914100Y-76863218D01*
X96914100Y-77060781D01*
X96952638Y-77254527D01*
X96952641Y-77254536D01*
X97028237Y-77437043D01*
X97028243Y-77437054D01*
X97137997Y-77601314D01*
X97277685Y-77741002D01*
X97277688Y-77741004D01*
X97441949Y-77850759D01*
X97441955Y-77850761D01*
X97441956Y-77850762D01*
X97492394Y-77871654D01*
X97624465Y-77926359D01*
X97624467Y-77926359D01*
X97624472Y-77926361D01*
X97818218Y-77964899D01*
X97818221Y-77964900D01*
X97818223Y-77964900D01*
X98015779Y-77964900D01*
X98015780Y-77964899D01*
X98080363Y-77952053D01*
X98209527Y-77926361D01*
X98209530Y-77926359D01*
X98209535Y-77926359D01*
X98392051Y-77850759D01*
X98556312Y-77741004D01*
X98696004Y-77601312D01*
X98805759Y-77437051D01*
X98881359Y-77254535D01*
X98884643Y-77238029D01*
X98919899Y-77060781D01*
X98919900Y-77060779D01*
X98919900Y-76863220D01*
X98919899Y-76863218D01*
X98881361Y-76669472D01*
X98881358Y-76669463D01*
X98875364Y-76654993D01*
X98805759Y-76486949D01*
X98696004Y-76322688D01*
X98696002Y-76322685D01*
X98556315Y-76182998D01*
X98427519Y-76096940D01*
X99454100Y-76096940D01*
X99454100Y-77827054D01*
X99462972Y-77871658D01*
X99462973Y-77871661D01*
X99490486Y-77912836D01*
X99496766Y-77922234D01*
X99547342Y-77956028D01*
X99547343Y-77956028D01*
X99547345Y-77956029D01*
X99569642Y-77960464D01*
X99591943Y-77964900D01*
X101322056Y-77964899D01*
X101366658Y-77956028D01*
X101417234Y-77922234D01*
X101451028Y-77871658D01*
X101459900Y-77827057D01*
X101459899Y-76096944D01*
X101451028Y-76052342D01*
X101451026Y-76052340D01*
X101451026Y-76052338D01*
X101417234Y-76001766D01*
X101417233Y-76001765D01*
X101366658Y-75967972D01*
X101366657Y-75967971D01*
X101366656Y-75967971D01*
X101366654Y-75967970D01*
X101322059Y-75959100D01*
X99591945Y-75959100D01*
X99547341Y-75967972D01*
X99547338Y-75967973D01*
X99496766Y-76001765D01*
X99462971Y-76052343D01*
X99462970Y-76052345D01*
X99454100Y-76096940D01*
X98427519Y-76096940D01*
X98392054Y-76073243D01*
X98392053Y-76073242D01*
X98392051Y-76073241D01*
X98392048Y-76073239D01*
X98392043Y-76073237D01*
X98209536Y-75997641D01*
X98209527Y-75997638D01*
X98015780Y-75959100D01*
X98015777Y-75959100D01*
X97818223Y-75959100D01*
X97818220Y-75959100D01*
X97624472Y-75997638D01*
X97624463Y-75997641D01*
X97553952Y-76026848D01*
X97484483Y-76034317D01*
X97422004Y-76003041D01*
X97386352Y-75942952D01*
X97382500Y-75912287D01*
X97382500Y-75022299D01*
X97402185Y-74955260D01*
X97454989Y-74909505D01*
X97506500Y-74898299D01*
X97569655Y-74898299D01*
X97569656Y-74898299D01*
X97614258Y-74889428D01*
X97664834Y-74855634D01*
X97698628Y-74805058D01*
X97707500Y-74760457D01*
X97707499Y-73880344D01*
X97705360Y-73869589D01*
X97705362Y-73821205D01*
X97705478Y-73820618D01*
X97707500Y-73810457D01*
X97707499Y-72930344D01*
X97698628Y-72885742D01*
X97698626Y-72885740D01*
X97698626Y-72885738D01*
X97664834Y-72835166D01*
X97614259Y-72801373D01*
X97614258Y-72801372D01*
X97614257Y-72801371D01*
X97614256Y-72801371D01*
X97614254Y-72801370D01*
X97569659Y-72792500D01*
X97569657Y-72792500D01*
X97506500Y-72792500D01*
X97439461Y-72772815D01*
X97393706Y-72720011D01*
X97382500Y-72668500D01*
X97382500Y-71201376D01*
X97402185Y-71134337D01*
X97431016Y-71102998D01*
X97433076Y-71101415D01*
X97433087Y-71101410D01*
X97517410Y-71017087D01*
X97577036Y-70913813D01*
X97607900Y-70798625D01*
X97607900Y-70679375D01*
X97577036Y-70564187D01*
X97517410Y-70460913D01*
X97433087Y-70376590D01*
X97360314Y-70334574D01*
X97329814Y-70316964D01*
X97272219Y-70301532D01*
X97214625Y-70286100D01*
X97095375Y-70286100D01*
X96980185Y-70316964D01*
X96876913Y-70376590D01*
X96876910Y-70376592D01*
X96792592Y-70460910D01*
X96792590Y-70460913D01*
X96732964Y-70564185D01*
X96713052Y-70638500D01*
X96702100Y-70679375D01*
X96702100Y-70798625D01*
X96704461Y-70807435D01*
X96732964Y-70913814D01*
X96762777Y-70965450D01*
X96792590Y-71017087D01*
X96792592Y-71017089D01*
X96840381Y-71064878D01*
X96873866Y-71126201D01*
X96876700Y-71152559D01*
X96876700Y-72668500D01*
X96857015Y-72735539D01*
X96804211Y-72781294D01*
X96752702Y-72792500D01*
X96689545Y-72792500D01*
X96644941Y-72801372D01*
X96644938Y-72801373D01*
X96594366Y-72835165D01*
X96560571Y-72885743D01*
X96560570Y-72885745D01*
X96551700Y-72930340D01*
X95954898Y-72930340D01*
X95946028Y-72885742D01*
X95946026Y-72885740D01*
X95946026Y-72885738D01*
X95912234Y-72835166D01*
X95861659Y-72801373D01*
X95861658Y-72801372D01*
X95861657Y-72801371D01*
X95861656Y-72801371D01*
X95861654Y-72801370D01*
X95817059Y-72792500D01*
X95817057Y-72792500D01*
X95753900Y-72792500D01*
X95686861Y-72772815D01*
X95641106Y-72720011D01*
X95629900Y-72668500D01*
X95629900Y-69907959D01*
X95649585Y-69840920D01*
X95666219Y-69820278D01*
X95687471Y-69799026D01*
X95739410Y-69747087D01*
X95799036Y-69643813D01*
X95829900Y-69528625D01*
X95829900Y-69409375D01*
X95799036Y-69294187D01*
X95739410Y-69190913D01*
X95655087Y-69106590D01*
X95568155Y-69056399D01*
X95551814Y-69046964D01*
X95488654Y-69030041D01*
X95436625Y-69016100D01*
X95317375Y-69016100D01*
X95202185Y-69046964D01*
X95098913Y-69106590D01*
X95098910Y-69106592D01*
X95014592Y-69190910D01*
X95014590Y-69190913D01*
X94954964Y-69294185D01*
X94924100Y-69409375D01*
X94924100Y-69528624D01*
X94954964Y-69643814D01*
X94954965Y-69643815D01*
X95014590Y-69747087D01*
X95014592Y-69747089D01*
X95087781Y-69820278D01*
X95121266Y-69881601D01*
X95124100Y-69907959D01*
X95124100Y-72668500D01*
X95104415Y-72735539D01*
X95051611Y-72781294D01*
X95000102Y-72792500D01*
X94936945Y-72792500D01*
X94892341Y-72801372D01*
X94892338Y-72801373D01*
X94841766Y-72835165D01*
X94807971Y-72885743D01*
X94807970Y-72885745D01*
X94799100Y-72930340D01*
X94799100Y-73810453D01*
X94799101Y-73810457D01*
X94801240Y-73821213D01*
X94801240Y-73869577D01*
X94799100Y-73880335D01*
X94799100Y-74760454D01*
X94807972Y-74805058D01*
X94807973Y-74805061D01*
X94841765Y-74855633D01*
X94841766Y-74855634D01*
X94892342Y-74889428D01*
X94892343Y-74889428D01*
X94892345Y-74889429D01*
X94914642Y-74893864D01*
X94936943Y-74898300D01*
X95000100Y-74898299D01*
X95067138Y-74917983D01*
X95112894Y-74970786D01*
X95124100Y-75022299D01*
X95124100Y-75898369D01*
X95104415Y-75965408D01*
X95051611Y-76011163D01*
X95047553Y-76012930D01*
X94901952Y-76073239D01*
X94901945Y-76073243D01*
X94737685Y-76182997D01*
X94597997Y-76322685D01*
X94488243Y-76486945D01*
X94488237Y-76486956D01*
X94412641Y-76669463D01*
X94412640Y-76669468D01*
X94406062Y-76702535D01*
X94373675Y-76764446D01*
X94312958Y-76799018D01*
X94243189Y-76795277D01*
X94186518Y-76754409D01*
X94161971Y-76697737D01*
X94153756Y-76645866D01*
X94088095Y-76443782D01*
X93991624Y-76254449D01*
X93952270Y-76200282D01*
X93952269Y-76200282D01*
X93319962Y-76832590D01*
X93302925Y-76769007D01*
X93237099Y-76654993D01*
X93144007Y-76561901D01*
X93029993Y-76496075D01*
X92966409Y-76479037D01*
X93598716Y-75846728D01*
X93544550Y-75807375D01*
X93355217Y-75710904D01*
X93153129Y-75645242D01*
X92943246Y-75612000D01*
X92730754Y-75612000D01*
X92520872Y-75645242D01*
X92520869Y-75645242D01*
X92318782Y-75710904D01*
X92129439Y-75807380D01*
X92075282Y-75846727D01*
X92075282Y-75846728D01*
X92707591Y-76479037D01*
X92644007Y-76496075D01*
X92529993Y-76561901D01*
X92436901Y-76654993D01*
X92371075Y-76769007D01*
X92354037Y-76832591D01*
X91721728Y-76200282D01*
X91721727Y-76200282D01*
X91682380Y-76254439D01*
X91585904Y-76443782D01*
X91520242Y-76645869D01*
X91520242Y-76645872D01*
X91487000Y-76855753D01*
X91487000Y-77068246D01*
X91520242Y-77278127D01*
X91520242Y-77278130D01*
X91585904Y-77480217D01*
X91682375Y-77669550D01*
X91721728Y-77723716D01*
X92354037Y-77091408D01*
X92371075Y-77154993D01*
X92436901Y-77269007D01*
X92529993Y-77362099D01*
X92644007Y-77427925D01*
X92707590Y-77444962D01*
X92075282Y-78077269D01*
X92075282Y-78077270D01*
X92129449Y-78116624D01*
X92318782Y-78213095D01*
X92520870Y-78278757D01*
X92730754Y-78312000D01*
X92943246Y-78312000D01*
X93153127Y-78278757D01*
X93153130Y-78278757D01*
X93355217Y-78213095D01*
X93544554Y-78116622D01*
X93598716Y-78077270D01*
X93598717Y-78077270D01*
X92966408Y-77444962D01*
X93029993Y-77427925D01*
X93144007Y-77362099D01*
X93237099Y-77269007D01*
X93302925Y-77154993D01*
X93319962Y-77091408D01*
X93952270Y-77723717D01*
X93952270Y-77723716D01*
X93991622Y-77669554D01*
X94088095Y-77480217D01*
X94153756Y-77278133D01*
X94161971Y-77226262D01*
X94191900Y-77163127D01*
X94251211Y-77126195D01*
X94321073Y-77127191D01*
X94379307Y-77165800D01*
X94406062Y-77221464D01*
X94412640Y-77254531D01*
X94412641Y-77254536D01*
X94488237Y-77437043D01*
X94488243Y-77437054D01*
X94597997Y-77601314D01*
X94737685Y-77741002D01*
X94737688Y-77741004D01*
X94901949Y-77850759D01*
X94901955Y-77850761D01*
X94901956Y-77850762D01*
X94942935Y-77867736D01*
X95047552Y-77911069D01*
X95101956Y-77954909D01*
X95124021Y-78021203D01*
X95124100Y-78025630D01*
X95124100Y-78710884D01*
X95104415Y-78777923D01*
X95087781Y-78798565D01*
X94165565Y-79720781D01*
X94104242Y-79754266D01*
X94077884Y-79757100D01*
X91945747Y-79757100D01*
X91945739Y-79757099D01*
X91931305Y-79757099D01*
X91830695Y-79757099D01*
X91830693Y-79757099D01*
X91784219Y-79776350D01*
X91737742Y-79795601D01*
X91737741Y-79795602D01*
X91666600Y-79866744D01*
X89733777Y-81799566D01*
X89672454Y-81833051D01*
X89602762Y-81828067D01*
X89598644Y-81826446D01*
X89446536Y-81763441D01*
X89446527Y-81763438D01*
X89252780Y-81724900D01*
X89252777Y-81724900D01*
X89055223Y-81724900D01*
X89055220Y-81724900D01*
X88861472Y-81763438D01*
X88861463Y-81763441D01*
X88678956Y-81839037D01*
X88678945Y-81839043D01*
X88514685Y-81948797D01*
X88374997Y-82088485D01*
X88265243Y-82252745D01*
X88265237Y-82252756D01*
X88189641Y-82435263D01*
X88189640Y-82435268D01*
X88183062Y-82468335D01*
X88150675Y-82530246D01*
X88089958Y-82564818D01*
X88020189Y-82561077D01*
X87963518Y-82520209D01*
X87938971Y-82463537D01*
X87930756Y-82411666D01*
X87865095Y-82209582D01*
X87768624Y-82020249D01*
X87729270Y-81966082D01*
X87729269Y-81966082D01*
X87096962Y-82598390D01*
X87079925Y-82534807D01*
X87014099Y-82420793D01*
X86921007Y-82327701D01*
X86806993Y-82261875D01*
X86743409Y-82244837D01*
X87375716Y-81612528D01*
X87321550Y-81573175D01*
X87132217Y-81476704D01*
X86930129Y-81411042D01*
X86720246Y-81377800D01*
X86507754Y-81377800D01*
X86297872Y-81411042D01*
X86297869Y-81411042D01*
X86095782Y-81476704D01*
X85906439Y-81573180D01*
X85852282Y-81612527D01*
X85852282Y-81612528D01*
X86484591Y-82244837D01*
X86421007Y-82261875D01*
X86306993Y-82327701D01*
X86213901Y-82420793D01*
X86148075Y-82534807D01*
X86131037Y-82598391D01*
X85498728Y-81966082D01*
X85498727Y-81966082D01*
X85459380Y-82020239D01*
X85362904Y-82209582D01*
X85297242Y-82411669D01*
X85297242Y-82411672D01*
X85264000Y-82621553D01*
X84083400Y-82621553D01*
X84083400Y-79202347D01*
X88035000Y-79202347D01*
X88035000Y-79438452D01*
X88071934Y-79671647D01*
X88144897Y-79896202D01*
X88252087Y-80106574D01*
X88312338Y-80189504D01*
X88312340Y-80189505D01*
X89052037Y-79449808D01*
X89069075Y-79513393D01*
X89134901Y-79627407D01*
X89227993Y-79720499D01*
X89342007Y-79786325D01*
X89405590Y-79803362D01*
X88665893Y-80543058D01*
X88748828Y-80603314D01*
X88959197Y-80710502D01*
X89183752Y-80783465D01*
X89183751Y-80783465D01*
X89416948Y-80820400D01*
X89653052Y-80820400D01*
X89886247Y-80783465D01*
X90110802Y-80710502D01*
X90321163Y-80603318D01*
X90321169Y-80603314D01*
X90404104Y-80543058D01*
X90404105Y-80543058D01*
X89664408Y-79803362D01*
X89727993Y-79786325D01*
X89842007Y-79720499D01*
X89935099Y-79627407D01*
X90000925Y-79513393D01*
X90017962Y-79449808D01*
X90757658Y-80189505D01*
X90757658Y-80189504D01*
X90817914Y-80106569D01*
X90817918Y-80106563D01*
X90925102Y-79896202D01*
X90998065Y-79671647D01*
X91035000Y-79438452D01*
X91035000Y-79202347D01*
X90998065Y-78969152D01*
X90925102Y-78744597D01*
X90817914Y-78534228D01*
X90757658Y-78451294D01*
X90757658Y-78451293D01*
X90017962Y-79190990D01*
X90000925Y-79127407D01*
X89935099Y-79013393D01*
X89842007Y-78920301D01*
X89727993Y-78854475D01*
X89664409Y-78837437D01*
X90404105Y-78097740D01*
X90404104Y-78097739D01*
X90321174Y-78037487D01*
X90110802Y-77930297D01*
X89886247Y-77857334D01*
X89886248Y-77857334D01*
X89653052Y-77820400D01*
X89416948Y-77820400D01*
X89183752Y-77857334D01*
X88959197Y-77930297D01*
X88748830Y-78037484D01*
X88665894Y-78097740D01*
X89405591Y-78837437D01*
X89342007Y-78854475D01*
X89227993Y-78920301D01*
X89134901Y-79013393D01*
X89069075Y-79127407D01*
X89052037Y-79190991D01*
X88312340Y-78451294D01*
X88252084Y-78534230D01*
X88144897Y-78744597D01*
X88071934Y-78969152D01*
X88035000Y-79202347D01*
X84083400Y-79202347D01*
X84083400Y-77331742D01*
X84103085Y-77264703D01*
X84155889Y-77218948D01*
X84225047Y-77209004D01*
X84288603Y-77238029D01*
X84317884Y-77275445D01*
X84338320Y-77315554D01*
X84364951Y-77367820D01*
X84489890Y-77539786D01*
X84640213Y-77690109D01*
X84812179Y-77815048D01*
X84812181Y-77815049D01*
X84812184Y-77815051D01*
X85001588Y-77911557D01*
X85203757Y-77977246D01*
X85413713Y-78010500D01*
X85413714Y-78010500D01*
X85626286Y-78010500D01*
X85626287Y-78010500D01*
X85836243Y-77977246D01*
X86038412Y-77911557D01*
X86227816Y-77815051D01*
X86329734Y-77741004D01*
X86399786Y-77690109D01*
X86399788Y-77690106D01*
X86399792Y-77690104D01*
X86550104Y-77539792D01*
X86550106Y-77539788D01*
X86550109Y-77539786D01*
X86675048Y-77367820D01*
X86675047Y-77367820D01*
X86675051Y-77367816D01*
X86771557Y-77178412D01*
X86837246Y-76976243D01*
X86870500Y-76766287D01*
X86870500Y-76553713D01*
X86837246Y-76343757D01*
X86771557Y-76141588D01*
X86675051Y-75952184D01*
X86675048Y-75952180D01*
X86550109Y-75780213D01*
X86399786Y-75629890D01*
X86227820Y-75504951D01*
X86038414Y-75408444D01*
X86038413Y-75408443D01*
X86038412Y-75408443D01*
X85836243Y-75342754D01*
X85836241Y-75342753D01*
X85836240Y-75342753D01*
X85674957Y-75317208D01*
X85626287Y-75309500D01*
X85413713Y-75309500D01*
X85365042Y-75317208D01*
X85203760Y-75342753D01*
X85001585Y-75408444D01*
X84812179Y-75504951D01*
X84640213Y-75629890D01*
X84489890Y-75780213D01*
X84364951Y-75952180D01*
X84317885Y-76044552D01*
X84269910Y-76095348D01*
X84202089Y-76112143D01*
X84135954Y-76089605D01*
X84092503Y-76034890D01*
X84083400Y-75988257D01*
X84083400Y-74229659D01*
X88382100Y-74229659D01*
X88382100Y-74411140D01*
X88410487Y-74590367D01*
X88410488Y-74590371D01*
X88466566Y-74762960D01*
X88548951Y-74924651D01*
X88655617Y-75071464D01*
X88783936Y-75199783D01*
X88930749Y-75306449D01*
X89092440Y-75388834D01*
X89265029Y-75444912D01*
X89332242Y-75455557D01*
X89444260Y-75473300D01*
X89444265Y-75473300D01*
X89625740Y-75473300D01*
X89725310Y-75457528D01*
X89804971Y-75444912D01*
X89977560Y-75388834D01*
X90139251Y-75306449D01*
X90286064Y-75199783D01*
X90414383Y-75071464D01*
X90521049Y-74924651D01*
X90603434Y-74762960D01*
X90659512Y-74590371D01*
X90672128Y-74510710D01*
X90687900Y-74411140D01*
X90687900Y-74229659D01*
X90659512Y-74050432D01*
X90659512Y-74050429D01*
X90603434Y-73877840D01*
X90521049Y-73716149D01*
X90414383Y-73569336D01*
X90286064Y-73441017D01*
X90139251Y-73334351D01*
X89977560Y-73251966D01*
X89804971Y-73195888D01*
X89804969Y-73195887D01*
X89804967Y-73195887D01*
X89625740Y-73167500D01*
X89625735Y-73167500D01*
X89444265Y-73167500D01*
X89444260Y-73167500D01*
X89265032Y-73195887D01*
X89092437Y-73251967D01*
X88930748Y-73334351D01*
X88846986Y-73395208D01*
X88783936Y-73441017D01*
X88783934Y-73441019D01*
X88783933Y-73441019D01*
X88655619Y-73569333D01*
X88655619Y-73569334D01*
X88655617Y-73569336D01*
X88609808Y-73632386D01*
X88548951Y-73716148D01*
X88466567Y-73877837D01*
X88410487Y-74050432D01*
X88382100Y-74229659D01*
X84083400Y-74229659D01*
X84083400Y-62012259D01*
X84851500Y-62012259D01*
X84851500Y-62193740D01*
X84878492Y-62364159D01*
X84879888Y-62372971D01*
X84935966Y-62545560D01*
X85018351Y-62707251D01*
X85125017Y-62854064D01*
X85253336Y-62982383D01*
X85400149Y-63089049D01*
X85561840Y-63171434D01*
X85734429Y-63227512D01*
X85801642Y-63238157D01*
X85913660Y-63255900D01*
X85913665Y-63255900D01*
X86095140Y-63255900D01*
X86194710Y-63240128D01*
X86274371Y-63227512D01*
X86446960Y-63171434D01*
X86608651Y-63089049D01*
X86755464Y-62982383D01*
X86883783Y-62854064D01*
X86990449Y-62707251D01*
X87072834Y-62545560D01*
X87128912Y-62372971D01*
X87144195Y-62276478D01*
X87157300Y-62193740D01*
X87157300Y-62012259D01*
X87128912Y-61833032D01*
X87128912Y-61833029D01*
X87072834Y-61660440D01*
X86990449Y-61498749D01*
X86883783Y-61351936D01*
X86755464Y-61223617D01*
X86608651Y-61116951D01*
X86446960Y-61034566D01*
X86274371Y-60978488D01*
X86274369Y-60978487D01*
X86274367Y-60978487D01*
X86095140Y-60950100D01*
X86095135Y-60950100D01*
X85913665Y-60950100D01*
X85913660Y-60950100D01*
X85734432Y-60978487D01*
X85734429Y-60978488D01*
X85583972Y-61027375D01*
X85561837Y-61034567D01*
X85400148Y-61116951D01*
X85326975Y-61170115D01*
X85253336Y-61223617D01*
X85253334Y-61223619D01*
X85253333Y-61223619D01*
X85125019Y-61351933D01*
X85125019Y-61351934D01*
X85125017Y-61351936D01*
X85098224Y-61388813D01*
X85018351Y-61498748D01*
X84935967Y-61660437D01*
X84879887Y-61833032D01*
X84851500Y-62012259D01*
X84083400Y-62012259D01*
X84083400Y-61053400D01*
X84103085Y-60986361D01*
X84155889Y-60940606D01*
X84207400Y-60929400D01*
X85053400Y-60929400D01*
X85068506Y-59167044D01*
X89682000Y-59167044D01*
X89688401Y-59226572D01*
X89688403Y-59226579D01*
X89738645Y-59361286D01*
X89738649Y-59361293D01*
X89824809Y-59476387D01*
X89824812Y-59476390D01*
X89939906Y-59562550D01*
X89939913Y-59562554D01*
X90074620Y-59612796D01*
X90074627Y-59612798D01*
X90134155Y-59619199D01*
X90134172Y-59619200D01*
X90682000Y-59619200D01*
X90682000Y-58619200D01*
X89682000Y-58619200D01*
X89682000Y-59167044D01*
X85068506Y-59167044D01*
X85082346Y-57552336D01*
X85102604Y-57485469D01*
X85155798Y-57440168D01*
X85206341Y-57429400D01*
X89559217Y-57429400D01*
X89626256Y-57449085D01*
G37*
%TD.AperFunction*%
%TD*%
M02*
