%TF.GenerationSoftware,KiCad,Pcbnew,9.0.7*%
%TF.CreationDate,2026-01-26T10:20:21-05:00*%
%TF.ProjectId,USBC_I2C,55534243-5f49-4324-932e-6b696361645f,rev?*%
%TF.SameCoordinates,Original*%
%TF.FileFunction,Copper,L2,Bot*%
%TF.FilePolarity,Positive*%
%FSLAX46Y46*%
G04 Gerber Fmt 4.6, Leading zero omitted, Abs format (unit mm)*
G04 Created by KiCad (PCBNEW 9.0.7) date 2026-01-26 10:20:21*
%MOMM*%
%LPD*%
G01*
G04 APERTURE LIST*
%TA.AperFunction,ComponentPad*%
%ADD10R,1.700000X1.700000*%
%TD*%
%TA.AperFunction,ComponentPad*%
%ADD11C,1.700000*%
%TD*%
%TA.AperFunction,SMDPad,CuDef*%
%ADD12R,0.380000X1.000000*%
%TD*%
%TA.AperFunction,SMDPad,CuDef*%
%ADD13R,0.700000X1.150000*%
%TD*%
%TA.AperFunction,SMDPad,CuDef*%
%ADD14R,0.850000X0.850000*%
%TD*%
%TA.AperFunction,SMDPad,CuDef*%
%ADD15C,1.000000*%
%TD*%
%TA.AperFunction,SMDPad,CuDef*%
%ADD16R,1.500000X1.500000*%
%TD*%
%TA.AperFunction,ViaPad*%
%ADD17C,0.600000*%
%TD*%
%TA.AperFunction,ViaPad*%
%ADD18C,0.500000*%
%TD*%
%TA.AperFunction,Conductor*%
%ADD19C,0.200000*%
%TD*%
%TA.AperFunction,Conductor*%
%ADD20C,0.600000*%
%TD*%
%TA.AperFunction,Conductor*%
%ADD21C,0.500000*%
%TD*%
%TA.AperFunction,Conductor*%
%ADD22C,0.400000*%
%TD*%
G04 APERTURE END LIST*
D10*
%TO.P,J2,1,Pin_1*%
%TO.N,/Vo*%
X93945050Y-81033800D03*
D11*
%TO.P,J2,2,Pin_2*%
%TO.N,/Out0*%
X91405050Y-81033800D03*
%TO.P,J2,3,Pin_3*%
%TO.N,/Out1*%
X88865050Y-81033800D03*
%TO.P,J2,4,Pin_4*%
%TO.N,GND*%
X86325050Y-81033800D03*
%TD*%
D12*
%TO.P,USB1,B1,GND*%
%TO.N,GND*%
X99271050Y-59138000D03*
%TO.P,USB1,B2*%
%TO.N,N/C*%
X98771050Y-59138000D03*
%TO.P,USB1,B3*%
X98271050Y-59138000D03*
%TO.P,USB1,B4,VBUS*%
%TO.N,/VBus*%
X97771050Y-59138000D03*
%TO.P,USB1,B5,VCONN*%
%TO.N,unconnected-(USB1-VCONN-PadB5)*%
X97271050Y-59138000D03*
%TO.P,USB1,B8*%
%TO.N,N/C*%
X95771050Y-59138000D03*
%TO.P,USB1,B9,VBUS*%
%TO.N,/VBus*%
X95271050Y-59138000D03*
%TO.P,USB1,B10*%
%TO.N,N/C*%
X94771050Y-59138000D03*
%TO.P,USB1,B11*%
X94271050Y-59138000D03*
%TO.P,USB1,B12,GND*%
%TO.N,GND*%
X93771050Y-59138000D03*
D13*
%TO.P,USB1,S1,SHIELD*%
X99941050Y-59978000D03*
%TD*%
D10*
%TO.P,J1,1,Pin_1*%
%TO.N,/Vo*%
X100168050Y-76918000D03*
D11*
%TO.P,J1,2,Pin_2*%
%TO.N,/Out0*%
X97628050Y-76918000D03*
%TO.P,J1,3,Pin_3*%
%TO.N,/Out1*%
X95088050Y-76918000D03*
%TO.P,J1,4,Pin_4*%
%TO.N,GND*%
X92548050Y-76918000D03*
%TD*%
D10*
%TO.P,J3,1,Pin_1*%
%TO.N,/Vo*%
X106375200Y-81051400D03*
D11*
%TO.P,J3,2,Pin_2*%
%TO.N,/Out0*%
X103835200Y-81051400D03*
%TO.P,J3,3,Pin_3*%
%TO.N,/Out1*%
X101295200Y-81051400D03*
%TO.P,J3,4,Pin_4*%
%TO.N,GND*%
X98755200Y-81051400D03*
%TD*%
D14*
%TO.P,2x Pads,1*%
%TO.N,Net-(U1-SDA)*%
X96840650Y-73326400D03*
%TO.P,2x Pads,2*%
%TO.N,/Out0*%
X96840650Y-74276400D03*
%TD*%
D15*
%TO.P,TP4,1,1*%
%TO.N,Net-(U1-GP3)*%
X98800000Y-66900000D03*
%TD*%
%TO.P,TP1,1,1*%
%TO.N,Net-(U1-GP0)*%
X98800000Y-63700000D03*
%TD*%
D14*
%TO.P,2x Pads,1*%
%TO.N,Net-(Q1B-D)*%
X107300000Y-68000000D03*
%TO.P,2x Pads,2*%
%TO.N,/Vo*%
X107300000Y-68950000D03*
%TD*%
D16*
%TO.P,,1*%
%TO.N,GND*%
X102479450Y-58325200D03*
%TD*%
D14*
%TO.P,2x Pads,1*%
%TO.N,Net-(U1-SCL)*%
X95088050Y-73326400D03*
%TO.P,2x Pads,2*%
%TO.N,/Out1*%
X95088050Y-74276400D03*
%TD*%
D15*
%TO.P,TP7,1,1*%
%TO.N,GND*%
X101473000Y-70104000D03*
%TD*%
%TO.P,TP3,1,1*%
%TO.N,Net-(U1-GP2)*%
X103500000Y-66800000D03*
%TD*%
%TO.P,TP2,1,1*%
%TO.N,Net-(U1-GP1)*%
X103500000Y-63700000D03*
%TD*%
%TO.P,TP5,1,1*%
%TO.N,/VBus*%
X101473000Y-63700000D03*
%TD*%
D16*
%TO.P,,1*%
%TO.N,GND*%
X90643050Y-58325200D03*
%TD*%
D15*
%TO.P,TP8,1,1*%
%TO.N,Net-(U2-STAT)*%
X101473000Y-66852800D03*
%TD*%
%TO.P,TP6,1,1*%
%TO.N,/Vo*%
X105968800Y-72796400D03*
%TD*%
D17*
%TO.N,/VBus*%
X94550000Y-60850000D03*
X100228400Y-63703200D03*
X97771050Y-60678000D03*
%TO.N,GND*%
X90173150Y-57893400D03*
X108839000Y-61595000D03*
X91125650Y-58782400D03*
X90173150Y-58782400D03*
X101996850Y-57893400D03*
X101996850Y-58782400D03*
X91125650Y-57893400D03*
X104100000Y-74737500D03*
X102949350Y-57893400D03*
X102949350Y-58782400D03*
%TO.N,Net-(U1-VUSB)*%
X88509450Y-69425000D03*
X88509450Y-68155000D03*
%TO.N,Net-(Q1B-D)*%
X108839000Y-65200000D03*
D18*
%TO.N,/Vo*%
X106159621Y-70040379D03*
X105400000Y-70800000D03*
D17*
%TO.N,Net-(U1-SCL)*%
X95088050Y-69425000D03*
%TO.N,Net-(U1-SDA)*%
X96866050Y-70695000D03*
%TO.N,Net-(USB1-CC)*%
X88600000Y-61900000D03*
X94453050Y-61881200D03*
%TO.N,Net-(U1-GP1)*%
X86833050Y-66885000D03*
%TO.N,Net-(U1-GP2)*%
X87630000Y-71965000D03*
%TO.N,Net-(U1-GP0)*%
X86833050Y-65615000D03*
%TO.N,Net-(U1-GP3)*%
X91786050Y-71965000D03*
%TO.N,Net-(U2-STAT)*%
X100228400Y-66852800D03*
%TD*%
D19*
%TO.N,/VBus*%
X101473000Y-63703200D02*
X100228400Y-63703200D01*
X97771050Y-60678000D02*
X97771050Y-59138000D01*
X97235050Y-61214000D02*
X97771050Y-60678000D01*
X95614000Y-61214000D02*
X97235050Y-61214000D01*
X95271050Y-60128950D02*
X95271050Y-59138000D01*
X94550000Y-60850000D02*
X95271050Y-60128950D01*
X94571050Y-60871050D02*
X95271050Y-60871050D01*
X95271050Y-60871050D02*
X95614000Y-61214000D01*
X94550000Y-60850000D02*
X94571050Y-60871050D01*
%TO.N,GND*%
X99271050Y-59138000D02*
X99271050Y-59308000D01*
X93771050Y-59312000D02*
X93106850Y-59976200D01*
X93771050Y-59138000D02*
X93771050Y-59312000D01*
D20*
X101995050Y-59978000D02*
X102479450Y-59493600D01*
X99941050Y-59978000D02*
X101995050Y-59978000D01*
D19*
X91227250Y-59976200D02*
X90643050Y-59392000D01*
X93106850Y-59976200D02*
X91227250Y-59976200D01*
X99271050Y-59308000D02*
X99941050Y-59978000D01*
D20*
X102479450Y-59493600D02*
X102479450Y-58325200D01*
D19*
X90643050Y-59392000D02*
X90643050Y-58325200D01*
%TO.N,Net-(U1-VUSB)*%
X88509450Y-69425000D02*
X88509450Y-68155000D01*
D21*
%TO.N,Net-(Q1B-D)*%
X108839000Y-65200000D02*
X108500000Y-65200000D01*
X107300000Y-66400000D02*
X107300000Y-68000000D01*
X108500000Y-65200000D02*
X107300000Y-66400000D01*
D19*
%TO.N,/Vo*%
X105968800Y-72796400D02*
X105968800Y-70231200D01*
D21*
X107250000Y-68950000D02*
X107300000Y-68950000D01*
X106159621Y-70040379D02*
X107250000Y-68950000D01*
X106159621Y-70040379D02*
X105400000Y-70800000D01*
D19*
X105968800Y-70231200D02*
X106159621Y-70040379D01*
D22*
%TO.N,/Out1*%
X95088050Y-74276400D02*
X95088050Y-76918000D01*
D19*
%TO.N,Net-(U1-SCL)*%
X95088050Y-69425000D02*
X95088050Y-73326400D01*
%TO.N,Net-(U1-SDA)*%
X96840650Y-70847400D02*
X96840650Y-73326400D01*
X96866050Y-70822000D02*
X96840650Y-70847400D01*
X96866050Y-70695000D02*
X96866050Y-70822000D01*
%TO.N,Net-(USB1-CC)*%
X88600000Y-61900000D02*
X88687050Y-61900000D01*
X88687050Y-61900000D02*
X88705850Y-61881200D01*
X88705850Y-61881200D02*
X94453050Y-61881200D01*
%TO.N,/Out0*%
X97628050Y-76918000D02*
X96266000Y-78280050D01*
X91694000Y-82296000D02*
X95758000Y-82296000D01*
X95758000Y-82296000D02*
X102098050Y-82296000D01*
D22*
X96840650Y-74276400D02*
X96840650Y-76130600D01*
D19*
X91405050Y-80533800D02*
X91405050Y-82007050D01*
X102098050Y-82296000D02*
X103851050Y-80543000D01*
X96266000Y-78280050D02*
X96266000Y-81788000D01*
D22*
X96840650Y-76130600D02*
X97628050Y-76918000D01*
D19*
X91405050Y-82007050D02*
X91694000Y-82296000D01*
X96266000Y-81788000D02*
X95758000Y-82296000D01*
%TO.N,Net-(U1-GP1)*%
X86833050Y-66885000D02*
X87468050Y-66250000D01*
X101600000Y-65600000D02*
X103500000Y-63700000D01*
X94547000Y-65600000D02*
X101600000Y-65600000D01*
X93897000Y-66250000D02*
X94547000Y-65600000D01*
X87468050Y-66250000D02*
X93897000Y-66250000D01*
%TO.N,Net-(U1-GP2)*%
X87630000Y-70485000D02*
X88055000Y-70060000D01*
X91948000Y-69810525D02*
X91948000Y-68624678D01*
X102700000Y-66000000D02*
X103500000Y-66800000D01*
X91948000Y-68624678D02*
X94572678Y-66000000D01*
X88055000Y-70060000D02*
X91698525Y-70060000D01*
X87630000Y-71965000D02*
X87630000Y-70485000D01*
X91698525Y-70060000D02*
X91948000Y-69810525D01*
X94572678Y-66000000D02*
X102700000Y-66000000D01*
%TO.N,Net-(U1-GP0)*%
X87849050Y-64980000D02*
X98020000Y-64980000D01*
X98300000Y-64700000D02*
X98300001Y-64199999D01*
X98300001Y-64199999D02*
X98800000Y-63700000D01*
X87214050Y-65615000D02*
X87849050Y-64980000D01*
X98020000Y-64980000D02*
X98300000Y-64700000D01*
X86833050Y-65615000D02*
X87214050Y-65615000D01*
%TO.N,Net-(U1-GP3)*%
X94098356Y-66900000D02*
X92294050Y-68704306D01*
X92294050Y-71457000D02*
X92294050Y-68704306D01*
X91786050Y-71965000D02*
X92294050Y-71457000D01*
X98800000Y-66900000D02*
X94098356Y-66900000D01*
%TO.N,Net-(U2-STAT)*%
X101473000Y-66852800D02*
X100228400Y-66852800D01*
%TD*%
%TA.AperFunction,Conductor*%
%TO.N,GND*%
G36*
X89345533Y-57336185D02*
G01*
X89391288Y-57388989D01*
X89401232Y-57458147D01*
X89399524Y-57467149D01*
X89393050Y-57527355D01*
X89393050Y-58075200D01*
X90519050Y-58075200D01*
X90586089Y-58094885D01*
X90631844Y-58147689D01*
X90643050Y-58199200D01*
X90643050Y-58325200D01*
X90769050Y-58325200D01*
X90836089Y-58344885D01*
X90881844Y-58397689D01*
X90893050Y-58449200D01*
X90893050Y-59575200D01*
X91440878Y-59575200D01*
X91440894Y-59575199D01*
X91500422Y-59568798D01*
X91500429Y-59568796D01*
X91635136Y-59518554D01*
X91635143Y-59518550D01*
X91750236Y-59432391D01*
X91823945Y-59333929D01*
X91837772Y-59323578D01*
X91847995Y-59309658D01*
X91865161Y-59303075D01*
X91879879Y-59292058D01*
X91897364Y-59290726D01*
X91913233Y-59284642D01*
X91937026Y-59287707D01*
X91948459Y-59286837D01*
X91960415Y-59289323D01*
X91964687Y-59291381D01*
X92074630Y-59316491D01*
X92091064Y-59316492D01*
X92091098Y-59316500D01*
X92091168Y-59316500D01*
X92131016Y-59316500D01*
X92131024Y-59316500D01*
X92170899Y-59316507D01*
X92170901Y-59316506D01*
X92182983Y-59316508D01*
X92183076Y-59316500D01*
X92899024Y-59316500D01*
X92900525Y-59316509D01*
X92901186Y-59316517D01*
X92901318Y-59316557D01*
X92951083Y-59316549D01*
X92951083Y-59316550D01*
X92957031Y-59316549D01*
X93024073Y-59336223D01*
X93069836Y-59389020D01*
X93081050Y-59440549D01*
X93081050Y-59685844D01*
X93087451Y-59745372D01*
X93087453Y-59745379D01*
X93137695Y-59880086D01*
X93137699Y-59880093D01*
X93223859Y-59995187D01*
X93223862Y-59995190D01*
X93338956Y-60081350D01*
X93338963Y-60081354D01*
X93473670Y-60131596D01*
X93473677Y-60131598D01*
X93533205Y-60137999D01*
X93533222Y-60138000D01*
X93581050Y-60138000D01*
X93581050Y-59262000D01*
X93583600Y-59253314D01*
X93582312Y-59244353D01*
X93593290Y-59220312D01*
X93600735Y-59194961D01*
X93607575Y-59189033D01*
X93611337Y-59180797D01*
X93633571Y-59166507D01*
X93653539Y-59149206D01*
X93664053Y-59146918D01*
X93670115Y-59143023D01*
X93705050Y-59138000D01*
X93804151Y-59138000D01*
X93871190Y-59157685D01*
X93916945Y-59210489D01*
X93928150Y-59261998D01*
X93928151Y-59653056D01*
X93937021Y-59697654D01*
X93937022Y-59697657D01*
X93937022Y-59697659D01*
X93940150Y-59702339D01*
X93961030Y-59769015D01*
X93961050Y-59771232D01*
X93961050Y-60138000D01*
X94008878Y-60138000D01*
X94008894Y-60137999D01*
X94068422Y-60131598D01*
X94068429Y-60131596D01*
X94203136Y-60081354D01*
X94203143Y-60081350D01*
X94318237Y-59995190D01*
X94318240Y-59995187D01*
X94404400Y-59880093D01*
X94409652Y-59866012D01*
X94451522Y-59810077D01*
X94516985Y-59785657D01*
X94550031Y-59787724D01*
X94565993Y-59790900D01*
X94894150Y-59790899D01*
X94902836Y-59793449D01*
X94911797Y-59792161D01*
X94935833Y-59803138D01*
X94961189Y-59810583D01*
X94967117Y-59817425D01*
X94975353Y-59821186D01*
X94989639Y-59843417D01*
X95006944Y-59863387D01*
X95009231Y-59873902D01*
X95013127Y-59879964D01*
X95018150Y-59914899D01*
X95018150Y-59972833D01*
X94998465Y-60039872D01*
X94981831Y-60060514D01*
X94681564Y-60360781D01*
X94620241Y-60394266D01*
X94593883Y-60397100D01*
X94490375Y-60397100D01*
X94375185Y-60427964D01*
X94271913Y-60487590D01*
X94271910Y-60487592D01*
X94187592Y-60571910D01*
X94187590Y-60571913D01*
X94127964Y-60675185D01*
X94109944Y-60742438D01*
X94097100Y-60790375D01*
X94097100Y-60909625D01*
X94097522Y-60911200D01*
X94127964Y-61024814D01*
X94144237Y-61052999D01*
X94187590Y-61128087D01*
X94271913Y-61212410D01*
X94306575Y-61232422D01*
X94354791Y-61282989D01*
X94368014Y-61351596D01*
X94342046Y-61416461D01*
X94285132Y-61456989D01*
X94278801Y-61458930D01*
X94278237Y-61459163D01*
X94174963Y-61518790D01*
X94174960Y-61518792D01*
X94101772Y-61591981D01*
X94040449Y-61625466D01*
X94014091Y-61628300D01*
X89020160Y-61628300D01*
X88953121Y-61608615D01*
X88932479Y-61591982D01*
X88932478Y-61591981D01*
X88878087Y-61537590D01*
X88810862Y-61498777D01*
X88774814Y-61477964D01*
X88704649Y-61459164D01*
X88659625Y-61447100D01*
X88540375Y-61447100D01*
X88425185Y-61477964D01*
X88321913Y-61537590D01*
X88321910Y-61537592D01*
X88237592Y-61621910D01*
X88237590Y-61621913D01*
X88177964Y-61725185D01*
X88147100Y-61840375D01*
X88147100Y-61959624D01*
X88177964Y-62074814D01*
X88207777Y-62126450D01*
X88237590Y-62178087D01*
X88321913Y-62262410D01*
X88425187Y-62322036D01*
X88540375Y-62352900D01*
X88540377Y-62352900D01*
X88659623Y-62352900D01*
X88659625Y-62352900D01*
X88774813Y-62322036D01*
X88878087Y-62262410D01*
X88962410Y-62178087D01*
X88962410Y-62178086D01*
X88968157Y-62172340D01*
X88970203Y-62174386D01*
X89015363Y-62141411D01*
X89057312Y-62134100D01*
X94014091Y-62134100D01*
X94081130Y-62153785D01*
X94101772Y-62170419D01*
X94174963Y-62243610D01*
X94278237Y-62303236D01*
X94393425Y-62334100D01*
X94393427Y-62334100D01*
X94512673Y-62334100D01*
X94512675Y-62334100D01*
X94627863Y-62303236D01*
X94731137Y-62243610D01*
X94815460Y-62159287D01*
X94875086Y-62056013D01*
X94905950Y-61940825D01*
X94905950Y-61821575D01*
X94875086Y-61706387D01*
X94815460Y-61603113D01*
X94731137Y-61518790D01*
X94696471Y-61498775D01*
X94648258Y-61448209D01*
X94635036Y-61379602D01*
X94661004Y-61314738D01*
X94717918Y-61274210D01*
X94724252Y-61272268D01*
X94724810Y-61272036D01*
X94724813Y-61272036D01*
X94828087Y-61212410D01*
X94880228Y-61160269D01*
X94907155Y-61145565D01*
X94932974Y-61128973D01*
X94939174Y-61128081D01*
X94941551Y-61126784D01*
X94967909Y-61123950D01*
X95114934Y-61123950D01*
X95181973Y-61143635D01*
X95202615Y-61160269D01*
X95389388Y-61347042D01*
X95389393Y-61347048D01*
X95399600Y-61357255D01*
X95399601Y-61357257D01*
X95470743Y-61428399D01*
X95497962Y-61439672D01*
X95497968Y-61439677D01*
X95497968Y-61439675D01*
X95563695Y-61466901D01*
X95563696Y-61466901D01*
X95678739Y-61466901D01*
X95678747Y-61466900D01*
X97184743Y-61466900D01*
X97184745Y-61466901D01*
X97285355Y-61466901D01*
X97323856Y-61450952D01*
X97378307Y-61428399D01*
X97449449Y-61357257D01*
X97449449Y-61357254D01*
X97461364Y-61345340D01*
X97461367Y-61345335D01*
X97639484Y-61167219D01*
X97700807Y-61133734D01*
X97727165Y-61130900D01*
X97830673Y-61130900D01*
X97830675Y-61130900D01*
X97945863Y-61100036D01*
X98049137Y-61040410D01*
X98133460Y-60956087D01*
X98193086Y-60852813D01*
X98223950Y-60737625D01*
X98223950Y-60618375D01*
X98193086Y-60503187D01*
X98133460Y-60399913D01*
X98060269Y-60326722D01*
X98026784Y-60265399D01*
X98023950Y-60239041D01*
X98023950Y-59914899D01*
X98043635Y-59847860D01*
X98096439Y-59802105D01*
X98147946Y-59790899D01*
X98476106Y-59790899D01*
X98492072Y-59787723D01*
X98561661Y-59793949D01*
X98616839Y-59836811D01*
X98632444Y-59866005D01*
X98637698Y-59880091D01*
X98637698Y-59880092D01*
X98723859Y-59995187D01*
X98723862Y-59995190D01*
X98838956Y-60081350D01*
X98838963Y-60081354D01*
X98973670Y-60131596D01*
X98973669Y-60131596D01*
X98980305Y-60132310D01*
X99044856Y-60159048D01*
X99084704Y-60216441D01*
X99091050Y-60255600D01*
X99091050Y-60600844D01*
X99097451Y-60660372D01*
X99097453Y-60660379D01*
X99147695Y-60795086D01*
X99147699Y-60795093D01*
X99233859Y-60910187D01*
X99233862Y-60910190D01*
X99348956Y-60996350D01*
X99348963Y-60996354D01*
X99483670Y-61046596D01*
X99483677Y-61046598D01*
X99543205Y-61052999D01*
X99543222Y-61053000D01*
X99691050Y-61053000D01*
X100191050Y-61053000D01*
X100338878Y-61053000D01*
X100338894Y-61052999D01*
X100398422Y-61046598D01*
X100398429Y-61046596D01*
X100533136Y-60996354D01*
X100533143Y-60996350D01*
X100648237Y-60910190D01*
X100648240Y-60910187D01*
X100734400Y-60795093D01*
X100734404Y-60795086D01*
X100784646Y-60660379D01*
X100784648Y-60660372D01*
X100791049Y-60600844D01*
X100791050Y-60600827D01*
X100791050Y-60228000D01*
X100191050Y-60228000D01*
X100191050Y-61053000D01*
X99691050Y-61053000D01*
X99691050Y-60102000D01*
X99710735Y-60034961D01*
X99763539Y-59989206D01*
X99815050Y-59978000D01*
X99941050Y-59978000D01*
X99941050Y-59852000D01*
X99960735Y-59784961D01*
X100013539Y-59739206D01*
X100065050Y-59728000D01*
X100791050Y-59728000D01*
X100791050Y-59440552D01*
X100810735Y-59373513D01*
X100863539Y-59327758D01*
X100915031Y-59316552D01*
X100931083Y-59316549D01*
X100931083Y-59316550D01*
X100987476Y-59316541D01*
X101097429Y-59291428D01*
X101129935Y-59275769D01*
X101198871Y-59264409D01*
X101263009Y-59292122D01*
X101283014Y-59313172D01*
X101372259Y-59432387D01*
X101372262Y-59432390D01*
X101487356Y-59518550D01*
X101487363Y-59518554D01*
X101622070Y-59568796D01*
X101622077Y-59568798D01*
X101681605Y-59575199D01*
X101681622Y-59575200D01*
X102229450Y-59575200D01*
X102729450Y-59575200D01*
X103277278Y-59575200D01*
X103277294Y-59575199D01*
X103336822Y-59568798D01*
X103336829Y-59568796D01*
X103471536Y-59518554D01*
X103471543Y-59518550D01*
X103586637Y-59432390D01*
X103586640Y-59432387D01*
X103672800Y-59317293D01*
X103672804Y-59317286D01*
X103723046Y-59182579D01*
X103723048Y-59182572D01*
X103729449Y-59123044D01*
X103729450Y-59123027D01*
X103729450Y-58575200D01*
X102729450Y-58575200D01*
X102729450Y-59575200D01*
X102229450Y-59575200D01*
X102229450Y-58449200D01*
X102249135Y-58382161D01*
X102301939Y-58336406D01*
X102353450Y-58325200D01*
X102479450Y-58325200D01*
X102479450Y-58199200D01*
X102499135Y-58132161D01*
X102551939Y-58086406D01*
X102603450Y-58075200D01*
X103729450Y-58075200D01*
X103729450Y-57527372D01*
X103729449Y-57527355D01*
X103722219Y-57460113D01*
X103723815Y-57459941D01*
X103727071Y-57399244D01*
X103767938Y-57342573D01*
X103832957Y-57316993D01*
X103844006Y-57316500D01*
X108192138Y-57316500D01*
X108221578Y-57325144D01*
X108251565Y-57331668D01*
X108256580Y-57335422D01*
X108259177Y-57336185D01*
X108279819Y-57352819D01*
X108294231Y-57367231D01*
X108327716Y-57428554D01*
X108330550Y-57454912D01*
X108330550Y-60367873D01*
X108330599Y-60368368D01*
X108330599Y-60375771D01*
X108331000Y-60382909D01*
X108331000Y-60452000D01*
X108335549Y-60456549D01*
X108359591Y-60490433D01*
X108404619Y-60583947D01*
X108474917Y-60672110D01*
X108474923Y-60672116D01*
X108474924Y-60672117D01*
X108478773Y-60675187D01*
X108563087Y-60742438D01*
X108664687Y-60791381D01*
X108664689Y-60791382D01*
X108744300Y-60809564D01*
X108774630Y-60816491D01*
X108787291Y-60816492D01*
X108791152Y-60816493D01*
X108791168Y-60816500D01*
X108831016Y-60816500D01*
X108831024Y-60816500D01*
X108870899Y-60816507D01*
X108870901Y-60816506D01*
X108882983Y-60816508D01*
X108883076Y-60816500D01*
X109206550Y-60816500D01*
X109273589Y-60836185D01*
X109319344Y-60888989D01*
X109330550Y-60940500D01*
X109330550Y-64751691D01*
X109310865Y-64818730D01*
X109258061Y-64864485D01*
X109188903Y-64874429D01*
X109125347Y-64845404D01*
X109118869Y-64839372D01*
X109117089Y-64837592D01*
X109117087Y-64837590D01*
X109046957Y-64797100D01*
X109013814Y-64777964D01*
X108956219Y-64762532D01*
X108898625Y-64747100D01*
X108779375Y-64747100D01*
X108664187Y-64777964D01*
X108664186Y-64777964D01*
X108664184Y-64777965D01*
X108664183Y-64777965D01*
X108659816Y-64780487D01*
X108644327Y-64784637D01*
X108632751Y-64792077D01*
X108597816Y-64797100D01*
X108560655Y-64797100D01*
X108560639Y-64797099D01*
X108553043Y-64797099D01*
X108446957Y-64797099D01*
X108366141Y-64818754D01*
X108357738Y-64821005D01*
X108344487Y-64824556D01*
X108344478Y-64824560D01*
X108252619Y-64877594D01*
X108252615Y-64877597D01*
X107055739Y-66074473D01*
X107055724Y-66074486D01*
X107055725Y-66074487D01*
X106977597Y-66152615D01*
X106977594Y-66152619D01*
X106924560Y-66244478D01*
X106924556Y-66244487D01*
X106921619Y-66255448D01*
X106918754Y-66266141D01*
X106897099Y-66346957D01*
X106897099Y-66453043D01*
X106897100Y-66453046D01*
X106897100Y-66470032D01*
X106897100Y-67314252D01*
X106877415Y-67381291D01*
X106824611Y-67427046D01*
X106820553Y-67428813D01*
X106815341Y-67430971D01*
X106764766Y-67464765D01*
X106730971Y-67515343D01*
X106730970Y-67515345D01*
X106722100Y-67559940D01*
X106722100Y-68440053D01*
X106722101Y-68440057D01*
X106724240Y-68450813D01*
X106724240Y-68499179D01*
X106722100Y-68509939D01*
X106722100Y-68856750D01*
X106702415Y-68923789D01*
X106685781Y-68944431D01*
X105155739Y-70474473D01*
X105155724Y-70474486D01*
X105155725Y-70474487D01*
X105077597Y-70552615D01*
X105024556Y-70644487D01*
X105020577Y-70659339D01*
X105020576Y-70659343D01*
X104997099Y-70746954D01*
X104997099Y-70853043D01*
X105009066Y-70897702D01*
X105009066Y-70897704D01*
X105024555Y-70955509D01*
X105024557Y-70955514D01*
X105077599Y-71047387D01*
X105152613Y-71122401D01*
X105244486Y-71175443D01*
X105266136Y-71181243D01*
X105266140Y-71181246D01*
X105266141Y-71181245D01*
X105346957Y-71202901D01*
X105453042Y-71202901D01*
X105453043Y-71202901D01*
X105533858Y-71181245D01*
X105555514Y-71175443D01*
X105555516Y-71175441D01*
X105559806Y-71174292D01*
X105559807Y-71174292D01*
X105559811Y-71174291D01*
X105598893Y-71175222D01*
X105629656Y-71175955D01*
X105629657Y-71175955D01*
X105629661Y-71175956D01*
X105667178Y-71201350D01*
X105687518Y-71215117D01*
X105687518Y-71215118D01*
X105687522Y-71215121D01*
X105703831Y-71253211D01*
X105715023Y-71279345D01*
X105715023Y-71279349D01*
X105715024Y-71279351D01*
X105715023Y-71279353D01*
X105715900Y-71294067D01*
X105715900Y-72113867D01*
X105696215Y-72180906D01*
X105660791Y-72216969D01*
X105552601Y-72289259D01*
X105552597Y-72289262D01*
X105461662Y-72380197D01*
X105461659Y-72380201D01*
X105390211Y-72487129D01*
X105390206Y-72487138D01*
X105340991Y-72605955D01*
X105340989Y-72605961D01*
X105315900Y-72732092D01*
X105315900Y-72732095D01*
X105315900Y-72860705D01*
X105315900Y-72860707D01*
X105315899Y-72860707D01*
X105340989Y-72986838D01*
X105340991Y-72986844D01*
X105390206Y-73105661D01*
X105390211Y-73105670D01*
X105461659Y-73212598D01*
X105461662Y-73212602D01*
X105552597Y-73303537D01*
X105552601Y-73303540D01*
X105659529Y-73374988D01*
X105659535Y-73374991D01*
X105659536Y-73374992D01*
X105778356Y-73424209D01*
X105778360Y-73424209D01*
X105778361Y-73424210D01*
X105904492Y-73449300D01*
X105904495Y-73449300D01*
X106033107Y-73449300D01*
X106117965Y-73432419D01*
X106159244Y-73424209D01*
X106278064Y-73374992D01*
X106384999Y-73303540D01*
X106475940Y-73212599D01*
X106547392Y-73105664D01*
X106596609Y-72986844D01*
X106621700Y-72860705D01*
X106621700Y-72732095D01*
X106621700Y-72732092D01*
X106596610Y-72605961D01*
X106596609Y-72605960D01*
X106596609Y-72605956D01*
X106547392Y-72487136D01*
X106547391Y-72487135D01*
X106547388Y-72487129D01*
X106475940Y-72380201D01*
X106475937Y-72380197D01*
X106385002Y-72289262D01*
X106384998Y-72289259D01*
X106276809Y-72216969D01*
X106232004Y-72163357D01*
X106221700Y-72113867D01*
X106221700Y-70599447D01*
X106230345Y-70570003D01*
X106236868Y-70540021D01*
X106240622Y-70535005D01*
X106241385Y-70532408D01*
X106258010Y-70511775D01*
X106398102Y-70371682D01*
X106398112Y-70371675D01*
X106407006Y-70362780D01*
X106407008Y-70362780D01*
X106482022Y-70287766D01*
X106482022Y-70287764D01*
X106490920Y-70278867D01*
X106490928Y-70278856D01*
X107205568Y-69564218D01*
X107266891Y-69530733D01*
X107293249Y-69527899D01*
X107740055Y-69527899D01*
X107740056Y-69527899D01*
X107784658Y-69519028D01*
X107835234Y-69485234D01*
X107869028Y-69434658D01*
X107877900Y-69390057D01*
X107877899Y-68509944D01*
X107875760Y-68499189D01*
X107875762Y-68450805D01*
X107875878Y-68450218D01*
X107877900Y-68440057D01*
X107877899Y-67559944D01*
X107869028Y-67515342D01*
X107869026Y-67515340D01*
X107869026Y-67515338D01*
X107835234Y-67464766D01*
X107817475Y-67452900D01*
X107784658Y-67430972D01*
X107784656Y-67430971D01*
X107784654Y-67430970D01*
X107779442Y-67428811D01*
X107725040Y-67384967D01*
X107702979Y-67318672D01*
X107702900Y-67314252D01*
X107702900Y-66618247D01*
X107722585Y-66551208D01*
X107739215Y-66530570D01*
X108600602Y-65669182D01*
X108661923Y-65635699D01*
X108720369Y-65637089D01*
X108779375Y-65652900D01*
X108779378Y-65652900D01*
X108898623Y-65652900D01*
X108898625Y-65652900D01*
X109013813Y-65622036D01*
X109117087Y-65562410D01*
X109118869Y-65560628D01*
X109120739Y-65559606D01*
X109123533Y-65557463D01*
X109123867Y-65557898D01*
X109180192Y-65527143D01*
X109249884Y-65532127D01*
X109305817Y-65573999D01*
X109330234Y-65639463D01*
X109330550Y-65648309D01*
X109330550Y-76077773D01*
X109310865Y-76144812D01*
X109258061Y-76190567D01*
X109188903Y-76200511D01*
X109125347Y-76171486D01*
X109088620Y-76116094D01*
X109082607Y-76097588D01*
X108986101Y-75908184D01*
X108986099Y-75908181D01*
X108986098Y-75908179D01*
X108861159Y-75736213D01*
X108710836Y-75585890D01*
X108538870Y-75460951D01*
X108349464Y-75364444D01*
X108349463Y-75364443D01*
X108349462Y-75364443D01*
X108147293Y-75298754D01*
X108147291Y-75298753D01*
X108147290Y-75298753D01*
X107986007Y-75273208D01*
X107937337Y-75265500D01*
X107724763Y-75265500D01*
X107676092Y-75273208D01*
X107514810Y-75298753D01*
X107312635Y-75364444D01*
X107123229Y-75460951D01*
X106951263Y-75585890D01*
X106800940Y-75736213D01*
X106676001Y-75908179D01*
X106579494Y-76097585D01*
X106513803Y-76299760D01*
X106506276Y-76347284D01*
X106480550Y-76509713D01*
X106480550Y-76722287D01*
X106513804Y-76932243D01*
X106565670Y-77091870D01*
X106579494Y-77134414D01*
X106676001Y-77323820D01*
X106800940Y-77495786D01*
X106951263Y-77646109D01*
X107123229Y-77771048D01*
X107123231Y-77771049D01*
X107123234Y-77771051D01*
X107312638Y-77867557D01*
X107514807Y-77933246D01*
X107724763Y-77966500D01*
X107724764Y-77966500D01*
X107937336Y-77966500D01*
X107937337Y-77966500D01*
X108147293Y-77933246D01*
X108349462Y-77867557D01*
X108538866Y-77771051D01*
X108640784Y-77697004D01*
X108710836Y-77646109D01*
X108710838Y-77646106D01*
X108710842Y-77646104D01*
X108861154Y-77495792D01*
X108861156Y-77495788D01*
X108861159Y-77495786D01*
X108986098Y-77323820D01*
X108986097Y-77323820D01*
X108986101Y-77323816D01*
X109082607Y-77134412D01*
X109088619Y-77115907D01*
X109128056Y-77058232D01*
X109192415Y-77031034D01*
X109261261Y-77042949D01*
X109312737Y-77090193D01*
X109330550Y-77154226D01*
X109330550Y-84674088D01*
X109321905Y-84703528D01*
X109315382Y-84733515D01*
X109311627Y-84738530D01*
X109310865Y-84741127D01*
X109294231Y-84761769D01*
X109236819Y-84819181D01*
X109175496Y-84852666D01*
X109149138Y-84855500D01*
X83890862Y-84855500D01*
X83823823Y-84835815D01*
X83803181Y-84819181D01*
X83767880Y-84783880D01*
X83734395Y-84722557D01*
X83731562Y-84696183D01*
X83732320Y-80927553D01*
X84975050Y-80927553D01*
X84975050Y-81140046D01*
X85008292Y-81349927D01*
X85008292Y-81349930D01*
X85073954Y-81552017D01*
X85170425Y-81741350D01*
X85209778Y-81795516D01*
X85842087Y-81163208D01*
X85859125Y-81226793D01*
X85924951Y-81340807D01*
X86018043Y-81433899D01*
X86132057Y-81499725D01*
X86195640Y-81516762D01*
X85563332Y-82149069D01*
X85563332Y-82149070D01*
X85617499Y-82188424D01*
X85806832Y-82284895D01*
X86008920Y-82350557D01*
X86218804Y-82383800D01*
X86431296Y-82383800D01*
X86641177Y-82350557D01*
X86641180Y-82350557D01*
X86843267Y-82284895D01*
X87032604Y-82188422D01*
X87086766Y-82149070D01*
X87086767Y-82149070D01*
X86454458Y-81516762D01*
X86518043Y-81499725D01*
X86632057Y-81433899D01*
X86725149Y-81340807D01*
X86790975Y-81226793D01*
X86808012Y-81163208D01*
X87440320Y-81795517D01*
X87440320Y-81795516D01*
X87479672Y-81741354D01*
X87576145Y-81552017D01*
X87641806Y-81349933D01*
X87650021Y-81298062D01*
X87679950Y-81234927D01*
X87739261Y-81197995D01*
X87809123Y-81198991D01*
X87867357Y-81237600D01*
X87894112Y-81293264D01*
X87900690Y-81326331D01*
X87900691Y-81326336D01*
X87976287Y-81508843D01*
X87976293Y-81508854D01*
X88086047Y-81673114D01*
X88225735Y-81812802D01*
X88225738Y-81812804D01*
X88389999Y-81922559D01*
X88572515Y-81998159D01*
X88572517Y-81998159D01*
X88572522Y-81998161D01*
X88766268Y-82036699D01*
X88766271Y-82036700D01*
X88766273Y-82036700D01*
X88963829Y-82036700D01*
X88963830Y-82036699D01*
X89033641Y-82022813D01*
X89157577Y-81998161D01*
X89157580Y-81998159D01*
X89157585Y-81998159D01*
X89340101Y-81922559D01*
X89504362Y-81812804D01*
X89644054Y-81673112D01*
X89753809Y-81508851D01*
X89829409Y-81326335D01*
X89832487Y-81310864D01*
X89859714Y-81173980D01*
X89867950Y-81132577D01*
X89867950Y-80935023D01*
X89867950Y-80935020D01*
X89867949Y-80935018D01*
X90402150Y-80935018D01*
X90402150Y-81132581D01*
X90440688Y-81326327D01*
X90440691Y-81326336D01*
X90516287Y-81508843D01*
X90516293Y-81508854D01*
X90626047Y-81673114D01*
X90765735Y-81812802D01*
X90765738Y-81812804D01*
X90929999Y-81922559D01*
X90930005Y-81922561D01*
X90930006Y-81922562D01*
X91083305Y-81986060D01*
X91107194Y-82005311D01*
X91132403Y-82022813D01*
X91135600Y-82028201D01*
X91137709Y-82029901D01*
X91150413Y-82053166D01*
X91168096Y-82095854D01*
X91168096Y-82095855D01*
X91168098Y-82095858D01*
X91190650Y-82150306D01*
X91271997Y-82231653D01*
X91272007Y-82231661D01*
X91479599Y-82439253D01*
X91479601Y-82439257D01*
X91550743Y-82510399D01*
X91605193Y-82532952D01*
X91643695Y-82548901D01*
X91643697Y-82548901D01*
X91758739Y-82548901D01*
X91758747Y-82548900D01*
X95707693Y-82548900D01*
X95707695Y-82548901D01*
X95808305Y-82548901D01*
X95808307Y-82548900D01*
X102033303Y-82548900D01*
X102033311Y-82548901D01*
X102047745Y-82548901D01*
X102148355Y-82548901D01*
X102175579Y-82537623D01*
X102186857Y-82532952D01*
X102186859Y-82532950D01*
X102241307Y-82510399D01*
X102312449Y-82439257D01*
X102312449Y-82439254D01*
X102324364Y-82427340D01*
X102324367Y-82427335D01*
X102970913Y-81780789D01*
X103032235Y-81747306D01*
X103101927Y-81752290D01*
X103146274Y-81780791D01*
X103195885Y-81830402D01*
X103195888Y-81830404D01*
X103360149Y-81940159D01*
X103360155Y-81940161D01*
X103360156Y-81940162D01*
X103410594Y-81961054D01*
X103542665Y-82015759D01*
X103542667Y-82015759D01*
X103542672Y-82015761D01*
X103736418Y-82054299D01*
X103736421Y-82054300D01*
X103736423Y-82054300D01*
X103933979Y-82054300D01*
X103933980Y-82054299D01*
X103998563Y-82041453D01*
X104127727Y-82015761D01*
X104127730Y-82015759D01*
X104127735Y-82015759D01*
X104310251Y-81940159D01*
X104474512Y-81830404D01*
X104614204Y-81690712D01*
X104723959Y-81526451D01*
X104799559Y-81343935D01*
X104800182Y-81340807D01*
X104838099Y-81150181D01*
X104838100Y-81150179D01*
X104838100Y-80952620D01*
X104838099Y-80952618D01*
X104799561Y-80758872D01*
X104799558Y-80758863D01*
X104793564Y-80744393D01*
X104723959Y-80576349D01*
X104614204Y-80412088D01*
X104614202Y-80412085D01*
X104474515Y-80272398D01*
X104345719Y-80186340D01*
X105372300Y-80186340D01*
X105372300Y-81916454D01*
X105381172Y-81961058D01*
X105381173Y-81961061D01*
X105411723Y-82006781D01*
X105414966Y-82011634D01*
X105465542Y-82045428D01*
X105465543Y-82045428D01*
X105465545Y-82045429D01*
X105487842Y-82049864D01*
X105510143Y-82054300D01*
X107240256Y-82054299D01*
X107284858Y-82045428D01*
X107335434Y-82011634D01*
X107369228Y-81961058D01*
X107378100Y-81916457D01*
X107378099Y-80186344D01*
X107369228Y-80141742D01*
X107369226Y-80141740D01*
X107369226Y-80141738D01*
X107335434Y-80091166D01*
X107335433Y-80091165D01*
X107284858Y-80057372D01*
X107284857Y-80057371D01*
X107284856Y-80057371D01*
X107284854Y-80057370D01*
X107240259Y-80048500D01*
X105510145Y-80048500D01*
X105465541Y-80057372D01*
X105465538Y-80057373D01*
X105414966Y-80091165D01*
X105381171Y-80141743D01*
X105381170Y-80141745D01*
X105372300Y-80186340D01*
X104345719Y-80186340D01*
X104310254Y-80162643D01*
X104310253Y-80162642D01*
X104310251Y-80162641D01*
X104310248Y-80162639D01*
X104310243Y-80162637D01*
X104127736Y-80087041D01*
X104127727Y-80087038D01*
X103933980Y-80048500D01*
X103933977Y-80048500D01*
X103736423Y-80048500D01*
X103736420Y-80048500D01*
X103542672Y-80087038D01*
X103542663Y-80087041D01*
X103360156Y-80162637D01*
X103360145Y-80162643D01*
X103195885Y-80272397D01*
X103056197Y-80412085D01*
X102946443Y-80576345D01*
X102946437Y-80576356D01*
X102870841Y-80758863D01*
X102870838Y-80758872D01*
X102832300Y-80952618D01*
X102832300Y-81152732D01*
X102812615Y-81219771D01*
X102795981Y-81240413D01*
X102394255Y-81642140D01*
X102332932Y-81675625D01*
X102263241Y-81670641D01*
X102207307Y-81628770D01*
X102182890Y-81563305D01*
X102192013Y-81507007D01*
X102249784Y-81367533D01*
X102259559Y-81343935D01*
X102260182Y-81340807D01*
X102298099Y-81150181D01*
X102298100Y-81150179D01*
X102298100Y-80952620D01*
X102298099Y-80952618D01*
X102259561Y-80758872D01*
X102259558Y-80758863D01*
X102253564Y-80744393D01*
X102183959Y-80576349D01*
X102074204Y-80412088D01*
X102074202Y-80412085D01*
X101934514Y-80272397D01*
X101770254Y-80162643D01*
X101770253Y-80162642D01*
X101770251Y-80162641D01*
X101770248Y-80162639D01*
X101770243Y-80162637D01*
X101587736Y-80087041D01*
X101587727Y-80087038D01*
X101393980Y-80048500D01*
X101393977Y-80048500D01*
X101196423Y-80048500D01*
X101196420Y-80048500D01*
X101002672Y-80087038D01*
X101002663Y-80087041D01*
X100820156Y-80162637D01*
X100820145Y-80162643D01*
X100655885Y-80272397D01*
X100516197Y-80412085D01*
X100406443Y-80576345D01*
X100406437Y-80576356D01*
X100330841Y-80758863D01*
X100330840Y-80758868D01*
X100324262Y-80791935D01*
X100291875Y-80853846D01*
X100231158Y-80888418D01*
X100161389Y-80884677D01*
X100104718Y-80843809D01*
X100080171Y-80787137D01*
X100071956Y-80735266D01*
X100006295Y-80533182D01*
X99909824Y-80343849D01*
X99870470Y-80289682D01*
X99870469Y-80289682D01*
X99238162Y-80921989D01*
X99221125Y-80858407D01*
X99155299Y-80744393D01*
X99062207Y-80651301D01*
X98948193Y-80585475D01*
X98884609Y-80568437D01*
X99516916Y-79936128D01*
X99462750Y-79896775D01*
X99273417Y-79800304D01*
X99071329Y-79734642D01*
X98861446Y-79701400D01*
X98648954Y-79701400D01*
X98439072Y-79734642D01*
X98439069Y-79734642D01*
X98236982Y-79800304D01*
X98047639Y-79896780D01*
X97993482Y-79936127D01*
X97993482Y-79936128D01*
X98625791Y-80568437D01*
X98562207Y-80585475D01*
X98448193Y-80651301D01*
X98355101Y-80744393D01*
X98289275Y-80858407D01*
X98272237Y-80921991D01*
X97639928Y-80289682D01*
X97639927Y-80289682D01*
X97600580Y-80343839D01*
X97504104Y-80533182D01*
X97438442Y-80735269D01*
X97438442Y-80735272D01*
X97405200Y-80945153D01*
X97405200Y-81157646D01*
X97438442Y-81367527D01*
X97438442Y-81367530D01*
X97504104Y-81569617D01*
X97600579Y-81758957D01*
X97663975Y-81846215D01*
X97687455Y-81912021D01*
X97671629Y-81980075D01*
X97621524Y-82028770D01*
X97563657Y-82043100D01*
X96619650Y-82043100D01*
X96552611Y-82023415D01*
X96506856Y-81970611D01*
X96496555Y-81904148D01*
X96498599Y-81887314D01*
X96499649Y-81884781D01*
X96518901Y-81838305D01*
X96518901Y-81737695D01*
X96518900Y-81737692D01*
X96518900Y-78436166D01*
X96538585Y-78369127D01*
X96555219Y-78348485D01*
X96766911Y-78136793D01*
X97054778Y-77848925D01*
X97116099Y-77815442D01*
X97185790Y-77820426D01*
X97189865Y-77822029D01*
X97335515Y-77882359D01*
X97335518Y-77882359D01*
X97335522Y-77882361D01*
X97529268Y-77920899D01*
X97529271Y-77920900D01*
X97529273Y-77920900D01*
X97726829Y-77920900D01*
X97726830Y-77920899D01*
X97791413Y-77908053D01*
X97920577Y-77882361D01*
X97920580Y-77882359D01*
X97920585Y-77882359D01*
X98103101Y-77806759D01*
X98267362Y-77697004D01*
X98407054Y-77557312D01*
X98516809Y-77393051D01*
X98592409Y-77210535D01*
X98598988Y-77177464D01*
X98630949Y-77016781D01*
X98630950Y-77016779D01*
X98630950Y-76819220D01*
X98630949Y-76819218D01*
X98592411Y-76625472D01*
X98592408Y-76625463D01*
X98592406Y-76625459D01*
X98516809Y-76442949D01*
X98407054Y-76278688D01*
X98407052Y-76278685D01*
X98267365Y-76138998D01*
X98138569Y-76052940D01*
X99165150Y-76052940D01*
X99165150Y-77783054D01*
X99174022Y-77827658D01*
X99174023Y-77827661D01*
X99201031Y-77868080D01*
X99207816Y-77878234D01*
X99258392Y-77912028D01*
X99258393Y-77912028D01*
X99258395Y-77912029D01*
X99280692Y-77916464D01*
X99302993Y-77920900D01*
X101033106Y-77920899D01*
X101077708Y-77912028D01*
X101128284Y-77878234D01*
X101162078Y-77827658D01*
X101170950Y-77783057D01*
X101170949Y-76052944D01*
X101162078Y-76008342D01*
X101162076Y-76008340D01*
X101162076Y-76008338D01*
X101128284Y-75957766D01*
X101128283Y-75957765D01*
X101077708Y-75923972D01*
X101077707Y-75923971D01*
X101077706Y-75923971D01*
X101077704Y-75923970D01*
X101033109Y-75915100D01*
X99302995Y-75915100D01*
X99258391Y-75923972D01*
X99258388Y-75923973D01*
X99207816Y-75957765D01*
X99174021Y-76008343D01*
X99174020Y-76008345D01*
X99165150Y-76052940D01*
X98138569Y-76052940D01*
X98103104Y-76029243D01*
X98103103Y-76029242D01*
X98103101Y-76029241D01*
X98103098Y-76029239D01*
X98103093Y-76029237D01*
X97920586Y-75953641D01*
X97920577Y-75953638D01*
X97726830Y-75915100D01*
X97726827Y-75915100D01*
X97529273Y-75915100D01*
X97529270Y-75915100D01*
X97341741Y-75952402D01*
X97272150Y-75946175D01*
X97216972Y-75903312D01*
X97193728Y-75837422D01*
X97193550Y-75830785D01*
X97193550Y-74973399D01*
X97213235Y-74906360D01*
X97266039Y-74860605D01*
X97293358Y-74851782D01*
X97325308Y-74845428D01*
X97375884Y-74811634D01*
X97409678Y-74761058D01*
X97418550Y-74716457D01*
X97418549Y-73836344D01*
X97416410Y-73825589D01*
X97416412Y-73777205D01*
X97416528Y-73776618D01*
X97418550Y-73766457D01*
X97418549Y-72886344D01*
X97409678Y-72841742D01*
X97409676Y-72841740D01*
X97409676Y-72841738D01*
X97375884Y-72791166D01*
X97325309Y-72757373D01*
X97325308Y-72757372D01*
X97325307Y-72757371D01*
X97325306Y-72757371D01*
X97325304Y-72757370D01*
X97280709Y-72748500D01*
X97280707Y-72748500D01*
X97217550Y-72748500D01*
X97150511Y-72728815D01*
X97104756Y-72676011D01*
X97093550Y-72624500D01*
X97093550Y-71157376D01*
X97113235Y-71090337D01*
X97142066Y-71058998D01*
X97144126Y-71057415D01*
X97144137Y-71057410D01*
X97228460Y-70973087D01*
X97232221Y-70966572D01*
X100963979Y-70966572D01*
X100999328Y-70990192D01*
X101181306Y-71065569D01*
X101181318Y-71065572D01*
X101374504Y-71103999D01*
X101374508Y-71104000D01*
X101571492Y-71104000D01*
X101571495Y-71103999D01*
X101764681Y-71065572D01*
X101764693Y-71065569D01*
X101946676Y-70990190D01*
X101946680Y-70990187D01*
X101982019Y-70966573D01*
X101982020Y-70966572D01*
X101473001Y-70457553D01*
X101473000Y-70457553D01*
X100963979Y-70966572D01*
X97232221Y-70966572D01*
X97288086Y-70869813D01*
X97318950Y-70754625D01*
X97318950Y-70635375D01*
X97288086Y-70520187D01*
X97228460Y-70416913D01*
X97144137Y-70332590D01*
X97066492Y-70287761D01*
X97040864Y-70272964D01*
X96983269Y-70257532D01*
X96925675Y-70242100D01*
X96806425Y-70242100D01*
X96691235Y-70272964D01*
X96587963Y-70332590D01*
X96587960Y-70332592D01*
X96503642Y-70416910D01*
X96503640Y-70416913D01*
X96444014Y-70520185D01*
X96413150Y-70635375D01*
X96413150Y-70754624D01*
X96444014Y-70869814D01*
X96473827Y-70921450D01*
X96503640Y-70973087D01*
X96503642Y-70973089D01*
X96551431Y-71020878D01*
X96584916Y-71082201D01*
X96587750Y-71108559D01*
X96587750Y-72624500D01*
X96568065Y-72691539D01*
X96515261Y-72737294D01*
X96463752Y-72748500D01*
X96400595Y-72748500D01*
X96355991Y-72757372D01*
X96355988Y-72757373D01*
X96305416Y-72791165D01*
X96271621Y-72841743D01*
X96271620Y-72841745D01*
X96262750Y-72886340D01*
X96262750Y-73766453D01*
X96262751Y-73766457D01*
X96264890Y-73777213D01*
X96264890Y-73825577D01*
X96262750Y-73836335D01*
X96262750Y-74716454D01*
X96271622Y-74761058D01*
X96271623Y-74761061D01*
X96305415Y-74811633D01*
X96305416Y-74811634D01*
X96355992Y-74845428D01*
X96387941Y-74851783D01*
X96449851Y-74884166D01*
X96484426Y-74944881D01*
X96487750Y-74973399D01*
X96487750Y-76084140D01*
X96487750Y-76177060D01*
X96492715Y-76195588D01*
X96511800Y-76266814D01*
X96558259Y-76347284D01*
X96558261Y-76347287D01*
X96655700Y-76444726D01*
X96689185Y-76506049D01*
X96684201Y-76575741D01*
X96682581Y-76579856D01*
X96663692Y-76625459D01*
X96663688Y-76625472D01*
X96625150Y-76819218D01*
X96625150Y-77016781D01*
X96663688Y-77210527D01*
X96663691Y-77210536D01*
X96724001Y-77356139D01*
X96731470Y-77425609D01*
X96700194Y-77488088D01*
X96697121Y-77491272D01*
X96127084Y-78061310D01*
X96127073Y-78061319D01*
X96127074Y-78061320D01*
X96051600Y-78136793D01*
X96029047Y-78191243D01*
X96013099Y-78229743D01*
X96013099Y-78344788D01*
X96013100Y-78344797D01*
X96013100Y-81631883D01*
X95993415Y-81698922D01*
X95976781Y-81719564D01*
X95689565Y-82006781D01*
X95628242Y-82040266D01*
X95601884Y-82043100D01*
X95070353Y-82043100D01*
X95003314Y-82023415D01*
X94957559Y-81970611D01*
X94948124Y-81904997D01*
X94947353Y-81904922D01*
X94947662Y-81901781D01*
X94947615Y-81901453D01*
X94947802Y-81900359D01*
X94947948Y-81898864D01*
X94947950Y-81898857D01*
X94947949Y-80168744D01*
X94939078Y-80124142D01*
X94939076Y-80124140D01*
X94939076Y-80124138D01*
X94905284Y-80073566D01*
X94905283Y-80073565D01*
X94854708Y-80039772D01*
X94854707Y-80039771D01*
X94854706Y-80039771D01*
X94854704Y-80039770D01*
X94810109Y-80030900D01*
X93079995Y-80030900D01*
X93035391Y-80039772D01*
X93035388Y-80039773D01*
X92984816Y-80073565D01*
X92951021Y-80124143D01*
X92951020Y-80124145D01*
X92942150Y-80168740D01*
X92942150Y-81898855D01*
X92942748Y-81904918D01*
X92940445Y-81905144D01*
X92935148Y-81964478D01*
X92892295Y-82019664D01*
X92826410Y-82042921D01*
X92819749Y-82043100D01*
X92108473Y-82043100D01*
X92041434Y-82023415D01*
X91995679Y-81970611D01*
X91985735Y-81901453D01*
X92014760Y-81837897D01*
X92039584Y-81815997D01*
X92042349Y-81814148D01*
X92044362Y-81812804D01*
X92184054Y-81673112D01*
X92293809Y-81508851D01*
X92369409Y-81326335D01*
X92372487Y-81310864D01*
X92399714Y-81173980D01*
X92407950Y-81132577D01*
X92407950Y-80935023D01*
X92407950Y-80935020D01*
X92407949Y-80935018D01*
X92369411Y-80741272D01*
X92369408Y-80741263D01*
X92366926Y-80735272D01*
X92301099Y-80576349D01*
X92293812Y-80558756D01*
X92293811Y-80558755D01*
X92293809Y-80558749D01*
X92184054Y-80394488D01*
X92184052Y-80394485D01*
X92044364Y-80254797D01*
X91880104Y-80145043D01*
X91880103Y-80145042D01*
X91880101Y-80145041D01*
X91880098Y-80145039D01*
X91880093Y-80145037D01*
X91697586Y-80069441D01*
X91697577Y-80069438D01*
X91503830Y-80030900D01*
X91503827Y-80030900D01*
X91306273Y-80030900D01*
X91306270Y-80030900D01*
X91112522Y-80069438D01*
X91112513Y-80069441D01*
X90930006Y-80145037D01*
X90929995Y-80145043D01*
X90765735Y-80254797D01*
X90626047Y-80394485D01*
X90516293Y-80558745D01*
X90516287Y-80558756D01*
X90440691Y-80741263D01*
X90440688Y-80741272D01*
X90402150Y-80935018D01*
X89867949Y-80935018D01*
X89829411Y-80741272D01*
X89829408Y-80741263D01*
X89826926Y-80735272D01*
X89761099Y-80576349D01*
X89753812Y-80558756D01*
X89753811Y-80558755D01*
X89753809Y-80558749D01*
X89644054Y-80394488D01*
X89644052Y-80394485D01*
X89504364Y-80254797D01*
X89340104Y-80145043D01*
X89340103Y-80145042D01*
X89340101Y-80145041D01*
X89340098Y-80145039D01*
X89340093Y-80145037D01*
X89157586Y-80069441D01*
X89157577Y-80069438D01*
X88963830Y-80030900D01*
X88963827Y-80030900D01*
X88766273Y-80030900D01*
X88766270Y-80030900D01*
X88572522Y-80069438D01*
X88572513Y-80069441D01*
X88390006Y-80145037D01*
X88389995Y-80145043D01*
X88225735Y-80254797D01*
X88086047Y-80394485D01*
X87976293Y-80558745D01*
X87976287Y-80558756D01*
X87900691Y-80741263D01*
X87900690Y-80741268D01*
X87894112Y-80774335D01*
X87861725Y-80836246D01*
X87801008Y-80870818D01*
X87731239Y-80867077D01*
X87674568Y-80826209D01*
X87650021Y-80769537D01*
X87641806Y-80717666D01*
X87576145Y-80515582D01*
X87479674Y-80326249D01*
X87440320Y-80272082D01*
X87440319Y-80272082D01*
X86808012Y-80904390D01*
X86790975Y-80840807D01*
X86725149Y-80726793D01*
X86632057Y-80633701D01*
X86518043Y-80567875D01*
X86454459Y-80550837D01*
X87086766Y-79918528D01*
X87032600Y-79879175D01*
X86843267Y-79782704D01*
X86641179Y-79717042D01*
X86431296Y-79683800D01*
X86218804Y-79683800D01*
X86008922Y-79717042D01*
X86008919Y-79717042D01*
X85806832Y-79782704D01*
X85617489Y-79879180D01*
X85563332Y-79918527D01*
X85563332Y-79918528D01*
X86195641Y-80550837D01*
X86132057Y-80567875D01*
X86018043Y-80633701D01*
X85924951Y-80726793D01*
X85859125Y-80840807D01*
X85842087Y-80904391D01*
X85209778Y-80272082D01*
X85209777Y-80272082D01*
X85170430Y-80326239D01*
X85073954Y-80515582D01*
X85008292Y-80717669D01*
X85008292Y-80717672D01*
X84975050Y-80927553D01*
X83732320Y-80927553D01*
X83733079Y-77158901D01*
X83752776Y-77091870D01*
X83805589Y-77046125D01*
X83874750Y-77036196D01*
X83938300Y-77065233D01*
X83975008Y-77120609D01*
X83979493Y-77134413D01*
X84076001Y-77323820D01*
X84200940Y-77495786D01*
X84351263Y-77646109D01*
X84523229Y-77771048D01*
X84523231Y-77771049D01*
X84523234Y-77771051D01*
X84712638Y-77867557D01*
X84914807Y-77933246D01*
X85124763Y-77966500D01*
X85124764Y-77966500D01*
X85337336Y-77966500D01*
X85337337Y-77966500D01*
X85547293Y-77933246D01*
X85749462Y-77867557D01*
X85938866Y-77771051D01*
X86040784Y-77697004D01*
X86110836Y-77646109D01*
X86110838Y-77646106D01*
X86110842Y-77646104D01*
X86261154Y-77495792D01*
X86261156Y-77495788D01*
X86261159Y-77495786D01*
X86386098Y-77323820D01*
X86386097Y-77323820D01*
X86386101Y-77323816D01*
X86482607Y-77134412D01*
X86548296Y-76932243D01*
X86567380Y-76811753D01*
X91198050Y-76811753D01*
X91198050Y-77024246D01*
X91231292Y-77234127D01*
X91231292Y-77234130D01*
X91296954Y-77436217D01*
X91393425Y-77625550D01*
X91432778Y-77679716D01*
X92065087Y-77047408D01*
X92082125Y-77110993D01*
X92147951Y-77225007D01*
X92241043Y-77318099D01*
X92355057Y-77383925D01*
X92418640Y-77400962D01*
X91786332Y-78033269D01*
X91786332Y-78033270D01*
X91840499Y-78072624D01*
X92029832Y-78169095D01*
X92231920Y-78234757D01*
X92441804Y-78268000D01*
X92654296Y-78268000D01*
X92864177Y-78234757D01*
X92864180Y-78234757D01*
X93066267Y-78169095D01*
X93255604Y-78072622D01*
X93309766Y-78033270D01*
X93309767Y-78033270D01*
X92677458Y-77400962D01*
X92741043Y-77383925D01*
X92855057Y-77318099D01*
X92948149Y-77225007D01*
X93013975Y-77110993D01*
X93031012Y-77047409D01*
X93663320Y-77679717D01*
X93663320Y-77679716D01*
X93702672Y-77625554D01*
X93799145Y-77436217D01*
X93864806Y-77234133D01*
X93873021Y-77182262D01*
X93902950Y-77119127D01*
X93962261Y-77082195D01*
X94032123Y-77083191D01*
X94090357Y-77121800D01*
X94117112Y-77177464D01*
X94123690Y-77210531D01*
X94123691Y-77210536D01*
X94199287Y-77393043D01*
X94199293Y-77393054D01*
X94309047Y-77557314D01*
X94448735Y-77697002D01*
X94448738Y-77697004D01*
X94612999Y-77806759D01*
X94795515Y-77882359D01*
X94795517Y-77882359D01*
X94795522Y-77882361D01*
X94989268Y-77920899D01*
X94989271Y-77920900D01*
X94989273Y-77920900D01*
X95186829Y-77920900D01*
X95186830Y-77920899D01*
X95251413Y-77908053D01*
X95380577Y-77882361D01*
X95380580Y-77882359D01*
X95380585Y-77882359D01*
X95563101Y-77806759D01*
X95727362Y-77697004D01*
X95867054Y-77557312D01*
X95976809Y-77393051D01*
X96052409Y-77210535D01*
X96058988Y-77177464D01*
X96090949Y-77016781D01*
X96090950Y-77016779D01*
X96090950Y-76819220D01*
X96090949Y-76819218D01*
X96052411Y-76625472D01*
X96052408Y-76625463D01*
X96052406Y-76625459D01*
X95976809Y-76442949D01*
X95867054Y-76278688D01*
X95867052Y-76278685D01*
X95727364Y-76138997D01*
X95665381Y-76097582D01*
X95563101Y-76029241D01*
X95563098Y-76029239D01*
X95563097Y-76029239D01*
X95517495Y-76010349D01*
X95463093Y-75966507D01*
X95441029Y-75900213D01*
X95440950Y-75895789D01*
X95440950Y-74973399D01*
X95460635Y-74906360D01*
X95513439Y-74860605D01*
X95540758Y-74851782D01*
X95572708Y-74845428D01*
X95623284Y-74811634D01*
X95657078Y-74761058D01*
X95665950Y-74716457D01*
X95665949Y-73836344D01*
X95663810Y-73825589D01*
X95663812Y-73777205D01*
X95663928Y-73776618D01*
X95665950Y-73766457D01*
X95665949Y-72886344D01*
X95657078Y-72841742D01*
X95657076Y-72841740D01*
X95657076Y-72841738D01*
X95623284Y-72791166D01*
X95572709Y-72757373D01*
X95572708Y-72757372D01*
X95572707Y-72757371D01*
X95572706Y-72757371D01*
X95572704Y-72757370D01*
X95528109Y-72748500D01*
X95528107Y-72748500D01*
X95464950Y-72748500D01*
X95397911Y-72728815D01*
X95352156Y-72676011D01*
X95340950Y-72624500D01*
X95340950Y-70005504D01*
X100473000Y-70005504D01*
X100473000Y-70202495D01*
X100511427Y-70395681D01*
X100511430Y-70395693D01*
X100586808Y-70577673D01*
X100586809Y-70577675D01*
X100610425Y-70613019D01*
X101119446Y-70104000D01*
X101119446Y-70103999D01*
X101826553Y-70103999D01*
X101826553Y-70104001D01*
X102335572Y-70613020D01*
X102335573Y-70613019D01*
X102359187Y-70577680D01*
X102359190Y-70577676D01*
X102434569Y-70395693D01*
X102434572Y-70395681D01*
X102472999Y-70202495D01*
X102473000Y-70202492D01*
X102473000Y-70005508D01*
X102472999Y-70005504D01*
X102434572Y-69812318D01*
X102434569Y-69812306D01*
X102359192Y-69630328D01*
X102335572Y-69594979D01*
X101826553Y-70103999D01*
X101119446Y-70103999D01*
X100610426Y-69594978D01*
X100610426Y-69594979D01*
X100586813Y-69630318D01*
X100586809Y-69630325D01*
X100511429Y-69812310D01*
X100511427Y-69812318D01*
X100473000Y-70005504D01*
X95340950Y-70005504D01*
X95340950Y-69863959D01*
X95360635Y-69796920D01*
X95377269Y-69776278D01*
X95411457Y-69742090D01*
X95450460Y-69703087D01*
X95510086Y-69599813D01*
X95540950Y-69484625D01*
X95540950Y-69365375D01*
X95510086Y-69250187D01*
X95505028Y-69241426D01*
X100963978Y-69241426D01*
X101473000Y-69750446D01*
X101473001Y-69750446D01*
X101982020Y-69241426D01*
X101946675Y-69217809D01*
X101946673Y-69217808D01*
X101764693Y-69142430D01*
X101764681Y-69142427D01*
X101571495Y-69104000D01*
X101374504Y-69104000D01*
X101181318Y-69142427D01*
X101181310Y-69142429D01*
X100999325Y-69217809D01*
X100999318Y-69217813D01*
X100963979Y-69241426D01*
X100963978Y-69241426D01*
X95505028Y-69241426D01*
X95450460Y-69146913D01*
X95366137Y-69062590D01*
X95279205Y-69012399D01*
X95262864Y-69002964D01*
X95199704Y-68986041D01*
X95147675Y-68972100D01*
X95028425Y-68972100D01*
X94913235Y-69002964D01*
X94809963Y-69062590D01*
X94809960Y-69062592D01*
X94725642Y-69146910D01*
X94725640Y-69146913D01*
X94666014Y-69250185D01*
X94635150Y-69365375D01*
X94635150Y-69484624D01*
X94666014Y-69599814D01*
X94683626Y-69630318D01*
X94725640Y-69703087D01*
X94725642Y-69703089D01*
X94798831Y-69776278D01*
X94832316Y-69837601D01*
X94835150Y-69863959D01*
X94835150Y-72624500D01*
X94815465Y-72691539D01*
X94762661Y-72737294D01*
X94711152Y-72748500D01*
X94647995Y-72748500D01*
X94603391Y-72757372D01*
X94603388Y-72757373D01*
X94552816Y-72791165D01*
X94519021Y-72841743D01*
X94519020Y-72841745D01*
X94510150Y-72886340D01*
X94510150Y-73766453D01*
X94510151Y-73766457D01*
X94512290Y-73777213D01*
X94512290Y-73825577D01*
X94510150Y-73836335D01*
X94510150Y-74716454D01*
X94519022Y-74761058D01*
X94519023Y-74761061D01*
X94552815Y-74811633D01*
X94552816Y-74811634D01*
X94603392Y-74845428D01*
X94635341Y-74851783D01*
X94697251Y-74884166D01*
X94731826Y-74944881D01*
X94735150Y-74973400D01*
X94735150Y-75895789D01*
X94715465Y-75962828D01*
X94662661Y-76008583D01*
X94658605Y-76010349D01*
X94613002Y-76029239D01*
X94448735Y-76138997D01*
X94309047Y-76278685D01*
X94199293Y-76442945D01*
X94199287Y-76442956D01*
X94123691Y-76625463D01*
X94123690Y-76625468D01*
X94117112Y-76658535D01*
X94084725Y-76720446D01*
X94024008Y-76755018D01*
X93954239Y-76751277D01*
X93897568Y-76710409D01*
X93873021Y-76653737D01*
X93864806Y-76601866D01*
X93799145Y-76399782D01*
X93702674Y-76210449D01*
X93663320Y-76156282D01*
X93663319Y-76156282D01*
X93031012Y-76788590D01*
X93013975Y-76725007D01*
X92948149Y-76610993D01*
X92855057Y-76517901D01*
X92741043Y-76452075D01*
X92677459Y-76435037D01*
X93309766Y-75802728D01*
X93255600Y-75763375D01*
X93066267Y-75666904D01*
X92864179Y-75601242D01*
X92654296Y-75568000D01*
X92441804Y-75568000D01*
X92231922Y-75601242D01*
X92231919Y-75601242D01*
X92029832Y-75666904D01*
X91840489Y-75763380D01*
X91786332Y-75802727D01*
X91786332Y-75802728D01*
X92418641Y-76435037D01*
X92355057Y-76452075D01*
X92241043Y-76517901D01*
X92147951Y-76610993D01*
X92082125Y-76725007D01*
X92065087Y-76788591D01*
X91432778Y-76156282D01*
X91432777Y-76156282D01*
X91393430Y-76210439D01*
X91296954Y-76399782D01*
X91231292Y-76601869D01*
X91231292Y-76601872D01*
X91198050Y-76811753D01*
X86567380Y-76811753D01*
X86581550Y-76722287D01*
X86581550Y-76509713D01*
X86548296Y-76299757D01*
X86482607Y-76097588D01*
X86386101Y-75908184D01*
X86386099Y-75908181D01*
X86261159Y-75736213D01*
X86110836Y-75585890D01*
X85938870Y-75460951D01*
X85749464Y-75364444D01*
X85749463Y-75364443D01*
X85749462Y-75364443D01*
X85547293Y-75298754D01*
X85547291Y-75298753D01*
X85547290Y-75298753D01*
X85386007Y-75273208D01*
X85337337Y-75265500D01*
X85124763Y-75265500D01*
X85076092Y-75273208D01*
X84914810Y-75298753D01*
X84712635Y-75364444D01*
X84523229Y-75460951D01*
X84351263Y-75585890D01*
X84200940Y-75736213D01*
X84076001Y-75908179D01*
X83979493Y-76097586D01*
X83975227Y-76110717D01*
X83935788Y-76168391D01*
X83871429Y-76195588D01*
X83802583Y-76183672D01*
X83751108Y-76136427D01*
X83733297Y-76072373D01*
X83735413Y-65560628D01*
X83735414Y-65555375D01*
X86380150Y-65555375D01*
X86380150Y-65674624D01*
X86411014Y-65789814D01*
X86433869Y-65829399D01*
X86470640Y-65893087D01*
X86554963Y-65977410D01*
X86620936Y-66015500D01*
X86655751Y-66035601D01*
X86658237Y-66037036D01*
X86773425Y-66067900D01*
X86773427Y-66067900D01*
X86892672Y-66067900D01*
X86892675Y-66067900D01*
X86991836Y-66041330D01*
X86994886Y-66041402D01*
X86997567Y-66039939D01*
X87029586Y-66042228D01*
X87061682Y-66042993D01*
X87064211Y-66044705D01*
X87067259Y-66044923D01*
X87092958Y-66064161D01*
X87119545Y-66082155D01*
X87120747Y-66084963D01*
X87123193Y-66086794D01*
X87134412Y-66116874D01*
X87147049Y-66146384D01*
X87146542Y-66149396D01*
X87147610Y-66152258D01*
X87140786Y-66183626D01*
X87135463Y-66215286D01*
X87133212Y-66218446D01*
X87132759Y-66220531D01*
X87111608Y-66248786D01*
X87072145Y-66288250D01*
X86964612Y-66395782D01*
X86903292Y-66429266D01*
X86876933Y-66432100D01*
X86773425Y-66432100D01*
X86658235Y-66462964D01*
X86554963Y-66522590D01*
X86554960Y-66522592D01*
X86470642Y-66606910D01*
X86470640Y-66606913D01*
X86411014Y-66710185D01*
X86380150Y-66825375D01*
X86380150Y-66944624D01*
X86411014Y-67059814D01*
X86428699Y-67090444D01*
X86470640Y-67163087D01*
X86554963Y-67247410D01*
X86658237Y-67307036D01*
X86773425Y-67337900D01*
X86773427Y-67337900D01*
X86892673Y-67337900D01*
X86892675Y-67337900D01*
X87007863Y-67307036D01*
X87111137Y-67247410D01*
X87195460Y-67163087D01*
X87255086Y-67059813D01*
X87285950Y-66944625D01*
X87285950Y-66841116D01*
X87305635Y-66774077D01*
X87322269Y-66753434D01*
X87361123Y-66714581D01*
X87479401Y-66596303D01*
X87536487Y-66539218D01*
X87597810Y-66505734D01*
X87624168Y-66502900D01*
X93412762Y-66502900D01*
X93479801Y-66522585D01*
X93525556Y-66575389D01*
X93535500Y-66644547D01*
X93506475Y-66708103D01*
X93500443Y-66714581D01*
X91809084Y-68405938D01*
X91809073Y-68405947D01*
X91809074Y-68405948D01*
X91733600Y-68481421D01*
X91711047Y-68535871D01*
X91695099Y-68574371D01*
X91695099Y-68689416D01*
X91695100Y-68689425D01*
X91695100Y-69654409D01*
X91686455Y-69683849D01*
X91679932Y-69713836D01*
X91676177Y-69718851D01*
X91675415Y-69721448D01*
X91658781Y-69742090D01*
X91630090Y-69770781D01*
X91568767Y-69804266D01*
X91542409Y-69807100D01*
X89026583Y-69807100D01*
X88959544Y-69787415D01*
X88913789Y-69734611D01*
X88903845Y-69665453D01*
X88919197Y-69621098D01*
X88931485Y-69599815D01*
X88932781Y-69594979D01*
X88962350Y-69484625D01*
X88962350Y-69365375D01*
X88931486Y-69250187D01*
X88871860Y-69146913D01*
X88798669Y-69073722D01*
X88765184Y-69012399D01*
X88762350Y-68986041D01*
X88762350Y-68593959D01*
X88782035Y-68526920D01*
X88798669Y-68506278D01*
X88829948Y-68474999D01*
X88871860Y-68433087D01*
X88931486Y-68329813D01*
X88962350Y-68214625D01*
X88962350Y-68095375D01*
X88931486Y-67980187D01*
X88871860Y-67876913D01*
X88787537Y-67792590D01*
X88735900Y-67762777D01*
X88684264Y-67732964D01*
X88626669Y-67717532D01*
X88569075Y-67702100D01*
X88449825Y-67702100D01*
X88334635Y-67732964D01*
X88231363Y-67792590D01*
X88231360Y-67792592D01*
X88147042Y-67876910D01*
X88147040Y-67876913D01*
X88087414Y-67980185D01*
X88056550Y-68095375D01*
X88056550Y-68214624D01*
X88087414Y-68329814D01*
X88117227Y-68381450D01*
X88147040Y-68433087D01*
X88147042Y-68433089D01*
X88220231Y-68506278D01*
X88253716Y-68567601D01*
X88256550Y-68593959D01*
X88256550Y-68986041D01*
X88236865Y-69053080D01*
X88220231Y-69073722D01*
X88147042Y-69146910D01*
X88147040Y-69146913D01*
X88087414Y-69250185D01*
X88068780Y-69319730D01*
X88056550Y-69365375D01*
X88056550Y-69484625D01*
X88077877Y-69564218D01*
X88087414Y-69599813D01*
X88099720Y-69621127D01*
X88116193Y-69689027D01*
X88093341Y-69755054D01*
X88038420Y-69798245D01*
X88016527Y-69804745D01*
X88004695Y-69807098D01*
X87966193Y-69823047D01*
X87911743Y-69845600D01*
X87836270Y-69921074D01*
X87836260Y-69921084D01*
X87496461Y-70260882D01*
X87496453Y-70260891D01*
X87486746Y-70270599D01*
X87486743Y-70270601D01*
X87415601Y-70341743D01*
X87402025Y-70374520D01*
X87395576Y-70390087D01*
X87395574Y-70390091D01*
X87377099Y-70434694D01*
X87377099Y-70549738D01*
X87377100Y-70549747D01*
X87377100Y-71526041D01*
X87357415Y-71593080D01*
X87340781Y-71613722D01*
X87267592Y-71686910D01*
X87267590Y-71686913D01*
X87207964Y-71790185D01*
X87177100Y-71905375D01*
X87177100Y-72024624D01*
X87207964Y-72139814D01*
X87221557Y-72163357D01*
X87267590Y-72243087D01*
X87351913Y-72327410D01*
X87455187Y-72387036D01*
X87570375Y-72417900D01*
X87570377Y-72417900D01*
X87689623Y-72417900D01*
X87689625Y-72417900D01*
X87804813Y-72387036D01*
X87908087Y-72327410D01*
X87992410Y-72243087D01*
X88052036Y-72139813D01*
X88082900Y-72024625D01*
X88082900Y-71905375D01*
X88052036Y-71790187D01*
X87992410Y-71686913D01*
X87919219Y-71613722D01*
X87885734Y-71552399D01*
X87882900Y-71526041D01*
X87882900Y-70641116D01*
X87902585Y-70574077D01*
X87919219Y-70553435D01*
X88123435Y-70349219D01*
X88184758Y-70315734D01*
X88211116Y-70312900D01*
X91648218Y-70312900D01*
X91648220Y-70312901D01*
X91748830Y-70312901D01*
X91787331Y-70296952D01*
X91841782Y-70274399D01*
X91841789Y-70274391D01*
X91848261Y-70270069D01*
X91914939Y-70249193D01*
X91982319Y-70267679D01*
X92029008Y-70319659D01*
X92041150Y-70373173D01*
X92041150Y-71300883D01*
X92032505Y-71330323D01*
X92025982Y-71360310D01*
X92022227Y-71365325D01*
X92021465Y-71367922D01*
X92004831Y-71388564D01*
X91917614Y-71475781D01*
X91856291Y-71509266D01*
X91829933Y-71512100D01*
X91726425Y-71512100D01*
X91611235Y-71542964D01*
X91507963Y-71602590D01*
X91507960Y-71602592D01*
X91423642Y-71686910D01*
X91423640Y-71686913D01*
X91364014Y-71790185D01*
X91333150Y-71905375D01*
X91333150Y-72024624D01*
X91364014Y-72139814D01*
X91377607Y-72163357D01*
X91423640Y-72243087D01*
X91507963Y-72327410D01*
X91611237Y-72387036D01*
X91726425Y-72417900D01*
X91726427Y-72417900D01*
X91845673Y-72417900D01*
X91845675Y-72417900D01*
X91960863Y-72387036D01*
X92064137Y-72327410D01*
X92148460Y-72243087D01*
X92208086Y-72139813D01*
X92238950Y-72024625D01*
X92238950Y-71921115D01*
X92247594Y-71891674D01*
X92254118Y-71861688D01*
X92257872Y-71856672D01*
X92258635Y-71854076D01*
X92275269Y-71833434D01*
X92318518Y-71790185D01*
X92419864Y-71688840D01*
X92419868Y-71688837D01*
X92437306Y-71671399D01*
X92437307Y-71671399D01*
X92508449Y-71600257D01*
X92532180Y-71542964D01*
X92546951Y-71507305D01*
X92546951Y-71406695D01*
X92546950Y-71406692D01*
X92546950Y-68860422D01*
X92566635Y-68793383D01*
X92583269Y-68772741D01*
X94166791Y-67189219D01*
X94228114Y-67155734D01*
X94254472Y-67152900D01*
X98117468Y-67152900D01*
X98184507Y-67172585D01*
X98220570Y-67208010D01*
X98292856Y-67316194D01*
X98292862Y-67316202D01*
X98383797Y-67407137D01*
X98383801Y-67407140D01*
X98490729Y-67478588D01*
X98490735Y-67478591D01*
X98490736Y-67478592D01*
X98609556Y-67527809D01*
X98609560Y-67527809D01*
X98609561Y-67527810D01*
X98735692Y-67552900D01*
X98735695Y-67552900D01*
X98864307Y-67552900D01*
X98949165Y-67536019D01*
X98990444Y-67527809D01*
X99109264Y-67478592D01*
X99216199Y-67407140D01*
X99307140Y-67316199D01*
X99378592Y-67209264D01*
X99427809Y-67090444D01*
X99452900Y-66964305D01*
X99452900Y-66835695D01*
X99452900Y-66835692D01*
X99427810Y-66709561D01*
X99427809Y-66709560D01*
X99427809Y-66709556D01*
X99386387Y-66609555D01*
X99378593Y-66590738D01*
X99378588Y-66590729D01*
X99307140Y-66483801D01*
X99307137Y-66483797D01*
X99287921Y-66464581D01*
X99254436Y-66403258D01*
X99259420Y-66333566D01*
X99301292Y-66277633D01*
X99366756Y-66253216D01*
X99375602Y-66252900D01*
X99898883Y-66252900D01*
X99965922Y-66272585D01*
X100011677Y-66325389D01*
X100021621Y-66394547D01*
X99992596Y-66458103D01*
X99960885Y-66484286D01*
X99950316Y-66490388D01*
X99950310Y-66490392D01*
X99865992Y-66574710D01*
X99865990Y-66574713D01*
X99806364Y-66677985D01*
X99775500Y-66793175D01*
X99775500Y-66912424D01*
X99806364Y-67027614D01*
X99824955Y-67059813D01*
X99865990Y-67130887D01*
X99950313Y-67215210D01*
X100053587Y-67274836D01*
X100168775Y-67305700D01*
X100168777Y-67305700D01*
X100288023Y-67305700D01*
X100288025Y-67305700D01*
X100403213Y-67274836D01*
X100506487Y-67215210D01*
X100579678Y-67142019D01*
X100606605Y-67127315D01*
X100632424Y-67110723D01*
X100638624Y-67109831D01*
X100641001Y-67108534D01*
X100667359Y-67105700D01*
X100790468Y-67105700D01*
X100857507Y-67125385D01*
X100893570Y-67160810D01*
X100965856Y-67268994D01*
X100965862Y-67269002D01*
X101056797Y-67359937D01*
X101056801Y-67359940D01*
X101163729Y-67431388D01*
X101163735Y-67431391D01*
X101163736Y-67431392D01*
X101282556Y-67480609D01*
X101282560Y-67480609D01*
X101282561Y-67480610D01*
X101408692Y-67505700D01*
X101408695Y-67505700D01*
X101537307Y-67505700D01*
X101622165Y-67488819D01*
X101663444Y-67480609D01*
X101782264Y-67431392D01*
X101889199Y-67359940D01*
X101980140Y-67268999D01*
X102051592Y-67162064D01*
X102100809Y-67043244D01*
X102120426Y-66944624D01*
X102125900Y-66917107D01*
X102125900Y-66788492D01*
X102100810Y-66662361D01*
X102100809Y-66662360D01*
X102100809Y-66662356D01*
X102054770Y-66551208D01*
X102051593Y-66543538D01*
X102051588Y-66543529D01*
X101986281Y-66445791D01*
X101965403Y-66379114D01*
X101983887Y-66311734D01*
X102035866Y-66265043D01*
X102089383Y-66252900D01*
X102543884Y-66252900D01*
X102610923Y-66272585D01*
X102631565Y-66289219D01*
X102838549Y-66496203D01*
X102872034Y-66557526D01*
X102872485Y-66608076D01*
X102847100Y-66735692D01*
X102847100Y-66735695D01*
X102847100Y-66864305D01*
X102847100Y-66864307D01*
X102847099Y-66864307D01*
X102872189Y-66990438D01*
X102872191Y-66990444D01*
X102921406Y-67109261D01*
X102921411Y-67109270D01*
X102992859Y-67216198D01*
X102992862Y-67216202D01*
X103083797Y-67307137D01*
X103083801Y-67307140D01*
X103190729Y-67378588D01*
X103190738Y-67378593D01*
X103217654Y-67389742D01*
X103309556Y-67427809D01*
X103309560Y-67427809D01*
X103309561Y-67427810D01*
X103435692Y-67452900D01*
X103435695Y-67452900D01*
X103564307Y-67452900D01*
X103672451Y-67431388D01*
X103690444Y-67427809D01*
X103809264Y-67378592D01*
X103916199Y-67307140D01*
X104007140Y-67216199D01*
X104078592Y-67109264D01*
X104127809Y-66990444D01*
X104143328Y-66912425D01*
X104152900Y-66864307D01*
X104152900Y-66735692D01*
X104127810Y-66609561D01*
X104127809Y-66609560D01*
X104127809Y-66609556D01*
X104078592Y-66490736D01*
X104078591Y-66490735D01*
X104078588Y-66490729D01*
X104007140Y-66383801D01*
X104007137Y-66383797D01*
X103916202Y-66292862D01*
X103916198Y-66292859D01*
X103809270Y-66221411D01*
X103809261Y-66221406D01*
X103690444Y-66172191D01*
X103690438Y-66172189D01*
X103564307Y-66147100D01*
X103564305Y-66147100D01*
X103435695Y-66147100D01*
X103435693Y-66147100D01*
X103308076Y-66172485D01*
X103238484Y-66166258D01*
X103196203Y-66138549D01*
X102931040Y-65873386D01*
X102914400Y-65856746D01*
X102914399Y-65856743D01*
X102843257Y-65785601D01*
X102788806Y-65763047D01*
X102774626Y-65757173D01*
X102750307Y-65747099D01*
X102750305Y-65747099D01*
X102649695Y-65747099D01*
X102635261Y-65747099D01*
X102635253Y-65747100D01*
X102109915Y-65747100D01*
X102042876Y-65727415D01*
X101997121Y-65674611D01*
X101987177Y-65605453D01*
X102016202Y-65541897D01*
X102022234Y-65535419D01*
X102605040Y-64952613D01*
X103196204Y-64361448D01*
X103257525Y-64327965D01*
X103308075Y-64327514D01*
X103309554Y-64327808D01*
X103309556Y-64327809D01*
X103372545Y-64340338D01*
X103435693Y-64352900D01*
X103435695Y-64352900D01*
X103564307Y-64352900D01*
X103649165Y-64336019D01*
X103690444Y-64327809D01*
X103809264Y-64278592D01*
X103916199Y-64207140D01*
X104007140Y-64116199D01*
X104078592Y-64009264D01*
X104127809Y-63890444D01*
X104136019Y-63849165D01*
X104152900Y-63764307D01*
X104152900Y-63635692D01*
X104127810Y-63509561D01*
X104127809Y-63509560D01*
X104127809Y-63509556D01*
X104078592Y-63390736D01*
X104078591Y-63390735D01*
X104078588Y-63390729D01*
X104007140Y-63283801D01*
X104007137Y-63283797D01*
X103916202Y-63192862D01*
X103916198Y-63192859D01*
X103809270Y-63121411D01*
X103809261Y-63121406D01*
X103690444Y-63072191D01*
X103690438Y-63072189D01*
X103564307Y-63047100D01*
X103564305Y-63047100D01*
X103435695Y-63047100D01*
X103435693Y-63047100D01*
X103309561Y-63072189D01*
X103309555Y-63072191D01*
X103190738Y-63121406D01*
X103190729Y-63121411D01*
X103083801Y-63192859D01*
X103083797Y-63192862D01*
X102992862Y-63283797D01*
X102992859Y-63283801D01*
X102921411Y-63390729D01*
X102921406Y-63390738D01*
X102872191Y-63509555D01*
X102872189Y-63509561D01*
X102847100Y-63635692D01*
X102847100Y-63764309D01*
X102872484Y-63891924D01*
X102866257Y-63961516D01*
X102838548Y-64003796D01*
X101531565Y-65310781D01*
X101470242Y-65344266D01*
X101443884Y-65347100D01*
X98309918Y-65347100D01*
X98288675Y-65340862D01*
X98266594Y-65339285D01*
X98255806Y-65331210D01*
X98242879Y-65327415D01*
X98228383Y-65310686D01*
X98210657Y-65297419D01*
X98205946Y-65284792D01*
X98197124Y-65274611D01*
X98193973Y-65252698D01*
X98186235Y-65231956D01*
X98189097Y-65218790D01*
X98187180Y-65205453D01*
X98196377Y-65185313D01*
X98201081Y-65163682D01*
X98214353Y-65145950D01*
X98216205Y-65141897D01*
X98222215Y-65135440D01*
X98234399Y-65123257D01*
X98234400Y-65123253D01*
X98431335Y-64926318D01*
X98431343Y-64926312D01*
X98443255Y-64914399D01*
X98443257Y-64914399D01*
X98514399Y-64843257D01*
X98546565Y-64765601D01*
X98552901Y-64750305D01*
X98552901Y-64649695D01*
X98552901Y-64639706D01*
X98552900Y-64639692D01*
X98552900Y-64467634D01*
X98572585Y-64400595D01*
X98625389Y-64354840D01*
X98694547Y-64344896D01*
X98701088Y-64346016D01*
X98714542Y-64348692D01*
X98735694Y-64352900D01*
X98735695Y-64352900D01*
X98864307Y-64352900D01*
X98949165Y-64336019D01*
X98990444Y-64327809D01*
X99109264Y-64278592D01*
X99216199Y-64207140D01*
X99307140Y-64116199D01*
X99378592Y-64009264D01*
X99427809Y-63890444D01*
X99436019Y-63849165D01*
X99452900Y-63764307D01*
X99452900Y-63643575D01*
X99775500Y-63643575D01*
X99775500Y-63762824D01*
X99806364Y-63878014D01*
X99836177Y-63929650D01*
X99865990Y-63981287D01*
X99950313Y-64065610D01*
X100053587Y-64125236D01*
X100168775Y-64156100D01*
X100168777Y-64156100D01*
X100288023Y-64156100D01*
X100288025Y-64156100D01*
X100403213Y-64125236D01*
X100506487Y-64065610D01*
X100579678Y-63992419D01*
X100606605Y-63977715D01*
X100632424Y-63961123D01*
X100638624Y-63960231D01*
X100641001Y-63958934D01*
X100667359Y-63956100D01*
X100792605Y-63956100D01*
X100859644Y-63975785D01*
X100895707Y-64011209D01*
X100965859Y-64116198D01*
X100965862Y-64116202D01*
X101056797Y-64207137D01*
X101056801Y-64207140D01*
X101163729Y-64278588D01*
X101163735Y-64278591D01*
X101163736Y-64278592D01*
X101282556Y-64327809D01*
X101282560Y-64327809D01*
X101282561Y-64327810D01*
X101408692Y-64352900D01*
X101408695Y-64352900D01*
X101537307Y-64352900D01*
X101622165Y-64336019D01*
X101663444Y-64327809D01*
X101782264Y-64278592D01*
X101889199Y-64207140D01*
X101980140Y-64116199D01*
X102051592Y-64009264D01*
X102100809Y-63890444D01*
X102109019Y-63849165D01*
X102125900Y-63764307D01*
X102125900Y-63635692D01*
X102100810Y-63509561D01*
X102100809Y-63509560D01*
X102100809Y-63509556D01*
X102051592Y-63390736D01*
X102051591Y-63390735D01*
X102051588Y-63390729D01*
X101980140Y-63283801D01*
X101980137Y-63283797D01*
X101889202Y-63192862D01*
X101889198Y-63192859D01*
X101782270Y-63121411D01*
X101782261Y-63121406D01*
X101663444Y-63072191D01*
X101663438Y-63072189D01*
X101537307Y-63047100D01*
X101537305Y-63047100D01*
X101408695Y-63047100D01*
X101408693Y-63047100D01*
X101282561Y-63072189D01*
X101282555Y-63072191D01*
X101163738Y-63121406D01*
X101163729Y-63121411D01*
X101056801Y-63192859D01*
X101056797Y-63192862D01*
X100965862Y-63283797D01*
X100965859Y-63283801D01*
X100891431Y-63395191D01*
X100885339Y-63400281D01*
X100882042Y-63407503D01*
X100858914Y-63422366D01*
X100837819Y-63439996D01*
X100828444Y-63441947D01*
X100823264Y-63445277D01*
X100788329Y-63450300D01*
X100667359Y-63450300D01*
X100600320Y-63430615D01*
X100579678Y-63413981D01*
X100506489Y-63340792D01*
X100506487Y-63340790D01*
X100454850Y-63310977D01*
X100403214Y-63281164D01*
X100345619Y-63265732D01*
X100288025Y-63250300D01*
X100168775Y-63250300D01*
X100053585Y-63281164D01*
X99950313Y-63340790D01*
X99950310Y-63340792D01*
X99865992Y-63425110D01*
X99865990Y-63425113D01*
X99806364Y-63528385D01*
X99775500Y-63643575D01*
X99452900Y-63643575D01*
X99452900Y-63635692D01*
X99427810Y-63509561D01*
X99427809Y-63509560D01*
X99427809Y-63509556D01*
X99378592Y-63390736D01*
X99378591Y-63390735D01*
X99378588Y-63390729D01*
X99307140Y-63283801D01*
X99307137Y-63283797D01*
X99216202Y-63192862D01*
X99216198Y-63192859D01*
X99109270Y-63121411D01*
X99109261Y-63121406D01*
X98990444Y-63072191D01*
X98990438Y-63072189D01*
X98864307Y-63047100D01*
X98864305Y-63047100D01*
X98735695Y-63047100D01*
X98735693Y-63047100D01*
X98609561Y-63072189D01*
X98609555Y-63072191D01*
X98490738Y-63121406D01*
X98490729Y-63121411D01*
X98383801Y-63192859D01*
X98383797Y-63192862D01*
X98292862Y-63283797D01*
X98292859Y-63283801D01*
X98221411Y-63390729D01*
X98221406Y-63390738D01*
X98172191Y-63509555D01*
X98172189Y-63509561D01*
X98147100Y-63635692D01*
X98147100Y-63764309D01*
X98172484Y-63891922D01*
X98166257Y-63961513D01*
X98153707Y-63985395D01*
X98147013Y-63995330D01*
X98085602Y-64056742D01*
X98058377Y-64122469D01*
X98053613Y-64133968D01*
X98053612Y-64133971D01*
X98047100Y-64149693D01*
X98047100Y-64543882D01*
X98038456Y-64573318D01*
X98031933Y-64603308D01*
X98028177Y-64608325D01*
X98027415Y-64610921D01*
X98010782Y-64631563D01*
X97951565Y-64690781D01*
X97890242Y-64724266D01*
X97863883Y-64727100D01*
X87913797Y-64727100D01*
X87913789Y-64727099D01*
X87899355Y-64727099D01*
X87798745Y-64727099D01*
X87798744Y-64727099D01*
X87757683Y-64744107D01*
X87757681Y-64744108D01*
X87742719Y-64750306D01*
X87705793Y-64765601D01*
X87634651Y-64836743D01*
X87634650Y-64836744D01*
X87628815Y-64842578D01*
X87628811Y-64842582D01*
X87246675Y-65224718D01*
X87185352Y-65258203D01*
X87115660Y-65253219D01*
X87096993Y-65244424D01*
X87090572Y-65240717D01*
X87062862Y-65224718D01*
X87007864Y-65192964D01*
X86950269Y-65177532D01*
X86892675Y-65162100D01*
X86773425Y-65162100D01*
X86658235Y-65192964D01*
X86554963Y-65252590D01*
X86554960Y-65252592D01*
X86470642Y-65336910D01*
X86470640Y-65336913D01*
X86411014Y-65440185D01*
X86380150Y-65555375D01*
X83735414Y-65555375D01*
X83735416Y-65547223D01*
X83735725Y-64011209D01*
X83736338Y-60963766D01*
X83736343Y-60951095D01*
X83736350Y-60951082D01*
X83736350Y-60935969D01*
X83746605Y-60901095D01*
X83756035Y-60868982D01*
X83756053Y-60868965D01*
X83756062Y-60868938D01*
X83784358Y-60844439D01*
X83808839Y-60823227D01*
X83808866Y-60823221D01*
X83808885Y-60823205D01*
X83809066Y-60823179D01*
X83861854Y-60812030D01*
X84177203Y-60815860D01*
X84183950Y-60816566D01*
X84231083Y-60816549D01*
X84231083Y-60816550D01*
X84233878Y-60816549D01*
X84268494Y-60816970D01*
X84269558Y-60816543D01*
X84270844Y-60816542D01*
X84287476Y-60816541D01*
X84373746Y-60796837D01*
X84397425Y-60791429D01*
X84397425Y-60791428D01*
X84397429Y-60791428D01*
X84499039Y-60742481D01*
X84499042Y-60742478D01*
X84499046Y-60742476D01*
X84587209Y-60672154D01*
X84587211Y-60672152D01*
X84657523Y-60583971D01*
X84657523Y-60583969D01*
X84657525Y-60583968D01*
X84706456Y-60482350D01*
X84711679Y-60459466D01*
X84722915Y-60410230D01*
X84731550Y-60372392D01*
X84731550Y-60316000D01*
X84731550Y-60276118D01*
X84731550Y-59123044D01*
X89393050Y-59123044D01*
X89399451Y-59182572D01*
X89399453Y-59182579D01*
X89449695Y-59317286D01*
X89449699Y-59317293D01*
X89535859Y-59432387D01*
X89535862Y-59432390D01*
X89650956Y-59518550D01*
X89650963Y-59518554D01*
X89785670Y-59568796D01*
X89785677Y-59568798D01*
X89845205Y-59575199D01*
X89845222Y-59575200D01*
X90393050Y-59575200D01*
X90393050Y-58575200D01*
X89393050Y-58575200D01*
X89393050Y-59123044D01*
X84731550Y-59123044D01*
X84731550Y-57559812D01*
X84740194Y-57530371D01*
X84746718Y-57500385D01*
X84750472Y-57495369D01*
X84751235Y-57492773D01*
X84767869Y-57472131D01*
X84887181Y-57352819D01*
X84948504Y-57319334D01*
X84974862Y-57316500D01*
X89278494Y-57316500D01*
X89345533Y-57336185D01*
G37*
%TD.AperFunction*%
%TD*%
M02*
