M48
; DRILL file {KiCad 9.0.7} date 2026-02-26T13:24:02-0500
; FORMAT={-:-/ absolute / metric / decimal}
; #@! TF.CreationDate,2026-02-26T13:24:02-05:00
; #@! TF.GenerationSoftware,Kicad,Pcbnew,9.0.7
; #@! TF.FileFunction,Plated,1,2,PTH
FMAT,2
METRIC
; #@! TA.AperFunction,Plated,PTH,ViaDrill
T1C0.300
; #@! TA.AperFunction,Plated,PTH,ViaDrill
T2C0.400
; #@! TA.AperFunction,Plated,PTH,ComponentDrill
T3C0.800
%
G90
G05
T1
X102.158Y-123.531
X102.158Y-124.42
X103.047Y-123.531
X103.047Y-124.42
X107.05Y-127.15
X109.2Y-128.15
X109.55Y-127.15
X113.524Y-123.531
X113.524Y-124.42
X114.477Y-123.531
X114.477Y-124.42
T2
X96.75Y-137.5
X107.5Y-141.3
X108.3Y-134.9
X109.1Y-141.3
X120.0Y-137.438
T3
G00X99.41Y-147.105
M15
G01X99.41Y-148.805
M16
G05
G00X101.95Y-147.105
M15
G01X101.95Y-148.805
M16
G05
G00X104.49Y-147.105
M15
G01X104.49Y-148.805
M16
G05
G00X107.03Y-147.105
M15
G01X107.03Y-148.805
M16
G05
G00X109.57Y-147.105
M15
G01X109.57Y-148.805
M16
G05
G00X112.11Y-147.105
M15
G01X112.11Y-148.805
M16
G05
G00X114.65Y-147.105
M15
G01X114.65Y-148.805
M16
G05
G00X117.19Y-147.105
M15
G01X117.19Y-148.805
M16
G05
M30
