%TF.GenerationSoftware,KiCad,Pcbnew,9.0.7*%
%TF.CreationDate,2026-02-26T13:23:58-05:00*%
%TF.ProjectId,Mag Charger,4d616720-4368-4617-9267-65722e6b6963,X1*%
%TF.SameCoordinates,Original*%
%TF.FileFunction,Copper,L2,Bot*%
%TF.FilePolarity,Positive*%
%FSLAX46Y46*%
G04 Gerber Fmt 4.6, Leading zero omitted, Abs format (unit mm)*
G04 Created by KiCad (PCBNEW 9.0.7) date 2026-02-26 13:23:58*
%MOMM*%
%LPD*%
G01*
G04 APERTURE LIST*
G04 Aperture macros list*
%AMRoundRect*
0 Rectangle with rounded corners*
0 $1 Rounding radius*
0 $2 $3 $4 $5 $6 $7 $8 $9 X,Y pos of 4 corners*
0 Add a 4 corners polygon primitive as box body*
4,1,4,$2,$3,$4,$5,$6,$7,$8,$9,$2,$3,0*
0 Add four circle primitives for the rounded corners*
1,1,$1+$1,$2,$3*
1,1,$1+$1,$4,$5*
1,1,$1+$1,$6,$7*
1,1,$1+$1,$8,$9*
0 Add four rect primitives between the rounded corners*
20,1,$1+$1,$2,$3,$4,$5,0*
20,1,$1+$1,$4,$5,$6,$7,0*
20,1,$1+$1,$6,$7,$8,$9,0*
20,1,$1+$1,$8,$9,$2,$3,0*%
G04 Aperture macros list end*
%TA.AperFunction,SMDPad,CuDef*%
%ADD10R,0.380000X1.000000*%
%TD*%
%TA.AperFunction,SMDPad,CuDef*%
%ADD11R,0.700000X1.150000*%
%TD*%
%TA.AperFunction,CastellatedPad*%
%ADD12RoundRect,0.250000X-0.350000X-1.250000X0.350000X-1.250000X0.350000X1.250000X-0.350000X1.250000X0*%
%TD*%
%TA.AperFunction,SMDPad,CuDef*%
%ADD13R,1.500000X1.500000*%
%TD*%
%TA.AperFunction,ViaPad*%
%ADD14C,0.500000*%
%TD*%
%TA.AperFunction,ViaPad*%
%ADD15C,0.800000*%
%TD*%
%TA.AperFunction,ViaPad*%
%ADD16C,0.600000*%
%TD*%
%TA.AperFunction,Conductor*%
%ADD17C,0.400000*%
%TD*%
%TA.AperFunction,Conductor*%
%ADD18C,0.200000*%
%TD*%
G04 APERTURE END LIST*
D10*
%TO.P,P1,B1,GND*%
%TO.N,GND*%
X111050000Y-125000000D03*
%TO.P,P1,B2*%
%TO.N,N/C*%
X110550000Y-125000000D03*
%TO.P,P1,B3*%
X110050000Y-125000000D03*
%TO.P,P1,B4,VBUS*%
%TO.N,VBUS*%
X109550000Y-125000000D03*
%TO.P,P1,B5,VCONN*%
%TO.N,/USB_VCONN*%
X109050000Y-125000000D03*
%TO.P,P1,B8*%
%TO.N,N/C*%
X107550000Y-125000000D03*
%TO.P,P1,B9,VBUS*%
%TO.N,VBUS*%
X107050000Y-125000000D03*
%TO.P,P1,B10*%
%TO.N,N/C*%
X106550000Y-125000000D03*
%TO.P,P1,B11*%
X106050000Y-125000000D03*
%TO.P,P1,B12,GND*%
%TO.N,GND*%
X105550000Y-125000000D03*
D11*
%TO.P,P1,S1,SHIELD*%
X111720000Y-125840000D03*
%TD*%
D12*
%TO.P,J1,1,Pin_1*%
%TO.N,VBUS*%
X99410000Y-147955000D03*
%TO.P,J1,2,Pin_2*%
%TO.N,GND*%
X101950000Y-147955000D03*
%TO.P,J1,3,Pin_3*%
%TO.N,/USB_CC*%
X104490000Y-147955000D03*
%TO.P,J1,4,Pin_4*%
%TO.N,/USB_DP*%
X107030000Y-147955000D03*
%TO.P,J1,5,Pin_5*%
%TO.N,/USB_DN*%
X109570000Y-147955000D03*
%TO.P,J1,6,Pin_6*%
%TO.N,/USB_VCONN*%
X112110000Y-147955000D03*
%TO.P,J1,7,Pin_7*%
%TO.N,GND*%
X114650000Y-147955000D03*
%TO.P,J1,8,Pin_8*%
%TO.N,VBUS*%
X117190000Y-147955000D03*
%TD*%
D13*
%TO.P,TP2,1,1*%
%TO.N,GND*%
X102600000Y-123960000D03*
%TD*%
%TO.P,TP4,1,1*%
%TO.N,GND*%
X114000000Y-123960000D03*
%TD*%
D14*
%TO.N,GND*%
X102158000Y-123531500D03*
X102158000Y-124420500D03*
X114477000Y-123531500D03*
X114477000Y-124420500D03*
X103047000Y-123531500D03*
X113524500Y-124420500D03*
D15*
X120000000Y-137437500D03*
X108300000Y-134900000D03*
D14*
X113524500Y-123531500D03*
X103047000Y-124420500D03*
D15*
X96750000Y-137500000D03*
%TO.N,/USB_DN*%
X109100000Y-141300000D03*
D16*
%TO.N,VBUS*%
X107050000Y-127150000D03*
X109550000Y-127150000D03*
D15*
%TO.N,/USB_DP*%
X107500000Y-141300000D03*
D16*
%TO.N,/USB_VCONN*%
X109200000Y-128150000D03*
%TD*%
D17*
%TO.N,GND*%
X105550000Y-125170000D02*
X104880000Y-125840000D01*
X104880000Y-125840000D02*
X103140000Y-125840000D01*
X111050000Y-125000000D02*
X111050000Y-125170000D01*
X103140000Y-125840000D02*
X102600000Y-125300000D01*
X114000000Y-125300000D02*
X114000000Y-123960000D01*
X111050000Y-125170000D02*
X111720000Y-125840000D01*
X105550000Y-125000000D02*
X105550000Y-125170000D01*
X102600000Y-125300000D02*
X102600000Y-123960000D01*
X113460000Y-125840000D02*
X114000000Y-125300000D01*
X111720000Y-125840000D02*
X113460000Y-125840000D01*
D18*
%TO.N,/USB_DN*%
X109100000Y-147485000D02*
X109570000Y-147955000D01*
X109100000Y-141300000D02*
X109100000Y-147485000D01*
D17*
%TO.N,VBUS*%
X107500000Y-129000000D02*
X109199943Y-129000000D01*
X109550000Y-127150000D02*
X109550000Y-125000000D01*
X107050000Y-127150000D02*
X106700000Y-127500000D01*
X109950000Y-127550000D02*
X109550000Y-127150000D01*
X107050000Y-125000000D02*
X107050000Y-127150000D01*
X109950000Y-128249943D02*
X109950000Y-127550000D01*
X106700000Y-128200000D02*
X107500000Y-129000000D01*
X106700000Y-127500000D02*
X106700000Y-128200000D01*
X109199943Y-129000000D02*
X109950000Y-128249943D01*
D18*
%TO.N,/USB_DP*%
X107500000Y-141300000D02*
X107500000Y-147485000D01*
X107500000Y-147485000D02*
X107030000Y-147955000D01*
%TO.N,/USB_VCONN*%
X109050000Y-128000000D02*
X109050000Y-125000000D01*
X109200000Y-128150000D02*
X109050000Y-128000000D01*
%TD*%
%TA.AperFunction,Conductor*%
%TO.N,GND*%
G36*
X101293039Y-123170185D02*
G01*
X101338794Y-123222989D01*
X101350000Y-123274500D01*
X101350000Y-123710000D01*
X102476000Y-123710000D01*
X102543039Y-123729685D01*
X102588794Y-123782489D01*
X102600000Y-123834000D01*
X102600000Y-123960000D01*
X102726000Y-123960000D01*
X102793039Y-123979685D01*
X102838794Y-124032489D01*
X102850000Y-124084000D01*
X102850000Y-125210000D01*
X103397828Y-125210000D01*
X103397844Y-125209999D01*
X103457372Y-125203598D01*
X103457376Y-125203597D01*
X103592091Y-125153351D01*
X103614285Y-125136736D01*
X103679748Y-125112316D01*
X103716028Y-125115072D01*
X103729745Y-125118183D01*
X103744687Y-125125381D01*
X103854630Y-125150491D01*
X103871152Y-125150493D01*
X103871168Y-125150500D01*
X103911016Y-125150500D01*
X103911024Y-125150500D01*
X103950899Y-125150507D01*
X103950901Y-125150506D01*
X103962983Y-125150508D01*
X103963076Y-125150500D01*
X104679024Y-125150500D01*
X104680525Y-125150509D01*
X104681186Y-125150517D01*
X104681318Y-125150557D01*
X104731083Y-125150549D01*
X104731083Y-125150550D01*
X104735980Y-125150549D01*
X104803023Y-125170223D01*
X104848786Y-125223019D01*
X104860000Y-125274549D01*
X104860000Y-125547844D01*
X104866401Y-125607372D01*
X104866403Y-125607379D01*
X104916645Y-125742086D01*
X104916649Y-125742093D01*
X105002809Y-125857187D01*
X105002812Y-125857190D01*
X105117906Y-125943350D01*
X105117913Y-125943354D01*
X105252620Y-125993596D01*
X105252627Y-125993598D01*
X105312155Y-125999999D01*
X105312172Y-126000000D01*
X105360000Y-126000000D01*
X105360000Y-125124000D01*
X105362550Y-125115314D01*
X105361262Y-125106353D01*
X105372240Y-125082312D01*
X105379685Y-125056961D01*
X105386525Y-125051033D01*
X105390287Y-125042797D01*
X105412521Y-125028507D01*
X105432489Y-125011206D01*
X105443003Y-125008918D01*
X105449065Y-125005023D01*
X105484000Y-125000000D01*
X105583101Y-125000000D01*
X105650140Y-125019685D01*
X105695895Y-125072489D01*
X105707100Y-125123998D01*
X105707101Y-125515056D01*
X105715971Y-125559654D01*
X105715972Y-125559657D01*
X105715972Y-125559659D01*
X105719100Y-125564339D01*
X105739980Y-125631015D01*
X105740000Y-125633232D01*
X105740000Y-126000000D01*
X105787828Y-126000000D01*
X105787844Y-125999999D01*
X105847372Y-125993598D01*
X105847379Y-125993596D01*
X105982086Y-125943354D01*
X105982093Y-125943350D01*
X106097187Y-125857190D01*
X106097190Y-125857187D01*
X106183350Y-125742093D01*
X106188602Y-125728012D01*
X106230472Y-125672077D01*
X106295935Y-125647657D01*
X106328981Y-125649724D01*
X106344943Y-125652900D01*
X106573100Y-125652899D01*
X106640139Y-125672583D01*
X106685894Y-125725387D01*
X106697100Y-125776899D01*
X106697100Y-126822215D01*
X106695473Y-126830391D01*
X106696390Y-126835470D01*
X106691453Y-126850600D01*
X106687661Y-126869668D01*
X106684550Y-126877177D01*
X106627964Y-126975187D01*
X106598673Y-127084502D01*
X106595563Y-127092012D01*
X106582677Y-127108001D01*
X106568684Y-127132240D01*
X106483314Y-127217610D01*
X106417611Y-127283312D01*
X106417609Y-127283315D01*
X106371150Y-127363785D01*
X106371150Y-127363786D01*
X106347100Y-127453540D01*
X106347100Y-128153540D01*
X106347100Y-128246460D01*
X106371150Y-128336214D01*
X106417610Y-128416686D01*
X107283314Y-129282390D01*
X107363786Y-129328850D01*
X107453540Y-129352900D01*
X107453542Y-129352900D01*
X109246401Y-129352900D01*
X109246403Y-129352900D01*
X109336157Y-129328850D01*
X109416629Y-129282390D01*
X110232390Y-128466629D01*
X110278850Y-128386157D01*
X110302900Y-128296403D01*
X110302900Y-128203483D01*
X110302900Y-127503540D01*
X110296284Y-127478850D01*
X110278850Y-127413785D01*
X110232390Y-127333314D01*
X110031316Y-127132240D01*
X110026684Y-127125308D01*
X110022445Y-127122365D01*
X110015236Y-127108175D01*
X110004436Y-127092011D01*
X110001327Y-127084506D01*
X109972036Y-126975187D01*
X109915450Y-126877180D01*
X109912339Y-126869667D01*
X109910143Y-126849249D01*
X109902900Y-126822215D01*
X109902900Y-125776899D01*
X109922585Y-125709860D01*
X109975389Y-125664105D01*
X110026900Y-125652899D01*
X110255054Y-125652899D01*
X110255056Y-125652899D01*
X110271022Y-125649723D01*
X110340611Y-125655949D01*
X110395789Y-125698811D01*
X110411394Y-125728005D01*
X110416648Y-125742091D01*
X110416648Y-125742092D01*
X110502809Y-125857187D01*
X110502812Y-125857190D01*
X110617906Y-125943350D01*
X110617913Y-125943354D01*
X110752620Y-125993596D01*
X110752619Y-125993596D01*
X110759255Y-125994310D01*
X110823806Y-126021048D01*
X110863654Y-126078441D01*
X110870000Y-126117600D01*
X110870000Y-126462844D01*
X110876401Y-126522372D01*
X110876403Y-126522379D01*
X110926645Y-126657086D01*
X110926649Y-126657093D01*
X111012809Y-126772187D01*
X111012812Y-126772190D01*
X111127906Y-126858350D01*
X111127913Y-126858354D01*
X111262620Y-126908596D01*
X111262627Y-126908598D01*
X111322155Y-126914999D01*
X111322172Y-126915000D01*
X111470000Y-126915000D01*
X111970000Y-126915000D01*
X112117828Y-126915000D01*
X112117844Y-126914999D01*
X112177372Y-126908598D01*
X112177379Y-126908596D01*
X112312086Y-126858354D01*
X112312093Y-126858350D01*
X112427187Y-126772190D01*
X112427190Y-126772187D01*
X112513350Y-126657093D01*
X112513354Y-126657086D01*
X112563596Y-126522379D01*
X112563598Y-126522372D01*
X112569999Y-126462844D01*
X112570000Y-126462827D01*
X112570000Y-126090000D01*
X111970000Y-126090000D01*
X111970000Y-126915000D01*
X111470000Y-126915000D01*
X111470000Y-125964000D01*
X111489685Y-125896961D01*
X111542489Y-125851206D01*
X111594000Y-125840000D01*
X111720000Y-125840000D01*
X111720000Y-125714000D01*
X111739685Y-125646961D01*
X111792489Y-125601206D01*
X111844000Y-125590000D01*
X112570000Y-125590000D01*
X112570000Y-125274552D01*
X112589685Y-125207513D01*
X112642489Y-125161758D01*
X112676323Y-125151818D01*
X112685443Y-125150504D01*
X112711083Y-125150500D01*
X112711083Y-125150550D01*
X112767476Y-125150541D01*
X112877429Y-125125428D01*
X112885051Y-125121756D01*
X112901835Y-125119339D01*
X112924963Y-125122658D01*
X112948296Y-125121460D01*
X112962274Y-125128014D01*
X112970996Y-125129266D01*
X112978139Y-125135452D01*
X112993824Y-125142807D01*
X113007909Y-125153351D01*
X113142623Y-125203597D01*
X113142627Y-125203598D01*
X113202155Y-125209999D01*
X113202172Y-125210000D01*
X113750000Y-125210000D01*
X114250000Y-125210000D01*
X114797828Y-125210000D01*
X114797844Y-125209999D01*
X114857372Y-125203598D01*
X114857379Y-125203596D01*
X114992086Y-125153354D01*
X114992093Y-125153350D01*
X115107187Y-125067190D01*
X115107190Y-125067187D01*
X115193350Y-124952093D01*
X115193354Y-124952086D01*
X115243596Y-124817379D01*
X115243598Y-124817372D01*
X115249999Y-124757844D01*
X115250000Y-124757827D01*
X115250000Y-124210000D01*
X114250000Y-124210000D01*
X114250000Y-125210000D01*
X113750000Y-125210000D01*
X113750000Y-124084000D01*
X113769685Y-124016961D01*
X113822489Y-123971206D01*
X113874000Y-123960000D01*
X114000000Y-123960000D01*
X114000000Y-123834000D01*
X114019685Y-123766961D01*
X114072489Y-123721206D01*
X114124000Y-123710000D01*
X115250000Y-123710000D01*
X115250000Y-123274500D01*
X115269685Y-123207461D01*
X115322489Y-123161706D01*
X115374000Y-123150500D01*
X119986550Y-123150500D01*
X120053589Y-123170185D01*
X120099344Y-123222989D01*
X120110550Y-123274500D01*
X120110550Y-126201873D01*
X120110599Y-126202368D01*
X120110599Y-126206387D01*
X120135691Y-126316334D01*
X120162033Y-126371040D01*
X120184618Y-126417945D01*
X120254917Y-126506110D01*
X120254923Y-126506116D01*
X120254924Y-126506117D01*
X120275303Y-126522372D01*
X120343087Y-126576438D01*
X120444687Y-126625381D01*
X120444689Y-126625382D01*
X120533705Y-126645712D01*
X120554630Y-126650491D01*
X120567291Y-126650492D01*
X120571152Y-126650493D01*
X120571168Y-126650500D01*
X120611016Y-126650500D01*
X120611024Y-126650500D01*
X120650899Y-126650507D01*
X120650901Y-126650506D01*
X120662983Y-126650508D01*
X120663076Y-126650500D01*
X120986549Y-126650500D01*
X121053588Y-126670185D01*
X121099343Y-126722989D01*
X121110548Y-126774505D01*
X121110463Y-128572036D01*
X121109825Y-141953559D01*
X121090137Y-142020597D01*
X121037331Y-142066350D01*
X120968172Y-142076290D01*
X120904618Y-142047262D01*
X120867895Y-141991872D01*
X120851557Y-141941588D01*
X120755051Y-141752184D01*
X120755049Y-141752181D01*
X120755048Y-141752179D01*
X120630109Y-141580213D01*
X120479786Y-141429890D01*
X120307820Y-141304951D01*
X120118414Y-141208444D01*
X120118413Y-141208443D01*
X120118412Y-141208443D01*
X119916243Y-141142754D01*
X119916241Y-141142753D01*
X119916240Y-141142753D01*
X119754957Y-141117208D01*
X119706287Y-141109500D01*
X119493713Y-141109500D01*
X119445042Y-141117208D01*
X119283760Y-141142753D01*
X119081585Y-141208444D01*
X118892179Y-141304951D01*
X118720213Y-141429890D01*
X118569890Y-141580213D01*
X118444951Y-141752179D01*
X118348444Y-141941585D01*
X118282753Y-142143760D01*
X118249500Y-142353713D01*
X118249500Y-142566287D01*
X118282754Y-142776243D01*
X118344605Y-142966601D01*
X118348444Y-142978414D01*
X118444951Y-143167820D01*
X118569890Y-143339786D01*
X118720213Y-143490109D01*
X118892179Y-143615048D01*
X118892181Y-143615049D01*
X118892184Y-143615051D01*
X119081588Y-143711557D01*
X119283757Y-143777246D01*
X119493713Y-143810500D01*
X119493714Y-143810500D01*
X119706286Y-143810500D01*
X119706287Y-143810500D01*
X119916243Y-143777246D01*
X120118412Y-143711557D01*
X120307816Y-143615051D01*
X120329789Y-143599086D01*
X120479786Y-143490109D01*
X120479788Y-143490106D01*
X120479792Y-143490104D01*
X120630104Y-143339792D01*
X120630106Y-143339788D01*
X120630109Y-143339786D01*
X120755048Y-143167820D01*
X120755049Y-143167819D01*
X120755051Y-143167816D01*
X120851557Y-142978412D01*
X120867847Y-142928276D01*
X120907283Y-142870602D01*
X120971641Y-142843403D01*
X121040487Y-142855317D01*
X121091964Y-142902561D01*
X121109777Y-142966601D01*
X121109515Y-148480506D01*
X121089827Y-148547544D01*
X121037021Y-148593297D01*
X120985515Y-148604500D01*
X118066900Y-148604500D01*
X117999861Y-148584815D01*
X117954106Y-148532011D01*
X117942900Y-148480500D01*
X117942900Y-146673286D01*
X117927958Y-146578949D01*
X117927957Y-146578947D01*
X117927957Y-146578945D01*
X117870016Y-146465229D01*
X117870014Y-146465227D01*
X117870011Y-146465223D01*
X117779776Y-146374988D01*
X117779772Y-146374985D01*
X117779771Y-146374984D01*
X117666055Y-146317043D01*
X117666053Y-146317042D01*
X117666050Y-146317041D01*
X117571713Y-146302100D01*
X117571708Y-146302100D01*
X116808292Y-146302100D01*
X116808287Y-146302100D01*
X116713949Y-146317041D01*
X116600227Y-146374985D01*
X116600223Y-146374988D01*
X116509988Y-146465223D01*
X116509985Y-146465227D01*
X116452041Y-146578949D01*
X116437100Y-146673286D01*
X116437100Y-148480500D01*
X116417415Y-148547539D01*
X116364611Y-148593294D01*
X116313100Y-148604500D01*
X115874000Y-148604500D01*
X115806961Y-148584815D01*
X115761206Y-148532011D01*
X115750000Y-148480500D01*
X115750000Y-148205000D01*
X115050000Y-148205000D01*
X115050000Y-147705000D01*
X115749999Y-147705000D01*
X115749999Y-146655028D01*
X115749998Y-146655013D01*
X115739505Y-146552302D01*
X115684358Y-146385880D01*
X115684356Y-146385875D01*
X115592315Y-146236654D01*
X115468345Y-146112684D01*
X115319124Y-146020643D01*
X115319119Y-146020641D01*
X115152697Y-145965494D01*
X115152690Y-145965493D01*
X115049986Y-145955000D01*
X114900000Y-145955000D01*
X114900000Y-146789314D01*
X114895606Y-146784920D01*
X114804394Y-146732259D01*
X114702661Y-146705000D01*
X114597339Y-146705000D01*
X114495606Y-146732259D01*
X114404394Y-146784920D01*
X114400000Y-146789314D01*
X114400000Y-145955000D01*
X114250027Y-145955000D01*
X114250012Y-145955001D01*
X114147302Y-145965494D01*
X113980880Y-146020641D01*
X113980875Y-146020643D01*
X113831654Y-146112684D01*
X113707684Y-146236654D01*
X113615643Y-146385875D01*
X113615641Y-146385880D01*
X113560494Y-146552302D01*
X113560493Y-146552309D01*
X113550000Y-146655013D01*
X113550000Y-147705000D01*
X114250000Y-147705000D01*
X114250000Y-148205000D01*
X113550001Y-148205000D01*
X113550001Y-148480500D01*
X113530316Y-148547539D01*
X113477512Y-148593294D01*
X113426001Y-148604500D01*
X112986900Y-148604500D01*
X112919861Y-148584815D01*
X112874106Y-148532011D01*
X112862900Y-148480500D01*
X112862900Y-146673287D01*
X112862580Y-146671268D01*
X112862580Y-146671266D01*
X112862579Y-146671262D01*
X112847958Y-146578949D01*
X112847957Y-146578947D01*
X112847957Y-146578945D01*
X112790016Y-146465229D01*
X112790014Y-146465227D01*
X112790011Y-146465223D01*
X112699776Y-146374988D01*
X112699772Y-146374985D01*
X112699771Y-146374984D01*
X112586055Y-146317043D01*
X112586053Y-146317042D01*
X112586050Y-146317041D01*
X112491713Y-146302100D01*
X112491708Y-146302100D01*
X111728292Y-146302100D01*
X111728287Y-146302100D01*
X111633949Y-146317041D01*
X111520227Y-146374985D01*
X111520223Y-146374988D01*
X111429988Y-146465223D01*
X111429985Y-146465227D01*
X111372041Y-146578949D01*
X111357100Y-146673286D01*
X111357100Y-148480500D01*
X111337415Y-148547539D01*
X111284611Y-148593294D01*
X111233100Y-148604500D01*
X110446900Y-148604500D01*
X110379861Y-148584815D01*
X110334106Y-148532011D01*
X110322900Y-148480500D01*
X110322900Y-146673286D01*
X110307958Y-146578949D01*
X110307957Y-146578947D01*
X110307957Y-146578945D01*
X110250016Y-146465229D01*
X110250014Y-146465227D01*
X110250011Y-146465223D01*
X110159776Y-146374988D01*
X110159772Y-146374985D01*
X110159771Y-146374984D01*
X110046055Y-146317043D01*
X110046053Y-146317042D01*
X110046050Y-146317041D01*
X109951713Y-146302100D01*
X109951708Y-146302100D01*
X109476900Y-146302100D01*
X109409861Y-146282415D01*
X109364106Y-146229611D01*
X109352900Y-146178100D01*
X109352900Y-141864013D01*
X109372585Y-141796974D01*
X109414902Y-141756625D01*
X109439489Y-141742430D01*
X109542430Y-141639489D01*
X109615221Y-141513411D01*
X109652900Y-141372791D01*
X109652900Y-141227209D01*
X109615221Y-141086589D01*
X109542430Y-140960511D01*
X109439489Y-140857570D01*
X109439488Y-140857569D01*
X109439485Y-140857567D01*
X109313413Y-140784780D01*
X109313412Y-140784779D01*
X109313411Y-140784779D01*
X109172791Y-140747100D01*
X109027209Y-140747100D01*
X108886589Y-140784779D01*
X108886587Y-140784780D01*
X108886586Y-140784780D01*
X108760514Y-140857567D01*
X108760509Y-140857571D01*
X108657571Y-140960509D01*
X108657567Y-140960514D01*
X108584780Y-141086586D01*
X108584780Y-141086587D01*
X108584779Y-141086589D01*
X108547100Y-141227209D01*
X108547100Y-141372791D01*
X108584779Y-141513411D01*
X108584780Y-141513412D01*
X108584780Y-141513413D01*
X108657567Y-141639485D01*
X108657569Y-141639488D01*
X108657570Y-141639489D01*
X108760511Y-141742430D01*
X108777405Y-141752184D01*
X108785098Y-141756625D01*
X108833314Y-141807191D01*
X108847100Y-141864013D01*
X108847100Y-146519623D01*
X108833587Y-146575913D01*
X108832042Y-146578943D01*
X108832042Y-146578945D01*
X108817100Y-146673286D01*
X108817100Y-148480500D01*
X108797415Y-148547539D01*
X108744611Y-148593294D01*
X108693100Y-148604500D01*
X107906900Y-148604500D01*
X107839861Y-148584815D01*
X107794106Y-148532011D01*
X107782900Y-148480500D01*
X107782900Y-146673286D01*
X107767957Y-146578945D01*
X107767957Y-146578943D01*
X107766413Y-146575913D01*
X107752900Y-146519623D01*
X107752900Y-141864013D01*
X107772585Y-141796974D01*
X107814902Y-141756625D01*
X107839489Y-141742430D01*
X107942430Y-141639489D01*
X108015221Y-141513411D01*
X108052900Y-141372791D01*
X108052900Y-141227209D01*
X108015221Y-141086589D01*
X107942430Y-140960511D01*
X107839489Y-140857570D01*
X107839488Y-140857569D01*
X107839485Y-140857567D01*
X107713413Y-140784780D01*
X107713412Y-140784779D01*
X107713411Y-140784779D01*
X107572791Y-140747100D01*
X107427209Y-140747100D01*
X107286589Y-140784779D01*
X107286587Y-140784780D01*
X107286586Y-140784780D01*
X107160514Y-140857567D01*
X107160509Y-140857571D01*
X107057571Y-140960509D01*
X107057567Y-140960514D01*
X106984780Y-141086586D01*
X106984780Y-141086587D01*
X106984779Y-141086589D01*
X106947100Y-141227209D01*
X106947100Y-141372791D01*
X106984779Y-141513411D01*
X106984780Y-141513412D01*
X106984780Y-141513413D01*
X107057567Y-141639485D01*
X107057569Y-141639488D01*
X107057570Y-141639489D01*
X107160511Y-141742430D01*
X107177405Y-141752184D01*
X107185098Y-141756625D01*
X107233314Y-141807191D01*
X107247100Y-141864013D01*
X107247100Y-146178100D01*
X107227415Y-146245139D01*
X107174611Y-146290894D01*
X107123100Y-146302100D01*
X106648287Y-146302100D01*
X106553949Y-146317041D01*
X106440227Y-146374985D01*
X106440223Y-146374988D01*
X106349988Y-146465223D01*
X106349985Y-146465227D01*
X106292041Y-146578949D01*
X106277100Y-146673286D01*
X106277100Y-148480500D01*
X106257415Y-148547539D01*
X106204611Y-148593294D01*
X106153100Y-148604500D01*
X105366900Y-148604500D01*
X105299861Y-148584815D01*
X105254106Y-148532011D01*
X105242900Y-148480500D01*
X105242900Y-146673286D01*
X105227958Y-146578949D01*
X105227957Y-146578947D01*
X105227957Y-146578945D01*
X105170016Y-146465229D01*
X105170014Y-146465227D01*
X105170011Y-146465223D01*
X105079776Y-146374988D01*
X105079772Y-146374985D01*
X105079771Y-146374984D01*
X104966055Y-146317043D01*
X104966053Y-146317042D01*
X104966050Y-146317041D01*
X104871713Y-146302100D01*
X104871708Y-146302100D01*
X104108292Y-146302100D01*
X104108287Y-146302100D01*
X104013949Y-146317041D01*
X103900227Y-146374985D01*
X103900223Y-146374988D01*
X103809988Y-146465223D01*
X103809985Y-146465227D01*
X103752041Y-146578949D01*
X103737100Y-146673286D01*
X103737100Y-148480500D01*
X103717415Y-148547539D01*
X103664611Y-148593294D01*
X103613100Y-148604500D01*
X103174000Y-148604500D01*
X103106961Y-148584815D01*
X103061206Y-148532011D01*
X103050000Y-148480500D01*
X103050000Y-148205000D01*
X102350000Y-148205000D01*
X102350000Y-147705000D01*
X103049999Y-147705000D01*
X103049999Y-146655028D01*
X103049998Y-146655013D01*
X103039505Y-146552302D01*
X102984358Y-146385880D01*
X102984356Y-146385875D01*
X102892315Y-146236654D01*
X102768345Y-146112684D01*
X102619124Y-146020643D01*
X102619119Y-146020641D01*
X102452697Y-145965494D01*
X102452690Y-145965493D01*
X102349986Y-145955000D01*
X102200000Y-145955000D01*
X102200000Y-146789314D01*
X102195606Y-146784920D01*
X102104394Y-146732259D01*
X102002661Y-146705000D01*
X101897339Y-146705000D01*
X101795606Y-146732259D01*
X101704394Y-146784920D01*
X101700000Y-146789314D01*
X101700000Y-145955000D01*
X101550027Y-145955000D01*
X101550012Y-145955001D01*
X101447302Y-145965494D01*
X101280880Y-146020641D01*
X101280875Y-146020643D01*
X101131654Y-146112684D01*
X101007684Y-146236654D01*
X100915643Y-146385875D01*
X100915641Y-146385880D01*
X100860494Y-146552302D01*
X100860493Y-146552309D01*
X100850000Y-146655013D01*
X100850000Y-147705000D01*
X101550000Y-147705000D01*
X101550000Y-148205000D01*
X100850001Y-148205000D01*
X100850001Y-148480500D01*
X100830316Y-148547539D01*
X100777512Y-148593294D01*
X100726001Y-148604500D01*
X100286900Y-148604500D01*
X100219861Y-148584815D01*
X100174106Y-148532011D01*
X100162900Y-148480500D01*
X100162900Y-146673287D01*
X100162580Y-146671268D01*
X100162580Y-146671266D01*
X100162579Y-146671262D01*
X100147958Y-146578949D01*
X100147957Y-146578947D01*
X100147957Y-146578945D01*
X100090016Y-146465229D01*
X100090014Y-146465227D01*
X100090011Y-146465223D01*
X99999776Y-146374988D01*
X99999772Y-146374985D01*
X99999771Y-146374984D01*
X99886055Y-146317043D01*
X99886053Y-146317042D01*
X99886050Y-146317041D01*
X99791713Y-146302100D01*
X99791708Y-146302100D01*
X99028292Y-146302100D01*
X99028287Y-146302100D01*
X98933949Y-146317041D01*
X98820227Y-146374985D01*
X98820223Y-146374988D01*
X98729988Y-146465223D01*
X98729985Y-146465227D01*
X98672041Y-146578949D01*
X98657100Y-146673286D01*
X98657100Y-148480500D01*
X98637415Y-148547539D01*
X98584611Y-148593294D01*
X98533100Y-148604500D01*
X95634907Y-148604500D01*
X95567868Y-148584815D01*
X95522113Y-148532011D01*
X95510907Y-148480469D01*
X95511101Y-147705000D01*
X95512271Y-143031363D01*
X95531972Y-142964331D01*
X95584788Y-142918590D01*
X95653949Y-142908664D01*
X95717497Y-142937704D01*
X95746756Y-142975102D01*
X95844951Y-143167819D01*
X95969890Y-143339786D01*
X96120213Y-143490109D01*
X96292179Y-143615048D01*
X96292181Y-143615049D01*
X96292184Y-143615051D01*
X96481588Y-143711557D01*
X96683757Y-143777246D01*
X96893713Y-143810500D01*
X96893714Y-143810500D01*
X97106286Y-143810500D01*
X97106287Y-143810500D01*
X97316243Y-143777246D01*
X97518412Y-143711557D01*
X97707816Y-143615051D01*
X97729789Y-143599086D01*
X97879786Y-143490109D01*
X97879788Y-143490106D01*
X97879792Y-143490104D01*
X98030104Y-143339792D01*
X98030106Y-143339788D01*
X98030109Y-143339786D01*
X98155048Y-143167820D01*
X98155049Y-143167819D01*
X98155051Y-143167816D01*
X98251557Y-142978412D01*
X98317246Y-142776243D01*
X98350500Y-142566287D01*
X98350500Y-142353713D01*
X98317246Y-142143757D01*
X98251557Y-141941588D01*
X98155051Y-141752184D01*
X98155049Y-141752181D01*
X98155048Y-141752179D01*
X98030109Y-141580213D01*
X97879786Y-141429890D01*
X97707820Y-141304951D01*
X97518414Y-141208444D01*
X97518413Y-141208443D01*
X97518412Y-141208443D01*
X97316243Y-141142754D01*
X97316241Y-141142753D01*
X97316240Y-141142753D01*
X97154957Y-141117208D01*
X97106287Y-141109500D01*
X96893713Y-141109500D01*
X96845042Y-141117208D01*
X96683760Y-141142753D01*
X96481585Y-141208444D01*
X96292179Y-141304951D01*
X96120213Y-141429890D01*
X95969890Y-141580213D01*
X95844951Y-141752180D01*
X95747042Y-141944335D01*
X95699067Y-141995131D01*
X95631246Y-142011926D01*
X95565111Y-141989388D01*
X95521660Y-141934673D01*
X95512557Y-141888013D01*
X95516337Y-126793788D01*
X95516342Y-126785100D01*
X95516350Y-126785082D01*
X95516350Y-126769958D01*
X95526305Y-126736118D01*
X95536035Y-126702982D01*
X95536059Y-126702960D01*
X95536069Y-126702928D01*
X95563691Y-126679017D01*
X95588839Y-126657227D01*
X95588873Y-126657219D01*
X95588896Y-126657200D01*
X95589116Y-126657168D01*
X95641854Y-126646030D01*
X95957203Y-126649860D01*
X95963950Y-126650566D01*
X96011083Y-126650549D01*
X96011083Y-126650550D01*
X96013878Y-126650549D01*
X96048494Y-126650970D01*
X96049558Y-126650543D01*
X96050844Y-126650542D01*
X96067476Y-126650541D01*
X96177429Y-126625428D01*
X96279039Y-126576481D01*
X96279042Y-126576478D01*
X96279046Y-126576476D01*
X96367209Y-126506154D01*
X96367211Y-126506152D01*
X96437523Y-126417971D01*
X96437523Y-126417969D01*
X96437525Y-126417968D01*
X96480432Y-126328859D01*
X96504472Y-126294977D01*
X96524450Y-126275000D01*
X96524450Y-124757844D01*
X101350000Y-124757844D01*
X101356401Y-124817372D01*
X101356403Y-124817379D01*
X101406645Y-124952086D01*
X101406649Y-124952093D01*
X101492809Y-125067187D01*
X101492812Y-125067190D01*
X101607906Y-125153350D01*
X101607913Y-125153354D01*
X101742620Y-125203596D01*
X101742627Y-125203598D01*
X101802155Y-125209999D01*
X101802172Y-125210000D01*
X102350000Y-125210000D01*
X102350000Y-124210000D01*
X101350000Y-124210000D01*
X101350000Y-124757844D01*
X96524450Y-124757844D01*
X96524450Y-123405362D01*
X96533094Y-123375921D01*
X96539618Y-123345935D01*
X96543372Y-123340919D01*
X96544135Y-123338323D01*
X96560769Y-123317681D01*
X96691631Y-123186819D01*
X96752954Y-123153334D01*
X96779312Y-123150500D01*
X101226000Y-123150500D01*
X101293039Y-123170185D01*
G37*
%TD.AperFunction*%
%TD*%
M02*
