%TF.GenerationSoftware,KiCad,Pcbnew,9.0.7*%
%TF.CreationDate,2026-02-26T13:23:58-05:00*%
%TF.ProjectId,Mag Charger,4d616720-4368-4617-9267-65722e6b6963,X1*%
%TF.SameCoordinates,Original*%
%TF.FileFunction,Copper,L1,Top*%
%TF.FilePolarity,Positive*%
%FSLAX46Y46*%
G04 Gerber Fmt 4.6, Leading zero omitted, Abs format (unit mm)*
G04 Created by KiCad (PCBNEW 9.0.7) date 2026-02-26 13:23:58*
%MOMM*%
%LPD*%
G01*
G04 APERTURE LIST*
G04 Aperture macros list*
%AMRoundRect*
0 Rectangle with rounded corners*
0 $1 Rounding radius*
0 $2 $3 $4 $5 $6 $7 $8 $9 X,Y pos of 4 corners*
0 Add a 4 corners polygon primitive as box body*
4,1,4,$2,$3,$4,$5,$6,$7,$8,$9,$2,$3,0*
0 Add four circle primitives for the rounded corners*
1,1,$1+$1,$2,$3*
1,1,$1+$1,$4,$5*
1,1,$1+$1,$6,$7*
1,1,$1+$1,$8,$9*
0 Add four rect primitives between the rounded corners*
20,1,$1+$1,$2,$3,$4,$5,0*
20,1,$1+$1,$4,$5,$6,$7,0*
20,1,$1+$1,$6,$7,$8,$9,0*
20,1,$1+$1,$8,$9,$2,$3,0*%
G04 Aperture macros list end*
%TA.AperFunction,SMDPad,CuDef*%
%ADD10R,1.500000X1.500000*%
%TD*%
%TA.AperFunction,SMDPad,CuDef*%
%ADD11R,0.380000X1.000000*%
%TD*%
%TA.AperFunction,SMDPad,CuDef*%
%ADD12R,0.700000X1.150000*%
%TD*%
%TA.AperFunction,SMDPad,CuDef*%
%ADD13RoundRect,0.250000X0.900000X-1.500000X0.900000X1.500000X-0.900000X1.500000X-0.900000X-1.500000X0*%
%TD*%
%TA.AperFunction,SMDPad,CuDef*%
%ADD14RoundRect,0.250000X0.650000X-0.412500X0.650000X0.412500X-0.650000X0.412500X-0.650000X-0.412500X0*%
%TD*%
%TA.AperFunction,SMDPad,CuDef*%
%ADD15RoundRect,0.200000X0.200000X-0.750000X0.200000X0.750000X-0.200000X0.750000X-0.200000X-0.750000X0*%
%TD*%
%TA.AperFunction,CastellatedPad*%
%ADD16RoundRect,0.250000X-0.350000X-1.250000X0.350000X-1.250000X0.350000X1.250000X-0.350000X1.250000X0*%
%TD*%
%TA.AperFunction,ViaPad*%
%ADD17C,0.500000*%
%TD*%
%TA.AperFunction,ViaPad*%
%ADD18C,0.800000*%
%TD*%
%TA.AperFunction,ViaPad*%
%ADD19C,0.600000*%
%TD*%
%TA.AperFunction,Conductor*%
%ADD20C,0.400000*%
%TD*%
%TA.AperFunction,Conductor*%
%ADD21C,0.250000*%
%TD*%
%TA.AperFunction,Conductor*%
%ADD22C,0.200000*%
%TD*%
G04 APERTURE END LIST*
D10*
%TO.P,TP1,1,1*%
%TO.N,GND*%
X102600000Y-123960000D03*
%TD*%
%TO.P,TP3,1,1*%
%TO.N,GND*%
X114000000Y-123960000D03*
%TD*%
D11*
%TO.P,P1,A1,GND*%
%TO.N,GND*%
X105550000Y-125000000D03*
%TO.P,P1,A2*%
%TO.N,N/C*%
X106050000Y-125000000D03*
%TO.P,P1,A3*%
X106550000Y-125000000D03*
%TO.P,P1,A4,VBUS*%
%TO.N,VBUS*%
X107050000Y-125000000D03*
%TO.P,P1,A5,CC*%
%TO.N,/USB_CC*%
X107550000Y-125000000D03*
%TO.P,P1,A6,D+*%
%TO.N,/USB_DP*%
X108050000Y-125000000D03*
%TO.P,P1,A7,D-*%
%TO.N,/USB_DN*%
X108550000Y-125000000D03*
%TO.P,P1,A8*%
%TO.N,N/C*%
X109050000Y-125000000D03*
%TO.P,P1,A9,VBUS*%
%TO.N,VBUS*%
X109550000Y-125000000D03*
%TO.P,P1,A10*%
%TO.N,N/C*%
X110050000Y-125000000D03*
%TO.P,P1,A11*%
X110550000Y-125000000D03*
%TO.P,P1,A12,GND*%
%TO.N,GND*%
X111050000Y-125000000D03*
D12*
%TO.P,P1,S1,SHIELD*%
X104880000Y-125840000D03*
%TD*%
D13*
%TO.P,D1,1,A1*%
%TO.N,VBUS*%
X101900000Y-139700000D03*
%TO.P,D1,2,A2*%
%TO.N,GND*%
X101900000Y-134300000D03*
%TD*%
D14*
%TO.P,C2,1*%
%TO.N,VBUS*%
X96750000Y-139062500D03*
%TO.P,C2,2*%
%TO.N,GND*%
X96750000Y-135937500D03*
%TD*%
D15*
%TO.P,D2,1,K*%
%TO.N,/USB_DP*%
X107350000Y-139582000D03*
%TO.P,D2,2,K*%
%TO.N,/USB_DN*%
X109250000Y-139582000D03*
%TO.P,D2,3,A*%
%TO.N,GND*%
X108300000Y-136582000D03*
%TD*%
D16*
%TO.P,J1,1,Pin_1*%
%TO.N,VBUS*%
X99410000Y-147955000D03*
%TO.P,J1,2,Pin_2*%
%TO.N,GND*%
X101950000Y-147955000D03*
%TO.P,J1,3,Pin_3*%
%TO.N,/USB_CC*%
X104490000Y-147955000D03*
%TO.P,J1,4,Pin_4*%
%TO.N,/USB_DP*%
X107030000Y-147955000D03*
%TO.P,J1,5,Pin_5*%
%TO.N,/USB_DN*%
X109570000Y-147955000D03*
%TO.P,J1,6,Pin_6*%
%TO.N,/USB_VCONN*%
X112110000Y-147955000D03*
%TO.P,J1,7,Pin_7*%
%TO.N,GND*%
X114650000Y-147955000D03*
%TO.P,J1,8,Pin_8*%
%TO.N,VBUS*%
X117190000Y-147955000D03*
%TD*%
D14*
%TO.P,C1,1*%
%TO.N,VBUS*%
X120000000Y-139000000D03*
%TO.P,C1,2*%
%TO.N,GND*%
X120000000Y-135875000D03*
%TD*%
D17*
%TO.N,GND*%
X102158000Y-123531500D03*
X102158000Y-124420500D03*
X114477000Y-123531500D03*
X114477000Y-124420500D03*
X103047000Y-123531500D03*
X113524500Y-124420500D03*
D18*
X120000000Y-137437500D03*
X108300000Y-134900000D03*
D17*
X113524500Y-123531500D03*
X103047000Y-124420500D03*
D18*
X96750000Y-137500000D03*
%TO.N,/USB_DN*%
X109100000Y-141300000D03*
D19*
%TO.N,VBUS*%
X107050000Y-127150000D03*
X109550000Y-127150000D03*
D18*
%TO.N,/USB_DP*%
X107500000Y-141300000D03*
D19*
%TO.N,/USB_VCONN*%
X109200000Y-128150000D03*
%TD*%
D20*
%TO.N,GND*%
X98700000Y-137500000D02*
X101900000Y-134300000D01*
X113460000Y-125840000D02*
X114000000Y-125300000D01*
X105550000Y-125000000D02*
X105550000Y-125170000D01*
X102600000Y-125300000D02*
X102600000Y-123960000D01*
X111720000Y-125840000D02*
X113460000Y-125840000D01*
X105550000Y-125170000D02*
X104880000Y-125840000D01*
X114000000Y-125300000D02*
X114000000Y-123960000D01*
X104880000Y-125840000D02*
X103140000Y-125840000D01*
X120000000Y-135875000D02*
X120000000Y-137437500D01*
X96750000Y-135937500D02*
X96750000Y-137500000D01*
X111050000Y-125000000D02*
X111050000Y-125170000D01*
X111050000Y-125170000D02*
X111720000Y-125840000D01*
X96750000Y-137500000D02*
X98700000Y-137500000D01*
X103140000Y-125840000D02*
X102600000Y-125300000D01*
D21*
X108300000Y-136582000D02*
X108300000Y-134900000D01*
D22*
%TO.N,/USB_DN*%
X109250000Y-134760800D02*
X109250000Y-139582000D01*
X109250000Y-139582000D02*
X109250000Y-141150000D01*
X108550000Y-125000000D02*
X108550000Y-125750001D01*
X109250000Y-141150000D02*
X109100000Y-141300000D01*
X108550000Y-125750001D02*
X108525000Y-125775001D01*
X109250000Y-147635000D02*
X109570000Y-147955000D01*
X108525000Y-125775001D02*
X108525000Y-134035800D01*
X108525000Y-134035800D02*
X109250000Y-134760800D01*
D20*
%TO.N,VBUS*%
X120000000Y-139000000D02*
X120562500Y-139000000D01*
D22*
%TO.N,/USB_DP*%
X107350000Y-141150000D02*
X107500000Y-141300000D01*
X108075000Y-134035800D02*
X107350000Y-134760800D01*
X108050000Y-125750001D02*
X108075000Y-125775001D01*
X108050000Y-125000000D02*
X108050000Y-125750001D01*
X107350000Y-134760800D02*
X107350000Y-139582000D01*
X107350000Y-139582000D02*
X107350000Y-141150000D01*
X107350000Y-147635000D02*
X107030000Y-147955000D01*
X108075000Y-125775001D02*
X108075000Y-134035800D01*
%TO.N,/USB_CC*%
X107550000Y-125000000D02*
X107550000Y-128000000D01*
X107550000Y-128000000D02*
X104490000Y-131060000D01*
X104490000Y-131060000D02*
X104490000Y-147955000D01*
%TO.N,/USB_VCONN*%
X112110000Y-131060000D02*
X112110000Y-147955000D01*
X109200000Y-128150000D02*
X112110000Y-131060000D01*
%TD*%
%TA.AperFunction,Conductor*%
%TO.N,VBUS*%
G36*
X101640139Y-123170185D02*
G01*
X101685894Y-123222989D01*
X101697100Y-123274500D01*
X101697100Y-124725054D01*
X101705972Y-124769658D01*
X101705973Y-124769661D01*
X101737175Y-124816357D01*
X101739766Y-124820234D01*
X101790342Y-124854028D01*
X101790343Y-124854028D01*
X101790345Y-124854029D01*
X101812642Y-124858464D01*
X101834943Y-124862900D01*
X102123101Y-124862899D01*
X102190139Y-124882583D01*
X102235894Y-124935387D01*
X102247100Y-124986899D01*
X102247100Y-125253540D01*
X102247100Y-125346460D01*
X102271150Y-125436214D01*
X102317610Y-125516686D01*
X102923314Y-126122390D01*
X103003786Y-126168850D01*
X103093540Y-126192900D01*
X103186460Y-126192900D01*
X104253101Y-126192900D01*
X104320140Y-126212585D01*
X104365895Y-126265389D01*
X104377101Y-126316900D01*
X104377101Y-126430056D01*
X104377102Y-126430059D01*
X104385972Y-126474658D01*
X104385973Y-126474661D01*
X104419765Y-126525233D01*
X104419766Y-126525234D01*
X104470342Y-126559028D01*
X104470343Y-126559028D01*
X104470345Y-126559029D01*
X104492642Y-126563464D01*
X104514943Y-126567900D01*
X105245056Y-126567899D01*
X105289658Y-126559028D01*
X105340234Y-126525234D01*
X105374028Y-126474658D01*
X105382900Y-126430057D01*
X105382899Y-125887536D01*
X105391544Y-125858091D01*
X105398067Y-125828110D01*
X105401820Y-125823096D01*
X105402583Y-125820498D01*
X105419209Y-125799865D01*
X105529859Y-125689215D01*
X105591180Y-125655733D01*
X105617538Y-125652899D01*
X105755056Y-125652899D01*
X105775806Y-125648772D01*
X105824189Y-125648772D01*
X105834136Y-125650750D01*
X105844943Y-125652900D01*
X106255056Y-125652899D01*
X106271022Y-125649723D01*
X106340611Y-125655949D01*
X106395789Y-125698811D01*
X106411394Y-125728005D01*
X106416648Y-125742091D01*
X106416648Y-125742092D01*
X106502809Y-125857187D01*
X106502812Y-125857190D01*
X106617906Y-125943350D01*
X106617913Y-125943354D01*
X106752620Y-125993596D01*
X106752627Y-125993598D01*
X106812155Y-125999999D01*
X106812172Y-126000000D01*
X106860000Y-126000000D01*
X106860000Y-125633233D01*
X106862550Y-125624547D01*
X106861262Y-125615587D01*
X106878030Y-125571827D01*
X106879685Y-125566194D01*
X106880440Y-125565539D01*
X106880900Y-125564340D01*
X106884028Y-125559658D01*
X106884028Y-125559656D01*
X106892900Y-125515057D01*
X106892899Y-125123997D01*
X106895449Y-125115313D01*
X106894161Y-125106353D01*
X106905138Y-125082316D01*
X106912583Y-125056961D01*
X106919425Y-125051032D01*
X106923186Y-125042797D01*
X106945417Y-125028510D01*
X106965387Y-125011206D01*
X106975902Y-125008918D01*
X106981964Y-125005023D01*
X107016899Y-125000000D01*
X107083101Y-125000000D01*
X107150140Y-125019685D01*
X107195895Y-125072489D01*
X107207100Y-125123998D01*
X107207101Y-125515056D01*
X107215972Y-125559656D01*
X107215972Y-125559657D01*
X107215972Y-125559659D01*
X107219100Y-125564339D01*
X107222137Y-125574037D01*
X107228794Y-125581720D01*
X107232402Y-125606819D01*
X107239980Y-125631015D01*
X107240000Y-125633232D01*
X107240000Y-126000000D01*
X107260781Y-126020781D01*
X107294266Y-126082104D01*
X107297100Y-126108462D01*
X107297100Y-127843883D01*
X107277415Y-127910922D01*
X107260781Y-127931564D01*
X104351084Y-130841260D01*
X104351073Y-130841269D01*
X104351074Y-130841270D01*
X104275600Y-130916743D01*
X104253047Y-130971193D01*
X104237099Y-131009693D01*
X104237099Y-131124738D01*
X104237100Y-131124747D01*
X104237100Y-146178100D01*
X104217415Y-146245139D01*
X104164611Y-146290894D01*
X104113100Y-146302100D01*
X104108287Y-146302100D01*
X104013949Y-146317041D01*
X103900227Y-146374985D01*
X103900223Y-146374988D01*
X103809988Y-146465223D01*
X103809985Y-146465227D01*
X103752041Y-146578949D01*
X103737100Y-146673286D01*
X103737100Y-148480500D01*
X103717415Y-148547539D01*
X103664611Y-148593294D01*
X103613100Y-148604500D01*
X102826900Y-148604500D01*
X102759861Y-148584815D01*
X102714106Y-148532011D01*
X102702900Y-148480500D01*
X102702900Y-146673286D01*
X102687958Y-146578949D01*
X102687957Y-146578947D01*
X102687957Y-146578945D01*
X102630016Y-146465229D01*
X102630014Y-146465227D01*
X102630011Y-146465223D01*
X102539776Y-146374988D01*
X102539772Y-146374985D01*
X102539771Y-146374984D01*
X102426055Y-146317043D01*
X102426053Y-146317042D01*
X102426050Y-146317041D01*
X102331713Y-146302100D01*
X102331708Y-146302100D01*
X101568292Y-146302100D01*
X101568287Y-146302100D01*
X101473949Y-146317041D01*
X101360227Y-146374985D01*
X101360223Y-146374988D01*
X101269988Y-146465223D01*
X101269985Y-146465227D01*
X101212041Y-146578949D01*
X101197100Y-146673286D01*
X101197100Y-148480500D01*
X101177415Y-148547539D01*
X101124611Y-148593294D01*
X101073100Y-148604500D01*
X100634000Y-148604500D01*
X100566961Y-148584815D01*
X100521206Y-148532011D01*
X100510000Y-148480500D01*
X100510000Y-148205000D01*
X99810000Y-148205000D01*
X99810000Y-147705000D01*
X100509999Y-147705000D01*
X100509999Y-146655028D01*
X100509998Y-146655013D01*
X100499505Y-146552302D01*
X100444358Y-146385880D01*
X100444356Y-146385875D01*
X100352315Y-146236654D01*
X100228345Y-146112684D01*
X100079124Y-146020643D01*
X100079119Y-146020641D01*
X99912697Y-145965494D01*
X99912690Y-145965493D01*
X99809986Y-145955000D01*
X99660000Y-145955000D01*
X99660000Y-146789314D01*
X99655606Y-146784920D01*
X99564394Y-146732259D01*
X99462661Y-146705000D01*
X99357339Y-146705000D01*
X99255606Y-146732259D01*
X99164394Y-146784920D01*
X99160000Y-146789314D01*
X99160000Y-145955000D01*
X99010027Y-145955000D01*
X99010012Y-145955001D01*
X98907302Y-145965494D01*
X98740880Y-146020641D01*
X98740875Y-146020643D01*
X98591654Y-146112684D01*
X98467684Y-146236654D01*
X98375643Y-146385875D01*
X98375641Y-146385880D01*
X98320494Y-146552302D01*
X98320493Y-146552309D01*
X98310000Y-146655013D01*
X98310000Y-147705000D01*
X99010000Y-147705000D01*
X99010000Y-148205000D01*
X98310001Y-148205000D01*
X98310001Y-148480500D01*
X98290316Y-148547539D01*
X98237512Y-148593294D01*
X98186001Y-148604500D01*
X95634907Y-148604500D01*
X95567868Y-148584815D01*
X95522113Y-148532011D01*
X95510907Y-148480469D01*
X95511365Y-146651833D01*
X95511539Y-145955000D01*
X95512271Y-143031362D01*
X95531972Y-142964330D01*
X95584788Y-142918589D01*
X95653949Y-142908663D01*
X95717497Y-142937703D01*
X95746756Y-142975101D01*
X95844951Y-143167820D01*
X95969890Y-143339786D01*
X96120213Y-143490109D01*
X96292179Y-143615048D01*
X96292181Y-143615049D01*
X96292184Y-143615051D01*
X96481588Y-143711557D01*
X96683757Y-143777246D01*
X96893713Y-143810500D01*
X96893714Y-143810500D01*
X97106286Y-143810500D01*
X97106287Y-143810500D01*
X97316243Y-143777246D01*
X97518412Y-143711557D01*
X97707816Y-143615051D01*
X97729789Y-143599086D01*
X97879786Y-143490109D01*
X97879788Y-143490106D01*
X97879792Y-143490104D01*
X98030104Y-143339792D01*
X98030106Y-143339788D01*
X98030109Y-143339786D01*
X98155048Y-143167820D01*
X98155047Y-143167820D01*
X98155051Y-143167816D01*
X98251557Y-142978412D01*
X98317246Y-142776243D01*
X98350500Y-142566287D01*
X98350500Y-142353713D01*
X98317246Y-142143757D01*
X98251557Y-141941588D01*
X98155051Y-141752184D01*
X98155049Y-141752181D01*
X98155048Y-141752179D01*
X98030109Y-141580213D01*
X97879786Y-141429890D01*
X97707820Y-141304951D01*
X97599945Y-141249986D01*
X100250001Y-141249986D01*
X100260494Y-141352697D01*
X100315641Y-141519119D01*
X100315643Y-141519124D01*
X100407684Y-141668345D01*
X100531654Y-141792315D01*
X100680875Y-141884356D01*
X100680880Y-141884358D01*
X100847302Y-141939505D01*
X100847309Y-141939506D01*
X100950019Y-141949999D01*
X101649999Y-141949999D01*
X102150000Y-141949999D01*
X102849972Y-141949999D01*
X102849986Y-141949998D01*
X102952697Y-141939505D01*
X103119119Y-141884358D01*
X103119124Y-141884356D01*
X103268345Y-141792315D01*
X103392315Y-141668345D01*
X103484356Y-141519124D01*
X103484358Y-141519119D01*
X103539505Y-141352697D01*
X103539506Y-141352690D01*
X103549999Y-141249986D01*
X103550000Y-141249973D01*
X103550000Y-139950000D01*
X102150000Y-139950000D01*
X102150000Y-141949999D01*
X101649999Y-141949999D01*
X101650000Y-141949998D01*
X101650000Y-139950000D01*
X100250001Y-139950000D01*
X100250001Y-141249986D01*
X97599945Y-141249986D01*
X97518414Y-141208444D01*
X97518413Y-141208443D01*
X97518412Y-141208443D01*
X97316243Y-141142754D01*
X97316241Y-141142753D01*
X97316240Y-141142753D01*
X97154957Y-141117208D01*
X97106287Y-141109500D01*
X96893713Y-141109500D01*
X96845042Y-141117208D01*
X96683760Y-141142753D01*
X96481585Y-141208444D01*
X96292179Y-141304951D01*
X96120213Y-141429890D01*
X95969890Y-141580213D01*
X95844951Y-141752180D01*
X95747042Y-141944336D01*
X95699067Y-141995132D01*
X95631246Y-142011927D01*
X95565111Y-141989389D01*
X95521660Y-141934674D01*
X95512557Y-141888014D01*
X95512976Y-140216256D01*
X95532677Y-140149223D01*
X95585493Y-140103482D01*
X95654654Y-140093556D01*
X95702073Y-140110750D01*
X95780875Y-140159356D01*
X95780880Y-140159358D01*
X95947302Y-140214505D01*
X95947309Y-140214506D01*
X96050019Y-140224999D01*
X96499999Y-140224999D01*
X97000000Y-140224999D01*
X97449972Y-140224999D01*
X97449986Y-140224998D01*
X97552697Y-140214505D01*
X97719119Y-140159358D01*
X97719124Y-140159356D01*
X97868345Y-140067315D01*
X97992316Y-139943344D01*
X97992319Y-139943340D01*
X98060045Y-139833541D01*
X98084354Y-139794128D01*
X98084358Y-139794119D01*
X98139505Y-139627697D01*
X98139506Y-139627690D01*
X98149999Y-139524986D01*
X98150000Y-139524973D01*
X98150000Y-139312500D01*
X97000000Y-139312500D01*
X97000000Y-140224999D01*
X96499999Y-140224999D01*
X96500000Y-140224998D01*
X96500000Y-139186500D01*
X96519685Y-139119461D01*
X96572489Y-139073706D01*
X96624000Y-139062500D01*
X96750000Y-139062500D01*
X96750000Y-138936500D01*
X96769685Y-138869461D01*
X96822489Y-138823706D01*
X96874000Y-138812500D01*
X98149999Y-138812500D01*
X98149999Y-138600028D01*
X98149998Y-138600013D01*
X98139505Y-138497302D01*
X98084358Y-138330880D01*
X98084356Y-138330875D01*
X98016955Y-138221602D01*
X97952248Y-138150013D01*
X100250000Y-138150013D01*
X100250000Y-139450000D01*
X101650000Y-139450000D01*
X102150000Y-139450000D01*
X103549999Y-139450000D01*
X103549999Y-138150028D01*
X103549998Y-138150013D01*
X103539505Y-138047302D01*
X103484358Y-137880880D01*
X103484356Y-137880875D01*
X103392315Y-137731654D01*
X103268345Y-137607684D01*
X103119124Y-137515643D01*
X103119119Y-137515641D01*
X102952697Y-137460494D01*
X102952690Y-137460493D01*
X102849986Y-137450000D01*
X102150000Y-137450000D01*
X102150000Y-139450000D01*
X101650000Y-139450000D01*
X101650000Y-137450000D01*
X100950028Y-137450000D01*
X100950012Y-137450001D01*
X100847302Y-137460494D01*
X100680880Y-137515641D01*
X100680875Y-137515643D01*
X100531654Y-137607684D01*
X100407684Y-137731654D01*
X100315643Y-137880875D01*
X100315641Y-137880880D01*
X100260494Y-138047302D01*
X100260493Y-138047309D01*
X100250000Y-138150013D01*
X97952248Y-138150013D01*
X97870932Y-138060048D01*
X97857061Y-138031285D01*
X97841757Y-138003258D01*
X97841987Y-138000029D01*
X97840582Y-137997114D01*
X97844463Y-137965418D01*
X97846741Y-137933566D01*
X97848680Y-137930974D01*
X97849074Y-137927763D01*
X97869475Y-137903196D01*
X97888613Y-137877633D01*
X97891645Y-137876502D01*
X97893713Y-137874012D01*
X97924161Y-137864374D01*
X97954077Y-137853216D01*
X97960090Y-137853001D01*
X97960325Y-137852927D01*
X97960539Y-137852985D01*
X97962923Y-137852900D01*
X98746458Y-137852900D01*
X98746460Y-137852900D01*
X98836214Y-137828850D01*
X98916686Y-137782390D01*
X100576964Y-136122110D01*
X100638285Y-136088627D01*
X100707976Y-136093611D01*
X100752324Y-136122112D01*
X100760223Y-136130011D01*
X100760227Y-136130014D01*
X100760229Y-136130016D01*
X100873945Y-136187957D01*
X100873947Y-136187957D01*
X100873949Y-136187958D01*
X100968287Y-136202900D01*
X100968292Y-136202900D01*
X102831713Y-136202900D01*
X102926050Y-136187958D01*
X102926050Y-136187957D01*
X102926055Y-136187957D01*
X103039771Y-136130016D01*
X103130016Y-136039771D01*
X103187957Y-135926055D01*
X103187958Y-135926050D01*
X103202900Y-135831713D01*
X103202900Y-132768286D01*
X103187958Y-132673949D01*
X103187957Y-132673947D01*
X103187957Y-132673945D01*
X103130016Y-132560229D01*
X103130014Y-132560227D01*
X103130011Y-132560223D01*
X103039776Y-132469988D01*
X103039772Y-132469985D01*
X103039771Y-132469984D01*
X102926055Y-132412043D01*
X102926053Y-132412042D01*
X102926050Y-132412041D01*
X102831713Y-132397100D01*
X102831708Y-132397100D01*
X100968292Y-132397100D01*
X100968287Y-132397100D01*
X100873949Y-132412041D01*
X100760227Y-132469985D01*
X100760223Y-132469988D01*
X100669988Y-132560223D01*
X100669985Y-132560227D01*
X100612041Y-132673949D01*
X100597100Y-132768286D01*
X100597100Y-135052462D01*
X100577415Y-135119501D01*
X100560781Y-135140143D01*
X98590143Y-137110781D01*
X98528820Y-137144266D01*
X98502462Y-137147100D01*
X97230381Y-137147100D01*
X97200940Y-137138455D01*
X97170954Y-137131932D01*
X97165938Y-137128177D01*
X97163342Y-137127415D01*
X97142700Y-137110781D01*
X97139219Y-137107300D01*
X97105734Y-137045977D01*
X97102900Y-137019619D01*
X97102900Y-136876900D01*
X97122585Y-136809861D01*
X97175389Y-136764106D01*
X97226900Y-136752900D01*
X97431713Y-136752900D01*
X97526050Y-136737958D01*
X97526050Y-136737957D01*
X97526055Y-136737957D01*
X97639771Y-136680016D01*
X97730016Y-136589771D01*
X97787957Y-136476055D01*
X97787958Y-136476050D01*
X97802900Y-136381713D01*
X97802900Y-135493286D01*
X97787958Y-135398949D01*
X97787957Y-135398947D01*
X97787957Y-135398945D01*
X97730016Y-135285229D01*
X97730014Y-135285227D01*
X97730011Y-135285223D01*
X97639776Y-135194988D01*
X97639772Y-135194985D01*
X97639771Y-135194984D01*
X97526055Y-135137043D01*
X97526053Y-135137042D01*
X97526050Y-135137041D01*
X97431713Y-135122100D01*
X97431708Y-135122100D01*
X96068292Y-135122100D01*
X96068287Y-135122100D01*
X95973949Y-135137041D01*
X95860227Y-135194985D01*
X95860223Y-135194988D01*
X95769988Y-135285223D01*
X95769983Y-135285230D01*
X95748698Y-135327004D01*
X95700723Y-135377800D01*
X95632902Y-135394594D01*
X95566767Y-135372056D01*
X95523316Y-135317340D01*
X95514215Y-135270682D01*
X95516337Y-126793788D01*
X95516342Y-126785100D01*
X95516350Y-126785082D01*
X95516350Y-126769958D01*
X95526305Y-126736118D01*
X95536035Y-126702982D01*
X95536059Y-126702960D01*
X95536069Y-126702928D01*
X95563691Y-126679017D01*
X95588839Y-126657227D01*
X95588873Y-126657219D01*
X95588896Y-126657200D01*
X95589116Y-126657168D01*
X95641854Y-126646030D01*
X95957203Y-126649860D01*
X95963950Y-126650566D01*
X96011083Y-126650549D01*
X96011083Y-126650550D01*
X96013878Y-126650549D01*
X96048494Y-126650970D01*
X96049558Y-126650543D01*
X96050844Y-126650542D01*
X96067476Y-126650541D01*
X96177429Y-126625428D01*
X96279039Y-126576481D01*
X96279042Y-126576478D01*
X96279046Y-126576476D01*
X96367209Y-126506154D01*
X96367211Y-126506152D01*
X96437524Y-126417970D01*
X96437536Y-126417945D01*
X96480726Y-126328249D01*
X96504759Y-126294375D01*
X96524135Y-126275000D01*
X96524135Y-123405362D01*
X96532779Y-123375921D01*
X96539303Y-123345935D01*
X96543057Y-123340919D01*
X96543820Y-123338323D01*
X96560454Y-123317681D01*
X96691316Y-123186819D01*
X96752639Y-123153334D01*
X96778997Y-123150500D01*
X101573100Y-123150500D01*
X101640139Y-123170185D01*
G37*
%TD.AperFunction*%
%TA.AperFunction,Conductor*%
G36*
X120053589Y-123170185D02*
G01*
X120099344Y-123222989D01*
X120110550Y-123274500D01*
X120110550Y-126201873D01*
X120110599Y-126202368D01*
X120110599Y-126206387D01*
X120135691Y-126316334D01*
X120141431Y-126328254D01*
X120184618Y-126417945D01*
X120254917Y-126506110D01*
X120254923Y-126506116D01*
X120254924Y-126506117D01*
X120321260Y-126559028D01*
X120343087Y-126576438D01*
X120444687Y-126625381D01*
X120444689Y-126625382D01*
X120533705Y-126645712D01*
X120554630Y-126650491D01*
X120567291Y-126650492D01*
X120571152Y-126650493D01*
X120571168Y-126650500D01*
X120611016Y-126650500D01*
X120611024Y-126650500D01*
X120650899Y-126650507D01*
X120650901Y-126650506D01*
X120662983Y-126650508D01*
X120663076Y-126650500D01*
X120986549Y-126650500D01*
X121053588Y-126670185D01*
X121099343Y-126722989D01*
X121110548Y-126774505D01*
X121110480Y-128214399D01*
X121110154Y-135053510D01*
X121090466Y-135120548D01*
X121037660Y-135166301D01*
X120968501Y-135176241D01*
X120904947Y-135147213D01*
X120898473Y-135141185D01*
X120889776Y-135132488D01*
X120889772Y-135132485D01*
X120889771Y-135132484D01*
X120776055Y-135074543D01*
X120776053Y-135074542D01*
X120776050Y-135074541D01*
X120681713Y-135059600D01*
X120681708Y-135059600D01*
X119318292Y-135059600D01*
X119318287Y-135059600D01*
X119223949Y-135074541D01*
X119110227Y-135132485D01*
X119110223Y-135132488D01*
X119019988Y-135222723D01*
X119019985Y-135222727D01*
X119019984Y-135222729D01*
X118965118Y-135330411D01*
X118962041Y-135336449D01*
X118947100Y-135430786D01*
X118947100Y-136319213D01*
X118962041Y-136413550D01*
X118962042Y-136413553D01*
X118962043Y-136413555D01*
X119001416Y-136490829D01*
X119019985Y-136527272D01*
X119019988Y-136527276D01*
X119110223Y-136617511D01*
X119110227Y-136617514D01*
X119110229Y-136617516D01*
X119223945Y-136675457D01*
X119223947Y-136675457D01*
X119223949Y-136675458D01*
X119318287Y-136690400D01*
X119318292Y-136690400D01*
X119523100Y-136690400D01*
X119531785Y-136692950D01*
X119540747Y-136691662D01*
X119564787Y-136702640D01*
X119590139Y-136710085D01*
X119596066Y-136716925D01*
X119604303Y-136720687D01*
X119618592Y-136742921D01*
X119635894Y-136762889D01*
X119638181Y-136773403D01*
X119642077Y-136779465D01*
X119647100Y-136814400D01*
X119647100Y-136957119D01*
X119627415Y-137024158D01*
X119610781Y-137044800D01*
X119557571Y-137098009D01*
X119557567Y-137098014D01*
X119484780Y-137224086D01*
X119484780Y-137224087D01*
X119484779Y-137224089D01*
X119447100Y-137364709D01*
X119447100Y-137510291D01*
X119484779Y-137650911D01*
X119484780Y-137650912D01*
X119484780Y-137650913D01*
X119485119Y-137651500D01*
X119485254Y-137652057D01*
X119487890Y-137658421D01*
X119486897Y-137658831D01*
X119501592Y-137719400D01*
X119478739Y-137785427D01*
X119423818Y-137828618D01*
X119377734Y-137837500D01*
X119300029Y-137837500D01*
X119300012Y-137837501D01*
X119197302Y-137847994D01*
X119030880Y-137903141D01*
X119030875Y-137903143D01*
X118881654Y-137995184D01*
X118757684Y-138119154D01*
X118665643Y-138268375D01*
X118665641Y-138268380D01*
X118610494Y-138434802D01*
X118610493Y-138434809D01*
X118600000Y-138537513D01*
X118600000Y-138750000D01*
X119876000Y-138750000D01*
X119943039Y-138769685D01*
X119988794Y-138822489D01*
X120000000Y-138874000D01*
X120000000Y-139000000D01*
X120126000Y-139000000D01*
X120193039Y-139019685D01*
X120238794Y-139072489D01*
X120250000Y-139124000D01*
X120250000Y-140162499D01*
X120699972Y-140162499D01*
X120699986Y-140162498D01*
X120802695Y-140152006D01*
X120946902Y-140104219D01*
X121016730Y-140101817D01*
X121076772Y-140137548D01*
X121107965Y-140200068D01*
X121109907Y-140221931D01*
X121109825Y-141953558D01*
X121090137Y-142020596D01*
X121037331Y-142066349D01*
X120968172Y-142076289D01*
X120904618Y-142047261D01*
X120867895Y-141991872D01*
X120851557Y-141941588D01*
X120755051Y-141752184D01*
X120755049Y-141752181D01*
X120755048Y-141752179D01*
X120630109Y-141580213D01*
X120479786Y-141429890D01*
X120307820Y-141304951D01*
X120118414Y-141208444D01*
X120118413Y-141208443D01*
X120118412Y-141208443D01*
X119916243Y-141142754D01*
X119916241Y-141142753D01*
X119916240Y-141142753D01*
X119754957Y-141117208D01*
X119706287Y-141109500D01*
X119493713Y-141109500D01*
X119445042Y-141117208D01*
X119283760Y-141142753D01*
X119081585Y-141208444D01*
X118892179Y-141304951D01*
X118720213Y-141429890D01*
X118569890Y-141580213D01*
X118444951Y-141752179D01*
X118348444Y-141941585D01*
X118282753Y-142143760D01*
X118249500Y-142353713D01*
X118249500Y-142566287D01*
X118282754Y-142776243D01*
X118347367Y-142975101D01*
X118348444Y-142978414D01*
X118444951Y-143167820D01*
X118569890Y-143339786D01*
X118720213Y-143490109D01*
X118892179Y-143615048D01*
X118892181Y-143615049D01*
X118892184Y-143615051D01*
X119081588Y-143711557D01*
X119283757Y-143777246D01*
X119493713Y-143810500D01*
X119493714Y-143810500D01*
X119706286Y-143810500D01*
X119706287Y-143810500D01*
X119916243Y-143777246D01*
X120118412Y-143711557D01*
X120307816Y-143615051D01*
X120329789Y-143599086D01*
X120479786Y-143490109D01*
X120479788Y-143490106D01*
X120479792Y-143490104D01*
X120630104Y-143339792D01*
X120630106Y-143339788D01*
X120630109Y-143339786D01*
X120755048Y-143167820D01*
X120755047Y-143167820D01*
X120755051Y-143167816D01*
X120851557Y-142978412D01*
X120867847Y-142928276D01*
X120907283Y-142870602D01*
X120971641Y-142843403D01*
X121040487Y-142855317D01*
X121091964Y-142902561D01*
X121109777Y-142966601D01*
X121109515Y-148480506D01*
X121089827Y-148547544D01*
X121037021Y-148593297D01*
X120985515Y-148604500D01*
X118414000Y-148604500D01*
X118346961Y-148584815D01*
X118301206Y-148532011D01*
X118290000Y-148480500D01*
X118290000Y-148205000D01*
X117590000Y-148205000D01*
X117590000Y-147705000D01*
X118289999Y-147705000D01*
X118289999Y-146655028D01*
X118289998Y-146655013D01*
X118279505Y-146552302D01*
X118224358Y-146385880D01*
X118224356Y-146385875D01*
X118132315Y-146236654D01*
X118008345Y-146112684D01*
X117859124Y-146020643D01*
X117859119Y-146020641D01*
X117692697Y-145965494D01*
X117692690Y-145965493D01*
X117589986Y-145955000D01*
X117440000Y-145955000D01*
X117440000Y-146789314D01*
X117435606Y-146784920D01*
X117344394Y-146732259D01*
X117242661Y-146705000D01*
X117137339Y-146705000D01*
X117035606Y-146732259D01*
X116944394Y-146784920D01*
X116940000Y-146789314D01*
X116940000Y-145955000D01*
X116790027Y-145955000D01*
X116790012Y-145955001D01*
X116687302Y-145965494D01*
X116520880Y-146020641D01*
X116520875Y-146020643D01*
X116371654Y-146112684D01*
X116247684Y-146236654D01*
X116155643Y-146385875D01*
X116155641Y-146385880D01*
X116100494Y-146552302D01*
X116100493Y-146552309D01*
X116090000Y-146655013D01*
X116090000Y-147705000D01*
X116790000Y-147705000D01*
X116790000Y-148205000D01*
X116090001Y-148205000D01*
X116090001Y-148480500D01*
X116070316Y-148547539D01*
X116017512Y-148593294D01*
X115966001Y-148604500D01*
X115526900Y-148604500D01*
X115459861Y-148584815D01*
X115414106Y-148532011D01*
X115402900Y-148480500D01*
X115402900Y-146673287D01*
X115402580Y-146671268D01*
X115402580Y-146671266D01*
X115402579Y-146671262D01*
X115387958Y-146578949D01*
X115387957Y-146578947D01*
X115387957Y-146578945D01*
X115330016Y-146465229D01*
X115330014Y-146465227D01*
X115330011Y-146465223D01*
X115239776Y-146374988D01*
X115239772Y-146374985D01*
X115239771Y-146374984D01*
X115126055Y-146317043D01*
X115126053Y-146317042D01*
X115126050Y-146317041D01*
X115031713Y-146302100D01*
X115031708Y-146302100D01*
X114268292Y-146302100D01*
X114268287Y-146302100D01*
X114173949Y-146317041D01*
X114060227Y-146374985D01*
X114060223Y-146374988D01*
X113969988Y-146465223D01*
X113969985Y-146465227D01*
X113912041Y-146578949D01*
X113897100Y-146673286D01*
X113897100Y-148480500D01*
X113877415Y-148547539D01*
X113824611Y-148593294D01*
X113773100Y-148604500D01*
X112986900Y-148604500D01*
X112919861Y-148584815D01*
X112874106Y-148532011D01*
X112862900Y-148480500D01*
X112862900Y-146673286D01*
X112847958Y-146578949D01*
X112847957Y-146578947D01*
X112847957Y-146578945D01*
X112790016Y-146465229D01*
X112790014Y-146465227D01*
X112790011Y-146465223D01*
X112699776Y-146374988D01*
X112699772Y-146374985D01*
X112699771Y-146374984D01*
X112586055Y-146317043D01*
X112586053Y-146317042D01*
X112586050Y-146317041D01*
X112491713Y-146302100D01*
X112491708Y-146302100D01*
X112486900Y-146302100D01*
X112419861Y-146282415D01*
X112374106Y-146229611D01*
X112362900Y-146178100D01*
X112362900Y-139462486D01*
X118600001Y-139462486D01*
X118610494Y-139565197D01*
X118665641Y-139731619D01*
X118665643Y-139731624D01*
X118757684Y-139880845D01*
X118881654Y-140004815D01*
X119030875Y-140096856D01*
X119030880Y-140096858D01*
X119197302Y-140152005D01*
X119197309Y-140152006D01*
X119300019Y-140162499D01*
X119749999Y-140162499D01*
X119750000Y-140162498D01*
X119750000Y-139250000D01*
X118600001Y-139250000D01*
X118600001Y-139462486D01*
X112362900Y-139462486D01*
X112362900Y-131133221D01*
X112362900Y-131110307D01*
X112362901Y-131110305D01*
X112362901Y-131009695D01*
X112343649Y-130963219D01*
X112324399Y-130916743D01*
X112253257Y-130845601D01*
X112246192Y-130838536D01*
X112246185Y-130838530D01*
X109689219Y-128281564D01*
X109655734Y-128220241D01*
X109652900Y-128193883D01*
X109652900Y-128090377D01*
X109652900Y-128090375D01*
X109622036Y-127975187D01*
X109562410Y-127871913D01*
X109478087Y-127787590D01*
X109425051Y-127756969D01*
X109374814Y-127727964D01*
X109317219Y-127712532D01*
X109259625Y-127697100D01*
X109140375Y-127697100D01*
X109025185Y-127727964D01*
X108963901Y-127763348D01*
X108896001Y-127779821D01*
X108829974Y-127756969D01*
X108786783Y-127702048D01*
X108777900Y-127655961D01*
X108777900Y-125929303D01*
X108797585Y-125862264D01*
X108850389Y-125816509D01*
X108919547Y-125806565D01*
X108983103Y-125835590D01*
X109001167Y-125854992D01*
X109002813Y-125857190D01*
X109117906Y-125943350D01*
X109117913Y-125943354D01*
X109252620Y-125993596D01*
X109252627Y-125993598D01*
X109312155Y-125999999D01*
X109312172Y-126000000D01*
X109360000Y-126000000D01*
X109360000Y-125633233D01*
X109362550Y-125624547D01*
X109361262Y-125615587D01*
X109378030Y-125571827D01*
X109379685Y-125566194D01*
X109380440Y-125565539D01*
X109380900Y-125564340D01*
X109384028Y-125559658D01*
X109384028Y-125559656D01*
X109392900Y-125515057D01*
X109392899Y-125123997D01*
X109395449Y-125115313D01*
X109394161Y-125106353D01*
X109405138Y-125082316D01*
X109412583Y-125056961D01*
X109419425Y-125051032D01*
X109423186Y-125042797D01*
X109445417Y-125028510D01*
X109465387Y-125011206D01*
X109475902Y-125008918D01*
X109481964Y-125005023D01*
X109516899Y-125000000D01*
X109583101Y-125000000D01*
X109650140Y-125019685D01*
X109695895Y-125072489D01*
X109707100Y-125123998D01*
X109707101Y-125515056D01*
X109715972Y-125559656D01*
X109715972Y-125559657D01*
X109715972Y-125559659D01*
X109719100Y-125564339D01*
X109722137Y-125574037D01*
X109728794Y-125581720D01*
X109732402Y-125606819D01*
X109739980Y-125631015D01*
X109740000Y-125633232D01*
X109740000Y-126000000D01*
X109787828Y-126000000D01*
X109787844Y-125999999D01*
X109847372Y-125993598D01*
X109847379Y-125993596D01*
X109982086Y-125943354D01*
X109982093Y-125943350D01*
X110097187Y-125857190D01*
X110097190Y-125857187D01*
X110183350Y-125742093D01*
X110188602Y-125728012D01*
X110230472Y-125672077D01*
X110295935Y-125647657D01*
X110328981Y-125649724D01*
X110344943Y-125652900D01*
X110755056Y-125652899D01*
X110775806Y-125648772D01*
X110804418Y-125646468D01*
X110814398Y-125646824D01*
X110844943Y-125652900D01*
X110984675Y-125652899D01*
X110986882Y-125652978D01*
X111018012Y-125663337D01*
X111049500Y-125672583D01*
X111052106Y-125674683D01*
X111053177Y-125675040D01*
X111054340Y-125676484D01*
X111070141Y-125689217D01*
X111503314Y-126122390D01*
X111583786Y-126168850D01*
X111673540Y-126192900D01*
X111673542Y-126192900D01*
X113506458Y-126192900D01*
X113506460Y-126192900D01*
X113596214Y-126168850D01*
X113676686Y-126122390D01*
X114282390Y-125516686D01*
X114328850Y-125436214D01*
X114352900Y-125346460D01*
X114352900Y-125253540D01*
X114352900Y-124986899D01*
X114372585Y-124919860D01*
X114425389Y-124874105D01*
X114476900Y-124862899D01*
X114765055Y-124862899D01*
X114765056Y-124862899D01*
X114809658Y-124854028D01*
X114860234Y-124820234D01*
X114894028Y-124769658D01*
X114902900Y-124725057D01*
X114902899Y-123274499D01*
X114922584Y-123207461D01*
X114975387Y-123161706D01*
X115026899Y-123150500D01*
X119986550Y-123150500D01*
X120053589Y-123170185D01*
G37*
%TD.AperFunction*%
%TD*%
M02*
