%TF.GenerationSoftware,KiCad,Pcbnew,9.0.7*%
%TF.CreationDate,2026-01-26T10:20:21-05:00*%
%TF.ProjectId,USBC_I2C,55534243-5f49-4324-932e-6b696361645f,rev?*%
%TF.SameCoordinates,Original*%
%TF.FileFunction,Soldermask,Bot*%
%TF.FilePolarity,Negative*%
%FSLAX46Y46*%
G04 Gerber Fmt 4.6, Leading zero omitted, Abs format (unit mm)*
G04 Created by KiCad (PCBNEW 9.0.7) date 2026-01-26 10:20:21*
%MOMM*%
%LPD*%
G01*
G04 APERTURE LIST*
%ADD10R,1.700000X1.700000*%
%ADD11C,1.700000*%
%ADD12C,2.200000*%
%ADD13R,0.380000X1.000000*%
%ADD14R,0.700000X1.150000*%
%ADD15R,0.850000X0.850000*%
%ADD16C,1.000000*%
%ADD17R,1.500000X1.500000*%
G04 APERTURE END LIST*
D10*
%TO.C,J2*%
X93945050Y-81033800D03*
D11*
X91405050Y-81033800D03*
X88865050Y-81033800D03*
X86325050Y-81033800D03*
%TD*%
D12*
%TO.C,H1*%
X85231050Y-76616000D03*
%TD*%
D13*
%TO.C,USB1*%
X99271050Y-59138000D03*
X98771050Y-59138000D03*
X98271050Y-59138000D03*
X97771050Y-59138000D03*
X97271050Y-59138000D03*
X95771050Y-59138000D03*
X95271050Y-59138000D03*
X94771050Y-59138000D03*
X94271050Y-59138000D03*
X93771050Y-59138000D03*
D14*
X99941050Y-59978000D03*
%TD*%
D12*
%TO.C,H2*%
X107831050Y-76616000D03*
%TD*%
D10*
%TO.C,J1*%
X100168050Y-76918000D03*
D11*
X97628050Y-76918000D03*
X95088050Y-76918000D03*
X92548050Y-76918000D03*
%TD*%
D10*
%TO.C,J3*%
X106375200Y-81051400D03*
D11*
X103835200Y-81051400D03*
X101295200Y-81051400D03*
X98755200Y-81051400D03*
%TD*%
D15*
%TO.C,2x Pads*%
X96840650Y-73326400D03*
X96840650Y-74276400D03*
%TD*%
D16*
%TO.C,TP4*%
X98800000Y-66900000D03*
%TD*%
%TO.C,TP1*%
X98800000Y-63700000D03*
%TD*%
D15*
%TO.C,2x Pads*%
X107300000Y-68000000D03*
X107300000Y-68950000D03*
%TD*%
D17*
%TO.C,*%
X102479450Y-58325200D03*
%TD*%
D15*
%TO.C,2x Pads*%
X95088050Y-73326400D03*
X95088050Y-74276400D03*
%TD*%
D16*
%TO.C,TP7*%
X101473000Y-70104000D03*
%TD*%
%TO.C,TP3*%
X103500000Y-66800000D03*
%TD*%
%TO.C,TP2*%
X103500000Y-63700000D03*
%TD*%
%TO.C,TP5*%
X101473000Y-63700000D03*
%TD*%
D17*
%TO.C,*%
X90643050Y-58325200D03*
%TD*%
D16*
%TO.C,TP8*%
X101473000Y-66852800D03*
%TD*%
%TO.C,TP6*%
X105968800Y-72796400D03*
%TD*%
M02*
