%TF.GenerationSoftware,KiCad,Pcbnew,9.0.7*%
%TF.CreationDate,2026-01-26T10:20:21-05:00*%
%TF.ProjectId,USBC_I2C,55534243-5f49-4324-932e-6b696361645f,rev?*%
%TF.SameCoordinates,Original*%
%TF.FileFunction,Legend,Top*%
%TF.FilePolarity,Positive*%
%FSLAX46Y46*%
G04 Gerber Fmt 4.6, Leading zero omitted, Abs format (unit mm)*
G04 Created by KiCad (PCBNEW 9.0.7) date 2026-01-26 10:20:21*
%MOMM*%
%LPD*%
G01*
G04 APERTURE LIST*
%ADD10C,0.150000*%
%ADD11C,0.120000*%
G04 APERTURE END LIST*
D10*
X100384117Y-73985219D02*
X100717450Y-74985219D01*
X100717450Y-74985219D02*
X101050783Y-73985219D01*
X101384117Y-74985219D02*
X101384117Y-73985219D01*
X101384117Y-73985219D02*
X101622212Y-73985219D01*
X101622212Y-73985219D02*
X101765069Y-74032838D01*
X101765069Y-74032838D02*
X101860307Y-74128076D01*
X101860307Y-74128076D02*
X101907926Y-74223314D01*
X101907926Y-74223314D02*
X101955545Y-74413790D01*
X101955545Y-74413790D02*
X101955545Y-74556647D01*
X101955545Y-74556647D02*
X101907926Y-74747123D01*
X101907926Y-74747123D02*
X101860307Y-74842361D01*
X101860307Y-74842361D02*
X101765069Y-74937600D01*
X101765069Y-74937600D02*
X101622212Y-74985219D01*
X101622212Y-74985219D02*
X101384117Y-74985219D01*
X102384117Y-74985219D02*
X102384117Y-73985219D01*
X102384117Y-73985219D02*
X102622212Y-73985219D01*
X102622212Y-73985219D02*
X102765069Y-74032838D01*
X102765069Y-74032838D02*
X102860307Y-74128076D01*
X102860307Y-74128076D02*
X102907926Y-74223314D01*
X102907926Y-74223314D02*
X102955545Y-74413790D01*
X102955545Y-74413790D02*
X102955545Y-74556647D01*
X102955545Y-74556647D02*
X102907926Y-74747123D01*
X102907926Y-74747123D02*
X102860307Y-74842361D01*
X102860307Y-74842361D02*
X102765069Y-74937600D01*
X102765069Y-74937600D02*
X102622212Y-74985219D01*
X102622212Y-74985219D02*
X102384117Y-74985219D01*
X94151574Y-74961084D02*
X94294431Y-75008703D01*
X94294431Y-75008703D02*
X94532526Y-75008703D01*
X94532526Y-75008703D02*
X94627764Y-74961084D01*
X94627764Y-74961084D02*
X94675383Y-74913464D01*
X94675383Y-74913464D02*
X94723002Y-74818226D01*
X94723002Y-74818226D02*
X94723002Y-74722988D01*
X94723002Y-74722988D02*
X94675383Y-74627750D01*
X94675383Y-74627750D02*
X94627764Y-74580131D01*
X94627764Y-74580131D02*
X94532526Y-74532512D01*
X94532526Y-74532512D02*
X94342050Y-74484893D01*
X94342050Y-74484893D02*
X94246812Y-74437274D01*
X94246812Y-74437274D02*
X94199193Y-74389655D01*
X94199193Y-74389655D02*
X94151574Y-74294417D01*
X94151574Y-74294417D02*
X94151574Y-74199179D01*
X94151574Y-74199179D02*
X94199193Y-74103941D01*
X94199193Y-74103941D02*
X94246812Y-74056322D01*
X94246812Y-74056322D02*
X94342050Y-74008703D01*
X94342050Y-74008703D02*
X94580145Y-74008703D01*
X94580145Y-74008703D02*
X94723002Y-74056322D01*
X95723002Y-74913464D02*
X95675383Y-74961084D01*
X95675383Y-74961084D02*
X95532526Y-75008703D01*
X95532526Y-75008703D02*
X95437288Y-75008703D01*
X95437288Y-75008703D02*
X95294431Y-74961084D01*
X95294431Y-74961084D02*
X95199193Y-74865845D01*
X95199193Y-74865845D02*
X95151574Y-74770607D01*
X95151574Y-74770607D02*
X95103955Y-74580131D01*
X95103955Y-74580131D02*
X95103955Y-74437274D01*
X95103955Y-74437274D02*
X95151574Y-74246798D01*
X95151574Y-74246798D02*
X95199193Y-74151560D01*
X95199193Y-74151560D02*
X95294431Y-74056322D01*
X95294431Y-74056322D02*
X95437288Y-74008703D01*
X95437288Y-74008703D02*
X95532526Y-74008703D01*
X95532526Y-74008703D02*
X95675383Y-74056322D01*
X95675383Y-74056322D02*
X95723002Y-74103941D01*
X96627764Y-75008703D02*
X96151574Y-75008703D01*
X96151574Y-75008703D02*
X96151574Y-74008703D01*
X91532145Y-74032838D02*
X91436907Y-73985219D01*
X91436907Y-73985219D02*
X91294050Y-73985219D01*
X91294050Y-73985219D02*
X91151193Y-74032838D01*
X91151193Y-74032838D02*
X91055955Y-74128076D01*
X91055955Y-74128076D02*
X91008336Y-74223314D01*
X91008336Y-74223314D02*
X90960717Y-74413790D01*
X90960717Y-74413790D02*
X90960717Y-74556647D01*
X90960717Y-74556647D02*
X91008336Y-74747123D01*
X91008336Y-74747123D02*
X91055955Y-74842361D01*
X91055955Y-74842361D02*
X91151193Y-74937600D01*
X91151193Y-74937600D02*
X91294050Y-74985219D01*
X91294050Y-74985219D02*
X91389288Y-74985219D01*
X91389288Y-74985219D02*
X91532145Y-74937600D01*
X91532145Y-74937600D02*
X91579764Y-74889980D01*
X91579764Y-74889980D02*
X91579764Y-74556647D01*
X91579764Y-74556647D02*
X91389288Y-74556647D01*
X92008336Y-74985219D02*
X92008336Y-73985219D01*
X92008336Y-73985219D02*
X92579764Y-74985219D01*
X92579764Y-74985219D02*
X92579764Y-73985219D01*
X93055955Y-74985219D02*
X93055955Y-73985219D01*
X93055955Y-73985219D02*
X93294050Y-73985219D01*
X93294050Y-73985219D02*
X93436907Y-74032838D01*
X93436907Y-74032838D02*
X93532145Y-74128076D01*
X93532145Y-74128076D02*
X93579764Y-74223314D01*
X93579764Y-74223314D02*
X93627383Y-74413790D01*
X93627383Y-74413790D02*
X93627383Y-74556647D01*
X93627383Y-74556647D02*
X93579764Y-74747123D01*
X93579764Y-74747123D02*
X93532145Y-74842361D01*
X93532145Y-74842361D02*
X93436907Y-74937600D01*
X93436907Y-74937600D02*
X93294050Y-74985219D01*
X93294050Y-74985219D02*
X93055955Y-74985219D01*
X92602255Y-62918875D02*
X92697493Y-62918875D01*
X92697493Y-62918875D02*
X92792731Y-62966494D01*
X92792731Y-62966494D02*
X92840350Y-63014113D01*
X92840350Y-63014113D02*
X92887969Y-63109351D01*
X92887969Y-63109351D02*
X92935588Y-63299827D01*
X92935588Y-63299827D02*
X92935588Y-63537922D01*
X92935588Y-63537922D02*
X92887969Y-63728398D01*
X92887969Y-63728398D02*
X92840350Y-63823636D01*
X92840350Y-63823636D02*
X92792731Y-63871256D01*
X92792731Y-63871256D02*
X92697493Y-63918875D01*
X92697493Y-63918875D02*
X92602255Y-63918875D01*
X92602255Y-63918875D02*
X92507017Y-63871256D01*
X92507017Y-63871256D02*
X92459398Y-63823636D01*
X92459398Y-63823636D02*
X92411779Y-63728398D01*
X92411779Y-63728398D02*
X92364160Y-63537922D01*
X92364160Y-63537922D02*
X92364160Y-63299827D01*
X92364160Y-63299827D02*
X92411779Y-63109351D01*
X92411779Y-63109351D02*
X92459398Y-63014113D01*
X92459398Y-63014113D02*
X92507017Y-62966494D01*
X92507017Y-62966494D02*
X92602255Y-62918875D01*
X93554636Y-62918875D02*
X93649874Y-62918875D01*
X93649874Y-62918875D02*
X93745112Y-62966494D01*
X93745112Y-62966494D02*
X93792731Y-63014113D01*
X93792731Y-63014113D02*
X93840350Y-63109351D01*
X93840350Y-63109351D02*
X93887969Y-63299827D01*
X93887969Y-63299827D02*
X93887969Y-63537922D01*
X93887969Y-63537922D02*
X93840350Y-63728398D01*
X93840350Y-63728398D02*
X93792731Y-63823636D01*
X93792731Y-63823636D02*
X93745112Y-63871256D01*
X93745112Y-63871256D02*
X93649874Y-63918875D01*
X93649874Y-63918875D02*
X93554636Y-63918875D01*
X93554636Y-63918875D02*
X93459398Y-63871256D01*
X93459398Y-63871256D02*
X93411779Y-63823636D01*
X93411779Y-63823636D02*
X93364160Y-63728398D01*
X93364160Y-63728398D02*
X93316541Y-63537922D01*
X93316541Y-63537922D02*
X93316541Y-63299827D01*
X93316541Y-63299827D02*
X93364160Y-63109351D01*
X93364160Y-63109351D02*
X93411779Y-63014113D01*
X93411779Y-63014113D02*
X93459398Y-62966494D01*
X93459398Y-62966494D02*
X93554636Y-62918875D01*
X94840350Y-63918875D02*
X94268922Y-63918875D01*
X94554636Y-63918875D02*
X94554636Y-62918875D01*
X94554636Y-62918875D02*
X94459398Y-63061732D01*
X94459398Y-63061732D02*
X94364160Y-63156970D01*
X94364160Y-63156970D02*
X94268922Y-63204589D01*
X95792731Y-63918875D02*
X95221303Y-63918875D01*
X95507017Y-63918875D02*
X95507017Y-62918875D01*
X95507017Y-62918875D02*
X95411779Y-63061732D01*
X95411779Y-63061732D02*
X95316541Y-63156970D01*
X95316541Y-63156970D02*
X95221303Y-63204589D01*
X96983208Y-63918875D02*
X96983208Y-62918875D01*
X97411779Y-63014113D02*
X97459398Y-62966494D01*
X97459398Y-62966494D02*
X97554636Y-62918875D01*
X97554636Y-62918875D02*
X97792731Y-62918875D01*
X97792731Y-62918875D02*
X97887969Y-62966494D01*
X97887969Y-62966494D02*
X97935588Y-63014113D01*
X97935588Y-63014113D02*
X97983207Y-63109351D01*
X97983207Y-63109351D02*
X97983207Y-63204589D01*
X97983207Y-63204589D02*
X97935588Y-63347446D01*
X97935588Y-63347446D02*
X97364160Y-63918875D01*
X97364160Y-63918875D02*
X97983207Y-63918875D01*
X98983207Y-63823636D02*
X98935588Y-63871256D01*
X98935588Y-63871256D02*
X98792731Y-63918875D01*
X98792731Y-63918875D02*
X98697493Y-63918875D01*
X98697493Y-63918875D02*
X98554636Y-63871256D01*
X98554636Y-63871256D02*
X98459398Y-63776017D01*
X98459398Y-63776017D02*
X98411779Y-63680779D01*
X98411779Y-63680779D02*
X98364160Y-63490303D01*
X98364160Y-63490303D02*
X98364160Y-63347446D01*
X98364160Y-63347446D02*
X98411779Y-63156970D01*
X98411779Y-63156970D02*
X98459398Y-63061732D01*
X98459398Y-63061732D02*
X98554636Y-62966494D01*
X98554636Y-62966494D02*
X98697493Y-62918875D01*
X98697493Y-62918875D02*
X98792731Y-62918875D01*
X98792731Y-62918875D02*
X98935588Y-62966494D01*
X98935588Y-62966494D02*
X98983207Y-63014113D01*
X92935588Y-65528819D02*
X92364160Y-65528819D01*
X92649874Y-65528819D02*
X92649874Y-64528819D01*
X92649874Y-64528819D02*
X92554636Y-64671676D01*
X92554636Y-64671676D02*
X92459398Y-64766914D01*
X92459398Y-64766914D02*
X92364160Y-64814533D01*
X93887969Y-65528819D02*
X93316541Y-65528819D01*
X93602255Y-65528819D02*
X93602255Y-64528819D01*
X93602255Y-64528819D02*
X93507017Y-64671676D01*
X93507017Y-64671676D02*
X93411779Y-64766914D01*
X93411779Y-64766914D02*
X93316541Y-64814533D01*
X94507017Y-64528819D02*
X94602255Y-64528819D01*
X94602255Y-64528819D02*
X94697493Y-64576438D01*
X94697493Y-64576438D02*
X94745112Y-64624057D01*
X94745112Y-64624057D02*
X94792731Y-64719295D01*
X94792731Y-64719295D02*
X94840350Y-64909771D01*
X94840350Y-64909771D02*
X94840350Y-65147866D01*
X94840350Y-65147866D02*
X94792731Y-65338342D01*
X94792731Y-65338342D02*
X94745112Y-65433580D01*
X94745112Y-65433580D02*
X94697493Y-65481200D01*
X94697493Y-65481200D02*
X94602255Y-65528819D01*
X94602255Y-65528819D02*
X94507017Y-65528819D01*
X94507017Y-65528819D02*
X94411779Y-65481200D01*
X94411779Y-65481200D02*
X94364160Y-65433580D01*
X94364160Y-65433580D02*
X94316541Y-65338342D01*
X94316541Y-65338342D02*
X94268922Y-65147866D01*
X94268922Y-65147866D02*
X94268922Y-64909771D01*
X94268922Y-64909771D02*
X94316541Y-64719295D01*
X94316541Y-64719295D02*
X94364160Y-64624057D01*
X94364160Y-64624057D02*
X94411779Y-64576438D01*
X94411779Y-64576438D02*
X94507017Y-64528819D01*
X95459398Y-64528819D02*
X95554636Y-64528819D01*
X95554636Y-64528819D02*
X95649874Y-64576438D01*
X95649874Y-64576438D02*
X95697493Y-64624057D01*
X95697493Y-64624057D02*
X95745112Y-64719295D01*
X95745112Y-64719295D02*
X95792731Y-64909771D01*
X95792731Y-64909771D02*
X95792731Y-65147866D01*
X95792731Y-65147866D02*
X95745112Y-65338342D01*
X95745112Y-65338342D02*
X95697493Y-65433580D01*
X95697493Y-65433580D02*
X95649874Y-65481200D01*
X95649874Y-65481200D02*
X95554636Y-65528819D01*
X95554636Y-65528819D02*
X95459398Y-65528819D01*
X95459398Y-65528819D02*
X95364160Y-65481200D01*
X95364160Y-65481200D02*
X95316541Y-65433580D01*
X95316541Y-65433580D02*
X95268922Y-65338342D01*
X95268922Y-65338342D02*
X95221303Y-65147866D01*
X95221303Y-65147866D02*
X95221303Y-64909771D01*
X95221303Y-64909771D02*
X95268922Y-64719295D01*
X95268922Y-64719295D02*
X95316541Y-64624057D01*
X95316541Y-64624057D02*
X95364160Y-64576438D01*
X95364160Y-64576438D02*
X95459398Y-64528819D01*
X96983208Y-64528819D02*
X96983208Y-65338342D01*
X96983208Y-65338342D02*
X97030827Y-65433580D01*
X97030827Y-65433580D02*
X97078446Y-65481200D01*
X97078446Y-65481200D02*
X97173684Y-65528819D01*
X97173684Y-65528819D02*
X97364160Y-65528819D01*
X97364160Y-65528819D02*
X97459398Y-65481200D01*
X97459398Y-65481200D02*
X97507017Y-65433580D01*
X97507017Y-65433580D02*
X97554636Y-65338342D01*
X97554636Y-65338342D02*
X97554636Y-64528819D01*
X97983208Y-65243104D02*
X98459398Y-65243104D01*
X97887970Y-65528819D02*
X98221303Y-64528819D01*
X98221303Y-64528819D02*
X98554636Y-65528819D01*
X99459398Y-65528819D02*
X99126065Y-65052628D01*
X98887970Y-65528819D02*
X98887970Y-64528819D01*
X98887970Y-64528819D02*
X99268922Y-64528819D01*
X99268922Y-64528819D02*
X99364160Y-64576438D01*
X99364160Y-64576438D02*
X99411779Y-64624057D01*
X99411779Y-64624057D02*
X99459398Y-64719295D01*
X99459398Y-64719295D02*
X99459398Y-64862152D01*
X99459398Y-64862152D02*
X99411779Y-64957390D01*
X99411779Y-64957390D02*
X99364160Y-65005009D01*
X99364160Y-65005009D02*
X99268922Y-65052628D01*
X99268922Y-65052628D02*
X98887970Y-65052628D01*
X99745113Y-64528819D02*
X100316541Y-64528819D01*
X100030827Y-65528819D02*
X100030827Y-64528819D01*
X97353564Y-74961084D02*
X97496421Y-75008703D01*
X97496421Y-75008703D02*
X97734516Y-75008703D01*
X97734516Y-75008703D02*
X97829754Y-74961084D01*
X97829754Y-74961084D02*
X97877373Y-74913464D01*
X97877373Y-74913464D02*
X97924992Y-74818226D01*
X97924992Y-74818226D02*
X97924992Y-74722988D01*
X97924992Y-74722988D02*
X97877373Y-74627750D01*
X97877373Y-74627750D02*
X97829754Y-74580131D01*
X97829754Y-74580131D02*
X97734516Y-74532512D01*
X97734516Y-74532512D02*
X97544040Y-74484893D01*
X97544040Y-74484893D02*
X97448802Y-74437274D01*
X97448802Y-74437274D02*
X97401183Y-74389655D01*
X97401183Y-74389655D02*
X97353564Y-74294417D01*
X97353564Y-74294417D02*
X97353564Y-74199179D01*
X97353564Y-74199179D02*
X97401183Y-74103941D01*
X97401183Y-74103941D02*
X97448802Y-74056322D01*
X97448802Y-74056322D02*
X97544040Y-74008703D01*
X97544040Y-74008703D02*
X97782135Y-74008703D01*
X97782135Y-74008703D02*
X97924992Y-74056322D01*
X98353564Y-75008703D02*
X98353564Y-74008703D01*
X98353564Y-74008703D02*
X98591659Y-74008703D01*
X98591659Y-74008703D02*
X98734516Y-74056322D01*
X98734516Y-74056322D02*
X98829754Y-74151560D01*
X98829754Y-74151560D02*
X98877373Y-74246798D01*
X98877373Y-74246798D02*
X98924992Y-74437274D01*
X98924992Y-74437274D02*
X98924992Y-74580131D01*
X98924992Y-74580131D02*
X98877373Y-74770607D01*
X98877373Y-74770607D02*
X98829754Y-74865845D01*
X98829754Y-74865845D02*
X98734516Y-74961084D01*
X98734516Y-74961084D02*
X98591659Y-75008703D01*
X98591659Y-75008703D02*
X98353564Y-75008703D01*
X99305945Y-74722988D02*
X99782135Y-74722988D01*
X99210707Y-75008703D02*
X99544040Y-74008703D01*
X99544040Y-74008703D02*
X99877373Y-75008703D01*
X105802133Y-74484819D02*
X105468800Y-74008628D01*
X105230705Y-74484819D02*
X105230705Y-73484819D01*
X105230705Y-73484819D02*
X105611657Y-73484819D01*
X105611657Y-73484819D02*
X105706895Y-73532438D01*
X105706895Y-73532438D02*
X105754514Y-73580057D01*
X105754514Y-73580057D02*
X105802133Y-73675295D01*
X105802133Y-73675295D02*
X105802133Y-73818152D01*
X105802133Y-73818152D02*
X105754514Y-73913390D01*
X105754514Y-73913390D02*
X105706895Y-73961009D01*
X105706895Y-73961009D02*
X105611657Y-74008628D01*
X105611657Y-74008628D02*
X105230705Y-74008628D01*
X106183086Y-73580057D02*
X106230705Y-73532438D01*
X106230705Y-73532438D02*
X106325943Y-73484819D01*
X106325943Y-73484819D02*
X106564038Y-73484819D01*
X106564038Y-73484819D02*
X106659276Y-73532438D01*
X106659276Y-73532438D02*
X106706895Y-73580057D01*
X106706895Y-73580057D02*
X106754514Y-73675295D01*
X106754514Y-73675295D02*
X106754514Y-73770533D01*
X106754514Y-73770533D02*
X106706895Y-73913390D01*
X106706895Y-73913390D02*
X106135467Y-74484819D01*
X106135467Y-74484819D02*
X106754514Y-74484819D01*
X103404761Y-68350057D02*
X103309523Y-68302438D01*
X103309523Y-68302438D02*
X103214285Y-68207200D01*
X103214285Y-68207200D02*
X103071428Y-68064342D01*
X103071428Y-68064342D02*
X102976190Y-68016723D01*
X102976190Y-68016723D02*
X102880952Y-68016723D01*
X102928571Y-68254819D02*
X102833333Y-68207200D01*
X102833333Y-68207200D02*
X102738095Y-68111961D01*
X102738095Y-68111961D02*
X102690476Y-67921485D01*
X102690476Y-67921485D02*
X102690476Y-67588152D01*
X102690476Y-67588152D02*
X102738095Y-67397676D01*
X102738095Y-67397676D02*
X102833333Y-67302438D01*
X102833333Y-67302438D02*
X102928571Y-67254819D01*
X102928571Y-67254819D02*
X103119047Y-67254819D01*
X103119047Y-67254819D02*
X103214285Y-67302438D01*
X103214285Y-67302438D02*
X103309523Y-67397676D01*
X103309523Y-67397676D02*
X103357142Y-67588152D01*
X103357142Y-67588152D02*
X103357142Y-67921485D01*
X103357142Y-67921485D02*
X103309523Y-68111961D01*
X103309523Y-68111961D02*
X103214285Y-68207200D01*
X103214285Y-68207200D02*
X103119047Y-68254819D01*
X103119047Y-68254819D02*
X102928571Y-68254819D01*
X104309523Y-68254819D02*
X103738095Y-68254819D01*
X104023809Y-68254819D02*
X104023809Y-67254819D01*
X104023809Y-67254819D02*
X103928571Y-67397676D01*
X103928571Y-67397676D02*
X103833333Y-67492914D01*
X103833333Y-67492914D02*
X103738095Y-67540533D01*
X88439666Y-82901619D02*
X88439666Y-83615904D01*
X88439666Y-83615904D02*
X88392047Y-83758761D01*
X88392047Y-83758761D02*
X88296809Y-83854000D01*
X88296809Y-83854000D02*
X88153952Y-83901619D01*
X88153952Y-83901619D02*
X88058714Y-83901619D01*
X88868238Y-82996857D02*
X88915857Y-82949238D01*
X88915857Y-82949238D02*
X89011095Y-82901619D01*
X89011095Y-82901619D02*
X89249190Y-82901619D01*
X89249190Y-82901619D02*
X89344428Y-82949238D01*
X89344428Y-82949238D02*
X89392047Y-82996857D01*
X89392047Y-82996857D02*
X89439666Y-83092095D01*
X89439666Y-83092095D02*
X89439666Y-83187333D01*
X89439666Y-83187333D02*
X89392047Y-83330190D01*
X89392047Y-83330190D02*
X88820619Y-83901619D01*
X88820619Y-83901619D02*
X89439666Y-83901619D01*
X86701333Y-78591580D02*
X86653714Y-78639200D01*
X86653714Y-78639200D02*
X86510857Y-78686819D01*
X86510857Y-78686819D02*
X86415619Y-78686819D01*
X86415619Y-78686819D02*
X86272762Y-78639200D01*
X86272762Y-78639200D02*
X86177524Y-78543961D01*
X86177524Y-78543961D02*
X86129905Y-78448723D01*
X86129905Y-78448723D02*
X86082286Y-78258247D01*
X86082286Y-78258247D02*
X86082286Y-78115390D01*
X86082286Y-78115390D02*
X86129905Y-77924914D01*
X86129905Y-77924914D02*
X86177524Y-77829676D01*
X86177524Y-77829676D02*
X86272762Y-77734438D01*
X86272762Y-77734438D02*
X86415619Y-77686819D01*
X86415619Y-77686819D02*
X86510857Y-77686819D01*
X86510857Y-77686819D02*
X86653714Y-77734438D01*
X86653714Y-77734438D02*
X86701333Y-77782057D01*
X87082286Y-77782057D02*
X87129905Y-77734438D01*
X87129905Y-77734438D02*
X87225143Y-77686819D01*
X87225143Y-77686819D02*
X87463238Y-77686819D01*
X87463238Y-77686819D02*
X87558476Y-77734438D01*
X87558476Y-77734438D02*
X87606095Y-77782057D01*
X87606095Y-77782057D02*
X87653714Y-77877295D01*
X87653714Y-77877295D02*
X87653714Y-77972533D01*
X87653714Y-77972533D02*
X87606095Y-78115390D01*
X87606095Y-78115390D02*
X87034667Y-78686819D01*
X87034667Y-78686819D02*
X87653714Y-78686819D01*
X102638095Y-61954819D02*
X102638095Y-62764342D01*
X102638095Y-62764342D02*
X102685714Y-62859580D01*
X102685714Y-62859580D02*
X102733333Y-62907200D01*
X102733333Y-62907200D02*
X102828571Y-62954819D01*
X102828571Y-62954819D02*
X103019047Y-62954819D01*
X103019047Y-62954819D02*
X103114285Y-62907200D01*
X103114285Y-62907200D02*
X103161904Y-62859580D01*
X103161904Y-62859580D02*
X103209523Y-62764342D01*
X103209523Y-62764342D02*
X103209523Y-61954819D01*
X103638095Y-62050057D02*
X103685714Y-62002438D01*
X103685714Y-62002438D02*
X103780952Y-61954819D01*
X103780952Y-61954819D02*
X104019047Y-61954819D01*
X104019047Y-61954819D02*
X104114285Y-62002438D01*
X104114285Y-62002438D02*
X104161904Y-62050057D01*
X104161904Y-62050057D02*
X104209523Y-62145295D01*
X104209523Y-62145295D02*
X104209523Y-62240533D01*
X104209523Y-62240533D02*
X104161904Y-62383390D01*
X104161904Y-62383390D02*
X103590476Y-62954819D01*
X103590476Y-62954819D02*
X104209523Y-62954819D01*
X94782955Y-60592819D02*
X94782955Y-61402342D01*
X94782955Y-61402342D02*
X94830574Y-61497580D01*
X94830574Y-61497580D02*
X94878193Y-61545200D01*
X94878193Y-61545200D02*
X94973431Y-61592819D01*
X94973431Y-61592819D02*
X95163907Y-61592819D01*
X95163907Y-61592819D02*
X95259145Y-61545200D01*
X95259145Y-61545200D02*
X95306764Y-61497580D01*
X95306764Y-61497580D02*
X95354383Y-61402342D01*
X95354383Y-61402342D02*
X95354383Y-60592819D01*
X95782955Y-61545200D02*
X95925812Y-61592819D01*
X95925812Y-61592819D02*
X96163907Y-61592819D01*
X96163907Y-61592819D02*
X96259145Y-61545200D01*
X96259145Y-61545200D02*
X96306764Y-61497580D01*
X96306764Y-61497580D02*
X96354383Y-61402342D01*
X96354383Y-61402342D02*
X96354383Y-61307104D01*
X96354383Y-61307104D02*
X96306764Y-61211866D01*
X96306764Y-61211866D02*
X96259145Y-61164247D01*
X96259145Y-61164247D02*
X96163907Y-61116628D01*
X96163907Y-61116628D02*
X95973431Y-61069009D01*
X95973431Y-61069009D02*
X95878193Y-61021390D01*
X95878193Y-61021390D02*
X95830574Y-60973771D01*
X95830574Y-60973771D02*
X95782955Y-60878533D01*
X95782955Y-60878533D02*
X95782955Y-60783295D01*
X95782955Y-60783295D02*
X95830574Y-60688057D01*
X95830574Y-60688057D02*
X95878193Y-60640438D01*
X95878193Y-60640438D02*
X95973431Y-60592819D01*
X95973431Y-60592819D02*
X96211526Y-60592819D01*
X96211526Y-60592819D02*
X96354383Y-60640438D01*
X97116288Y-61069009D02*
X97259145Y-61116628D01*
X97259145Y-61116628D02*
X97306764Y-61164247D01*
X97306764Y-61164247D02*
X97354383Y-61259485D01*
X97354383Y-61259485D02*
X97354383Y-61402342D01*
X97354383Y-61402342D02*
X97306764Y-61497580D01*
X97306764Y-61497580D02*
X97259145Y-61545200D01*
X97259145Y-61545200D02*
X97163907Y-61592819D01*
X97163907Y-61592819D02*
X96782955Y-61592819D01*
X96782955Y-61592819D02*
X96782955Y-60592819D01*
X96782955Y-60592819D02*
X97116288Y-60592819D01*
X97116288Y-60592819D02*
X97211526Y-60640438D01*
X97211526Y-60640438D02*
X97259145Y-60688057D01*
X97259145Y-60688057D02*
X97306764Y-60783295D01*
X97306764Y-60783295D02*
X97306764Y-60878533D01*
X97306764Y-60878533D02*
X97259145Y-60973771D01*
X97259145Y-60973771D02*
X97211526Y-61021390D01*
X97211526Y-61021390D02*
X97116288Y-61069009D01*
X97116288Y-61069009D02*
X96782955Y-61069009D01*
X98306764Y-61592819D02*
X97735336Y-61592819D01*
X98021050Y-61592819D02*
X98021050Y-60592819D01*
X98021050Y-60592819D02*
X97925812Y-60735676D01*
X97925812Y-60735676D02*
X97830574Y-60830914D01*
X97830574Y-60830914D02*
X97735336Y-60878533D01*
X102119133Y-79328180D02*
X102071514Y-79375800D01*
X102071514Y-79375800D02*
X101928657Y-79423419D01*
X101928657Y-79423419D02*
X101833419Y-79423419D01*
X101833419Y-79423419D02*
X101690562Y-79375800D01*
X101690562Y-79375800D02*
X101595324Y-79280561D01*
X101595324Y-79280561D02*
X101547705Y-79185323D01*
X101547705Y-79185323D02*
X101500086Y-78994847D01*
X101500086Y-78994847D02*
X101500086Y-78851990D01*
X101500086Y-78851990D02*
X101547705Y-78661514D01*
X101547705Y-78661514D02*
X101595324Y-78566276D01*
X101595324Y-78566276D02*
X101690562Y-78471038D01*
X101690562Y-78471038D02*
X101833419Y-78423419D01*
X101833419Y-78423419D02*
X101928657Y-78423419D01*
X101928657Y-78423419D02*
X102071514Y-78471038D01*
X102071514Y-78471038D02*
X102119133Y-78518657D01*
X102452467Y-78423419D02*
X103071514Y-78423419D01*
X103071514Y-78423419D02*
X102738181Y-78804371D01*
X102738181Y-78804371D02*
X102881038Y-78804371D01*
X102881038Y-78804371D02*
X102976276Y-78851990D01*
X102976276Y-78851990D02*
X103023895Y-78899609D01*
X103023895Y-78899609D02*
X103071514Y-78994847D01*
X103071514Y-78994847D02*
X103071514Y-79232942D01*
X103071514Y-79232942D02*
X103023895Y-79328180D01*
X103023895Y-79328180D02*
X102976276Y-79375800D01*
X102976276Y-79375800D02*
X102881038Y-79423419D01*
X102881038Y-79423419D02*
X102595324Y-79423419D01*
X102595324Y-79423419D02*
X102500086Y-79375800D01*
X102500086Y-79375800D02*
X102452467Y-79328180D01*
X95166667Y-68707200D02*
X95309524Y-68754819D01*
X95309524Y-68754819D02*
X95547619Y-68754819D01*
X95547619Y-68754819D02*
X95642857Y-68707200D01*
X95642857Y-68707200D02*
X95690476Y-68659580D01*
X95690476Y-68659580D02*
X95738095Y-68564342D01*
X95738095Y-68564342D02*
X95738095Y-68469104D01*
X95738095Y-68469104D02*
X95690476Y-68373866D01*
X95690476Y-68373866D02*
X95642857Y-68326247D01*
X95642857Y-68326247D02*
X95547619Y-68278628D01*
X95547619Y-68278628D02*
X95357143Y-68231009D01*
X95357143Y-68231009D02*
X95261905Y-68183390D01*
X95261905Y-68183390D02*
X95214286Y-68135771D01*
X95214286Y-68135771D02*
X95166667Y-68040533D01*
X95166667Y-68040533D02*
X95166667Y-67945295D01*
X95166667Y-67945295D02*
X95214286Y-67850057D01*
X95214286Y-67850057D02*
X95261905Y-67802438D01*
X95261905Y-67802438D02*
X95357143Y-67754819D01*
X95357143Y-67754819D02*
X95595238Y-67754819D01*
X95595238Y-67754819D02*
X95738095Y-67802438D01*
X96071429Y-67754819D02*
X96309524Y-68754819D01*
X96309524Y-68754819D02*
X96500000Y-68040533D01*
X96500000Y-68040533D02*
X96690476Y-68754819D01*
X96690476Y-68754819D02*
X96928572Y-67754819D01*
X97833333Y-68754819D02*
X97261905Y-68754819D01*
X97547619Y-68754819D02*
X97547619Y-67754819D01*
X97547619Y-67754819D02*
X97452381Y-67897676D01*
X97452381Y-67897676D02*
X97357143Y-67992914D01*
X97357143Y-67992914D02*
X97261905Y-68040533D01*
X90003333Y-60779819D02*
X89670000Y-60303628D01*
X89431905Y-60779819D02*
X89431905Y-59779819D01*
X89431905Y-59779819D02*
X89812857Y-59779819D01*
X89812857Y-59779819D02*
X89908095Y-59827438D01*
X89908095Y-59827438D02*
X89955714Y-59875057D01*
X89955714Y-59875057D02*
X90003333Y-59970295D01*
X90003333Y-59970295D02*
X90003333Y-60113152D01*
X90003333Y-60113152D02*
X89955714Y-60208390D01*
X89955714Y-60208390D02*
X89908095Y-60256009D01*
X89908095Y-60256009D02*
X89812857Y-60303628D01*
X89812857Y-60303628D02*
X89431905Y-60303628D01*
X90955714Y-60779819D02*
X90384286Y-60779819D01*
X90670000Y-60779819D02*
X90670000Y-59779819D01*
X90670000Y-59779819D02*
X90574762Y-59922676D01*
X90574762Y-59922676D02*
X90479524Y-60017914D01*
X90479524Y-60017914D02*
X90384286Y-60065533D01*
X84542333Y-62462580D02*
X84494714Y-62510200D01*
X84494714Y-62510200D02*
X84351857Y-62557819D01*
X84351857Y-62557819D02*
X84256619Y-62557819D01*
X84256619Y-62557819D02*
X84113762Y-62510200D01*
X84113762Y-62510200D02*
X84018524Y-62414961D01*
X84018524Y-62414961D02*
X83970905Y-62319723D01*
X83970905Y-62319723D02*
X83923286Y-62129247D01*
X83923286Y-62129247D02*
X83923286Y-61986390D01*
X83923286Y-61986390D02*
X83970905Y-61795914D01*
X83970905Y-61795914D02*
X84018524Y-61700676D01*
X84018524Y-61700676D02*
X84113762Y-61605438D01*
X84113762Y-61605438D02*
X84256619Y-61557819D01*
X84256619Y-61557819D02*
X84351857Y-61557819D01*
X84351857Y-61557819D02*
X84494714Y-61605438D01*
X84494714Y-61605438D02*
X84542333Y-61653057D01*
X85494714Y-62557819D02*
X84923286Y-62557819D01*
X85209000Y-62557819D02*
X85209000Y-61557819D01*
X85209000Y-61557819D02*
X85113762Y-61700676D01*
X85113762Y-61700676D02*
X85018524Y-61795914D01*
X85018524Y-61795914D02*
X84923286Y-61843533D01*
X84328095Y-72733819D02*
X84328095Y-73543342D01*
X84328095Y-73543342D02*
X84375714Y-73638580D01*
X84375714Y-73638580D02*
X84423333Y-73686200D01*
X84423333Y-73686200D02*
X84518571Y-73733819D01*
X84518571Y-73733819D02*
X84709047Y-73733819D01*
X84709047Y-73733819D02*
X84804285Y-73686200D01*
X84804285Y-73686200D02*
X84851904Y-73638580D01*
X84851904Y-73638580D02*
X84899523Y-73543342D01*
X84899523Y-73543342D02*
X84899523Y-72733819D01*
X85899523Y-73733819D02*
X85328095Y-73733819D01*
X85613809Y-73733819D02*
X85613809Y-72733819D01*
X85613809Y-72733819D02*
X85518571Y-72876676D01*
X85518571Y-72876676D02*
X85423333Y-72971914D01*
X85423333Y-72971914D02*
X85328095Y-73019533D01*
X96166666Y-78554819D02*
X96166666Y-79269104D01*
X96166666Y-79269104D02*
X96119047Y-79411961D01*
X96119047Y-79411961D02*
X96023809Y-79507200D01*
X96023809Y-79507200D02*
X95880952Y-79554819D01*
X95880952Y-79554819D02*
X95785714Y-79554819D01*
X97166666Y-79554819D02*
X96595238Y-79554819D01*
X96880952Y-79554819D02*
X96880952Y-78554819D01*
X96880952Y-78554819D02*
X96785714Y-78697676D01*
X96785714Y-78697676D02*
X96690476Y-78792914D01*
X96690476Y-78792914D02*
X96595238Y-78840533D01*
X103493866Y-82899219D02*
X103493866Y-83613504D01*
X103493866Y-83613504D02*
X103446247Y-83756361D01*
X103446247Y-83756361D02*
X103351009Y-83851600D01*
X103351009Y-83851600D02*
X103208152Y-83899219D01*
X103208152Y-83899219D02*
X103112914Y-83899219D01*
X103874819Y-82899219D02*
X104493866Y-82899219D01*
X104493866Y-82899219D02*
X104160533Y-83280171D01*
X104160533Y-83280171D02*
X104303390Y-83280171D01*
X104303390Y-83280171D02*
X104398628Y-83327790D01*
X104398628Y-83327790D02*
X104446247Y-83375409D01*
X104446247Y-83375409D02*
X104493866Y-83470647D01*
X104493866Y-83470647D02*
X104493866Y-83708742D01*
X104493866Y-83708742D02*
X104446247Y-83803980D01*
X104446247Y-83803980D02*
X104398628Y-83851600D01*
X104398628Y-83851600D02*
X104303390Y-83899219D01*
X104303390Y-83899219D02*
X104017676Y-83899219D01*
X104017676Y-83899219D02*
X103922438Y-83851600D01*
X103922438Y-83851600D02*
X103874819Y-83803980D01*
X102917666Y-60256009D02*
X102584333Y-60256009D01*
X102584333Y-60779819D02*
X102584333Y-59779819D01*
X102584333Y-59779819D02*
X103060523Y-59779819D01*
X103965285Y-60779819D02*
X103393857Y-60779819D01*
X103679571Y-60779819D02*
X103679571Y-59779819D01*
X103679571Y-59779819D02*
X103584333Y-59922676D01*
X103584333Y-59922676D02*
X103489095Y-60017914D01*
X103489095Y-60017914D02*
X103393857Y-60065533D01*
D11*
%TO.C,R2*%
X106695864Y-71290000D02*
X105241736Y-71290000D01*
X106695864Y-73110000D02*
X105241736Y-73110000D01*
%TO.C,TP3*%
X89698650Y-57371900D02*
X91598650Y-57371900D01*
X89698650Y-59271900D02*
X89698650Y-57371900D01*
X91598650Y-57371900D02*
X91598650Y-59271900D01*
X91598650Y-59271900D02*
X89698650Y-59271900D01*
%TO.C,Q1*%
X105643000Y-66258000D02*
X107463000Y-66258000D01*
X105643000Y-66308000D02*
X105643000Y-66258000D01*
X105643000Y-69378000D02*
X105643000Y-69328000D01*
X107463000Y-66258000D02*
X107463000Y-66308000D01*
X107463000Y-69328000D02*
X107463000Y-69378000D01*
X107463000Y-69378000D02*
X105643000Y-69378000D01*
X105103000Y-66308000D02*
X104863000Y-65978000D01*
X105343000Y-65978000D01*
X105103000Y-66308000D01*
G36*
X105103000Y-66308000D02*
G01*
X104863000Y-65978000D01*
X105343000Y-65978000D01*
X105103000Y-66308000D01*
G37*
%TO.C,J2*%
X85895050Y-82111158D02*
X85895050Y-82423800D01*
X86755050Y-82111158D02*
X86755050Y-82423800D01*
X87595050Y-82423800D02*
X87595050Y-84167800D01*
X88435050Y-82111158D02*
X88435050Y-82423800D01*
X89295050Y-82111158D02*
X89295050Y-82423800D01*
X90135050Y-82423800D02*
X90135050Y-84167800D01*
X90975050Y-82111158D02*
X90975050Y-82423800D01*
X91835050Y-82111158D02*
X91835050Y-82423800D01*
X92675050Y-82423800D02*
X92675050Y-84167800D01*
X93515050Y-82193800D02*
X93515050Y-82423800D01*
X93945050Y-79763800D02*
X95215050Y-79763800D01*
X94375050Y-82193800D02*
X94375050Y-82423800D01*
X95215050Y-79763800D02*
X95215050Y-81033800D01*
X95325050Y-82423800D02*
X84945050Y-82423800D01*
X84945050Y-84167800D01*
X95325050Y-84167800D01*
X95325050Y-82423800D01*
%TO.C,C2*%
X87990000Y-76276252D02*
X87990000Y-74853748D01*
X89810000Y-76276252D02*
X89810000Y-74853748D01*
%TO.C,U2*%
X105510500Y-60990000D02*
X107330500Y-60990000D01*
X105510500Y-61040000D02*
X105510500Y-60990000D01*
X105510500Y-64110000D02*
X105510500Y-64060000D01*
X107330500Y-60990000D02*
X107330500Y-61040000D01*
X107330500Y-64060000D02*
X107330500Y-64110000D01*
X107330500Y-64110000D02*
X105510500Y-64110000D01*
X108110500Y-64390000D02*
X107630500Y-64390000D01*
X107870500Y-64060000D01*
X108110500Y-64390000D01*
G36*
X108110500Y-64390000D02*
G01*
X107630500Y-64390000D01*
X107870500Y-64060000D01*
X108110500Y-64390000D01*
G37*
%TO.C,C3*%
X103190000Y-77011252D02*
X103190000Y-75588748D01*
X105010000Y-77011252D02*
X105010000Y-75588748D01*
%TO.C,TP3*%
X101522350Y-57371900D02*
X103422350Y-57371900D01*
X101522350Y-59271900D02*
X101522350Y-57371900D01*
X103422350Y-57371900D02*
X103422350Y-59271900D01*
X103422350Y-59271900D02*
X101522350Y-59271900D01*
%TO.C,SW1*%
X93286050Y-67242000D02*
X93286050Y-71862000D01*
X93286050Y-67242000D02*
X93996050Y-67242000D01*
X93286050Y-71862000D02*
X93996050Y-71862000D01*
X99106050Y-65852000D02*
X99106050Y-67242000D01*
X99756050Y-67242000D02*
X99106050Y-67242000D01*
X99756050Y-67242000D02*
X99756050Y-71862000D01*
X99756050Y-71862000D02*
X99046050Y-71862000D01*
%TO.C,R1*%
X86298486Y-57637000D02*
X87752614Y-57637000D01*
X86298486Y-59457000D02*
X87752614Y-59457000D01*
%TO.C,C1*%
X88941302Y-61149000D02*
X87518798Y-61149000D01*
X88941302Y-62969000D02*
X87518798Y-62969000D01*
%TO.C,U1*%
X87784050Y-63720000D02*
X85834050Y-63720000D01*
X87784050Y-63720000D02*
X89734050Y-63720000D01*
X87784050Y-72590000D02*
X85834050Y-72590000D01*
X87784050Y-72590000D02*
X89734050Y-72590000D01*
X84234892Y-64341967D02*
X83904892Y-64581967D01*
X83904892Y-64101967D01*
X84234892Y-64341967D01*
G36*
X84234892Y-64341967D02*
G01*
X83904892Y-64581967D01*
X83904892Y-64101967D01*
X84234892Y-64341967D01*
G37*
%TO.C,J1*%
X91168050Y-75538000D02*
X91168050Y-78298000D01*
X98898050Y-75538000D02*
X91168050Y-75538000D01*
X98898050Y-75538000D02*
X98898050Y-78298000D01*
X98898050Y-78298000D02*
X91168050Y-78298000D01*
X100168050Y-75538000D02*
X101548050Y-75538000D01*
X101548050Y-75538000D02*
X101548050Y-76918000D01*
%TO.C,J3*%
X98325200Y-82128758D02*
X98325200Y-82441400D01*
X99185200Y-82128758D02*
X99185200Y-82441400D01*
X100025200Y-82441400D02*
X100025200Y-84185400D01*
X100865200Y-82128758D02*
X100865200Y-82441400D01*
X101725200Y-82128758D02*
X101725200Y-82441400D01*
X102565200Y-82441400D02*
X102565200Y-84185400D01*
X103405200Y-82128758D02*
X103405200Y-82441400D01*
X104265200Y-82128758D02*
X104265200Y-82441400D01*
X105105200Y-82441400D02*
X105105200Y-84185400D01*
X105945200Y-82211400D02*
X105945200Y-82441400D01*
X106375200Y-79781400D02*
X107645200Y-79781400D01*
X106805200Y-82211400D02*
X106805200Y-82441400D01*
X107645200Y-79781400D02*
X107645200Y-81051400D01*
X107755200Y-82441400D02*
X97375200Y-82441400D01*
X97375200Y-84185400D01*
X107755200Y-84185400D01*
X107755200Y-82441400D01*
%TO.C,F1*%
X105442936Y-57637000D02*
X106647064Y-57637000D01*
X105442936Y-59457000D02*
X106647064Y-59457000D01*
%TD*%
M02*
