%TF.GenerationSoftware,KiCad,Pcbnew,9.0.7*%
%TF.CreationDate,2026-02-26T13:23:17-05:00*%
%TF.ProjectId,Mag Charger Adapter,4d616720-4368-4617-9267-657220416461,X1*%
%TF.SameCoordinates,Original*%
%TF.FileFunction,Legend,Top*%
%TF.FilePolarity,Positive*%
%FSLAX46Y46*%
G04 Gerber Fmt 4.6, Leading zero omitted, Abs format (unit mm)*
G04 Created by KiCad (PCBNEW 9.0.7) date 2026-02-26 13:23:17*
%MOMM*%
%LPD*%
G01*
G04 APERTURE LIST*
%ADD10C,0.150000*%
%ADD11C,0.120000*%
%ADD12C,0.152400*%
G04 APERTURE END LIST*
D10*
X162661905Y-134964819D02*
X162661905Y-133964819D01*
X162661905Y-133964819D02*
X162900000Y-133964819D01*
X162900000Y-133964819D02*
X163042857Y-134012438D01*
X163042857Y-134012438D02*
X163138095Y-134107676D01*
X163138095Y-134107676D02*
X163185714Y-134202914D01*
X163185714Y-134202914D02*
X163233333Y-134393390D01*
X163233333Y-134393390D02*
X163233333Y-134536247D01*
X163233333Y-134536247D02*
X163185714Y-134726723D01*
X163185714Y-134726723D02*
X163138095Y-134821961D01*
X163138095Y-134821961D02*
X163042857Y-134917200D01*
X163042857Y-134917200D02*
X162900000Y-134964819D01*
X162900000Y-134964819D02*
X162661905Y-134964819D01*
X164185714Y-134964819D02*
X163614286Y-134964819D01*
X163900000Y-134964819D02*
X163900000Y-133964819D01*
X163900000Y-133964819D02*
X163804762Y-134107676D01*
X163804762Y-134107676D02*
X163709524Y-134202914D01*
X163709524Y-134202914D02*
X163614286Y-134250533D01*
X143100905Y-137665619D02*
X143100905Y-136665619D01*
X143100905Y-136665619D02*
X143339000Y-136665619D01*
X143339000Y-136665619D02*
X143481857Y-136713238D01*
X143481857Y-136713238D02*
X143577095Y-136808476D01*
X143577095Y-136808476D02*
X143624714Y-136903714D01*
X143624714Y-136903714D02*
X143672333Y-137094190D01*
X143672333Y-137094190D02*
X143672333Y-137237047D01*
X143672333Y-137237047D02*
X143624714Y-137427523D01*
X143624714Y-137427523D02*
X143577095Y-137522761D01*
X143577095Y-137522761D02*
X143481857Y-137618000D01*
X143481857Y-137618000D02*
X143339000Y-137665619D01*
X143339000Y-137665619D02*
X143100905Y-137665619D01*
X144053286Y-136760857D02*
X144100905Y-136713238D01*
X144100905Y-136713238D02*
X144196143Y-136665619D01*
X144196143Y-136665619D02*
X144434238Y-136665619D01*
X144434238Y-136665619D02*
X144529476Y-136713238D01*
X144529476Y-136713238D02*
X144577095Y-136760857D01*
X144577095Y-136760857D02*
X144624714Y-136856095D01*
X144624714Y-136856095D02*
X144624714Y-136951333D01*
X144624714Y-136951333D02*
X144577095Y-137094190D01*
X144577095Y-137094190D02*
X144005667Y-137665619D01*
X144005667Y-137665619D02*
X144624714Y-137665619D01*
X160194666Y-134100219D02*
X160194666Y-134814504D01*
X160194666Y-134814504D02*
X160147047Y-134957361D01*
X160147047Y-134957361D02*
X160051809Y-135052600D01*
X160051809Y-135052600D02*
X159908952Y-135100219D01*
X159908952Y-135100219D02*
X159813714Y-135100219D01*
X160623238Y-134195457D02*
X160670857Y-134147838D01*
X160670857Y-134147838D02*
X160766095Y-134100219D01*
X160766095Y-134100219D02*
X161004190Y-134100219D01*
X161004190Y-134100219D02*
X161099428Y-134147838D01*
X161099428Y-134147838D02*
X161147047Y-134195457D01*
X161147047Y-134195457D02*
X161194666Y-134290695D01*
X161194666Y-134290695D02*
X161194666Y-134385933D01*
X161194666Y-134385933D02*
X161147047Y-134528790D01*
X161147047Y-134528790D02*
X160575619Y-135100219D01*
X160575619Y-135100219D02*
X161194666Y-135100219D01*
D11*
%TO.C,D1*%
X161250000Y-142860000D02*
X161250000Y-137050000D01*
X161250000Y-142860000D02*
X165550000Y-142860000D01*
X165550000Y-142860000D02*
X165550000Y-137050000D01*
%TO.C,D2*%
X145359000Y-136450800D02*
X146289000Y-136450800D01*
X145359000Y-137250800D02*
X145359000Y-136450800D01*
X145359000Y-137250800D02*
X145359000Y-138050800D01*
X148519000Y-136450800D02*
X147589000Y-136450800D01*
X148519000Y-136450800D02*
X148519000Y-137910800D01*
X145329000Y-138550800D02*
X144999000Y-138790800D01*
X144999000Y-138310800D01*
X145329000Y-138550800D01*
G36*
X145329000Y-138550800D02*
G01*
X144999000Y-138790800D01*
X144999000Y-138310800D01*
X145329000Y-138550800D01*
G37*
D12*
%TO.C,J2*%
X149852600Y-133818600D02*
X159047400Y-133818600D01*
X149852600Y-134812501D02*
X149852600Y-133818600D01*
X149852600Y-138772210D02*
X149852600Y-137988677D01*
X159047400Y-133818600D02*
X159047400Y-134812501D01*
X159047400Y-137988677D02*
X159047400Y-138772210D01*
%TD*%
M02*
