M48
; DRILL file {KiCad 9.0.7} date 2026-02-26T13:16:21-0500
; FORMAT={-:-/ absolute / metric / decimal}
; #@! TF.CreationDate,2026-02-26T13:16:21-05:00
; #@! TF.GenerationSoftware,Kicad,Pcbnew,9.0.7
; #@! TF.FileFunction,Plated,1,2,PTH
FMAT,2
METRIC
; #@! TA.AperFunction,Plated,PTH,ViaDrill
T1C0.300
; #@! TA.AperFunction,Plated,PTH,ComponentDrill
T2C0.700
; #@! TA.AperFunction,Plated,PTH,ComponentDrill
T3C0.800
%
G90
G05
T1
X100.65Y-133.2
X102.158Y-121.531
X102.158Y-122.42
X102.6Y-125.05
X103.047Y-121.531
X103.047Y-122.42
X106.1Y-125.05
X107.05Y-123.95
X109.25Y-124.25
X113.524Y-121.531
X113.524Y-122.42
X114.477Y-121.531
X114.477Y-122.42
X115.95Y-133.21
T2
X104.3Y-127.71
X104.8Y-126.21
X106.3Y-127.71
X107.3Y-126.21
X108.3Y-127.71
X109.3Y-126.21
X110.3Y-127.71
X111.8Y-126.21
X112.3Y-127.71
T3
G00X100.45Y-127.415
M15
G01X100.45Y-128.965
M16
G05
G00X116.15Y-127.415
M15
G01X116.15Y-128.965
M16
G05
M30
