%TF.GenerationSoftware,KiCad,Pcbnew,9.0.7*%
%TF.CreationDate,2026-02-26T13:16:19-05:00*%
%TF.ProjectId,Mouse Dongle Card,4d6f7573-6520-4446-9f6e-676c65204361,X1*%
%TF.SameCoordinates,Original*%
%TF.FileFunction,Profile,NP*%
%FSLAX46Y46*%
G04 Gerber Fmt 4.6, Leading zero omitted, Abs format (unit mm)*
G04 Created by KiCad (PCBNEW 9.0.7) date 2026-02-26 13:16:19*
%MOMM*%
%LPD*%
G01*
G04 APERTURE LIST*
%TA.AperFunction,Profile*%
%ADD10C,0.050000*%
%TD*%
%TA.AperFunction,Profile*%
%ADD11C,0.010000*%
%TD*%
G04 APERTURE END LIST*
D10*
X111268950Y-122000000D02*
X105331050Y-122000000D01*
X111268918Y-122000000D02*
G75*
G02*
X111568900Y-122300000I-18J-300000D01*
G01*
X120311050Y-124150000D02*
X120311050Y-121250000D01*
X99650000Y-138590000D02*
X99650000Y-148890000D01*
X120611050Y-124450000D02*
X121011050Y-124450000D01*
X121311050Y-148590000D02*
G75*
G02*
X121011050Y-148890050I-300050J0D01*
G01*
X95315850Y-124745200D02*
G75*
G02*
X95615850Y-124445150I300050J0D01*
G01*
X95611100Y-148890000D02*
X99650000Y-148890000D01*
X95611050Y-148890000D02*
G75*
G02*
X95311100Y-148590000I50J300000D01*
G01*
X121311050Y-148590000D02*
X121311050Y-124750000D01*
X96611050Y-120950000D02*
X103311050Y-120950000D01*
X113011050Y-122650000D02*
X113011050Y-121250000D01*
X105031050Y-122300000D02*
X105031050Y-122650000D01*
X120011050Y-120950000D02*
G75*
G02*
X120311000Y-121250000I-50J-300000D01*
G01*
X115050000Y-138590000D02*
X116950000Y-138590000D01*
X120611050Y-124450000D02*
G75*
G02*
X120311100Y-124150000I50J300000D01*
G01*
X95315850Y-124745200D02*
X95311050Y-148590000D01*
X116950000Y-138590000D02*
X116950000Y-148890000D01*
X111868918Y-122950000D02*
G75*
G02*
X111568900Y-122650000I-18J300000D01*
G01*
X120011050Y-120950000D02*
X113311050Y-120950000D01*
X96311050Y-121250000D02*
X96311050Y-124150000D01*
X103911050Y-122950000D02*
G75*
G02*
X103611100Y-122650000I50J300000D01*
G01*
X103611050Y-122650000D02*
X103611050Y-121250000D01*
X112711050Y-122950000D02*
X111868918Y-122950000D01*
X103911050Y-122950000D02*
X104731050Y-122950000D01*
X113011050Y-121250000D02*
G75*
G02*
X113311050Y-120949950I300050J0D01*
G01*
X113011050Y-122650000D02*
G75*
G02*
X112711050Y-122950050I-300050J0D01*
G01*
X96311050Y-124150000D02*
G75*
G02*
X96011050Y-124450050I-300050J0D01*
G01*
X111568918Y-122300000D02*
X111568918Y-122650000D01*
X96311050Y-121250000D02*
G75*
G02*
X96611050Y-120949950I300050J0D01*
G01*
X103311050Y-120950000D02*
G75*
G02*
X103611000Y-121250000I-50J-300000D01*
G01*
X105031050Y-122650000D02*
G75*
G02*
X104731050Y-122950050I-300050J0D01*
G01*
X96011050Y-124450000D02*
X95615850Y-124445200D01*
X121011050Y-124450000D02*
G75*
G02*
X121311000Y-124750000I-50J-300000D01*
G01*
X105031050Y-122300000D02*
G75*
G02*
X105331050Y-121999950I300050J0D01*
G01*
X116950000Y-148890000D02*
X121005523Y-148890000D01*
X101550000Y-138590000D02*
X99650000Y-138590000D01*
D11*
%TO.C,J1*%
X101550000Y-128760000D02*
X101550000Y-138590000D01*
X114880000Y-128590000D02*
X101720000Y-128590000D01*
X115050000Y-138590000D02*
X115050000Y-128760000D01*
X101550000Y-128760000D02*
G75*
G02*
X101720000Y-128590000I170001J-1D01*
G01*
X114880000Y-128590000D02*
G75*
G02*
X115050000Y-128760000I0J-170000D01*
G01*
%TD*%
M02*
