%TF.GenerationSoftware,KiCad,Pcbnew,9.0.7*%
%TF.CreationDate,2026-02-26T13:16:19-05:00*%
%TF.ProjectId,Mouse Dongle Card,4d6f7573-6520-4446-9f6e-676c65204361,X1*%
%TF.SameCoordinates,Original*%
%TF.FileFunction,Copper,L1,Top*%
%TF.FilePolarity,Positive*%
%FSLAX46Y46*%
G04 Gerber Fmt 4.6, Leading zero omitted, Abs format (unit mm)*
G04 Created by KiCad (PCBNEW 9.0.7) date 2026-02-26 13:16:19*
%MOMM*%
%LPD*%
G01*
G04 APERTURE LIST*
G04 Aperture macros list*
%AMRoundRect*
0 Rectangle with rounded corners*
0 $1 Rounding radius*
0 $2 $3 $4 $5 $6 $7 $8 $9 X,Y pos of 4 corners*
0 Add a 4 corners polygon primitive as box body*
4,1,4,$2,$3,$4,$5,$6,$7,$8,$9,$2,$3,0*
0 Add four circle primitives for the rounded corners*
1,1,$1+$1,$2,$3*
1,1,$1+$1,$4,$5*
1,1,$1+$1,$6,$7*
1,1,$1+$1,$8,$9*
0 Add four rect primitives between the rounded corners*
20,1,$1+$1,$2,$3,$4,$5,0*
20,1,$1+$1,$4,$5,$6,$7,0*
20,1,$1+$1,$6,$7,$8,$9,0*
20,1,$1+$1,$8,$9,$2,$3,0*%
G04 Aperture macros list end*
%TA.AperFunction,SMDPad,CuDef*%
%ADD10R,1.500000X1.500000*%
%TD*%
%TA.AperFunction,SMDPad,CuDef*%
%ADD11RoundRect,0.250000X-0.650000X0.412500X-0.650000X-0.412500X0.650000X-0.412500X0.650000X0.412500X0*%
%TD*%
%TA.AperFunction,ComponentPad*%
%ADD12C,1.300000*%
%TD*%
%TA.AperFunction,ComponentPad*%
%ADD13O,1.676400X3.352800*%
%TD*%
%TA.AperFunction,SMDPad,CuDef*%
%ADD14R,1.100000X2.500000*%
%TD*%
%TA.AperFunction,SMDPad,CuDef*%
%ADD15RoundRect,0.250000X0.625000X-0.400000X0.625000X0.400000X-0.625000X0.400000X-0.625000X-0.400000X0*%
%TD*%
%TA.AperFunction,SMDPad,CuDef*%
%ADD16R,0.380000X1.000000*%
%TD*%
%TA.AperFunction,SMDPad,CuDef*%
%ADD17R,0.700000X1.150000*%
%TD*%
%TA.AperFunction,ViaPad*%
%ADD18C,0.500000*%
%TD*%
%TA.AperFunction,ViaPad*%
%ADD19C,0.600000*%
%TD*%
%TA.AperFunction,Conductor*%
%ADD20C,0.400000*%
%TD*%
%TA.AperFunction,Conductor*%
%ADD21C,0.200000*%
%TD*%
%TA.AperFunction,Conductor*%
%ADD22C,0.600000*%
%TD*%
%TA.AperFunction,Conductor*%
%ADD23C,1.000000*%
%TD*%
G04 APERTURE END LIST*
D10*
%TO.P,GP1,1,1*%
%TO.N,GND*%
X102600000Y-121960000D03*
%TD*%
%TO.P,GP3,1,1*%
%TO.N,GND*%
X114000000Y-121960000D03*
%TD*%
D11*
%TO.P,C1,1*%
%TO.N,VBUS*%
X97850000Y-132017500D03*
%TO.P,C1,2*%
%TO.N,GND*%
X97850000Y-135142500D03*
%TD*%
D12*
%TO.P,J1,1,VBUS*%
%TO.N,VBUS*%
X111800000Y-126210000D03*
%TO.P,J1,2,D-*%
%TO.N,/USB_DN*%
X109300000Y-126210000D03*
%TO.P,J1,3,D+*%
%TO.N,/USB_DP*%
X107300000Y-126210000D03*
%TO.P,J1,4,GND*%
%TO.N,GND*%
X104800000Y-126210000D03*
%TO.P,J1,5,STDA_SSRX-*%
%TO.N,unconnected-(J1-STDA_SSRX--Pad5)*%
X104300000Y-127710000D03*
%TO.P,J1,6,STDA_SSRX+*%
%TO.N,unconnected-(J1-STDA_SSRX+-Pad6)*%
X106300000Y-127710000D03*
%TO.P,J1,7,GND_DRAIN*%
%TO.N,GND*%
X108300000Y-127710000D03*
%TO.P,J1,8,STDA_SSTX-*%
%TO.N,unconnected-(J1-STDA_SSTX--Pad8)*%
X110300000Y-127710000D03*
%TO.P,J1,9,STDA_SSTX+*%
%TO.N,unconnected-(J1-STDA_SSTX+-Pad9)*%
X112300000Y-127710000D03*
D13*
%TO.P,J1,S1*%
%TO.N,GND*%
X100450000Y-128190000D03*
%TO.P,J1,S2*%
X116150000Y-128190000D03*
D14*
%TO.P,J1,S3*%
X100650000Y-135290000D03*
%TO.P,J1,S4*%
X115950000Y-135290000D03*
%TD*%
D15*
%TO.P,R2,1*%
%TO.N,Net-(P1-CC)*%
X100100000Y-125050000D03*
%TO.P,R2,2*%
%TO.N,GND*%
X100100000Y-121950000D03*
%TD*%
D16*
%TO.P,P1,A1,GND*%
%TO.N,GND*%
X105550000Y-123000000D03*
%TO.P,P1,A2,TX1+*%
%TO.N,/USB_TX1+*%
X106050000Y-123000000D03*
%TO.P,P1,A3,TX1-*%
%TO.N,/USB_TX1-*%
X106550000Y-123000000D03*
%TO.P,P1,A4,VBUS*%
%TO.N,VBUS*%
X107050000Y-123000000D03*
%TO.P,P1,A5,CC*%
%TO.N,Net-(P1-CC)*%
X107550000Y-123000000D03*
%TO.P,P1,A6,D+*%
%TO.N,/USB_DP*%
X108050000Y-123000000D03*
%TO.P,P1,A7,D-*%
%TO.N,/USB_DN*%
X108550000Y-123000000D03*
%TO.P,P1,A8,SBU1*%
%TO.N,unconnected-(P1-SBU1-PadA8)*%
X109050000Y-123000000D03*
%TO.P,P1,A9,VBUS*%
%TO.N,VBUS*%
X109550000Y-123000000D03*
%TO.P,P1,A10,RX2-*%
%TO.N,unconnected-(P1-RX2--PadA10)*%
X110050000Y-123000000D03*
%TO.P,P1,A11,RX2+*%
%TO.N,unconnected-(P1-RX2+-PadA11)*%
X110550000Y-123000000D03*
%TO.P,P1,A12,GND*%
%TO.N,GND*%
X111050000Y-123000000D03*
D17*
%TO.P,P1,S1,SHIELD*%
X104880000Y-123840000D03*
%TD*%
D18*
%TO.N,VBUS*%
X107050000Y-123950000D03*
X109250000Y-124250000D03*
D19*
%TO.N,GND*%
X115950000Y-133210000D03*
X100650000Y-133200000D03*
D18*
X102158000Y-121531500D03*
X102158000Y-122420500D03*
X114477000Y-121531500D03*
X114477000Y-122420500D03*
X103047000Y-121531500D03*
X113524500Y-122420500D03*
X113524500Y-121531500D03*
X103047000Y-122420500D03*
D19*
%TO.N,Net-(P1-CC)*%
X102600000Y-125050000D03*
X106100000Y-125050000D03*
%TD*%
D20*
%TO.N,VBUS*%
X107050000Y-123950000D02*
X106800000Y-124200000D01*
X106800000Y-124200000D02*
X106400000Y-124200000D01*
X107050000Y-123950000D02*
X107050000Y-123000000D01*
D21*
%TO.N,Net-(P1-CC)*%
X106100000Y-125050000D02*
X106700000Y-125050000D01*
X106700000Y-125050000D02*
X107550000Y-124200000D01*
X107550000Y-124200000D02*
X107550000Y-123000000D01*
X102600000Y-125050000D02*
X100100000Y-125050000D01*
D22*
%TO.N,GND*%
X115950000Y-133210000D02*
X115950000Y-135300000D01*
X100650000Y-133200000D02*
X100650000Y-135290000D01*
D21*
X105550000Y-123170000D02*
X104880000Y-123840000D01*
X111050000Y-123000000D02*
X111050000Y-123150000D01*
X100502500Y-135142500D02*
X100650000Y-135290000D01*
X114000000Y-123590000D02*
X114000000Y-121960000D01*
X111050000Y-123170000D02*
X111720000Y-123840000D01*
X97850000Y-135142500D02*
X100502500Y-135142500D01*
X113750000Y-123840000D02*
X114000000Y-123590000D01*
D23*
X100100000Y-121950000D02*
X102590000Y-121950000D01*
D21*
X111720000Y-123840000D02*
X113750000Y-123840000D01*
X102600000Y-123590000D02*
X102600000Y-121960000D01*
D23*
X102590000Y-121950000D02*
X102600000Y-121960000D01*
D21*
X105550000Y-123000000D02*
X105550000Y-123170000D01*
X102850000Y-123840000D02*
X102600000Y-123590000D01*
X104880000Y-123840000D02*
X102850000Y-123840000D01*
%TO.N,/USB_DN*%
X108550000Y-123750001D02*
X108525000Y-123775001D01*
X108525000Y-125435000D02*
X109300000Y-126210000D01*
X108525000Y-123775001D02*
X108525000Y-125435000D01*
X108550000Y-123000000D02*
X108550000Y-123750001D01*
%TO.N,/USB_DP*%
X108050000Y-123000000D02*
X108050000Y-123750001D01*
X108075000Y-125435000D02*
X107300000Y-126210000D01*
X108050000Y-123750001D02*
X108075000Y-123775001D01*
X108075000Y-123775001D02*
X108075000Y-125435000D01*
%TO.N,Net-(P1-CC)*%
X100100000Y-125450000D02*
X100100000Y-125050000D01*
%TD*%
%TA.AperFunction,Conductor*%
%TO.N,VBUS*%
G36*
X99091060Y-121170185D02*
G01*
X99136815Y-121222989D01*
X99146759Y-121292147D01*
X99134507Y-121330790D01*
X99087043Y-121423945D01*
X99087041Y-121423949D01*
X99072100Y-121518286D01*
X99072100Y-122381713D01*
X99087041Y-122476050D01*
X99087042Y-122476053D01*
X99087043Y-122476055D01*
X99144984Y-122589771D01*
X99144985Y-122589772D01*
X99144988Y-122589776D01*
X99235223Y-122680011D01*
X99235227Y-122680014D01*
X99235229Y-122680016D01*
X99348945Y-122737957D01*
X99348947Y-122737957D01*
X99348949Y-122737958D01*
X99443287Y-122752900D01*
X99443292Y-122752900D01*
X100756713Y-122752900D01*
X100851050Y-122737958D01*
X100851050Y-122737957D01*
X100851055Y-122737957D01*
X100964771Y-122680016D01*
X101005567Y-122639220D01*
X101066890Y-122605734D01*
X101093249Y-122602900D01*
X101573101Y-122602900D01*
X101640140Y-122622585D01*
X101685895Y-122675389D01*
X101695404Y-122719102D01*
X101696504Y-122718994D01*
X101697100Y-122725053D01*
X101705972Y-122769658D01*
X101705973Y-122769661D01*
X101737175Y-122816357D01*
X101739766Y-122820234D01*
X101790342Y-122854028D01*
X101790343Y-122854028D01*
X101790345Y-122854029D01*
X101812642Y-122858464D01*
X101834943Y-122862900D01*
X102223100Y-122862899D01*
X102290139Y-122882583D01*
X102335894Y-122935387D01*
X102347100Y-122986899D01*
X102347100Y-123539692D01*
X102347099Y-123539695D01*
X102347099Y-123640305D01*
X102363047Y-123678806D01*
X102369353Y-123694032D01*
X102369354Y-123694033D01*
X102385600Y-123733256D01*
X102466947Y-123814603D01*
X102466957Y-123814611D01*
X102635600Y-123983254D01*
X102635601Y-123983257D01*
X102706743Y-124054399D01*
X102753219Y-124073649D01*
X102799695Y-124092901D01*
X102799696Y-124092901D01*
X102914739Y-124092901D01*
X102914747Y-124092900D01*
X104253101Y-124092900D01*
X104320140Y-124112585D01*
X104365895Y-124165389D01*
X104377101Y-124216900D01*
X104377101Y-124430056D01*
X104377102Y-124430059D01*
X104385972Y-124474658D01*
X104385973Y-124474661D01*
X104418907Y-124523949D01*
X104419766Y-124525234D01*
X104470342Y-124559028D01*
X104470343Y-124559028D01*
X104470345Y-124559029D01*
X104492642Y-124563464D01*
X104514943Y-124567900D01*
X105245056Y-124567899D01*
X105289658Y-124559028D01*
X105340234Y-124525234D01*
X105374028Y-124474658D01*
X105374058Y-124474510D01*
X105380190Y-124443681D01*
X105382900Y-124430057D01*
X105382899Y-123776898D01*
X105402583Y-123709860D01*
X105455387Y-123664105D01*
X105506899Y-123652899D01*
X105755056Y-123652899D01*
X105775806Y-123648772D01*
X105824189Y-123648772D01*
X105834136Y-123650750D01*
X105844943Y-123652900D01*
X106255056Y-123652899D01*
X106271022Y-123649723D01*
X106340611Y-123655949D01*
X106395789Y-123698811D01*
X106411394Y-123728005D01*
X106416648Y-123742091D01*
X106416648Y-123742092D01*
X106502809Y-123857187D01*
X106502812Y-123857190D01*
X106617906Y-123943350D01*
X106617913Y-123943354D01*
X106752620Y-123993596D01*
X106752627Y-123993598D01*
X106812155Y-123999999D01*
X106812172Y-124000000D01*
X106860000Y-124000000D01*
X106860000Y-123633233D01*
X106862550Y-123624547D01*
X106861262Y-123615587D01*
X106878030Y-123571827D01*
X106879685Y-123566194D01*
X106880440Y-123565539D01*
X106880900Y-123564340D01*
X106884028Y-123559658D01*
X106884028Y-123559656D01*
X106892900Y-123515057D01*
X106892899Y-123123997D01*
X106895449Y-123115313D01*
X106894161Y-123106353D01*
X106905138Y-123082316D01*
X106912583Y-123056961D01*
X106919425Y-123051032D01*
X106923186Y-123042797D01*
X106945417Y-123028510D01*
X106965387Y-123011206D01*
X106975902Y-123008918D01*
X106981964Y-123005023D01*
X107016899Y-123000000D01*
X107083101Y-123000000D01*
X107150140Y-123019685D01*
X107195895Y-123072489D01*
X107207100Y-123123998D01*
X107207101Y-123515056D01*
X107215972Y-123559656D01*
X107215972Y-123559657D01*
X107215972Y-123559659D01*
X107219100Y-123564339D01*
X107222137Y-123574037D01*
X107228794Y-123581720D01*
X107232402Y-123606819D01*
X107239980Y-123631015D01*
X107240000Y-123633232D01*
X107240000Y-124009568D01*
X107261976Y-124049814D01*
X107256992Y-124119506D01*
X107228491Y-124163853D01*
X106631565Y-124760781D01*
X106604637Y-124775484D01*
X106578819Y-124792077D01*
X106572618Y-124792968D01*
X106570242Y-124794266D01*
X106543884Y-124797100D01*
X106538959Y-124797100D01*
X106471920Y-124777415D01*
X106451278Y-124760781D01*
X106378089Y-124687592D01*
X106378087Y-124687590D01*
X106314660Y-124650970D01*
X106274814Y-124627964D01*
X106216301Y-124612286D01*
X106159625Y-124597100D01*
X106040375Y-124597100D01*
X105925185Y-124627964D01*
X105821913Y-124687590D01*
X105821910Y-124687592D01*
X105737592Y-124771910D01*
X105737590Y-124771913D01*
X105677964Y-124875185D01*
X105647100Y-124990375D01*
X105647100Y-125109624D01*
X105677964Y-125224814D01*
X105685527Y-125237913D01*
X105737590Y-125328087D01*
X105821913Y-125412410D01*
X105925187Y-125472036D01*
X106040375Y-125502900D01*
X106040377Y-125502900D01*
X106159623Y-125502900D01*
X106159625Y-125502900D01*
X106274813Y-125472036D01*
X106378087Y-125412410D01*
X106451278Y-125339219D01*
X106478205Y-125324515D01*
X106504024Y-125307923D01*
X106510224Y-125307031D01*
X106512601Y-125305734D01*
X106538959Y-125302900D01*
X106635253Y-125302900D01*
X106635261Y-125302901D01*
X106649695Y-125302901D01*
X106750305Y-125302901D01*
X106788806Y-125286952D01*
X106843257Y-125264399D01*
X106914399Y-125193257D01*
X106914399Y-125193254D01*
X106926314Y-125181340D01*
X106926317Y-125181335D01*
X107610420Y-124497232D01*
X107671742Y-124463749D01*
X107741434Y-124468733D01*
X107797367Y-124510605D01*
X107821784Y-124576069D01*
X107822100Y-124584915D01*
X107822100Y-125278883D01*
X107802415Y-125345922D01*
X107785785Y-125366559D01*
X107745245Y-125407100D01*
X107720199Y-125432146D01*
X107658875Y-125465630D01*
X107589184Y-125460645D01*
X107585067Y-125459026D01*
X107534197Y-125437955D01*
X107534193Y-125437954D01*
X107534189Y-125437952D01*
X107379082Y-125407100D01*
X107379079Y-125407100D01*
X107220921Y-125407100D01*
X107220918Y-125407100D01*
X107065810Y-125437952D01*
X107065810Y-125437953D01*
X107065807Y-125437954D01*
X107065803Y-125437955D01*
X107014933Y-125459026D01*
X106961731Y-125481062D01*
X106961711Y-125481070D01*
X106919684Y-125498479D01*
X106912900Y-125503011D01*
X106912893Y-125503015D01*
X106788177Y-125586349D01*
X106676349Y-125698177D01*
X106676346Y-125698181D01*
X106588482Y-125829677D01*
X106588475Y-125829690D01*
X106527955Y-125975801D01*
X106527952Y-125975810D01*
X106497100Y-126130916D01*
X106497100Y-126289083D01*
X106527952Y-126444189D01*
X106527955Y-126444198D01*
X106588475Y-126590309D01*
X106588482Y-126590322D01*
X106676346Y-126721818D01*
X106676349Y-126721822D01*
X106705025Y-126750498D01*
X106738510Y-126811821D01*
X106733526Y-126881513D01*
X106691654Y-126937446D01*
X106626190Y-126961863D01*
X106569894Y-126952741D01*
X106534197Y-126937955D01*
X106534193Y-126937954D01*
X106534189Y-126937952D01*
X106379082Y-126907100D01*
X106379079Y-126907100D01*
X106220921Y-126907100D01*
X106220918Y-126907100D01*
X106065810Y-126937952D01*
X106065801Y-126937955D01*
X105919690Y-126998475D01*
X105919677Y-126998482D01*
X105788181Y-127086346D01*
X105788177Y-127086349D01*
X105676349Y-127198177D01*
X105676346Y-127198181D01*
X105588482Y-127329677D01*
X105588475Y-127329690D01*
X105527955Y-127475801D01*
X105527952Y-127475810D01*
X105497100Y-127630916D01*
X105497100Y-127789083D01*
X105527952Y-127944189D01*
X105527955Y-127944198D01*
X105588475Y-128090309D01*
X105588482Y-128090321D01*
X105659502Y-128196609D01*
X105680380Y-128263286D01*
X105661896Y-128330666D01*
X105609917Y-128377357D01*
X105556400Y-128389500D01*
X105043600Y-128389500D01*
X104976561Y-128369815D01*
X104930806Y-128317011D01*
X104920862Y-128247853D01*
X104940498Y-128196609D01*
X104951421Y-128180260D01*
X105011521Y-128090316D01*
X105072045Y-127944197D01*
X105102900Y-127789079D01*
X105102900Y-127630921D01*
X105102900Y-127630918D01*
X105102899Y-127630916D01*
X105072047Y-127475810D01*
X105072044Y-127475801D01*
X105011524Y-127329690D01*
X105011517Y-127329677D01*
X104923653Y-127198181D01*
X104919788Y-127193471D01*
X104921340Y-127192196D01*
X104892272Y-127138961D01*
X104897256Y-127069269D01*
X104939128Y-127013336D01*
X104989244Y-126990986D01*
X105034197Y-126982045D01*
X105180316Y-126921521D01*
X105311819Y-126833653D01*
X105423653Y-126721819D01*
X105511521Y-126590316D01*
X105514981Y-126581964D01*
X105553044Y-126490070D01*
X105572045Y-126444197D01*
X105575883Y-126424905D01*
X105602899Y-126289083D01*
X105602900Y-126289081D01*
X105602900Y-126130918D01*
X105602899Y-126130916D01*
X105572047Y-125975810D01*
X105572044Y-125975801D01*
X105511524Y-125829690D01*
X105511517Y-125829677D01*
X105423653Y-125698181D01*
X105423650Y-125698177D01*
X105311822Y-125586349D01*
X105311818Y-125586346D01*
X105180322Y-125498482D01*
X105180309Y-125498475D01*
X105034198Y-125437955D01*
X105034189Y-125437952D01*
X104879082Y-125407100D01*
X104879079Y-125407100D01*
X104720921Y-125407100D01*
X104720918Y-125407100D01*
X104565810Y-125437952D01*
X104565801Y-125437955D01*
X104419690Y-125498475D01*
X104419677Y-125498482D01*
X104288181Y-125586346D01*
X104288177Y-125586349D01*
X104176349Y-125698177D01*
X104176346Y-125698181D01*
X104088482Y-125829677D01*
X104088475Y-125829690D01*
X104027955Y-125975801D01*
X104027952Y-125975810D01*
X103997100Y-126130916D01*
X103997100Y-126289083D01*
X104027952Y-126444189D01*
X104027955Y-126444198D01*
X104088475Y-126590309D01*
X104088482Y-126590322D01*
X104176346Y-126721818D01*
X104180212Y-126726529D01*
X104178658Y-126727803D01*
X104207727Y-126781038D01*
X104202743Y-126850730D01*
X104160871Y-126906663D01*
X104110754Y-126929013D01*
X104065807Y-126937953D01*
X104065801Y-126937955D01*
X103919690Y-126998475D01*
X103919677Y-126998482D01*
X103788181Y-127086346D01*
X103788177Y-127086349D01*
X103676349Y-127198177D01*
X103676346Y-127198181D01*
X103588482Y-127329677D01*
X103588475Y-127329690D01*
X103527955Y-127475801D01*
X103527952Y-127475810D01*
X103497100Y-127630916D01*
X103497100Y-127789083D01*
X103527952Y-127944189D01*
X103527955Y-127944198D01*
X103588475Y-128090309D01*
X103588482Y-128090321D01*
X103659502Y-128196609D01*
X103680380Y-128263286D01*
X103661896Y-128330666D01*
X103609917Y-128377357D01*
X103556400Y-128389500D01*
X101671223Y-128389500D01*
X101597193Y-128409336D01*
X101527343Y-128407673D01*
X101469481Y-128368510D01*
X101441977Y-128304281D01*
X101441100Y-128289561D01*
X101441100Y-127254184D01*
X101441099Y-127254180D01*
X101418635Y-127141245D01*
X101403013Y-127062707D01*
X101398227Y-127051153D01*
X101328305Y-126882344D01*
X101328298Y-126882331D01*
X101219838Y-126720010D01*
X101219835Y-126720006D01*
X101081793Y-126581964D01*
X101081789Y-126581961D01*
X100919468Y-126473501D01*
X100919455Y-126473494D01*
X100739097Y-126398788D01*
X100739085Y-126398785D01*
X100547619Y-126360700D01*
X100547615Y-126360700D01*
X100352385Y-126360700D01*
X100352380Y-126360700D01*
X100160914Y-126398785D01*
X100160902Y-126398788D01*
X99980544Y-126473494D01*
X99980531Y-126473501D01*
X99818210Y-126581961D01*
X99818206Y-126581964D01*
X99680164Y-126720006D01*
X99680161Y-126720010D01*
X99571701Y-126882331D01*
X99571694Y-126882344D01*
X99496988Y-127062702D01*
X99496985Y-127062714D01*
X99458900Y-127254180D01*
X99458900Y-129125819D01*
X99496985Y-129317285D01*
X99496988Y-129317297D01*
X99571694Y-129497655D01*
X99571701Y-129497668D01*
X99680161Y-129659989D01*
X99680164Y-129659993D01*
X99818206Y-129798035D01*
X99818210Y-129798038D01*
X99980531Y-129906498D01*
X99980544Y-129906505D01*
X100160902Y-129981211D01*
X100160907Y-129981213D01*
X100352380Y-130019299D01*
X100352384Y-130019300D01*
X100352385Y-130019300D01*
X100547616Y-130019300D01*
X100547617Y-130019299D01*
X100739093Y-129981213D01*
X100919462Y-129906502D01*
X101081790Y-129798038D01*
X101081793Y-129798035D01*
X101137819Y-129742010D01*
X101199142Y-129708525D01*
X101268834Y-129713509D01*
X101324767Y-129755381D01*
X101349184Y-129820845D01*
X101349500Y-129829691D01*
X101349500Y-133121615D01*
X101329815Y-133188654D01*
X101277011Y-133234409D01*
X101207853Y-133244353D01*
X101144297Y-133215328D01*
X101106523Y-133156550D01*
X101103869Y-133143992D01*
X101074715Y-133035187D01*
X101072036Y-133025187D01*
X101012410Y-132921913D01*
X100928087Y-132837590D01*
X100876450Y-132807777D01*
X100824814Y-132777964D01*
X100746946Y-132757100D01*
X100709625Y-132747100D01*
X100590375Y-132747100D01*
X100475185Y-132777964D01*
X100371913Y-132837590D01*
X100371910Y-132837592D01*
X100287592Y-132921910D01*
X100287590Y-132921913D01*
X100227964Y-133025185D01*
X100197100Y-133140375D01*
X100197100Y-133763667D01*
X100177415Y-133830706D01*
X100124611Y-133876461D01*
X100090848Y-133885563D01*
X100090918Y-133885913D01*
X100085708Y-133886949D01*
X100085264Y-133887069D01*
X100084950Y-133887099D01*
X100040341Y-133895972D01*
X100040338Y-133895973D01*
X99989766Y-133929765D01*
X99955971Y-133980343D01*
X99955970Y-133980345D01*
X99947100Y-134024940D01*
X99947100Y-134765600D01*
X99927415Y-134832639D01*
X99874611Y-134878394D01*
X99823100Y-134889600D01*
X99026900Y-134889600D01*
X98959861Y-134869915D01*
X98914106Y-134817111D01*
X98902900Y-134765600D01*
X98902900Y-134698286D01*
X98887958Y-134603949D01*
X98887957Y-134603947D01*
X98887957Y-134603945D01*
X98830016Y-134490229D01*
X98830014Y-134490227D01*
X98830011Y-134490223D01*
X98739776Y-134399988D01*
X98739772Y-134399985D01*
X98739771Y-134399984D01*
X98626055Y-134342043D01*
X98626053Y-134342042D01*
X98626050Y-134342041D01*
X98531713Y-134327100D01*
X98531708Y-134327100D01*
X97168292Y-134327100D01*
X97168287Y-134327100D01*
X97073949Y-134342041D01*
X96960227Y-134399985D01*
X96960223Y-134399988D01*
X96869988Y-134490223D01*
X96869985Y-134490227D01*
X96812041Y-134603949D01*
X96797100Y-134698286D01*
X96797100Y-135586713D01*
X96812041Y-135681050D01*
X96812042Y-135681053D01*
X96812043Y-135681055D01*
X96869984Y-135794771D01*
X96869985Y-135794772D01*
X96869988Y-135794776D01*
X96960223Y-135885011D01*
X96960227Y-135885014D01*
X96960229Y-135885016D01*
X97073945Y-135942957D01*
X97073947Y-135942957D01*
X97073949Y-135942958D01*
X97168287Y-135957900D01*
X97168292Y-135957900D01*
X98531713Y-135957900D01*
X98626050Y-135942958D01*
X98626050Y-135942957D01*
X98626055Y-135942957D01*
X98739771Y-135885016D01*
X98830016Y-135794771D01*
X98887957Y-135681055D01*
X98887958Y-135681050D01*
X98902900Y-135586713D01*
X98902900Y-135519400D01*
X98922585Y-135452361D01*
X98975389Y-135406606D01*
X99026900Y-135395400D01*
X99823101Y-135395400D01*
X99890140Y-135415085D01*
X99935895Y-135467889D01*
X99947101Y-135519400D01*
X99947101Y-136555056D01*
X99947102Y-136555059D01*
X99955972Y-136599658D01*
X99955973Y-136599661D01*
X99989765Y-136650233D01*
X99989766Y-136650234D01*
X100040342Y-136684028D01*
X100040343Y-136684028D01*
X100040345Y-136684029D01*
X100062642Y-136688464D01*
X100084943Y-136692900D01*
X101215056Y-136692899D01*
X101221147Y-136692899D01*
X101221147Y-136694548D01*
X101281985Y-136706082D01*
X101332698Y-136754144D01*
X101349500Y-136816470D01*
X101349500Y-138265500D01*
X101329815Y-138332539D01*
X101277011Y-138378294D01*
X101225500Y-138389500D01*
X99610116Y-138389500D01*
X99536425Y-138420024D01*
X99480024Y-138476425D01*
X99449500Y-138550116D01*
X99449500Y-148565500D01*
X99429815Y-148632539D01*
X99377011Y-148678294D01*
X99325500Y-148689500D01*
X95635555Y-148689500D01*
X95568516Y-148669815D01*
X95522761Y-148617011D01*
X95511555Y-148565475D01*
X95512914Y-141810500D01*
X95513070Y-141032937D01*
X95532768Y-140965906D01*
X95585581Y-140920161D01*
X95654742Y-140910232D01*
X95718292Y-140939269D01*
X95747555Y-140976671D01*
X95844951Y-141167819D01*
X95969890Y-141339786D01*
X96120213Y-141490109D01*
X96292179Y-141615048D01*
X96292181Y-141615049D01*
X96292184Y-141615051D01*
X96481588Y-141711557D01*
X96683757Y-141777246D01*
X96893713Y-141810500D01*
X96893714Y-141810500D01*
X97106286Y-141810500D01*
X97106287Y-141810500D01*
X97316243Y-141777246D01*
X97518412Y-141711557D01*
X97707816Y-141615051D01*
X97729789Y-141599086D01*
X97879786Y-141490109D01*
X97879788Y-141490106D01*
X97879792Y-141490104D01*
X98030104Y-141339792D01*
X98030106Y-141339788D01*
X98030109Y-141339786D01*
X98155048Y-141167820D01*
X98155049Y-141167819D01*
X98155051Y-141167816D01*
X98251557Y-140978412D01*
X98317246Y-140776243D01*
X98350500Y-140566287D01*
X98350500Y-140353713D01*
X98317246Y-140143757D01*
X98251557Y-139941588D01*
X98155051Y-139752184D01*
X98155049Y-139752181D01*
X98155048Y-139752179D01*
X98030109Y-139580213D01*
X97879786Y-139429890D01*
X97707820Y-139304951D01*
X97518414Y-139208444D01*
X97518413Y-139208443D01*
X97518412Y-139208443D01*
X97316243Y-139142754D01*
X97316241Y-139142753D01*
X97316240Y-139142753D01*
X97154957Y-139117208D01*
X97106287Y-139109500D01*
X96893713Y-139109500D01*
X96845042Y-139117208D01*
X96683760Y-139142753D01*
X96481585Y-139208444D01*
X96292179Y-139304951D01*
X96120213Y-139429890D01*
X95969890Y-139580213D01*
X95844951Y-139752180D01*
X95747786Y-139942875D01*
X95699811Y-139993671D01*
X95631990Y-140010466D01*
X95565855Y-139987928D01*
X95522404Y-139933213D01*
X95513301Y-139886558D01*
X95514792Y-132479986D01*
X96450001Y-132479986D01*
X96460494Y-132582697D01*
X96515641Y-132749119D01*
X96515643Y-132749124D01*
X96607684Y-132898345D01*
X96731654Y-133022315D01*
X96880875Y-133114356D01*
X96880880Y-133114358D01*
X97047302Y-133169505D01*
X97047309Y-133169506D01*
X97150019Y-133179999D01*
X97599999Y-133179999D01*
X98100000Y-133179999D01*
X98549972Y-133179999D01*
X98549986Y-133179998D01*
X98652697Y-133169505D01*
X98819119Y-133114358D01*
X98819124Y-133114356D01*
X98968345Y-133022315D01*
X99092315Y-132898345D01*
X99184356Y-132749124D01*
X99184358Y-132749119D01*
X99239505Y-132582697D01*
X99239506Y-132582690D01*
X99249999Y-132479986D01*
X99250000Y-132479973D01*
X99250000Y-132267500D01*
X98100000Y-132267500D01*
X98100000Y-133179999D01*
X97599999Y-133179999D01*
X97600000Y-133179998D01*
X97600000Y-132267500D01*
X96450001Y-132267500D01*
X96450001Y-132479986D01*
X95514792Y-132479986D01*
X95514978Y-131555013D01*
X96450000Y-131555013D01*
X96450000Y-131767500D01*
X97600000Y-131767500D01*
X98100000Y-131767500D01*
X99249999Y-131767500D01*
X99249999Y-131555028D01*
X99249998Y-131555013D01*
X99239505Y-131452302D01*
X99184358Y-131285880D01*
X99184356Y-131285875D01*
X99092315Y-131136654D01*
X98968345Y-131012684D01*
X98819124Y-130920643D01*
X98819119Y-130920641D01*
X98652697Y-130865494D01*
X98652690Y-130865493D01*
X98549986Y-130855000D01*
X98100000Y-130855000D01*
X98100000Y-131767500D01*
X97600000Y-131767500D01*
X97600000Y-130855000D01*
X97150028Y-130855000D01*
X97150012Y-130855001D01*
X97047302Y-130865494D01*
X96880880Y-130920641D01*
X96880875Y-130920643D01*
X96731654Y-131012684D01*
X96607684Y-131136654D01*
X96515643Y-131285875D01*
X96515641Y-131285880D01*
X96460494Y-131452302D01*
X96460493Y-131452309D01*
X96450000Y-131555013D01*
X95514978Y-131555013D01*
X95516339Y-124797100D01*
X95516343Y-124785095D01*
X95516350Y-124785082D01*
X95516350Y-124769969D01*
X95526605Y-124735095D01*
X95536035Y-124702982D01*
X95536053Y-124702965D01*
X95536062Y-124702938D01*
X95564562Y-124678263D01*
X95588839Y-124657227D01*
X95588866Y-124657221D01*
X95588885Y-124657205D01*
X95589066Y-124657179D01*
X95641854Y-124646030D01*
X95957203Y-124649860D01*
X95963950Y-124650566D01*
X96011083Y-124650549D01*
X96011083Y-124650550D01*
X96013878Y-124650549D01*
X96048494Y-124650970D01*
X96049558Y-124650543D01*
X96050844Y-124650542D01*
X96067476Y-124650541D01*
X96177429Y-124625428D01*
X96192255Y-124618286D01*
X99072100Y-124618286D01*
X99072100Y-125481713D01*
X99087041Y-125576050D01*
X99087042Y-125576053D01*
X99087043Y-125576055D01*
X99144984Y-125689771D01*
X99144985Y-125689772D01*
X99144988Y-125689776D01*
X99235223Y-125780011D01*
X99235227Y-125780014D01*
X99235229Y-125780016D01*
X99348945Y-125837957D01*
X99348947Y-125837957D01*
X99348949Y-125837958D01*
X99443287Y-125852900D01*
X99443292Y-125852900D01*
X100756713Y-125852900D01*
X100851050Y-125837958D01*
X100851050Y-125837957D01*
X100851055Y-125837957D01*
X100964771Y-125780016D01*
X101055016Y-125689771D01*
X101112957Y-125576055D01*
X101116662Y-125552663D01*
X101127900Y-125481713D01*
X101127900Y-125426900D01*
X101147585Y-125359861D01*
X101200389Y-125314106D01*
X101251900Y-125302900D01*
X102161041Y-125302900D01*
X102228080Y-125322585D01*
X102248722Y-125339219D01*
X102321913Y-125412410D01*
X102425187Y-125472036D01*
X102540375Y-125502900D01*
X102540377Y-125502900D01*
X102659623Y-125502900D01*
X102659625Y-125502900D01*
X102774813Y-125472036D01*
X102878087Y-125412410D01*
X102962410Y-125328087D01*
X103022036Y-125224813D01*
X103052900Y-125109625D01*
X103052900Y-124990375D01*
X103022036Y-124875187D01*
X102962410Y-124771913D01*
X102878087Y-124687590D01*
X102814660Y-124650970D01*
X102774814Y-124627964D01*
X102716301Y-124612286D01*
X102659625Y-124597100D01*
X102540375Y-124597100D01*
X102425185Y-124627964D01*
X102321913Y-124687590D01*
X102321910Y-124687592D01*
X102248722Y-124760781D01*
X102187399Y-124794266D01*
X102161041Y-124797100D01*
X101251900Y-124797100D01*
X101184861Y-124777415D01*
X101139106Y-124724611D01*
X101127900Y-124673100D01*
X101127900Y-124618286D01*
X101112958Y-124523949D01*
X101112957Y-124523947D01*
X101112957Y-124523945D01*
X101055016Y-124410229D01*
X101055014Y-124410227D01*
X101055011Y-124410223D01*
X100964776Y-124319988D01*
X100964772Y-124319985D01*
X100964771Y-124319984D01*
X100851055Y-124262043D01*
X100851053Y-124262042D01*
X100851050Y-124262041D01*
X100756713Y-124247100D01*
X100756708Y-124247100D01*
X99443292Y-124247100D01*
X99443287Y-124247100D01*
X99348949Y-124262041D01*
X99235227Y-124319985D01*
X99235223Y-124319988D01*
X99144988Y-124410223D01*
X99144985Y-124410227D01*
X99087041Y-124523949D01*
X99072100Y-124618286D01*
X96192255Y-124618286D01*
X96204712Y-124612286D01*
X96258526Y-124600000D01*
X96300000Y-124600000D01*
X96400000Y-124500000D01*
X96400000Y-124474510D01*
X96417249Y-124445324D01*
X96419007Y-124443681D01*
X96419685Y-124441374D01*
X96427038Y-124431119D01*
X96437525Y-124417968D01*
X96486456Y-124316350D01*
X96486460Y-124316335D01*
X96504746Y-124236207D01*
X96511550Y-124206392D01*
X96511550Y-124150000D01*
X96511550Y-124110118D01*
X96511550Y-121274500D01*
X96531235Y-121207461D01*
X96584039Y-121161706D01*
X96635550Y-121150500D01*
X99024021Y-121150500D01*
X99091060Y-121170185D01*
G37*
%TD.AperFunction*%
%TA.AperFunction,Conductor*%
G36*
X120053589Y-121170185D02*
G01*
X120099344Y-121222989D01*
X120110550Y-121274500D01*
X120110550Y-124201873D01*
X120110599Y-124202368D01*
X120110599Y-124206387D01*
X120135691Y-124316334D01*
X120148655Y-124343257D01*
X120187638Y-124424216D01*
X120184826Y-124425569D01*
X120200000Y-124478147D01*
X120200000Y-124500000D01*
X120300000Y-124600000D01*
X120363688Y-124600000D01*
X120394829Y-124603974D01*
X120406574Y-124607021D01*
X120444687Y-124625381D01*
X120554630Y-124650491D01*
X120571152Y-124650493D01*
X120571168Y-124650500D01*
X120611016Y-124650500D01*
X120611024Y-124650500D01*
X120650899Y-124650507D01*
X120650901Y-124650506D01*
X120662983Y-124650508D01*
X120663076Y-124650500D01*
X120986550Y-124650500D01*
X121053589Y-124670185D01*
X121099344Y-124722989D01*
X121110550Y-124774500D01*
X121110550Y-139955782D01*
X121090865Y-140022821D01*
X121038061Y-140068576D01*
X120968903Y-140078520D01*
X120905347Y-140049495D01*
X120868619Y-139994100D01*
X120868480Y-139993671D01*
X120851557Y-139941588D01*
X120755051Y-139752184D01*
X120755049Y-139752181D01*
X120755048Y-139752179D01*
X120630109Y-139580213D01*
X120479786Y-139429890D01*
X120307820Y-139304951D01*
X120118414Y-139208444D01*
X120118413Y-139208443D01*
X120118412Y-139208443D01*
X119916243Y-139142754D01*
X119916241Y-139142753D01*
X119916240Y-139142753D01*
X119754957Y-139117208D01*
X119706287Y-139109500D01*
X119493713Y-139109500D01*
X119445042Y-139117208D01*
X119283760Y-139142753D01*
X119081585Y-139208444D01*
X118892179Y-139304951D01*
X118720213Y-139429890D01*
X118569890Y-139580213D01*
X118444951Y-139752179D01*
X118348444Y-139941585D01*
X118282753Y-140143760D01*
X118249500Y-140353713D01*
X118249500Y-140566287D01*
X118282754Y-140776243D01*
X118347877Y-140976671D01*
X118348444Y-140978414D01*
X118444951Y-141167820D01*
X118569890Y-141339786D01*
X118720213Y-141490109D01*
X118892179Y-141615048D01*
X118892181Y-141615049D01*
X118892184Y-141615051D01*
X119081588Y-141711557D01*
X119283757Y-141777246D01*
X119493713Y-141810500D01*
X119493714Y-141810500D01*
X119706286Y-141810500D01*
X119706287Y-141810500D01*
X119916243Y-141777246D01*
X120118412Y-141711557D01*
X120307816Y-141615051D01*
X120329789Y-141599086D01*
X120479786Y-141490109D01*
X120479788Y-141490106D01*
X120479792Y-141490104D01*
X120630104Y-141339792D01*
X120630106Y-141339788D01*
X120630109Y-141339786D01*
X120755048Y-141167820D01*
X120755049Y-141167819D01*
X120755051Y-141167816D01*
X120851557Y-140978412D01*
X120868620Y-140925897D01*
X120908056Y-140868224D01*
X120972415Y-140841025D01*
X121041261Y-140852939D01*
X121092737Y-140900183D01*
X121110550Y-140964217D01*
X121110550Y-148565500D01*
X121090865Y-148632539D01*
X121038061Y-148678294D01*
X120986550Y-148689500D01*
X117274500Y-148689500D01*
X117207461Y-148669815D01*
X117161706Y-148617011D01*
X117150500Y-148565500D01*
X117150500Y-138550119D01*
X117150499Y-138550116D01*
X117119976Y-138476426D01*
X117063574Y-138420024D01*
X116989883Y-138389500D01*
X116989882Y-138389500D01*
X115374500Y-138389500D01*
X115307461Y-138369815D01*
X115261706Y-138317011D01*
X115250500Y-138265500D01*
X115250500Y-136816471D01*
X115270185Y-136749432D01*
X115322989Y-136703677D01*
X115378851Y-136694371D01*
X115378851Y-136692900D01*
X115384942Y-136692899D01*
X115384943Y-136692900D01*
X116515056Y-136692899D01*
X116559658Y-136684028D01*
X116610234Y-136650234D01*
X116644028Y-136599658D01*
X116652900Y-136555057D01*
X116652899Y-134024944D01*
X116644028Y-133980342D01*
X116644026Y-133980340D01*
X116644026Y-133980338D01*
X116610234Y-133929766D01*
X116559659Y-133895973D01*
X116559658Y-133895972D01*
X116559657Y-133895971D01*
X116559656Y-133895971D01*
X116559654Y-133895970D01*
X116515052Y-133887098D01*
X116514742Y-133887068D01*
X116514590Y-133887006D01*
X116509082Y-133885911D01*
X116509289Y-133884866D01*
X116449955Y-133860906D01*
X116409598Y-133803870D01*
X116402900Y-133763666D01*
X116402900Y-133150377D01*
X116402900Y-133150375D01*
X116372036Y-133035187D01*
X116312410Y-132931913D01*
X116228087Y-132847590D01*
X116176450Y-132817777D01*
X116124814Y-132787964D01*
X116067219Y-132772532D01*
X116009625Y-132757100D01*
X115890375Y-132757100D01*
X115775185Y-132787964D01*
X115671913Y-132847590D01*
X115671910Y-132847592D01*
X115587592Y-132931910D01*
X115587590Y-132931913D01*
X115527964Y-133035185D01*
X115508352Y-133108380D01*
X115498811Y-133143992D01*
X115494997Y-133158225D01*
X115493058Y-133157705D01*
X115469170Y-133211699D01*
X115410845Y-133250169D01*
X115340980Y-133250999D01*
X115281758Y-133213925D01*
X115251980Y-133150718D01*
X115250500Y-133131615D01*
X115250500Y-129829691D01*
X115270185Y-129762652D01*
X115322989Y-129716897D01*
X115392147Y-129706953D01*
X115455703Y-129735978D01*
X115462181Y-129742010D01*
X115518206Y-129798035D01*
X115518210Y-129798038D01*
X115680531Y-129906498D01*
X115680544Y-129906505D01*
X115860902Y-129981211D01*
X115860907Y-129981213D01*
X116052380Y-130019299D01*
X116052384Y-130019300D01*
X116052385Y-130019300D01*
X116247616Y-130019300D01*
X116247617Y-130019299D01*
X116439093Y-129981213D01*
X116619462Y-129906502D01*
X116781790Y-129798038D01*
X116919838Y-129659990D01*
X117028302Y-129497662D01*
X117103013Y-129317293D01*
X117141100Y-129125815D01*
X117141100Y-127254185D01*
X117103013Y-127062707D01*
X117098227Y-127051153D01*
X117028305Y-126882344D01*
X117028298Y-126882331D01*
X116919838Y-126720010D01*
X116919835Y-126720006D01*
X116781793Y-126581964D01*
X116781789Y-126581961D01*
X116619468Y-126473501D01*
X116619455Y-126473494D01*
X116439097Y-126398788D01*
X116439085Y-126398785D01*
X116247619Y-126360700D01*
X116247615Y-126360700D01*
X116052385Y-126360700D01*
X116052380Y-126360700D01*
X115860914Y-126398785D01*
X115860902Y-126398788D01*
X115680544Y-126473494D01*
X115680531Y-126473501D01*
X115518210Y-126581961D01*
X115518206Y-126581964D01*
X115380164Y-126720006D01*
X115380161Y-126720010D01*
X115271701Y-126882331D01*
X115271694Y-126882344D01*
X115196988Y-127062702D01*
X115196985Y-127062714D01*
X115158900Y-127254180D01*
X115158900Y-128289561D01*
X115139215Y-128356600D01*
X115086411Y-128402355D01*
X115017253Y-128412299D01*
X115002807Y-128409336D01*
X114972651Y-128401255D01*
X114928777Y-128389500D01*
X114928776Y-128389500D01*
X113043600Y-128389500D01*
X112976561Y-128369815D01*
X112930806Y-128317011D01*
X112920862Y-128247853D01*
X112940498Y-128196609D01*
X112951421Y-128180260D01*
X113011521Y-128090316D01*
X113072045Y-127944197D01*
X113102900Y-127789079D01*
X113102900Y-127630921D01*
X113102900Y-127630918D01*
X113102899Y-127630916D01*
X113072047Y-127475810D01*
X113072044Y-127475801D01*
X113011524Y-127329690D01*
X113011517Y-127329677D01*
X112923653Y-127198181D01*
X112923650Y-127198177D01*
X112811822Y-127086349D01*
X112766206Y-127055869D01*
X112721402Y-127002256D01*
X112712695Y-126932931D01*
X112734780Y-126879881D01*
X112783567Y-126812731D01*
X112865747Y-126651447D01*
X112865748Y-126651444D01*
X112921682Y-126479293D01*
X112950000Y-126300506D01*
X112950000Y-126119493D01*
X112921682Y-125940706D01*
X112865748Y-125768555D01*
X112865747Y-125768552D01*
X112783571Y-125607275D01*
X112783566Y-125607267D01*
X112772085Y-125591466D01*
X112150000Y-126213551D01*
X112150000Y-126163922D01*
X112126148Y-126074905D01*
X112080070Y-125995095D01*
X112014905Y-125929930D01*
X111935095Y-125883852D01*
X111846078Y-125860000D01*
X111753922Y-125860000D01*
X111664905Y-125883852D01*
X111585095Y-125929930D01*
X111519930Y-125995095D01*
X111473852Y-126074905D01*
X111450000Y-126163922D01*
X111450000Y-126213553D01*
X110827913Y-125591466D01*
X110827912Y-125591466D01*
X110816432Y-125607269D01*
X110734254Y-125768547D01*
X110734251Y-125768555D01*
X110678317Y-125940706D01*
X110650000Y-126119493D01*
X110650000Y-126300506D01*
X110678317Y-126479293D01*
X110734251Y-126651444D01*
X110734252Y-126651447D01*
X110818644Y-126817072D01*
X110817461Y-126817674D01*
X110834125Y-126879278D01*
X110813008Y-126945881D01*
X110759235Y-126990493D01*
X110689880Y-126998952D01*
X110662701Y-126991182D01*
X110534198Y-126937955D01*
X110534189Y-126937952D01*
X110379082Y-126907100D01*
X110379079Y-126907100D01*
X110220921Y-126907100D01*
X110220918Y-126907100D01*
X110065810Y-126937952D01*
X110065802Y-126937955D01*
X110030105Y-126952741D01*
X109960636Y-126960208D01*
X109898157Y-126928932D01*
X109862506Y-126868843D01*
X109865001Y-126799018D01*
X109894973Y-126750498D01*
X109923653Y-126721819D01*
X110011521Y-126590316D01*
X110014981Y-126581964D01*
X110053044Y-126490070D01*
X110072045Y-126444197D01*
X110075883Y-126424905D01*
X110102899Y-126289083D01*
X110102900Y-126289081D01*
X110102900Y-126130918D01*
X110102899Y-126130916D01*
X110072047Y-125975810D01*
X110072044Y-125975801D01*
X110011524Y-125829690D01*
X110011517Y-125829677D01*
X109923653Y-125698181D01*
X109923650Y-125698177D01*
X109811822Y-125586349D01*
X109811818Y-125586346D01*
X109680322Y-125498482D01*
X109680309Y-125498475D01*
X109534198Y-125437955D01*
X109534189Y-125437952D01*
X109379082Y-125407100D01*
X109379079Y-125407100D01*
X109220921Y-125407100D01*
X109220918Y-125407100D01*
X109065810Y-125437952D01*
X109065806Y-125437954D01*
X109065804Y-125437954D01*
X109065803Y-125437955D01*
X109031671Y-125452092D01*
X109014932Y-125459026D01*
X108995056Y-125461162D01*
X108976326Y-125468148D01*
X108961027Y-125464819D01*
X108945462Y-125466493D01*
X108927588Y-125457545D01*
X108908053Y-125453296D01*
X108885758Y-125436606D01*
X108882983Y-125435217D01*
X108879799Y-125432145D01*
X108854754Y-125407100D01*
X108814218Y-125366563D01*
X108780734Y-125305239D01*
X108777900Y-125278882D01*
X108777900Y-125237912D01*
X111181466Y-125237912D01*
X111181466Y-125237913D01*
X111800000Y-125856446D01*
X111800001Y-125856446D01*
X112418533Y-125237913D01*
X112402730Y-125226431D01*
X112241447Y-125144252D01*
X112241444Y-125144251D01*
X112069293Y-125088317D01*
X111890506Y-125060000D01*
X111709494Y-125060000D01*
X111530706Y-125088317D01*
X111358555Y-125144251D01*
X111358547Y-125144254D01*
X111197269Y-125226432D01*
X111181466Y-125237912D01*
X108777900Y-125237912D01*
X108777900Y-123929303D01*
X108797585Y-123862264D01*
X108850389Y-123816509D01*
X108919547Y-123806565D01*
X108983103Y-123835590D01*
X109001167Y-123854992D01*
X109002813Y-123857190D01*
X109117906Y-123943350D01*
X109117913Y-123943354D01*
X109252620Y-123993596D01*
X109252627Y-123993598D01*
X109312155Y-123999999D01*
X109312172Y-124000000D01*
X109360000Y-124000000D01*
X109360000Y-123633233D01*
X109362550Y-123624547D01*
X109361262Y-123615587D01*
X109378030Y-123571827D01*
X109379685Y-123566194D01*
X109380440Y-123565539D01*
X109380900Y-123564340D01*
X109384028Y-123559658D01*
X109384028Y-123559656D01*
X109392900Y-123515057D01*
X109392899Y-123123997D01*
X109395449Y-123115313D01*
X109394161Y-123106353D01*
X109405138Y-123082316D01*
X109412583Y-123056961D01*
X109419425Y-123051032D01*
X109423186Y-123042797D01*
X109445417Y-123028510D01*
X109465387Y-123011206D01*
X109475902Y-123008918D01*
X109481964Y-123005023D01*
X109516899Y-123000000D01*
X109583101Y-123000000D01*
X109650140Y-123019685D01*
X109695895Y-123072489D01*
X109707100Y-123123998D01*
X109707101Y-123515056D01*
X109715972Y-123559656D01*
X109715972Y-123559657D01*
X109715972Y-123559659D01*
X109719100Y-123564339D01*
X109722137Y-123574037D01*
X109728794Y-123581720D01*
X109732402Y-123606819D01*
X109739980Y-123631015D01*
X109740000Y-123633232D01*
X109740000Y-124000000D01*
X109787828Y-124000000D01*
X109787844Y-123999999D01*
X109847372Y-123993598D01*
X109847379Y-123993596D01*
X109982086Y-123943354D01*
X109982093Y-123943350D01*
X110097187Y-123857190D01*
X110097190Y-123857187D01*
X110183350Y-123742093D01*
X110188602Y-123728012D01*
X110230472Y-123672077D01*
X110295935Y-123647657D01*
X110328981Y-123649724D01*
X110344943Y-123652900D01*
X110755056Y-123652899D01*
X110775806Y-123648772D01*
X110824189Y-123648772D01*
X110834136Y-123650750D01*
X110844943Y-123652900D01*
X111123883Y-123652899D01*
X111190922Y-123672583D01*
X111211564Y-123689218D01*
X111505599Y-123983253D01*
X111505601Y-123983257D01*
X111576743Y-124054399D01*
X111631193Y-124076952D01*
X111669695Y-124092901D01*
X111669697Y-124092901D01*
X111784739Y-124092901D01*
X111784747Y-124092900D01*
X113699693Y-124092900D01*
X113699695Y-124092901D01*
X113800305Y-124092901D01*
X113838806Y-124076952D01*
X113893257Y-124054399D01*
X113964399Y-123983257D01*
X113964399Y-123983254D01*
X113976312Y-123971342D01*
X113976316Y-123971336D01*
X114125813Y-123821839D01*
X114125820Y-123821835D01*
X114143256Y-123804399D01*
X114143257Y-123804399D01*
X114214399Y-123733257D01*
X114233649Y-123686781D01*
X114252901Y-123640305D01*
X114252901Y-123539695D01*
X114252900Y-123539692D01*
X114252900Y-122986899D01*
X114272585Y-122919860D01*
X114325389Y-122874105D01*
X114376900Y-122862899D01*
X114765055Y-122862899D01*
X114765056Y-122862899D01*
X114809658Y-122854028D01*
X114860234Y-122820234D01*
X114894028Y-122769658D01*
X114902900Y-122725057D01*
X114902899Y-121274499D01*
X114922584Y-121207461D01*
X114975387Y-121161706D01*
X115026899Y-121150500D01*
X119986550Y-121150500D01*
X120053589Y-121170185D01*
G37*
%TD.AperFunction*%
%TD*%
M02*
