%TF.GenerationSoftware,KiCad,Pcbnew,9.0.7*%
%TF.CreationDate,2026-02-26T13:16:19-05:00*%
%TF.ProjectId,Mouse Dongle Card,4d6f7573-6520-4446-9f6e-676c65204361,X1*%
%TF.SameCoordinates,Original*%
%TF.FileFunction,Legend,Top*%
%TF.FilePolarity,Positive*%
%FSLAX46Y46*%
G04 Gerber Fmt 4.6, Leading zero omitted, Abs format (unit mm)*
G04 Created by KiCad (PCBNEW 9.0.7) date 2026-02-26 13:16:19*
%MOMM*%
%LPD*%
G01*
G04 APERTURE LIST*
%ADD10C,0.150000*%
%ADD11C,0.120000*%
%ADD12C,0.200000*%
%ADD13C,0.400000*%
G04 APERTURE END LIST*
D10*
X100083333Y-132359580D02*
X100035714Y-132407200D01*
X100035714Y-132407200D02*
X99892857Y-132454819D01*
X99892857Y-132454819D02*
X99797619Y-132454819D01*
X99797619Y-132454819D02*
X99654762Y-132407200D01*
X99654762Y-132407200D02*
X99559524Y-132311961D01*
X99559524Y-132311961D02*
X99511905Y-132216723D01*
X99511905Y-132216723D02*
X99464286Y-132026247D01*
X99464286Y-132026247D02*
X99464286Y-131883390D01*
X99464286Y-131883390D02*
X99511905Y-131692914D01*
X99511905Y-131692914D02*
X99559524Y-131597676D01*
X99559524Y-131597676D02*
X99654762Y-131502438D01*
X99654762Y-131502438D02*
X99797619Y-131454819D01*
X99797619Y-131454819D02*
X99892857Y-131454819D01*
X99892857Y-131454819D02*
X100035714Y-131502438D01*
X100035714Y-131502438D02*
X100083333Y-131550057D01*
X101035714Y-132454819D02*
X100464286Y-132454819D01*
X100750000Y-132454819D02*
X100750000Y-131454819D01*
X100750000Y-131454819D02*
X100654762Y-131597676D01*
X100654762Y-131597676D02*
X100559524Y-131692914D01*
X100559524Y-131692914D02*
X100464286Y-131740533D01*
X115826666Y-125044819D02*
X115826666Y-125759104D01*
X115826666Y-125759104D02*
X115779047Y-125901961D01*
X115779047Y-125901961D02*
X115683809Y-125997200D01*
X115683809Y-125997200D02*
X115540952Y-126044819D01*
X115540952Y-126044819D02*
X115445714Y-126044819D01*
X116826666Y-126044819D02*
X116255238Y-126044819D01*
X116540952Y-126044819D02*
X116540952Y-125044819D01*
X116540952Y-125044819D02*
X116445714Y-125187676D01*
X116445714Y-125187676D02*
X116350476Y-125282914D01*
X116350476Y-125282914D02*
X116255238Y-125330533D01*
X97833333Y-123954819D02*
X97500000Y-123478628D01*
X97261905Y-123954819D02*
X97261905Y-122954819D01*
X97261905Y-122954819D02*
X97642857Y-122954819D01*
X97642857Y-122954819D02*
X97738095Y-123002438D01*
X97738095Y-123002438D02*
X97785714Y-123050057D01*
X97785714Y-123050057D02*
X97833333Y-123145295D01*
X97833333Y-123145295D02*
X97833333Y-123288152D01*
X97833333Y-123288152D02*
X97785714Y-123383390D01*
X97785714Y-123383390D02*
X97738095Y-123431009D01*
X97738095Y-123431009D02*
X97642857Y-123478628D01*
X97642857Y-123478628D02*
X97261905Y-123478628D01*
X98214286Y-123050057D02*
X98261905Y-123002438D01*
X98261905Y-123002438D02*
X98357143Y-122954819D01*
X98357143Y-122954819D02*
X98595238Y-122954819D01*
X98595238Y-122954819D02*
X98690476Y-123002438D01*
X98690476Y-123002438D02*
X98738095Y-123050057D01*
X98738095Y-123050057D02*
X98785714Y-123145295D01*
X98785714Y-123145295D02*
X98785714Y-123240533D01*
X98785714Y-123240533D02*
X98738095Y-123383390D01*
X98738095Y-123383390D02*
X98166667Y-123954819D01*
X98166667Y-123954819D02*
X98785714Y-123954819D01*
X112851905Y-124544819D02*
X112851905Y-123544819D01*
X112851905Y-123544819D02*
X113232857Y-123544819D01*
X113232857Y-123544819D02*
X113328095Y-123592438D01*
X113328095Y-123592438D02*
X113375714Y-123640057D01*
X113375714Y-123640057D02*
X113423333Y-123735295D01*
X113423333Y-123735295D02*
X113423333Y-123878152D01*
X113423333Y-123878152D02*
X113375714Y-123973390D01*
X113375714Y-123973390D02*
X113328095Y-124021009D01*
X113328095Y-124021009D02*
X113232857Y-124068628D01*
X113232857Y-124068628D02*
X112851905Y-124068628D01*
X114375714Y-124544819D02*
X113804286Y-124544819D01*
X114090000Y-124544819D02*
X114090000Y-123544819D01*
X114090000Y-123544819D02*
X113994762Y-123687676D01*
X113994762Y-123687676D02*
X113899524Y-123782914D01*
X113899524Y-123782914D02*
X113804286Y-123830533D01*
D11*
%TO.C,GP1*%
X101650000Y-121010000D02*
X103550000Y-121010000D01*
X101650000Y-122910000D02*
X101650000Y-121010000D01*
X103550000Y-121010000D02*
X103550000Y-122910000D01*
X103550000Y-122910000D02*
X101650000Y-122910000D01*
%TO.C,GP3*%
X113050000Y-121010000D02*
X114950000Y-121010000D01*
X113050000Y-122910000D02*
X113050000Y-121010000D01*
X114950000Y-121010000D02*
X114950000Y-122910000D01*
X114950000Y-122910000D02*
X113050000Y-122910000D01*
%TO.C,C1*%
X96940000Y-132868748D02*
X96940000Y-134291252D01*
X98760000Y-132868748D02*
X98760000Y-134291252D01*
D12*
%TO.C,J1*%
X101650000Y-125150000D02*
X114950000Y-125150000D01*
X101650000Y-128290000D02*
X101650000Y-125150000D01*
X114950000Y-125150000D02*
X114950000Y-128290000D01*
D13*
X113500000Y-126210000D02*
G75*
G02*
X113100000Y-126210000I-200000J0D01*
G01*
X113100000Y-126210000D02*
G75*
G02*
X113500000Y-126210000I200000J0D01*
G01*
D11*
%TO.C,R2*%
X99190000Y-124227064D02*
X99190000Y-122772936D01*
X101010000Y-124227064D02*
X101010000Y-122772936D01*
%TD*%
M02*
